<?xml version="1.0" encoding="utf-8"?>
<!-- Generator: Adobe Illustrator 19.2.1, SVG Export Plug-In . SVG Version: 6.00 Build 0)  -->
<svg id="lines1" version="1.1" id="Layer_1" xmlns="http://www.w3.org/2000/svg" xmlns:xlink="http://www.w3.org/1999/xlink" x="0px" y="0px"
	 viewBox="0 0 1280 800" style="enable-background:new 0 0 1280 800;" xml:space="preserve">

    <animate attributeName="points" dur="500ms" to=" ... shape 2 points ... " />

<g id="lines">

	<path class="st0" d="M1446.5-15h-336.2H931.7H763.3H430.5h-84.8h-90.9h-93.7H27.3H-122l0,0v81l0,0c0,0,105,0,205.2,0
		c160.2,0,320.3,0,480.5,0c247.5,0,635.4,0,882.9,0C1444.2,50,1446.5-15,1446.5-15z"/>
	<path class="st1" d="M1122,45h-97.7h-63.8H940H829.3h-60.5h-70.4h-268h-84.8h-48.8h-42.1h-47.3H161H88.5H27.3H13.2h-69.5H-122l0,0
		v89l0,0c0,0,109.1,0,205.2,0c10.4,0,20.6,0,30.6,0c150,0,299.9,0,449.9,0c103.7,0,222.1,0,343.6,0c102.2,0,206.5,0,306.4,0
		c58.5,0,185.2,1.1,232.9-0.1c4-14,0-82.4,0-88.6c-12.9,0.4-325-0.3-325-0.3"/>
	<path class="st2" d="M1133,106h-99.1H969h-20.8H835.7h-61.5h-71.6H430.1h-84.8h-48.7h-42.1h-47.2h-46.4H88.5H27.2H13.1h-69.5H-122
		l0,0v96l0,0c0,0,113.2,0,205.2,0c10.5,0,20.8,0,30.6,0c150,0,299.9,0,449.9,0c109.1,0,225.6,0,343.6,0c102.2,0,205.4,0,306.4,0
		c32.6,0,206.3,2.3,232.8-0.2c10.3-12.6,0-83.4,0-95.8c-25.8,0.8-313.7,0-313.7,0"/>
	<path class="st3" d="M1144,166h-100.5h-65.9H842.1H706.8H430H296.5h-89.3H88.4H13.1h-69.5H-122l0,0v104l0,0c0,0,147.7,0,235.8,0
		c264.5,0,529,0,793.5,0c102.1,0,204.3,0,306.4,0c6.7,0,227.4,3.4,232.8-0.2c16.6-11.1,0-84.8,0-103.5
		C1407.8,167.5,1144,166,1144,166"/>
	<path class="st4" d="M1119,237h-96.9h-63.5H853.5h-25.4H697.8h-20.7H431.1H297.4h-89.5h-89.4H88.8H13.4h-69.6H-122l0,0v107l0,0
		c0,0,177,0,235.8,0c176.3,0,617.2,0,793.5,0c68.1,0,238.3,0,306.4,0c4.5,0,229.3,2.3,232.9-0.1c11-7.4,0-94.5,0-107
		c-25.8,0.8-327.6,0.1-327.6,0.1"/>
	<path class="st5" d="M1094,307h-93.4h-61H838.5h-24.4H688.7h-19.9H432.3H298.2h-89.7H119H89.3H13.6h-69.7H-122l0,0v111l0,0
		c0,0,206.4,0,235.7,0c88.2,0,705.3,0,793.5,0c34,0,272.3,0,306.4,0c2.2,0,231.1,1.1,232.9-0.1c5.5-3.7,0-104.8,0-111
		c-12.9,0.4-352.8,0.1-352.8,0.1"/>
	<polygon class="st6" points="1446,377 1068.6,377 823.5,377 660.6,377 433.5,377 119.5,377 -122,377 -122,492 1446,492 	"/>
	<polygon class="st7" points="-122,449 -122,449 -122,449 -122,557 1446,557 1446,449 1081.2,449 1013.1,449 844.3,449 813.3,449 
		686.8,449 678,449 467.3,449 282.6,449 134.2,449 123,449 4.5,449 	"/>
	<polygon class="st8" points="-122,522 -122,522 -122,522 -122,623 1446,623 1446,522 1093.8,522 1028,522 865.1,522 835.1,522 
		713.1,522 704.5,522 501.2,522 305.8,522 148.9,522 137,522 11.8,522 	"/>
	<polygon class="st9" points="1446,594 1043,594 857,594 731.1,594 535,594 329,594 151,594 19,594 -122,594 -122,594 -122,594 
		-122,688 1446,688 	"/>
	<path class="st10" d="M-122,642L-122,642L-122,642v85h30.4H138h784c0,0,463.3,0,524.4,0c-2.9-8,0-85,0-85h-157.3h-115.1h-61h-89.8
		h-35.4h-118h-41.7h-38.4h-93.7h-4.7H590.8H490.4H315.6h-17.2H181.5h-49H74.2H9.5H-122z"/>
	<path class="st11" d="M-122,691L-122,691L-122,691v75h30.4H138h784c0,0,402.1,0,524.4,0c-5.8-15,0-75,0-75h-164.7h-120.5h-63.8h-94
		h-37.1H842.9h-43.6h-40.2H661h-4.9H550.8H445.8H283.7h-15.9H159.4H114H60H-0.1H-122z"/>
	<path class="st12" d="M1446.5,739h-172h-125.9h-66.7H945H816h-87.6H620.8H510.9H401.2H251.9H137.4H45.7H-122v66h30.5h229.6h784
		c0,0,341,0,524.4,0C1437.8,782,1446.5,739,1446.5,739z"/>
	<circle fill="#F9FF5E" cx="640" cy="1063" r="204.7"/>
</g>

<g>
	<path class="st0" d="M1446.5,434.2c0,0-245-212.5-336.2-256.9c-76.7-37.3-120.7,35.6-178.6,83c-97.7,80.2-95-127.7-168.4-197.2
		C692.6-3.9,640,90.7,589.7,195.4C539.5,300.1,491.7,414.8,430.5,388c-32.1-14-54.5-72-84.8-92.8c-26.8-18.5-69.3-16.9-90.9-38.3
		c-45.1-44.8-32-100.3-93.7-100.3c-42.6,0-82.7,113.8-134,160.6C-22.2,362-122,404.6-122,404.6v44V528l0,0c0,0,105,0,205.2,0
		c160.2,0,320.3,0,480.5,0c123.7,0,282.6,0,441.4,0s317.7,0,441.4,0C1444.2,513,1446.5,434.2,1446.5,434.2z"/>
	<path class="st1" d="M1121.5,267.4c-53.8-17.8-80.3-34.6-120.9-21.8c-19.5,6.2-35,21.5-53.6,34.9c-42.9,30.7-73.3-13-105.8-44.9
		c-17.9-17.6-30.7-23.3-44.9-29c-12.8-5.1-26.1-11.1-45.5-17.3c-4.8-1.5-9.7-3.2-14.9-5c-100.2-33.8-153.5-3.1-199.5,58.5
		C492.4,301.7,449.1,357.4,399,358c-5.7,0.1-11.3-0.9-17-2.6c-30.9-9.5-50.6-41.2-77.5-50.8c-6.9-2.5-14.8-4-23.3-5.3
		c-19-2.8-40.4-3.5-54.7-12.8c-40.1-26.1-40.7-64.8-89.7-61.3c-24.9,1.7-41.8,16.8-62.1,45.6c-17.6,25.1-25.9,42.7-50.9,57.6
		c-19.6,11.6-37.6,22.2-46.2,30c-4.2,3.9-9.3,12.5-14.4,16.3C-71.4,400-122,447.3-122,447.3v37.1V551l0,0c0,0,109.1,0,205.2,0
		c10.4,0,20.6,0,30.6,0c132.3,0,264.5,0,396.8,0c17.7,0,35.4,0,53.1,0c103.7,0,222.1,0,343.6,0c32.5,0,65.1,0,97.8,0
		c70.2,0,140.4,0,208.6,0c58.5,0,187,0,232.8,0c-1.6-10,0-76.4,0-90c0-10.3-16.7-34.8-41.5-59.2
		C1339.6,358.3,1175.8,287,1121.5,267.4"/>
	<path class="st2" d="M1132.8,357.6c-52.9-8.9-70.9-76.3-110.7-82.6c-25-4-39,13-59.8,25.8c-38.3,23.6-75.1-36.9-120.6-53.2
		c-24-8.6-38.4,11.8-55.2,32.6c-12.9,15.9-27.6,31.3-48,35.4c-5.4,1.1-11,1.3-17.1,0.5c-137.9-18.5-194-50.6-238.2-25.8
		c-44.2,24.8-87.3,35.2-135.5,34c-4.9-0.1-9.7-0.7-14.3-1.4c-30-4.5-46.1-10.8-70.2-8.8c-5.7,0.5-12.1,1.1-19,1.9
		c-14.9,1.5-32,3.7-45.9,0.3c-33.7-8.2-49.3-27.1-85.6-22.4c-31.3,4.1-47.1,11.8-68.7,41.2c-22,29.9-24.5,41.7-60.2,49.6
		c-27.3,6.1-51.4,11.1-55.6,15c-2.1,1.9-4.8,13.5-7.3,15.4c-17.4,12.7-42.8,74.9-42.8,74.9v30.2V574l0,0c0,0,113.2,0,205.2,0
		c10.6,0,20.8,0,30.6,0c132.3,0,264.5,0,396.8,0c17.7,0,35.4,0,53.1,0c109.1,0,225.6,0,343.6,0c32.5,0,65.2,0,97.8,0
		c69.9,0,139.7,0,208.6,0c32.6,0,209.9,0,232.8,0c-0.8-5,0-59,0-86.3c0-20.6-8.4-47.9-20.7-65.6
		C1373.7,401.3,1179.2,366.5,1132.8,357.6"/>
	<path class="st3" d="M1143.8,447.8c-51.9,0-59.3-120.7-100.4-143.5c-29.2-16.3-42.6,4.8-65.9,16.7c-33.4,17.1-77-61.5-135.5-61.5
		c-30.1,0-47.5,47.1-65.6,94.1s-36.8,94.1-69.7,94.1c-175.2,0-235.1-99.8-276.8-110.1c-44.9-11.1-87.3-44-133.5-47.3
		c-45-3.2-55.2,24.7-89.3,42.1c-32.5,16.6-82.9,22.5-118.8,30.1c-37.4,7.9-52.4,6.7-75.3,36.7c-26.4,34.7-23.4,40.9-69.7,41.7
		c-35.1,0.6-65.4,0-65.4,0v14.5V598l0,0c0,0,147.7,0,235.8,0c132.3,0,264.5,0,396.8,0s264.5,0,396.8,0c102.1,0,204.3,0,306.4,0
		c6.7,0,232.3,0,232.3,0s0-129.6,0-155.4C1408,444.4,1182.4,446.1,1143.8,447.8"/>
	<path class="st4" d="M1118.9,396.8c-44.1,0-61.1-69.2-99.2-78.2c-23.8-5.6-36,9.5-55.1,21.1c-30.9,18.8-68.1-27.6-113.9-20.1
		c-20.8,3.4-35.8,24.3-49,45.9c-22.5,36.9-40.6,72-76.2,61.9c-124.6-35-178.6-116.4-218.6-123.4c-40.9-7.2-80.5-10.2-124.7,2.3
		c-36.8,10.4-52.2,36.6-81.8,56.4c-17,11.3-36.1,19.5-55.6,22.5c-20.3,3.1-42.8,3.4-63.6,4.6c-34.2,2-54.7-1.1-79.9,16.5
		c-28.2,19.7-35.9,21.7-76.2,20.1c-31.9-1.3-59.8-3.1-66.3-3.1c-3.5,0-7.6,10.2-11.8,11.2c-28.6,7-69.1,98.7-69.1,98.7V602l0,0
		c0,0,177,0,235.8,0c176.3,0,617.2,0,793.5,0c68.1,0,238.3,0,306.4,0c4.5,0,232.3,0,232.3,0s0-72.6,0-102.2
		c0-17.3-7.6-38.3-19.4-52.2C1370.2,429.3,1162.9,395.6,1118.9,396.8"/>
	<path class="st5" d="M1093.7,345.8c-36.3,0-60.2-19.8-97.9-12.8c-16.9,3.2-29.3,14.5-44.2,25.5c-28.2,20.7-59.4,8.5-92.3,21.3
		c-19.4,7.6-34.1,23-46.7,33.8c-21.5,18.4-37.5,16.9-68.5-6.3c-72.9-54.6-122-133.1-160.4-136.8c-36.8-3.5-73.6,20.8-115.8,52
		c-28.7,21.2-48.7,49.4-74.2,70.7c-17.8,14.9-36.2,25.3-54.5,26.8c-19,1.6-41.7-0.7-65.1-2.7c-30.7-2.6-56.3-8.6-84.5-3.7
		c-29.3,5.1-48.7,2.4-83-1.6c-28.8-3.4-54.5-6.1-67.5-6.1c-7,0-15,6-23.3,8C-41.4,427.9-122,515.4-122,515.4V606l0,0
		c0,0,206.4,0,235.8,0c88.2,0,705.3,0,793.5,0c34,0,272.3,0,306.4,0c2.2,0,232.3,0,232.3,0s0-93.4,0-108.3c0-8.7-15.4-27-39.1-45.2
		C1332.7,414.3,1143.1,345.2,1093.7,345.8"/>
	<path class="st6" d="M1446,495.7c0,0-301.7-200.9-377.7-200.9S876.4,461.6,823.4,461.6s-103-224.6-162.9-224.6
		c-68.4,0-155.1,217.8-227.1,217.8s-231.2-66.4-314.2-66.4s-241.2,109-241.2,109V610h1568V495.7z"/>
	<path class="st7" d="M618.7,294.1c-40.7,0-89,82-153.5,129.6c-37,27.3-93,38.6-125.9,38.6c-32.7,0-81.7-45.5-129.6-54.6
		c-43.7-8.4-107.1,19.4-133.9,14.2c-7.8-1.5-15.2,12.3-22.1,11.6c-5.2-0.6-10.4,9-14.9,9c-55.3,0-160.9,143.3-160.9,143.3V691h1568
		V564.9c0,0-22.9-58.6-55.6-79C1327,446.3,1108.4,338,1059.9,338c-46.9,0-113.1,55-172.2,87.4c-35.5,19.4-60.8,39.8-80.7,43.7
		c-12.2,2.4-23.7-4.6-38.5-16C710.9,408.8,664.4,294.1,618.7,294.1z"/>
	<path class="st8" d="M576.9,351.1c-42.9,0-88.3,99-179.7,129.6c-35,11.7-117.5-10.9-152-10.9c-34.3,0-85.4-78.4-130.8-82.9
		C71.1,382.6-9.4,451.6-22.8,449c-3.9-0.8-7.6,28.7-11,28.3c-2.6-0.3-5.3,19.3-7.6,19.3c-27.7,0-80.6,177.6-80.6,177.6V771h1568
		V634.1c0,0-11.3-94-27.7-104.2c-31.7-19.8-320.2-148.7-366.9-148.7c-45.9,0-115,43.6-179.1,59.6c-39.4,9.8-61.7,27.9-81.9,35.7
		c-12.1,4.7-24.2,3.5-40.7-1.7C671.1,450,622.2,351.1,576.9,351.1z"/>
	<path class="st9" d="M1446,573.9c0,0-358.2-149.4-403.2-149.4c-45,0-116.9,31.9-185.9,31.9S780,496.5,731,496.5
		c-99.7,0-151-88.5-196-88.5s-86.7,129.6-206,129.6c-33,0-142-60.4-178-60.4S61.8,366.1,18.8,366.1S-122,476.2-122,476.2v45v29.7
		V852h1568V573.9z"/>
	<path class="st10" d="M-65.8,544.2c-9.5-0.9-23.2,32.7-34.5,36.6c-11.9,4.1-21.7,28.4-21.7,28.4v241.5c0,0,25.7-0.2,30.5,1.4
		c19,6.3,210.2-0.1,230.4-0.1c87.1,0,696.4,0,783.5,0c61.2,0,462.9,0,524.1,0c-2.9-12,0-222.2,0-222.2S1170,516.6,1120.2,516
		c-30.2-0.4-60.5,13.4-96.4,13.8c-21.8,0.2-29-6.9-55.4-3.9c-17.5,1.9-40.5,8.6-62.9,12.4c-17.8,3-33.3,6.7-45,9.2
		c-35.7,7.5-64.8,9.3-98.8,6.1c-1.3-0.1-2.7-0.3-4-0.5c-21.9-3.2-38.1-10-64.8-14.4c-36.1-6-58.4,2.4-84.1-6.6
		c-32.1-11.3-57.8-38.5-81.9-39.6c-41.3-1.8-67.5,83.8-143.4,101.5c-12.7,2.9-26,4.4-40.1,3.1c-34.7-3.1-117.2-55-153.8-58.3
		c-6.1-0.6-12.5-3.7-19.5-7.8c-35.7-21.4-71.1-65.3-104.7-62.2c-8,0.7-17.7,4.6-28.4,10C-8.4,501.5-51.8,545.6-65.8,544.2z"/>
	<path class="st11" d="M-10,612.3c-19-1.8-46.2,20.3-68.8,28.1c-23.9,8.2-43.2,27.1-43.2,27.1v181.9c0,0,20.7-0.4,30.3,2.8
		c38,12.7,189.7-0.2,230.1-0.2c174.2,0,609.5,0,783.8,0c122.3,0,402,0,524.3,0c-5.8-24,0-166.4,0-166.4s-194.5-77-249.2-78.1
		c-38.5-0.9-70.9,18.2-111.1,12.2c-27.8-4.1-25.2-21.2-61-18.9c-17,1.1-44.6,11.6-71.2,19.4c-19.9,5.8-38.3,11.4-51.2,13.1
		c-36.4,4.7-81.2-15.6-113.9-22.6c-1.5-0.3-3-0.7-4.5-1.1c-23.2-6.3-36.9-16.8-73.7-19.2c-43.7-2.9-64.8,31-95.8,28.3
		c-37.5-3.3-67.8-39.7-95.9-41.8c-43.9-3.4-60.2,71.5-126.6,80.2c-11.4,1.5-22.9,1.5-34.5-0.7c-36.5-6.8-92.4-49.2-129.6-56.2
		c-5.5-1-11.1-3.2-17.3-5.6c-38.5-14.5-66.9-29.8-99.1-23.4c-7.3,1.4-15.5,4.4-24.7,7.9C42.8,596,17.8,615-10,612.3z"/>
	<path class="st12" d="M1446.5,741.5c0,0-112.5-40.9-172-42.5c-46.7-1.3-81,22.5-125.9,10.6c-33.5-8.9-21.4-35-66.7-33.9
		c-28.2,0.7-103.3,41.4-136.9,43.3c-37.2,2.1-97.3-41-129-51.3c-28.3-9.2-37.8-25.7-87.6-25.7c-51.3,0-71.3,59.4-107.6,63.1
		c-43.1,4.5-77.8-40.8-109.9-44.1C464.4,656.2,458,720,401.2,720c-58.5,0-94.4-54.4-149.3-61.8c-50.5-6.9-70.8,11.1-114.5,21.3
		c-43.6,10.2-50.1,5-91.9,0.9c-58.6-5.6-167.5,45.4-167.5,45.4V848c0,0,15.8-0.5,30.2,4.3c57.1,19,169.3-0.2,229.9-0.2
		c261.3,0,522.7,0,784,0c183.5,0,341,0,524.4,0C1437.8,816,1446.5,741.5,1446.5,741.5z"/>
	<circle fill="#F9FF5E" cx="640" cy="1063" r="204.7"/>
</g>
</svg>
