<svg id="Layer_1" data-name="Layer 1" xmlns="http://www.w3.org/2000/svg" xmlns:xlink="http://www.w3.org/1999/xlink" viewBox="0 0 1280 800"><defs><style>.cls-1{fill:#fff5e8;}.cls-2{fill:#3dafb8;}.cls-3{fill:url(#linear-gradient);}.cls-17,.cls-4{fill:#55ffbe;}.cls-5{fill:url(#linear-gradient-2);}.cls-6{fill:url(#linear-gradient-3);}.cls-7{fill:#1f585c;}.cls-8{fill:url(#linear-gradient-4);}.cls-9{fill:#fff4e8;}.cls-10{fill:url(#linear-gradient-5);}.cls-11{fill:url(#linear-gradient-6);}.cls-12{fill:url(#linear-gradient-7);}.cls-13{fill:url(#linear-gradient-8);}.cls-14{fill:url(#linear-gradient-9);}.cls-15{fill:url(#linear-gradient-10);}.cls-16,.cls-18{fill:none;stroke-width:2px;}.cls-16{stroke:#55ffbe;}.cls-16,.cls-17,.cls-18{stroke-miterlimit:10;}.cls-17{stroke:#3dafb8;stroke-width:3px;}.cls-18{stroke:#1f585c;}.cls-19{fill:url(#linear-gradient-11);}.cls-20{fill:url(#linear-gradient-12);}.cls-21{fill:url(#radial-gradient);}.cls-22{fill:url(#radial-gradient-2);}.cls-23{fill:url(#linear-gradient-13);}.cls-24{fill:url(#linear-gradient-14);}.cls-25{fill:url(#linear-gradient-15);}.cls-26{fill:url(#linear-gradient-16);}.cls-27{fill:#fff;}.cls-28{fill:url(#radial-gradient-3);}</style><linearGradient id="linear-gradient" x1="-2243.82" y1="1445.36" x2="-2209.61" y2="1411.15" gradientTransform="translate(2390.34 -1019.59)" gradientUnits="userSpaceOnUse"><stop offset="0" stop-color="#3dafb8"/><stop offset="0.55" stop-color="#1f585c"/></linearGradient><linearGradient id="linear-gradient-2" x1="-2289" y1="1490.94" x2="-2254.79" y2="1456.73" xlink:href="#linear-gradient"/><linearGradient id="linear-gradient-3" x1="5115.29" y1="3595.53" x2="5285.75" y2="3595.53" gradientTransform="matrix(-1, 0, 0, 1, 5759.24, -3434.61)" gradientUnits="userSpaceOnUse"><stop offset="0" stop-color="#1f585c"/><stop offset="0.78" stop-color="#3dafb8"/></linearGradient><linearGradient id="linear-gradient-4" x1="-3737.79" y1="3965.67" x2="-3610.45" y2="3965.67" gradientTransform="matrix(-0.98, 0.19, 0.19, 0.98, -3709.29, -2532.16)" xlink:href="#linear-gradient-3"/><linearGradient id="linear-gradient-5" x1="5121.54" y1="3644.73" x2="5281.74" y2="3644.73" gradientTransform="translate(-3489.49 5406.16) rotate(-90)" xlink:href="#linear-gradient-3"/><linearGradient id="linear-gradient-6" x1="3873.83" y1="4736.39" x2="3950.83" y2="4736.39" gradientTransform="translate(-2747.83 -4607.07)" gradientUnits="userSpaceOnUse"><stop offset="0" stop-color="#1f585c"/><stop offset="1" stop-color="#3dafb8"/></linearGradient><linearGradient id="linear-gradient-7" x1="3758.83" y1="4869.27" x2="3814.83" y2="4869.27" gradientTransform="translate(-2747.83 -4607.07)" gradientUnits="userSpaceOnUse"><stop offset="0" stop-color="#1f585c"/><stop offset="0.51" stop-color="#3dafb8"/><stop offset="1" stop-color="#3dafb8"/></linearGradient><linearGradient id="linear-gradient-8" x1="3814.83" y1="4859.96" x2="3843.83" y2="4859.96" gradientTransform="translate(-2747.83 -4607.07)" gradientUnits="userSpaceOnUse"><stop offset="0" stop-color="#3dafb8"/><stop offset="0.5" stop-color="#1f585c"/><stop offset="1" stop-color="#3dafb8"/></linearGradient><linearGradient id="linear-gradient-9" x1="3950.83" y1="4693.15" x2="3960.85" y2="4693.15" xlink:href="#linear-gradient-6"/><linearGradient id="linear-gradient-10" x1="4660.38" y1="5823.76" x2="4664.22" y2="5819.92" gradientTransform="matrix(0.84, -0.16, -0.16, 0.84, -1995.45, -3854.69)" gradientUnits="userSpaceOnUse"><stop offset="0.44" stop-color="#2c7f85"/><stop offset="1" stop-color="#3dafb8"/></linearGradient><linearGradient id="linear-gradient-11" x1="2135.18" y1="8685.92" x2="2233.97" y2="8685.92" gradientTransform="translate(-3967.08 8110.69) rotate(-135)" xlink:href="#linear-gradient"/><linearGradient id="linear-gradient-12" x1="-3101.45" y1="4100.29" x2="-3002.3" y2="4100.29" gradientTransform="translate(5907.52 -254.91) rotate(45)" xlink:href="#linear-gradient"/><radialGradient id="radial-gradient" cx="2832.22" cy="1036.64" r="13.15" gradientTransform="translate(-1995.23 1341.69) rotate(-45) scale(1 1.04)" gradientUnits="userSpaceOnUse"><stop offset="0" stop-color="#3dafb8"/><stop offset="1" stop-color="#1f585c"/></radialGradient><radialGradient id="radial-gradient-2" cx="2766.46" cy="1184.38" r="13.15" gradientTransform="matrix(0.71, -0.71, 0.76, 0.76, -2100.72, 1236.2)" xlink:href="#radial-gradient"/><linearGradient id="linear-gradient-13" x1="318.58" y1="626.57" x2="269.76" y2="624.87" gradientUnits="userSpaceOnUse"><stop offset="0" stop-color="#1f585c"/><stop offset="0.86" stop-color="#3dafb8"/></linearGradient><linearGradient id="linear-gradient-14" x1="209.83" y1="657.72" x2="281.68" y2="657.72" gradientUnits="userSpaceOnUse"><stop offset="0" stop-color="#1f585c"/><stop offset="0.49" stop-color="#3dafb8"/></linearGradient><linearGradient id="linear-gradient-15" x1="392.65" y1="673.44" x2="344.84" y2="672.61" gradientTransform="matrix(1, 0, 0, 1, 0, 0)" xlink:href="#linear-gradient-3"/><linearGradient id="linear-gradient-16" x1="282.4" y1="711.18" x2="361.85" y2="711.18" xlink:href="#linear-gradient-14"/><radialGradient id="radial-gradient-3" cx="111.25" cy="1026.3" r="497.33" gradientTransform="matrix(1, 0.07, -0.01, 0.13, 6.16, 768.52)" gradientUnits="userSpaceOnUse"><stop offset="0" stop-color="#80b5d3"/><stop offset="0.57" stop-color="#bbba9f" stop-opacity="0.42"/><stop offset="1" stop-color="#e6be7a" stop-opacity="0"/></radialGradient></defs><title>page</title><rect class="cls-1" width="1280" height="800"/><path class="cls-2" d="M397.49,348.34a6.39,6.39,0,0,1-3.29,5.74,4.81,4.81,0,0,1-2.52.63,6.23,6.23,0,0,1-2.62-.59,6.75,6.75,0,0,1-2.28-1.72,19.4,19.4,0,0,0-3.33-3.11,28.67,28.67,0,0,0-5.14-2.91,2.68,2.68,0,0,1-1.08-.94,1.43,1.43,0,0,1-.25-1.15,1.73,1.73,0,0,1,2.24-1.26,21.26,21.26,0,0,1,8.89,3.5q-3.5-7.84-11.2-21.14-2.59,2.87-2.8,5.18a8.07,8.07,0,0,0,.56,3.81,2.68,2.68,0,0,0,1.89,1.79q2.1,0.35,2.1,1.68a1.63,1.63,0,0,1-.77,1.47,3.52,3.52,0,0,1-2.1.42,11.81,11.81,0,0,1-7.35-2.66,7.83,7.83,0,0,1-2.87-6.23,10,10,0,0,1,.07-1.33,8.6,8.6,0,0,1,2.55-4.73,31,31,0,0,1,5.78-4.52l-5.46-9.38a14.1,14.1,0,0,1-1.82-6.93,13.14,13.14,0,0,1,1.68-6.51,12.78,12.78,0,0,1,4.76-4.83,16.51,16.51,0,0,1,8.4-2.31,14,14,0,0,1,6.79,1.71,14.25,14.25,0,0,1,5.32,5.29,15.24,15.24,0,0,1,2.52,7.91q0,7.7-10.71,13.79,4.2,8.47,7.56,15.92a70.77,70.77,0,0,1,4.06,10.4A12.55,12.55,0,0,1,397.49,348.34ZM383.42,315q3.78-2.1,4.62-3.43a5.51,5.51,0,0,0,.84-3q0-2.87-2.66-6.58-3.71-5.32-6.65-5.32a2.31,2.31,0,0,0-1.92.84,3.75,3.75,0,0,0-.67,2.38,13.33,13.33,0,0,0,.84,4.2,24.87,24.87,0,0,0,2.45,5Q381.18,310.61,383.42,315Z"/><path class="cls-2" d="M400,337.63a24.59,24.59,0,0,0-2.62-6.58,51.5,51.5,0,0,0-4-6.51,5.28,5.28,0,0,1-1.26-3.43,4.84,4.84,0,0,1,.74-2.59,5,5,0,0,1,1.92-1.82,4.22,4.22,0,0,1,2-.49,6.15,6.15,0,0,1,3.36,1.08,10.09,10.09,0,0,1,2.87,2.83,25.94,25.94,0,0,1,2.83,6.69A26.35,26.35,0,0,1,407,334a7,7,0,0,1-.77,3.5,4.85,4.85,0,0,1-1.79,1.89,3.8,3.8,0,0,1-1.79.56A2.53,2.53,0,0,1,400,337.63Z"/><path class="cls-2" d="M428,355.55a16.47,16.47,0,0,1-6.69-1.37,11.68,11.68,0,0,1-4.86-3.75,6.49,6.49,0,0,1-1.12-3.92,7.22,7.22,0,0,1,.52-2.8,3.4,3.4,0,0,1,3.25-2.24,3.93,3.93,0,0,1,3.15,1.68q4.2,5.53,8.61,5.53a4.65,4.65,0,0,0,3.74-1.71,5.61,5.61,0,0,0,1.23-4.23,12.78,12.78,0,0,0-3.5-7.49,25.31,25.31,0,0,0-7.95-5.81,31.55,31.55,0,0,0-9.76-2.94,13.29,13.29,0,0,1-5.5-1.68,4.37,4.37,0,0,1-2-4,5,5,0,0,1,1.68-3.85q1.68-1.54,5.18-1.54a30.32,30.32,0,0,1,11.76,2.87,34.75,34.75,0,0,1,11.76,8.37,22.62,22.62,0,0,1,6,13,15,15,0,0,1,.07,1.68,13.63,13.63,0,0,1-8.47,12.74A18,18,0,0,1,428,355.55Z"/><path class="cls-2" d="M479.92,335.6a22.66,22.66,0,0,1,3.39,11.13,7.78,7.78,0,0,1-1.61,5.35,6.09,6.09,0,0,1-4.76,1.79q-5.88,0-14.77-8.61a10,10,0,0,1,.56,4.34,6.15,6.15,0,0,1-1.5,3.4,9,9,0,0,1-3.15,2.35,8.45,8.45,0,0,1-3.47.84,2.55,2.55,0,0,1-1.61-.49,1.46,1.46,0,0,1-.63-1.19,1.42,1.42,0,0,1,.42-1q0.28-.21.77-0.52a2.11,2.11,0,0,0,.74-0.77,2.76,2.76,0,0,0,.17-1.44,9.8,9.8,0,0,0-1.47-4.1,32.09,32.09,0,0,0-4.34-5.21,5.88,5.88,0,0,1-1.82-4,5.42,5.42,0,0,1,1.61-3.71,3.85,3.85,0,0,1,2.94-1.19,8.68,8.68,0,0,1,4.55,1.61q1.75,1.12,7.35,5.74,3.71,3.08,6.23,5a28.94,28.94,0,0,0,4.48,2.91,4.94,4.94,0,0,0,2.1.7,0.72,0.72,0,0,0,.77-0.77,5.3,5.3,0,0,0-.56-1.82,33.89,33.89,0,0,0-11.41-13.12,43.12,43.12,0,0,0-17.43-7.31,6.51,6.51,0,0,1-3.67-2,5,5,0,0,1-1.44-3.5,4.38,4.38,0,0,1,1.65-3.54,5.66,5.66,0,0,1,4.09-1.23A36.64,36.64,0,0,1,460,318.14,41.21,41.21,0,0,1,479.92,335.6Z"/><path class="cls-2" d="M492.27,319.15a4.58,4.58,0,0,1,1.64-3.46,6.12,6.12,0,0,1,4.09-1.58A32.66,32.66,0,0,1,514.46,318a42.75,42.75,0,0,1,13.69,10.81q5.42,6.58,5.77,12.74L534,343a14.23,14.23,0,0,1-1.47,7,9.26,9.26,0,0,1-3.33,3.68,6.77,6.77,0,0,1-3.19,1,2.15,2.15,0,0,1-1.47-.49,1.6,1.6,0,0,1-.56-1.26,1.83,1.83,0,0,1,1.47-1.61q1.61-.49,1.61-3.15a16.93,16.93,0,0,0-4-10.67,31.05,31.05,0,0,0-10.82-8.4A46.31,46.31,0,0,0,497,324.68a5,5,0,0,1-3.33-2A5.68,5.68,0,0,1,492.27,319.15Zm18,34.86a4.25,4.25,0,0,0,3.15-1.37,8.29,8.29,0,0,0,2-3.43,10.29,10.29,0,0,0,.42-4.1,16.47,16.47,0,0,0-2-6.27,15.39,15.39,0,0,0-4-4.79,7.85,7.85,0,0,0-4.86-1.82,5,5,0,0,0-3.92,1.57A5.14,5.14,0,0,0,499.9,338a5.36,5.36,0,0,0,1.68,3.08,39.06,39.06,0,0,0,4.2,3.5,36.16,36.16,0,0,1,3.5,2.83,3.07,3.07,0,0,1,1.12,2.14,1.45,1.45,0,0,1-.18.77,1.75,1.75,0,0,1-.56.52l-0.59.38a1.4,1.4,0,0,0-.56,1.19,1.56,1.56,0,0,0,.46,1.16A1.75,1.75,0,0,0,510.26,354Z"/><path class="cls-2" d="M553.52,348.27a6.36,6.36,0,0,1-3.43,5.88,5,5,0,0,1-2.59.63,6.32,6.32,0,0,1-2.59-.56,5.57,5.57,0,0,1-2.17-1.75,19.81,19.81,0,0,0-3-2.91,15.88,15.88,0,0,0-2.91-2,2.09,2.09,0,0,1-.95-0.77,1.9,1.9,0,0,1-.31-1.05,1.41,1.41,0,0,1,.63-1.26,2.11,2.11,0,0,1,1.54-.28,19.56,19.56,0,0,1,6.09,1.75q-2.87-6.16-6.58-12.77t-9-15.44l-4.2-7.14a13.85,13.85,0,0,1-1.82-6.79,13.23,13.23,0,0,1,6.65-11.48,17.63,17.63,0,0,1,9-2.45,14,14,0,0,1,6.75,1.68,13.24,13.24,0,0,1,5.15,5.18,15.14,15.14,0,0,1,2.24,8.47,16.6,16.6,0,0,1-1.37,5.67,11.91,11.91,0,0,1-2.83,4.09,5.36,5.36,0,0,1-3.64,1.51,1.2,1.2,0,0,1-.77-0.28,0.93,0.93,0,0,1-.35-0.77,1.24,1.24,0,0,1,.53-0.87,8.33,8.33,0,0,0,.91-0.91,2,2,0,0,0,.38-1.3,21.77,21.77,0,0,0-.91-5.77,21,21,0,0,0-2.66-5.92,12.12,12.12,0,0,0-2.9-3.19,5.12,5.12,0,0,0-3-1.15q-2.66,0-2.66,3.29a12.69,12.69,0,0,0,.84,4.13,27.49,27.49,0,0,0,2.45,5q1.47,2.45,5.46,10.43T549,334.87a72.43,72.43,0,0,1,4.17,10.6A11,11,0,0,1,553.52,348.27Z"/><path class="cls-2" d="M557,337.63a24.59,24.59,0,0,0-2.62-6.58,51.5,51.5,0,0,0-4-6.51,5.28,5.28,0,0,1-1.26-3.43,4.84,4.84,0,0,1,.74-2.59,5,5,0,0,1,1.92-1.82,4.22,4.22,0,0,1,2-.49,6.15,6.15,0,0,1,3.36,1.08,10.09,10.09,0,0,1,2.87,2.83,25.94,25.94,0,0,1,2.83,6.69A26.35,26.35,0,0,1,564,334a7,7,0,0,1-.77,3.5,4.85,4.85,0,0,1-1.79,1.89,3.8,3.8,0,0,1-1.79.56A2.53,2.53,0,0,1,557,337.63Z"/><path class="cls-2" d="M565.07,323.21a2.64,2.64,0,0,1,.21-1,2.78,2.78,0,0,0,.28-1.26,4.3,4.3,0,0,0-.56-2,23.74,23.74,0,0,0-1.61-2.52,27.26,27.26,0,0,1-1.58-2.35,4.59,4.59,0,0,1-.67-2l-0.07-.77a4,4,0,0,1,1.33-3.19,4.34,4.34,0,0,1,3.29-1q2,0.14,3.61,2.73a14.42,14.42,0,0,1,1.92,6.16,10.6,10.6,0,0,1-.56,4.48,9.53,9.53,0,0,1-2.24,3.71,2.69,2.69,0,0,1-2,.84,1.26,1.26,0,0,1-.77-0.21A2,2,0,0,1,565.07,323.21Z"/><path class="cls-2" d="M616.76,350.72a14.26,14.26,0,0,1-5.88,3.78,23.19,23.19,0,0,1-7.95,1.33,28.83,28.83,0,0,1-10.29-1.68,16.74,16.74,0,0,1-6.75-4.34,8.37,8.37,0,0,1-2.34-5.6,6.13,6.13,0,0,1,1.5-4.13,4.3,4.3,0,0,1,3.25-1.75,2.18,2.18,0,0,1,1.75.73,11.77,11.77,0,0,1,1.47,2.56q0.63,1.33,1.26,2.45a12.73,12.73,0,0,0,4,4,10.94,10.94,0,0,0,6.05,1.65,6.35,6.35,0,0,0,4.1-1.44,4.31,4.31,0,0,0,1.78-3.46,5.48,5.48,0,0,0-2.17-4.24,19.13,19.13,0,0,0-5.46-3.15q-3.29-1.29-8.47-2.9a8.33,8.33,0,0,1-3.71-2.17,4.65,4.65,0,0,1-1.4-3.29,3.42,3.42,0,0,1,1.29-2.8,5.23,5.23,0,0,1,3.4-1l0.91,0.07a58,58,0,0,0,6.16.42q4.48,0,4.76-1.47,0.49-2.38-3.4-4.52a32.87,32.87,0,0,0-8.36-3.19,37.25,37.25,0,0,0-8.75-1.4q-3.43,0-3.15,1.61a1.67,1.67,0,0,0,.91,1.16,21.22,21.22,0,0,0,2.38,1.22,21.09,21.09,0,0,1,2.45,1.33,2.08,2.08,0,0,1,1,1.19,1.25,1.25,0,0,1-.46,1.3,2.78,2.78,0,0,1-1.71.45,12.18,12.18,0,0,1-4.48-1.26,16.33,16.33,0,0,1-5.11-3.54,7.15,7.15,0,0,1-2.24-5.15,6.68,6.68,0,0,1,1.54-4.2,10.53,10.53,0,0,1,4.24-3.12A15.41,15.41,0,0,1,585,305a34.19,34.19,0,0,1,11.41,2.13,28.61,28.61,0,0,1,10.29,6.2,15,15,0,0,1,4.83,9.52l0.07,0.91a6.17,6.17,0,0,1-1.68,4.52,9.76,9.76,0,0,1-4.13,2.48,27.09,27.09,0,0,1,9.1,5.71,11.54,11.54,0,0,1,4.06,8.58A8.22,8.22,0,0,1,616.76,350.72Z"/><path class="cls-2" d="M626.74,354.08a1.54,1.54,0,0,1-.49-1.12,1.31,1.31,0,0,1,.28-0.84,3.53,3.53,0,0,0,.84-2.38,8.51,8.51,0,0,0-.28-2q-2.8-9.87-11.76-23.38a6.06,6.06,0,0,1-1-3.36,5,5,0,0,1,.59-2.42,3.58,3.58,0,0,1,1.65-1.58,5,5,0,0,1,2.24-.56,6.47,6.47,0,0,1,3.39,1.05,11.2,11.2,0,0,1,3.12,2.94,47.21,47.21,0,0,1,4.34,7.63,68.38,68.38,0,0,1,3.71,9.73,30.71,30.71,0,0,1,1.47,8.47,7.94,7.94,0,0,1-1.22,4.41,9.23,9.23,0,0,1-2.87,2.91,5.67,5.67,0,0,1-2.83,1A1.54,1.54,0,0,1,626.74,354.08Z"/><path class="cls-2" d="M674.76,343.2a17.9,17.9,0,0,1,.84,6.05,4.42,4.42,0,0,1-1.54,3.5,5.3,5.3,0,0,1-3.43,1.19,8.34,8.34,0,0,1-4-1,15.37,15.37,0,0,1-3.57-2.66q-1.72-1.68-4.59-4.9-3.5-3.92-6.09-6.51L647.6,334a26,26,0,0,1,3.92,13.16,6.74,6.74,0,0,1-1.61,4.8,8.51,8.51,0,0,1-3.5,2.34,10.37,10.37,0,0,1-3.15.63q-2.59,0-2.73-1.33a1.05,1.05,0,0,1,.18-0.87,3.56,3.56,0,0,1,.73-0.53,1.91,1.91,0,0,0,.7-0.46,1.44,1.44,0,0,0,.28-0.73,18.07,18.07,0,0,0-.59-4.76,59.78,59.78,0,0,0-2.63-8.4q-0.7-1.89-2.94-6.51-1.4-2.87-2.07-4.48a7.26,7.26,0,0,1-.67-2.59,4.49,4.49,0,0,1,1.23-3.33,4.31,4.31,0,0,1,3.18-1.23,8.58,8.58,0,0,1,4.69,2,44.13,44.13,0,0,1,5.42,4.66q2.7,2.7,7.53,7.73,6,6.3,9.8,10.92a63.25,63.25,0,0,0-6-11.76q-1.54-2.45-3.29-4.83t-2.24-3L651.38,322a8.65,8.65,0,0,1-1.82-5.11,4.39,4.39,0,0,1,1.75-3.71,4.27,4.27,0,0,1,2.66-.91,6.68,6.68,0,0,1,3.46,1.08,11.27,11.27,0,0,1,3,2.7,74.6,74.6,0,0,1,10.15,16.87A96.11,96.11,0,0,1,674.76,343.2Z"/><path class="cls-2" d="M730.2,331.16a21,21,0,0,1,1.47,7.59,16.39,16.39,0,0,1-2.17,8.37,13.19,13.19,0,0,1-6.37,5.56,14.67,14.67,0,0,1-6.09,1.26,15.85,15.85,0,0,1-5.18-.84,8.29,8.29,0,0,1,.07,1.26,12.46,12.46,0,0,1-.21,2.31,5.85,5.85,0,0,1-2.94,4.38,9.76,9.76,0,0,1-4.69,1.3,1.55,1.55,0,0,1-1-.32,1,1,0,0,1-.38-0.8,1.65,1.65,0,0,1,.21-0.7,2.15,2.15,0,0,1,.66-0.67,2.7,2.7,0,0,0,.8-0.91,3.88,3.88,0,0,0,.28-1.72A16.28,16.28,0,0,0,702.9,351q-1.75-3.88-6-11.73-1.75-3.29-5.67-9.52-2.38-3.71-3.39-5.63a7.41,7.41,0,0,1-1-3.33,5.09,5.09,0,0,1,1.47-3.81,4.92,4.92,0,0,1,3.57-1.44,6.75,6.75,0,0,1,2.24.49q2.1,0.84,5.25,5.95a10.16,10.16,0,0,1,1.82-2.1,11.59,11.59,0,0,1,4-2.24,15.09,15.09,0,0,1,4.87-.77,20.41,20.41,0,0,1,8.37,1.89,22.38,22.38,0,0,1,7.53,5.53A21.08,21.08,0,0,1,730.2,331.16Zm-8.5,14.59a5,5,0,0,0,1.79-4.06,14.19,14.19,0,0,0-2.42-7.14,25.55,25.55,0,0,0-5.91-6.79q-3.5-2.8-6.44-2.8a3.53,3.53,0,0,0-2.9,1.16,5,5,0,0,0-.95,3.25q0,3.92,3.15,10a19,19,0,0,0,4.48,6.06,7.69,7.69,0,0,0,4.9,1.79A6.56,6.56,0,0,0,721.69,345.75Z"/><path class="cls-2" d="M738.39,337.63a24.52,24.52,0,0,0-2.62-6.58,51.39,51.39,0,0,0-4-6.51,5.28,5.28,0,0,1-1.26-3.43,4.84,4.84,0,0,1,.74-2.59,5,5,0,0,1,1.92-1.82,4.22,4.22,0,0,1,2-.49,6.16,6.16,0,0,1,3.36,1.08,10.08,10.08,0,0,1,2.87,2.83,25.91,25.91,0,0,1,2.84,6.69,26.38,26.38,0,0,1,1.15,7.18,6.94,6.94,0,0,1-.77,3.5,4.85,4.85,0,0,1-1.79,1.89,3.8,3.8,0,0,1-1.79.56A2.53,2.53,0,0,1,738.39,337.63Z"/><path class="cls-2" d="M748.4,356.67a2.32,2.32,0,0,1,.56-1.47,2.27,2.27,0,0,1,1.75-.77,7,7,0,0,1,3.43,1.33,3.69,3.69,0,0,0,4.34-.49,3.55,3.55,0,0,0,1-2.73,32.87,32.87,0,0,0-3.67-13.93,63.29,63.29,0,0,0-8.44-13.16q-3.29-3.85-3.29-6.86a4,4,0,0,1,1.75-3.36,5.16,5.16,0,0,1,3-1q3.15,0,6.86,4a40.8,40.8,0,0,1,6.27,9,58.13,58.13,0,0,1,4.51,11.38A41.85,41.85,0,0,1,768.21,350q0,1.19-.07,1.82a10.61,10.61,0,0,1-1.86,5.39,11.57,11.57,0,0,1-4.17,3.71,11.11,11.11,0,0,1-5.25,1.33A10.12,10.12,0,0,1,750.5,360Q748.4,358.35,748.4,356.67Z"/><path class="cls-2" d="M806.22,351.25a11.09,11.09,0,0,1-4.34,3.6,17.59,17.59,0,0,1-7.84,1.82,22,22,0,0,1-12.92-4.48A34.61,34.61,0,0,1,771,340.89a27.06,27.06,0,0,1-3.85-13.33,7.74,7.74,0,0,1,2.41-5.78,8.35,8.35,0,0,1,6.06-2.34,14.79,14.79,0,0,1,6.72,1.79,37,37,0,0,1,6.79,4.51l-0.63-.91a47.23,47.23,0,0,0-2.87-3.92q-2.1-2.8-2.94-4.2a6.49,6.49,0,0,1-1-3.43,4.3,4.3,0,0,1,2.45-4.13,4.69,4.69,0,0,1,2.24-.56,6,6,0,0,1,3.39,1.12,9.59,9.59,0,0,1,2.77,2.94q0.49,0.84,2.24,4.27l2.31,4.69q4.2,8.19,4.2,11.41a5.1,5.1,0,0,1-1.33,3.6,4.63,4.63,0,0,1-3.57,1.44,5.13,5.13,0,0,1-2.73-1.4q-1.75-1.4-4.41-3.92-3.64-3.36-6.05-5.18a7.32,7.32,0,0,0-4-1.82,1.81,1.81,0,0,0-1.15.42,1.52,1.52,0,0,0-.53,1.26q0,3.64,3.22,9.17a40.17,40.17,0,0,0,7.73,9.63q4.51,4.09,8.16,4.1a4.78,4.78,0,0,0,2-.42,2.38,2.38,0,0,0,1.47-2.31,3.24,3.24,0,0,0-.35-1.47,2.92,2.92,0,0,0-.8-1,6.14,6.14,0,0,0-1.08-.7,5,5,0,0,1-1.12-.77,1.42,1.42,0,0,1-.35-1,2.3,2.3,0,0,1,1.44-1.75,6.89,6.89,0,0,1,3.54-.84,10.76,10.76,0,0,1,1.4.07,5.64,5.64,0,0,1,3.6,2,6.32,6.32,0,0,1,1.51,4.27A8.25,8.25,0,0,1,806.22,351.25Z"/><path class="cls-2" d="M802.82,317.89a7.39,7.39,0,0,1,4.79-1.4,25.63,25.63,0,0,1,14.31,4.13,30,30,0,0,1,9.84,10.22,23.3,23.3,0,0,1,3.5,11.55,17,17,0,0,1-1.33,7.35,9.19,9.19,0,0,1-3,3.81,5.61,5.61,0,0,1-2.87,1.08,1.85,1.85,0,0,1-1.75-1,2.2,2.2,0,0,1-.28-0.91,2.54,2.54,0,0,1,1.26-2,3.44,3.44,0,0,0,1.19-3,17,17,0,0,0-2.7-9.1,23.56,23.56,0,0,0-7.25-7.31,24.18,24.18,0,0,0-9.87-3.75,12.74,12.74,0,0,1-5.6-2,4.44,4.44,0,0,1-2-3.74A4.7,4.7,0,0,1,802.82,317.89Z"/><path class="cls-2" d="M875.13,349.39a12.8,12.8,0,0,1-4.9,3.85,15.79,15.79,0,0,1-6.82,1.47q-9.38,0-15.54-5.46l-0.07.28a6.93,6.93,0,0,1-3.08,4.23,8.41,8.41,0,0,1-4.06,1.15,2.68,2.68,0,0,1-1.71-.52,1.48,1.48,0,0,1-.67-1.15,1.7,1.7,0,0,1,1.33-1.61,2.52,2.52,0,0,0,1.68-2.52,31.64,31.64,0,0,0-1.43-6.54,82.47,82.47,0,0,0-4-10.67,118.41,118.41,0,0,0-9.73-17.29,5.8,5.8,0,0,1-1.12-3.36,4.54,4.54,0,0,1,.63-2.38,4.29,4.29,0,0,1,1.68-1.61,5.55,5.55,0,0,1,2.59-.7q3.15,0,6.16,4.13a69.69,69.69,0,0,1,7.07,13.79,11.48,11.48,0,0,1,4.72-3.81,16.08,16.08,0,0,1,6.62-1.3,21.32,21.32,0,0,1,8.4,1.58,16.9,16.9,0,0,1,5.81,3.81,6.76,6.76,0,0,1,2.17,4.13,4.68,4.68,0,0,1-1.12,3.5,4,4,0,0,1-3.08,1.26,4.9,4.9,0,0,1-3.29-1,13,13,0,0,1-2.45-3,13.5,13.5,0,0,0-2.59-3.15,5.19,5.19,0,0,0-3.43-1.05,3.92,3.92,0,0,0-3.29,1.89,7.81,7.81,0,0,0-1.33,4.62,16.76,16.76,0,0,0,2,7.63,19.12,19.12,0,0,0,5.25,6.48,10.9,10.9,0,0,0,6.82,2.56,3.68,3.68,0,0,0,3-1.12,3.56,3.56,0,0,0,.95-2.31,2.84,2.84,0,0,0-.39-1.61,4.28,4.28,0,0,0-1.08-1.05,4.91,4.91,0,0,1-.87-0.8,1.55,1.55,0,0,1-.31-1q0-2.24,5.46-2.24a5.56,5.56,0,0,1,4.2,1.68,6,6,0,0,1,1.61,4.34A8.17,8.17,0,0,1,875.13,349.39Z"/><path class="cls-2" d="M913.81,343.2a18,18,0,0,1,.84,6.05,4.42,4.42,0,0,1-1.54,3.5,5.29,5.29,0,0,1-3.43,1.19,8.34,8.34,0,0,1-4-1,15.46,15.46,0,0,1-3.57-2.66q-1.71-1.68-4.58-4.9-3.5-3.92-6.09-6.51l-4.83-4.9a26,26,0,0,1,3.92,13.16,6.74,6.74,0,0,1-1.61,4.8,8.51,8.51,0,0,1-3.5,2.34,10.38,10.38,0,0,1-3.15.63q-2.59,0-2.73-1.33a1.05,1.05,0,0,1,.18-0.87,3.48,3.48,0,0,1,.73-0.53,1.88,1.88,0,0,0,.7-0.46,1.42,1.42,0,0,0,.28-0.73,18.1,18.1,0,0,0-.6-4.76,59.77,59.77,0,0,0-2.62-8.4q-0.7-1.89-2.94-6.51-1.4-2.87-2.07-4.48a7.27,7.27,0,0,1-.66-2.59,4.49,4.49,0,0,1,1.22-3.33,4.31,4.31,0,0,1,3.19-1.23,8.57,8.57,0,0,1,4.69,2,44.14,44.14,0,0,1,5.43,4.66q2.69,2.7,7.53,7.73,5.95,6.3,9.8,10.92a63.35,63.35,0,0,0-5.95-11.76q-1.54-2.45-3.29-4.83t-2.24-3L890.43,322a8.66,8.66,0,0,1-1.82-5.11,4.4,4.4,0,0,1,1.75-3.71,4.28,4.28,0,0,1,2.66-.91,6.67,6.67,0,0,1,3.46,1.08,11.24,11.24,0,0,1,3,2.7,74.53,74.53,0,0,1,10.15,16.87A96.24,96.24,0,0,1,913.81,343.2Z"/><path class="cls-2" d="M206.19,495H92.57a3,3,0,0,1-2-5l47.77-46.81a2.58,2.58,0,0,1,2.25-.8,7,7,0,0,0,4.93-2.39,18.55,18.55,0,0,0,4.15-7.65,2.83,2.83,0,0,1,.72-1.31l40.77-41.68a2.8,2.8,0,0,1,2-.84l92.09-.29c1.41-.47,7.72-3,7.72-11.72a2.8,2.8,0,1,1,5.6,0c0,11.22-8,16.17-12.23,17.23a2.81,2.81,0,0,1-.67.08l-91.31.28L155,434.42a23.72,23.72,0,0,1-5.42,9.51c-3.08,3.08-6.22,4.28-8,4.43L99.43,490H206.09c0.91-1,6.9-1.55,6.9-13.39a3,3,0,0,1,2.8-3,2.71,2.71,0,0,1,2.8,2.69c0,7.25-2,12.51-5.8,15.73a12.07,12.07,0,0,1-6.49,2.87S206.22,495,206.19,495Z"/><path class="cls-3" d="M149.77,427.73c-6.61-10.91-4.55-30.13,3.81-38.49,14.22-14.22,29.33-1.88,29.33,14.71,0,9.5-2.55,17.42-10.55,25.42C162.86,438.88,156.38,438.64,149.77,427.73Z"/><path class="cls-2" d="M166.48,383c9.18,0,16.43,9.45,16.43,20.94,0,9.5-2.55,17.42-10.55,25.42-4.53,4.53-8.38,6.85-11.88,6.85-3.84,0-7.26-2.79-10.72-8.49-6.61-10.91-4.55-30.13,3.81-38.49,4.37-4.37,8.82-6.23,12.9-6.23m0.52-3.6v0c-6,0-10.94,2.52-15.7,7.28-4.58,4.58-7.83,12-8.68,20.47s0.61,16.6,4.15,22.43c2.66,4.39,7,10.23,13.76,10.23,4.45,0,9-2.51,14.4-7.9,8-8,11.59-16.65,11.59-28,0-6.38-1.71-12.41-5.28-17-3.79-4.87-9.24-7.55-14.24-7.55h0Z"/><path class="cls-4" d="M166.48,383c9.18,0,16.43,9.45,16.43,20.94,0,9.5-2.55,17.42-10.55,25.42-4.53,4.53-8.38,6.85-11.88,6.85-3.84,0-7.26-2.79-10.72-8.49-6.61-10.91-4.55-30.13,3.81-38.49,4.37-4.37,8.82-6.23,12.9-6.23m0.52-2v2l-0.26-2c-4.91,0-10,2.36-14.44,6.82-9.09,9.09-11.18,29.36-4.17,40.94,3.91,6.45,7.83,9.46,12.39,9.46,4,0,8.2-2.36,13.27-7.44A35.14,35.14,0,0,0,184.91,404c0-6-1.59-11.71-4.94-16-3.48-4.47-9-6.93-13-6.93h0Z"/><path class="cls-5" d="M104.59,473.31C98,462.4,100,443.18,108.4,434.82c14.22-14.22,29.33-1.88,29.33,14.71,0,6.13-.22,15.09-10.55,25.42C117.68,484.46,111.2,484.21,104.59,473.31Z"/><path class="cls-2" d="M121.3,428.59c9.18,0,16.43,9.45,16.43,20.94,0,6.13-.22,15.09-10.55,25.42-4.53,4.53-8.38,6.85-11.88,6.85-3.84,0-7.26-2.79-10.72-8.49C98,462.4,100,443.18,108.4,434.82c4.37-4.37,8.82-6.23,12.9-6.23M121,425v0c-5,0-10.53,2.52-15.29,7.28-4.58,4.58-7.62,12-8.48,20.47s0.72,16.6,4.25,22.43c2.66,4.39,7,10.23,13.81,10.23,4.45,0,9-2.51,14.43-7.9,5-5,8.29-10.15,10-15.75a38.62,38.62,0,0,0,1.57-12.21,27.78,27.78,0,0,0-5.68-17C131.85,427.67,127,425,121,425h0Z"/><path class="cls-4" d="M121.3,428.59c9.18,0,16.43,9.45,16.43,20.94,0,6.13-.22,15.09-10.55,25.42-4.53,4.53-8.38,6.85-11.88,6.85-3.84,0-7.26-2.79-10.72-8.49C98,462.4,100,443.18,108.4,434.82c4.37-4.37,8.82-6.23,12.9-6.23m-0.3-2v2l0.15-2c-4.91,0-9.78,2.36-14.24,6.82-9.09,9.09-11.08,29.36-4.07,40.94,3.91,6.45,7.88,9.46,12.45,9.46,4,0,8.23-2.36,13.3-7.44,11.13-11.13,11.14-21,11.14-26.83a26.18,26.18,0,0,0-5.34-16A17.08,17.08,0,0,0,121,426.59h0Z"/><polygon class="cls-6" points="473.54 129.67 536.48 66.73 643.95 174.21 643.9 192.17 580.96 255.1 473.49 147.63 473.54 129.67"/><rect class="cls-7" x="590.4" y="151.97" width="25.52" height="89.42" transform="translate(890.58 762.25) rotate(-135)"/><polygon class="cls-7" points="580.96 255.1 581.44 236.44 473.54 129.67 473.49 147.63 580.96 255.1"/><circle class="cls-7" cx="541.33" cy="137.5" r="50.2"/><circle class="cls-4" cx="541.33" cy="124.71" r="47.64"/><circle class="cls-2" cx="541.33" cy="124.71" r="45.4"/><circle class="cls-2" cx="541.17" cy="124.31" r="36.24" transform="translate(70.61 419.07) rotate(-45)"/><path class="cls-7" d="M515.54,140.45a36.24,36.24,0,0,0,61.52-20.65,36.24,36.24,0,1,1-71.79,0A36.07,36.07,0,0,0,515.54,140.45Z"/><path class="cls-7" d="M540.88,113.68c-13.77,5.12-16.42,10.85-22,9.66a22.53,22.53,0,1,1,44.63,0C563.23,123.25,555.35,108.3,540.88,113.68Z"/><path class="cls-8" d="M631,596.79l19-13.4c9-8.24,29.63-6,48.84,5.87s30.32,29.37,26.76,41l-4.18,21.94c7.25,12.75,8.92,25.08,3.28,34-11.47,18.22-31.44,29-83.23-5.67-33.72-22.57-53.17-53.43-41.7-71.66C605.31,600.13,616.76,596.18,631,596.79Z"/><path class="cls-7" d="M725.67,629.85s-8.05-1.84-11.59,9.82a81.22,81.22,0,0,1-8.78,18.15,5.88,5.88,0,0,0,5.9,8.92c4-.63,4,0.1,6.95-4.19,1.47-2.12,3.3-10.38,3.3-10.38Z"/><path class="cls-7" d="M624,597.11s-8.89,16.54,2.07,31.32c0,0-3.63-26,6.25-32C633.1,595.94,624,597.11,624,597.11Z"/><path class="cls-2" d="M649.27,596.33c4.06,13.45,9,15.06,17.39,12.64,23-6.61,29.26,6,39.17,8.69,8,2.18,8.09-.1-23.47-15.71C660.73,591.26,646.56,587.35,649.27,596.33Z"/><polygon class="cls-2" points="256.75 213.85 185.38 284.62 95.94 195.18 167.31 124.42 256.75 213.85"/><path class="cls-2" d="M185.62,285s-8.34.93-10.92,0.93-9.71-.62-9.71-0.62V281h20.62S185.32,285.42,185.62,285Z"/><polygon class="cls-9" points="253.55 213.85 182.18 284.62 92.74 195.18 164.11 124.42 253.55 213.85"/><polygon class="cls-9" points="250.9 213.85 179.53 284.62 90.09 195.18 161.47 124.42 250.9 213.85"/><polygon class="cls-9" points="248.25 213.85 176.88 284.62 87.44 195.18 158.81 124.42 248.25 213.85"/><polygon class="cls-9" points="245.6 213.85 174.23 284.62 84.8 195.18 156.17 124.42 245.6 213.85"/><polygon class="cls-9" points="242.96 213.85 171.59 284.62 82.15 195.18 153.52 124.42 242.96 213.85"/><polygon class="cls-9" points="240.31 213.85 168.94 284.62 79.5 195.18 150.87 124.42 240.31 213.85"/><polygon class="cls-9" points="237.66 213.85 166.29 284.62 76.85 195.18 148.22 124.42 237.66 213.85"/><polygon class="cls-9" points="235.01 213.85 163.64 284.62 74.2 195.18 145.57 124.42 235.01 213.85"/><polygon class="cls-10" points="235.65 213.85 164.28 284.62 74.84 195.18 146.21 124.42 235.65 213.85"/><polygon class="cls-11" points="1181.33 84.7 1176.65 95.66 1141.38 130.89 1126 146.24 1126 196.89 1141.24 181.55 1202.32 120.98 1203 120.89 1203 61.77 1181.33 84.7"/><path class="cls-7" d="M965,230.61v93.89c2,2.18,4,4.32,6.07,6.42C983.69,343.54,998,351.4,1011,355V212.67C993,218.31,981,218.51,965,230.61Z"/><path class="cls-12" d="M1043.24,174.12c-22.16,22.16-17.88,33.86-31.81,38.42a1.59,1.59,0,0,0-.43.14V355c20,5.27,38.65,1.22,50.56-10.68,2-2,3.44-3.88,5.44-5.79V167.28C1057,166.61,1048.47,168.89,1043.24,174.12Z"/><path class="cls-13" d="M1067,167.28V338.5c13-16.67,13.72-32,19.87-50.79,1.78-5.43,5.13-7.4,9.13-9.18V177.09C1086,171.17,1076,167.91,1067,167.28Z"/><path class="cls-7" d="M944,257.52v11.12c0,17.48,7,37.84,22,55.85V230.61C963,232.89,944,257.52,944,257.52Z"/><path class="cls-2" d="M1113.67,191.58l-0.35-3.11-3-.35a81.37,81.37,0,0,0-14.35-11V278.53c7-2.79,17.33-5.14,31.82-19.63C1140.48,246.24,1135.78,214.7,1113.67,191.58Z"/><path class="cls-14" d="M1212.53,51.29L1203,61.77v59.13l10-4.84,0-.08V51.63C1212,51.41,1212.53,51.29,1212.53,51.29Z"/><path class="cls-2" d="M1086.44,273.64c4.56-13.93,17.5-5.07,41.24-28.81,12.67-12.67,8.1-44.21-14-67.32l-0.35-3.11-3.11-.35c-23.11-22.11-54.66-26.68-67.32-14-22.16,22.16-17.7,33.86-31.63,38.42-21,6.85-35,5.72-55.6,26.29-20,20-16,60.87,15.22,92.09s70.27,33.36,90.25,13.38C1080.13,311.24,1079.59,294.6,1086.44,273.64Z"/><path class="cls-2" d="M1232.86,57.59c-5-5.09-21.25-14.62-21.25-14.62l-31,33.23L1176,87l-88,88,25.32,25.32,88-88,10.63-4.74L1245.38,77S1237.64,62.42,1232.86,57.59Z"/><path class="cls-2" d="M1086.44,273.64c4.56-13.93,17.5-5.07,41.24-28.81,12.67-12.67,8.1-44.21-14-67.32l-0.35-3.11-3.11-.35c-23.11-22.11-54.66-26.68-67.32-14-22.16,22.16-17.7,33.86-31.63,38.42-21,6.85-35,5.72-55.6,26.29-20,20-16,60.87,15.22,92.09s70.27,33.36,90.25,13.38C1080.13,311.24,1079.59,294.6,1086.44,273.64Z"/><circle class="cls-7" cx="1055.65" cy="230.62" r="25.5" transform="translate(146.12 814.01) rotate(-45)"/><circle class="cls-2" cx="1055.92" cy="239.33" r="24.1" transform="translate(140.04 816.75) rotate(-45)"/><polygon class="cls-15" points="982.71 279.17 1006.33 302.79 1001.32 305.45 979.77 283.91 982.71 279.17"/><path class="cls-2" d="M1246,77s-10.13-8.68-12.52-11.09C1229,61.39,1215,53.38,1213,51.63V116l33-30.57V77Z"/><polygon class="cls-2" points="1088.53 183.62 1113.9 208.94 1126 196.89 1126 146.24 1088.53 183.62"/><line class="cls-16" x1="1181.78" y1="93.91" x2="1076.87" y2="198.82"/><line class="cls-16" x1="1192.63" y1="104.76" x2="1087.72" y2="209.67"/><line class="cls-16" x1="1187.2" y1="99.34" x2="1082.29" y2="204.25"/><line class="cls-16" x1="1023" y1="250.76" x2="991.35" y2="282.42"/><line class="cls-16" x1="1033.86" y1="261.62" x2="1002.2" y2="293.27"/><line class="cls-16" x1="1028.43" y1="256.19" x2="996.78" y2="287.84"/><rect class="cls-2" x="238.31" y="117.99" width="148.27" height="12.62" transform="translate(179.41 -184.52) rotate(45)"/><path class="cls-2" d="M453.21,270.84a132.63,132.63,0,0,0-6.92-20.13l-0.29-.62c-2.79-.23-5.77-0.77-7.24-2,0,0,3,0,6.16-.25a74.29,74.29,0,0,0-4.12-7.23c-4.74.4-11.61-2.26-11.61-2.26a65.47,65.47,0,0,0,9.25-1.17,83.56,83.56,0,0,0-5.88-7.11c-6.85-7.49-19.61-20.58-31.54-32.63-8.28,2.41-12.86.13-10.34,0.56,1.93,0.33,5.73-1.51,8.12-2.81C387.06,183.35,376.55,173,374,170.56c-10-9.24-19.68-12.7-28.71-21.73-2.17-2.17-17,.4-8.84,8.54s11.34,21.52,12.86,24.88c2.31,5.1,8.27,12.1,14.76,18.89l2.92-6.49s0,4.58,0,9.53c7,7.08,14,13.57,17.41,17,2.76,2.76,8.54,8,15.18,13.78a43.51,43.51,0,0,1-.14-7.8l2,9.43c10,8.56,21.32,17.75,27.16,21.14,8.94,5.19,20.42,19.43,23.47,19.07S453.21,270.84,453.21,270.84Z"/><path class="cls-7" d="M342.3,165.62S390.2,213,403.1,224.4s25.57,23,25.57,23l-89.6-89.6L256.54,75.3l-0.9.9,81,81S339.15,159.26,342.3,165.62Z"/><rect class="cls-2" x="249.6" y="64.05" width="13.46" height="8.28" transform="translate(123.29 -161.28) rotate(45)"/><polygon class="cls-2" points="254.19 63.92 252.05 57.09 237.53 47.27 236.95 47.86 236.22 48.59 235.63 49.18 245.45 63.69 252.26 65.81 253.16 64.8 254.19 63.92"/><line class="cls-17" x1="237.32" y1="49.3" x2="232.34" y2="44.33"/><line class="cls-18" x1="308.09" y1="118.71" x2="379.98" y2="190.61"/><polygon class="cls-7" points="235.57 48.91 247.15 60.49 249.91 64.94 245.38 63.6 235.57 48.91"/><polygon class="cls-7" points="248.61 66.3 249.85 65 258.33 73.47 257.11 75.03 248.61 66.3"/><rect class="cls-2" x="572" y="421" width="268" height="10" transform="translate(1412 852) rotate(180)"/><rect class="cls-2" x="779" y="421" width="188" height="10" transform="translate(1746 852) rotate(180)"/><polygon class="cls-2" points="900 421.38 1105.24 422.55 1105 428.37 900 430.21 900 421.38"/><path class="cls-19" d="M573.9,410.41c0.68-.74,4-0.61,4-0.61a23.08,23.08,0,0,0,.47,3.15c0.7,2.27,1.68,3.66,8.17,4.52,2.16,0.29,8.71.61,8.71,0.61s12.74,0.67,17,.92c5.29,0.31,16.31,1,21.21-.06a11.07,11.07,0,0,0,5.76-3.31l3.07,0.29a10.29,10.29,0,0,0,8,4.09H691.3a1.59,1.59,0,0,1,1.7,1.75v8.34a1.72,1.72,0,0,1-1.7,1.91h-22.8l-17.23.19a4,4,0,0,0-2.69.85s-1.94,1.79-2.65,2.31a2.59,2.59,0,0,1-2.49.29,16.87,16.87,0,0,0-4.13-1.51c-0.9-.08-19.74,1.1-30.78,1.1-5.6,0-17-1.51-22.5-1.59-3.86-.06-10.67.55-10.67,0.55-2.76.12-3.19-2.84-3.19-3.92,0,0-.74-6.13-0.67-9C571.56,418.8,573.16,411.2,573.9,410.41Z"/><path class="cls-7" d="M793.31,430s0.12,2.59.12,4.92S796,438,796,438h6.87c3.74,0,5.76-3.41,6.38-4.94s4.48-2,4.48-2a2.32,2.32,0,0,0,2.27-2v-7.6c0-1.08-1.5-1.38-2.58-1.38H809a1.73,1.73,0,0,0-1.49.43,2.89,2.89,0,0,0-.59-0.43H795.27c-1.08,0-1.27.92-1.27,2v7c0,0.31-.6,1-0.47,1h-0.22Z"/><path class="cls-7" d="M946.33,430s0.12,2.59.12,4.92S949,438,949,438h6.87c3.74,0,5.76-3.41,6.38-4.94s4.47-2,4.47-2a2.31,2.31,0,0,0,2.26-2v-7.6c0-1.08-1.48-1.38-2.56-1.38H962a1.73,1.73,0,0,0-1.49.43,2.89,2.89,0,0,0-.59-0.43H948.29c-1.08,0-1.29.92-1.29,2v7c0,0.31-.58,1-0.45,1h-0.22Z"/><path class="cls-7" d="M1106.24,430.7a23.45,23.45,0,0,0,1.76,4.86V436h3.82a43.56,43.56,0,0,1-1.36-6H1114v-1l36.51-1h3.12l1.51-2H1159v-2h-3.63l-1.75-2h-3l-36.58-.66V420h-3.67a38.79,38.79,0,0,1,1.27-6H1108v0.73a23.36,23.36,0,0,0-1.76,4.82s-6.24,1.2-6.24,2.41v7.23C1100,430.16,1106.12,430.69,1106.24,430.7Z"/><rect class="cls-2" x="641" y="480" width="267" height="10"/><rect class="cls-2" x="513" y="480" width="188" height="10"/><polygon class="cls-2" points="580 489.15 375 487.99 375.12 482.17 580 480.33 580 489.15"/><path class="cls-20" d="M906.58,500.13c-0.68.74-4,.61-4,0.61a23.08,23.08,0,0,0-.47-3.15c-0.7-2.27-1.68-3.66-8.17-4.52-2.16-.29-8.71-0.61-8.71-0.61s-12.74-.67-17-0.92c-5.29-.31-16.31-1-21.21.06a11.07,11.07,0,0,0-5.76,3.31l-3.07-.06a10.42,10.42,0,0,0-8-3.86H789.18a2.39,2.39,0,0,1-2.18-2.21v-8.34a2.63,2.63,0,0,1,2.18-2.45H812l17.23,0.08a3.87,3.87,0,0,0,2.69-.72s1.94-1.73,2.65-2.24a2.57,2.57,0,0,1,2.49-.26,16.92,16.92,0,0,0,4.13,1.53c0.9,0.08,19.74-1.1,30.78-1.1,5.6,0,17,1.51,22.5,1.6,3.86,0.06,10.67-.55,10.67-0.55,2.76-.12,3.19,2.85,3.19,3.92,0,0,.74,6.13.67,9C908.91,491.73,907.31,499.33,906.58,500.13Z"/><path class="cls-7" d="M687.17,481s-0.12-2.59-.12-4.92-2.57-3.08-2.57-3.08H677.6c-3.74,0-5.76,3.17-6.38,4.71s-4.22,1.92-4.22,1.92a2,2,0,0,0-2,1.92v7.6a2,2,0,0,0,2.06,1.85h4.41a1.73,1.73,0,0,0,1.49-.43,2.89,2.89,0,0,0,.59.43H685.2c1.08,0,.8-1.38.8-2.46v-7c0-.31,1.08-0.55.95-0.55h0.22Z"/><path class="cls-7" d="M534.15,481s-0.12-2.59-.12-4.92-2.57-3.08-2.57-3.08h-6.87c-3.74,0-5.76,3.17-6.38,4.71s-4.21,1.92-4.21,1.92a2,2,0,0,0-2,1.92v7.6a1.94,1.94,0,0,0,2,1.85h4.41a1.73,1.73,0,0,0,1.49-.43,2.89,2.89,0,0,0,.59.43h11.65c1.08,0,.81-1.38.81-2.46v-7c0-.31,1.06-0.55.93-0.55h0.22Z"/><path class="cls-7" d="M374.26,479.84C373.56,476.95,373,475,373,475v0h-4.34c0.6,1,1.06,4,1.36,6h-3v0.58L330,483h-3.12l-1.51,2H322v2h3.1l1.75,2h3l37.1,0.2V491h3.15c-0.26,1-.68,4-1.27,5H373v-0.19s0.55-2,1.26-4.82c0,0,5.74-1.2,5.74-2.41v-7.23C380,480.38,374.38,479.85,374.26,479.84Z"/><ellipse class="cls-7" cx="777.54" cy="95.85" rx="22.44" ry="17.88" transform="translate(159.96 577.88) rotate(-45)"/><ellipse class="cls-2" cx="788.32" cy="85.26" rx="19.67" ry="18.28" transform="translate(170.61 582.4) rotate(-45)"/><rect class="cls-7" x="785.59" y="106.41" width="9.12" height="31.92" transform="translate(144.91 594.56) rotate(-45)"/><path class="cls-7" d="M791.31,69.48a3.8,3.8,0,0,0-1.22,2.69c2.16,0.16,4.76,1.6,6.85,4s3.15,5.2,3,7.36a3.8,3.8,0,0,0,2.84-.82c2.18-1.89,1.39-6.39-1.78-10S793.49,67.59,791.31,69.48Z"/><path class="cls-21" d="M769.21,104.65a21.65,21.65,0,0,1-6.28-17.87,26,26,0,0,0-2.09,3A21.91,21.91,0,0,0,784.26,113a26,26,0,0,0,3-2.09A21.65,21.65,0,0,1,769.21,104.65Z"/><rect class="cls-7" x="827.78" y="120.46" width="4.02" height="84.21" transform="translate(128.09 634.36) rotate(-45)"/><ellipse class="cls-2" cx="754.04" cy="190.44" rx="20.52" ry="18.37" transform="translate(86.19 588.96) rotate(-45)"/><path class="cls-7" d="M751.48,165.5a24.68,24.68,0,0,0-4,5.15c-4.61,8-4,17.76,2.06,23.86,4.75,4.75,11.72,6.14,18.36,4.35a24,24,0,0,0,10.66-6.24c8.54-8.54,9.39-21.53,1.9-29S760,157,751.48,165.5Z"/><path class="cls-22" d="M758,186.41a22.75,22.75,0,0,1-6.72-18.31,25.17,25.17,0,0,0-2.07,3,23.27,23.27,0,0,0,24.26,24.09,25.2,25.2,0,0,0,3-2.07A22.74,22.74,0,0,1,758,186.41Z"/><ellipse class="cls-2" cx="775.85" cy="168.82" rx="6.17" ry="10.19" transform="translate(107.87 598.05) rotate(-45)"/><rect class="cls-7" x="787.98" y="179.97" width="9.12" height="30.04" transform="translate(94.25 617.52) rotate(-45)"/><rect class="cls-7" x="821.11" y="193.64" width="4.29" height="64.9" transform="translate(81.25 648.35) rotate(-45)"/><path class="cls-7" d="M272.7,590.52c21.08-21,50.58-20,63.93-6.65s4.89,32.36-16.2,53.37c-9.8,9.77-26,16-33.94,23.65-6.24,6-15.07,18.52-22.47,25.9-17.76,17.7-34.59,20.48-46.72,8.39s-0.76-37,11-48.76c6.91-6.89,16.22-13.55,21.74-19.64C257.72,618.34,262.35,600.83,272.7,590.52Z"/><path class="cls-2" d="M270.42,582.85c21.08-21,50.58-20,63.93-6.65s4.89,32.36-16.2,53.37c-9.8,9.77-26,16-33.94,23.65-6.24,6-15.07,18.52-22.47,25.9-17.76,17.7-34.59,20.48-46.72,8.39s-0.76-37,11-48.76c6.91-6.89,16.22-13.55,21.74-19.64C255.45,610.66,260.08,593.15,270.42,582.85Z"/><path class="cls-23" d="M316.89,633.19s-20.32,10.7-31.72,18.9C283.62,653.2,275,663.5,275,663.5s0.45-14.84-3.83-36c-2.56-12.64-1-34.17,9.18-40.71,0.25-.16,28.84,27.35,34.07,34.25C321.72,630.63,316.89,633.19,316.89,633.19Z"/><path class="cls-4" d="M309,638.91c-4.92-16.25-15.68-52.7-35.1-52.7-1.17,0-7.27,8-7.27,8l0.83-9.59,8.52-8.05s1.85-2.18,4.17-2.18c18.19,0,34.54,35.78,38.79,54.59C319.11,629.65,309.19,639.51,309,638.91Z"/><path class="cls-24" d="M246.4,620.57c-5.6,5.69-14,11.84-20.34,18.17-11.79,11.75-23.16,36.67-11,48.76s29,9.3,46.72-8.39c4.2-4.19,8.86-10,13.24-15.39l-2.53-17.08Z"/><path class="cls-4" d="M262.87,677.44c-12.27-9.38-37.65,11.49-50.72-3.72-12.44-14.47,18.69-48.2,18.69-48.2l-1.42,9.93s-22.82,20-13.75,29.63c14.66,15.61,36.64-.44,52.27,4.11C268.67,669.42,263,677.51,262.87,677.44Z"/><path class="cls-4" d="M233.27,619.48a1.22,1.22,0,0,0-.71.94l-4.77,6.28c-0.86-.07-4.49,19.15-4.49,19.15l5.85-6.47s0.77-6.36,1.75-11.89c-0.36-.15-0.71-0.28-1.07-0.39l0.87,0.17,0.29-.32-0.1.54c13.23,5.46,26.2,37,30.46,48.38,0.17,0.46,6.85-6.18,6.7-6.7C263.8,655.09,246.63,620.58,233.27,619.48Z"/><path class="cls-7" d="M394.83,694.58c21.08-21.08,20-50.58,6.68-63.93s-32.48-4.89-53.56,16.2c-9.8,9.8-16.08,26-23.74,33.94-6,6.24-18.59,15.07-26,22.47C280.46,721,277.66,737.84,289.79,750s37.15,0.76,48.94-11c6.91-6.91,13.6-16.22,19.71-21.74C366.91,709.55,384.49,704.92,394.83,694.58Z"/><path class="cls-2" d="M394.83,686.62c21.08-21.08,20-50.58,6.68-63.93s-32.48-4.89-53.56,16.2c-9.8,9.8-16.08,26-23.74,33.94-6,6.24-18.59,15.07-26,22.47C280.46,713,277.66,729.88,289.79,742s37.15,0.76,48.94-11c6.91-6.91,13.6-16.22,19.71-21.74C366.91,701.59,384.49,697,394.83,686.62Z"/><path class="cls-25" d="M392.35,690.74l-41.42,20.93s0-5.46-4.26-26.61c-2.56-12.64-3.51-41.67,6.71-48.21,0.15-.1,12.15-12.58,31,14.92C389.29,658.91,392.35,690.74,392.35,690.74Z"/><path class="cls-4" d="M390.25,691.42c-4.92-16.25-16.35-55.33-35.77-55.33-1.17,0-7.27,8-7.27,8l0.83-9.59,8.52-8.05s1.85-2.18,4.17-2.18c18.19,0,35.18,37.7,39.43,56.51C400.32,681.45,390.44,692,390.25,691.42Z"/><path class="cls-26" d="M321.79,675.16c-6.54,6-17.05,13.61-23.57,20.13C280.46,713,277.66,729.88,289.79,742s37.15,0.76,48.94-11c5-5,9.8-11.14,14.39-16.28Z"/><path class="cls-4" d="M335.77,733.08c-12.27-9.38-37.65,11.49-50.72-3.72-12.44-14.47,18.69-48.2,18.69-48.2l-1.42,9.93s-22.82,20-13.75,29.63c14.66,15.61,36.64-.44,52.27,4.11C341.57,725.05,335.86,733.14,335.77,733.08Z"/><path class="cls-4" d="M306.18,675.11a1.22,1.22,0,0,0-.71.94l-4.77,6.28c-0.86-.07-4.49,19.15-4.49,19.15l5.85-6.47s0.77-6.36,1.75-11.89c-0.36-.15-0.71-0.28-1.07-0.39l0.87,0.17,0.29-.32-0.1.54c13.23,5.46,26.2,37,30.46,48.38,0.17,0.46,6.85-6.18,6.7-6.7C336.7,710.73,319.53,676.22,306.18,675.11Z"/><polygon class="cls-7" points="863.38 730.54 798.23 664.83 880.57 582.49 945.72 648.2 863.38 730.54"/><polygon class="cls-2" points="865.93 696.29 797.86 664.86 886.53 575.91 954.59 607.34 865.93 696.29"/><path class="cls-27" d="M888.16,637.67L907.74,619l-25.11-11-19.58,18.7s-4.8,4.4,1.42,8c0.38,0.22,4.76,2,4.46,3.84,2.5-.85,6.73,1.1,7.18,1.25C883.62,642.18,888.16,637.67,888.16,637.67Zm-11.73,1.54c-0.43-.13-4.46-2-6.84-1.19,0.29-1.73-3.9-3.45-4.26-3.66-5.93-3.44-1.36-7.64-1.36-7.64l18.67-17.83,23.95,10.46h0l-18.67,17.83S883.59,641.48,876.43,639.21Z"/><path class="cls-27" d="M866.66,630.58s-0.91-.75-0.49-1.28a2.37,2.37,0,0,1,.87-0.6,1,1,0,0,0,.54,0c0.14-.1.28-0.25,0.15-0.39a0.38,0.38,0,0,0-.47-0.08,0.32,0.32,0,0,0-.26.18s0,0.32-.61.36a4.47,4.47,0,0,1,.7-1,17,17,0,0,1,2-1c0.4-.15,1.23-0.42,1.23-0.42a7.8,7.8,0,0,1-2.75,1.47,5.72,5.72,0,0,0,3.38-1.49,7.93,7.93,0,0,0,.61-0.78s-1.69.51-2.34,0.8a14.93,14.93,0,0,0-1.56.78s0.79-.8.92-0.88a7.16,7.16,0,0,1,1.06-.34,0.44,0.44,0,0,0,.37,0c0.19-.08.4-0.25,0.27-0.38a0.68,0.68,0,0,0-.49-0.07,0.59,0.59,0,0,0-.28.29l-0.53.09,0.85-.79a18.66,18.66,0,0,1,2-.89l1.24-.43a7.8,7.8,0,0,1-2.75,1.47,5.55,5.55,0,0,0,3.34-1.55c0.2-.19.64-0.71,0.64-0.71s-1.68.44-2.32,0.72a14.39,14.39,0,0,0-1.49.78s0.71-.73.84-0.8a7.16,7.16,0,0,1,1.06-.34,0.46,0.46,0,0,0,.37,0c0.19-.08.4-0.25,0.27-0.38a0.68,0.68,0,0,0-.49-0.07,0.59,0.59,0,0,0-.28.29l-0.53.09,0.87-.81a18.66,18.66,0,0,1,2-.89l1.24-.43a7.8,7.8,0,0,1-2.75,1.47,5.7,5.7,0,0,0,3.37-1.48,7.93,7.93,0,0,0,.61-0.78s-1.6.43-2.24,0.7a15.8,15.8,0,0,0-1.57.79s0.71-.73.84-0.8a7.16,7.16,0,0,1,1.06-.34,0.46,0.46,0,0,0,.37,0c0.19-.08.4-0.25,0.27-0.38a0.68,0.68,0,0,0-.49-0.07,0.59,0.59,0,0,0-.28.29l-0.53.09,0.74-.69a12.85,12.85,0,0,1,1.92-.93l1-.36a6.3,6.3,0,0,1-2.39,1.34,4.31,4.31,0,0,0,2.94-1.26c0.21-.2.85-0.86,0.85-0.86a17.86,17.86,0,0,0-2.17.61,14.83,14.83,0,0,0-1.51.85s0.7-.71.83-0.79a8.67,8.67,0,0,1,.83-0.36,0.35,0.35,0,0,0,.34.09c0.25-.09.38-0.17,0.28-0.36a0.47,0.47,0,0,0-.41-0.11,0.45,0.45,0,0,0-.25.25l-0.38.1,0.61-.56a9,9,0,0,1,1.84-1l1.17-.43a5.75,5.75,0,0,1-2.28,1.29,5.91,5.91,0,0,0,3.09-1.3c0.2-.19.74-0.81,0.74-0.81a20.89,20.89,0,0,0-2.38.66,6.68,6.68,0,0,0-1.55,1s0.79-.8.92-0.87,0.69-.32.69-0.32a0.31,0.31,0,0,0,.31,0,0.24,0.24,0,0,0,.18-0.35,0.24,0.24,0,0,0-.28-0.08,0.62,0.62,0,0,0-.29.29l-0.25,0,0.59-.58a13,13,0,0,1,1.88-.9c0.4-.15,1.3-0.4,1.3-0.4a5.34,5.34,0,0,1-2.26,1.25,3.77,3.77,0,0,0,2.75-1.14,3.19,3.19,0,0,0,.63-0.7,15.28,15.28,0,0,0-2.38.57,18.06,18.06,0,0,0-1.74,1l3.69-3.54a4.64,4.64,0,0,1-1.69,2.15,12.23,12.23,0,0,0,1.32-.88,2,2,0,0,0,.69-1.18,6,6,0,0,1,.37-0.78,4.4,4.4,0,0,1-1,.53,4.58,4.58,0,0,0-1.42.9,5.77,5.77,0,0,0-1,1.59c0,0.11-1.27,1.24-1.27,1.24a2.38,2.38,0,0,1-.14-1.11,3.63,3.63,0,0,1,.65-1.17s0,0.4,0,.62a5.26,5.26,0,0,1-.15,1c0.9-.74.46-2.38,0.46-2.38a5.73,5.73,0,0,0-1.65,2.13,2,2,0,0,0,.49,1.29l-0.52.49-0.1-.21a0.64,0.64,0,0,0,.28-0.29,0.35,0.35,0,0,0-.32-0.24,0.43,0.43,0,0,0-.42.34c0,0.15.21,0.2,0.21,0.2a1.13,1.13,0,0,1,0,.52c0,0.11-1.39,1.35-1.39,1.35a2.09,2.09,0,0,1,0-1.13,4,4,0,0,1,.52-1.14,5.09,5.09,0,0,1,.14.6,3.9,3.9,0,0,1-.19.87c0.9-.74.58-2.5,0.58-2.5a6.3,6.3,0,0,0-1.66,2.14,1.84,1.84,0,0,0,.39,1.39l-0.51.48-0.12-.34a0.68,0.68,0,0,0,.28-0.29,0.37,0.37,0,0,0-.32-0.24,0.41,0.41,0,0,0-.42.34c0,0.15.21,0.19,0.21,0.19a2.27,2.27,0,0,1,0,.7c0,0.11-1.39,1.35-1.39,1.35a2.14,2.14,0,0,1,0-1.12,4.07,4.07,0,0,1,.52-1.14,6.12,6.12,0,0,1,.15.6,3.9,3.9,0,0,1-.19.87c0.9-.74.58-2.5,0.58-2.5a6.3,6.3,0,0,0-1.66,2.14,1.83,1.83,0,0,0,.39,1.4l-0.55.51-0.12-.34a0.68,0.68,0,0,0,.28-0.29,0.36,0.36,0,0,0-.33-0.24,0.4,0.4,0,0,0-.41.33c0,0.15.21,0.19,0.21,0.19a2.27,2.27,0,0,1,0,.7c0,0.11-1.39,1.35-1.39,1.35a2.14,2.14,0,0,1,0-1.12,4.07,4.07,0,0,1,.52-1.14,5.09,5.09,0,0,1,.14.6,3.68,3.68,0,0,1-.18.87c0.9-.74.58-2.5,0.58-2.5a6.3,6.3,0,0,0-1.66,2.14,1.85,1.85,0,0,0,.38,1.4l-0.68.65-0.12-.34a0.68,0.68,0,0,0,.28-0.29,0.37,0.37,0,0,0-.32-0.24,0.41,0.41,0,0,0-.42.34c0,0.15.21,0.19,0.21,0.19a2.27,2.27,0,0,1,0,.7c0,0.11-1.39,1.35-1.39,1.35a2.14,2.14,0,0,1,0-1.12,4.07,4.07,0,0,1,.52-1.14,6.12,6.12,0,0,1,.15.6,3.9,3.9,0,0,1-.19.87c0.9-.74.58-2.5,0.58-2.5a6.3,6.3,0,0,0-1.66,2.14,1.76,1.76,0,0,0,.4,1.38l-0.68.65-0.12-.34a0.66,0.66,0,0,0,.27-0.29,0.35,0.35,0,0,0-.32-0.24,0.4,0.4,0,0,0-.41.33c0,0.15.21,0.19,0.21,0.19a2.45,2.45,0,0,1,0,.7c-0.05.11-1.39,1.35-1.39,1.35a2.14,2.14,0,0,1,0-1.12,4,4,0,0,1,.52-1.14,5.09,5.09,0,0,1,.14.6,3.9,3.9,0,0,1-.18.87c0.9-.73.58-2.5,0.58-2.5a6.25,6.25,0,0,0-1.65,2.13,1.86,1.86,0,0,0,.42,1.42c-0.32.37-.72,0.87-0.72,0.87-0.21-.35,0-0.46,0-0.46a0.36,0.36,0,0,0,.17-0.29,0.29,0.29,0,0,0-.33-0.29,0.39,0.39,0,0,0-.37.3,0.31,0.31,0,0,0,.08.29,4,4,0,0,0,.21.86,1.94,1.94,0,0,0,.36,2.42Zm-0.43.15c-0.13.1-.18,0.11-0.23,0a1,1,0,0,1-.08-0.73,2.4,2.4,0,0,0,.29.6C866.32,630.65,866.36,630.64,866.23,630.73Z"/><path class="cls-27" d="M887.72,634.46a12.92,12.92,0,0,0-1.56.78s0.79-.8.92-0.88a6.68,6.68,0,0,1,1.05-.34,0.45,0.45,0,0,0,.38,0c0.19-.08.4-0.25,0.27-0.38a0.68,0.68,0,0,0-.49-0.07,0.63,0.63,0,0,0-.29.29l-0.53.09,0.85-.79a19.4,19.4,0,0,1,2-.89l1.24-.43a7.8,7.8,0,0,1-2.75,1.47,5.52,5.52,0,0,0,3.34-1.55c0.2-.19.64-0.71,0.64-0.71s-1.68.45-2.32,0.72a12.37,12.37,0,0,0-1.49.78s0.71-.73.84-0.8a6.68,6.68,0,0,1,1.05-.34,0.48,0.48,0,0,0,.38,0c0.19-.08.4-0.25,0.27-0.38A0.68,0.68,0,0,0,891,631a0.63,0.63,0,0,0-.29.29l-0.53.09,0.87-.81a19.4,19.4,0,0,1,2-.89l1.24-.43a7.8,7.8,0,0,1-2.75,1.47,5.7,5.7,0,0,0,3.37-1.48,7.55,7.55,0,0,0,.61-0.78s-1.6.43-2.23,0.71a13.61,13.61,0,0,0-1.57.79s0.71-.73.84-0.8a6.68,6.68,0,0,1,1.05-.34,0.48,0.48,0,0,0,.38,0c0.19-.08.4-0.25,0.27-0.38a0.68,0.68,0,0,0-.49-0.07,0.63,0.63,0,0,0-.29.29l-0.53.09,0.74-.69a13.55,13.55,0,0,1,1.92-.93l1-.36a6.3,6.3,0,0,1-2.39,1.34,4.31,4.31,0,0,0,2.94-1.26c0.21-.2.85-0.86,0.85-0.86a17.05,17.05,0,0,0-2.17.61,12.76,12.76,0,0,0-1.51.85s0.7-.71.83-0.79a7.45,7.45,0,0,1,.83-0.36,0.33,0.33,0,0,0,.33.09c0.25-.09.38-0.17,0.28-0.36a0.47,0.47,0,0,0-.41-0.11,0.42,0.42,0,0,0-.25.25l-0.39.1,0.61-.56a8.9,8.9,0,0,1,1.84-1l1.17-.43a5.75,5.75,0,0,1-2.28,1.29,5.87,5.87,0,0,0,3.08-1.31c0.2-.19.74-0.81,0.74-0.81a20.15,20.15,0,0,0-2.38.66,6.46,6.46,0,0,0-1.55,1s0.79-.8.92-0.87a6.28,6.28,0,0,1,.69-0.32,0.31,0.31,0,0,0,.31,0,0.25,0.25,0,0,0,.18-0.35,0.24,0.24,0,0,0-.28-0.08,0.58,0.58,0,0,0-.29.29l-0.25,0,0.6-.58a12.63,12.63,0,0,1,1.87-.9c0.4-.15,1.31-0.4,1.31-0.4a5.32,5.32,0,0,1-2.27,1.25,3.79,3.79,0,0,0,2.76-1.14,3.19,3.19,0,0,0,.63-0.7,15.28,15.28,0,0,0-2.38.57,18.14,18.14,0,0,0-1.74,1l3.69-3.54a4.57,4.57,0,0,1-1.69,2.15,11.82,11.82,0,0,0,1.33-.88,2.09,2.09,0,0,0,.69-1.18,6,6,0,0,1,.37-0.78,4.32,4.32,0,0,1-1,.53,4.85,4.85,0,0,0-1.42.9,6.2,6.2,0,0,0-1,1.59c0,0.11-1.27,1.25-1.27,1.25a2.51,2.51,0,0,1-.15-1.11,3.58,3.58,0,0,1,.66-1.17s0,0.4,0,.62a5.9,5.9,0,0,1-.15,1c0.9-.74.46-2.38,0.46-2.38a5.8,5.8,0,0,0-1.66,2.13,2,2,0,0,0,.49,1.3l-0.52.49-0.1-.21a0.69,0.69,0,0,0,.28-0.29,0.35,0.35,0,0,0-.32-0.24,0.41,0.41,0,0,0-.42.34c0,0.15.21,0.19,0.21,0.19a1,1,0,0,1,0,.52c0,0.11-1.38,1.35-1.38,1.35a2.09,2.09,0,0,1,0-1.13,4,4,0,0,1,.52-1.14,5.48,5.48,0,0,1,.13.6,3.63,3.63,0,0,1-.18.88c0.9-.74.58-2.5,0.58-2.5a6.38,6.38,0,0,0-1.67,2.13,1.86,1.86,0,0,0,.39,1.39l-0.51.48-0.12-.34a0.64,0.64,0,0,0,.27-0.3,0.36,0.36,0,0,0-.32-0.24,0.41,0.41,0,0,0-.42.34c0,0.15.21,0.19,0.21,0.19a2.12,2.12,0,0,1,0,.7c0,0.11-1.38,1.35-1.38,1.35a2.14,2.14,0,0,1,0-1.12,4.07,4.07,0,0,1,.52-1.14s0.11,0.38.14,0.59a3.63,3.63,0,0,1-.18.88c0.9-.74.58-2.5,0.58-2.5a6.38,6.38,0,0,0-1.67,2.13,1.85,1.85,0,0,0,.4,1.4l-0.55.51-0.12-.34a0.64,0.64,0,0,0,.27-0.3,0.35,0.35,0,0,0-.32-0.24,0.4,0.4,0,0,0-.41.33c0,0.15.21,0.19,0.21,0.19a2.12,2.12,0,0,1,0,.7c0,0.11-1.38,1.35-1.38,1.35a2.14,2.14,0,0,1,0-1.12,4.07,4.07,0,0,1,.52-1.14,5.48,5.48,0,0,1,.13.6,3.43,3.43,0,0,1-.18.87c0.9-.74.58-2.5,0.58-2.5a6.38,6.38,0,0,0-1.67,2.13,1.87,1.87,0,0,0,.38,1.4l-0.68.65-0.12-.34a0.64,0.64,0,0,0,.27-0.3,0.36,0.36,0,0,0-.32-0.24,0.41,0.41,0,0,0-.42.34c0,0.15.21,0.19,0.21,0.19a2.12,2.12,0,0,1,0,.7c0,0.11-1.38,1.35-1.38,1.35a2.14,2.14,0,0,1,0-1.12,4.07,4.07,0,0,1,.52-1.14s0.11,0.38.14,0.59a3.63,3.63,0,0,1-.18.88c0.9-.74.58-2.5,0.58-2.5a6.38,6.38,0,0,0-1.67,2.13,1.78,1.78,0,0,0,.4,1.38l-0.68.65-0.12-.34a0.62,0.62,0,0,0,.27-0.29A0.35,0.35,0,0,0,887,633a0.4,0.4,0,0,0-.41.33c0,0.15.21,0.19,0.21,0.19a2.27,2.27,0,0,1,0,.7c-0.05.11-1.38,1.35-1.38,1.35a2.14,2.14,0,0,1,0-1.12,4,4,0,0,1,.52-1.14,5.48,5.48,0,0,1,.13.6,3.63,3.63,0,0,1-.18.87c0.9-.73.58-2.5,0.58-2.5a6.34,6.34,0,0,0-1.66,2.13,1.93,1.93,0,0,0,.35,1.41,4.76,4.76,0,0,1-1,.69,0.39,0.39,0,0,1,.3-0.5,0.26,0.26,0,0,0,.15-0.22c0-.17,0-0.23-0.29-0.25a0.53,0.53,0,0,0-.49.24c-0.09.12,0.19,0.32,0.19,0.32a1.63,1.63,0,0,1-.54.74,3.36,3.36,0,0,1-2,.19l-1.09.64a5.94,5.94,0,0,0,3.62-.69s1-.11,1.32-0.19a1,1,0,0,0,.44-0.07c0.16-.09.39-0.19,0.29-0.33a0.51,0.51,0,0,0-.54-0.09,0.56,0.56,0,0,0-.35.21,0.64,0.64,0,0,1-.64.19c0.66-.46,1.12-0.84,1.12-0.84a17.53,17.53,0,0,1,2-1c0.4-.15,1.23-0.42,1.23-0.42a7.8,7.8,0,0,1-2.75,1.47,5.72,5.72,0,0,0,3.38-1.49,7.55,7.55,0,0,0,.61-0.78S888.36,634.18,887.72,634.46Zm-6.3,3c-0.21,0-.2,0-0.12-0.13s0.09-.09.24,0a7.05,7.05,0,0,0,1,0A3.3,3.3,0,0,1,881.42,637.45Z"/><path class="cls-27" d="M875.63,634.5l-1.43-.62a0.41,0.41,0,0,1-.21-0.31l-0.93.55a0.18,0.18,0,0,0,.09.3l1.18,0.51-1.43,1.37,0.94,0.08a0.28,0.28,0,0,0,.21-0.12l1.58-1.51S875.84,634.59,875.63,634.5Zm-0.45.37L874,636a0.21,0.21,0,0,1-.16.09,2,2,0,0,1-.26,0l1.26-1.2-1.07-.47a0.14,0.14,0,0,1-.05-0.25l0.24-.16a0.31,0.31,0,0,0,.16.25l1,0.46A0.1,0.1,0,0,1,875.18,634.86Z"/><path class="cls-27" d="M881,636.7c-0.13-.06-0.48-0.16-0.59-0.23a1.19,1.19,0,0,1-.22-0.22l-1.18.64a1.17,1.17,0,0,0,.49.27l-0.7.54,0.89,0.16a5.38,5.38,0,0,1,1.17-.82C881.13,636.88,881.13,636.75,881,636.7Zm-0.68.43a4.48,4.48,0,0,0-.64.46l-0.22,0,0.52-.4a0.66,0.66,0,0,1-.37-0.16l0.4-.21a0.9,0.9,0,0,1,.18.1,1.07,1.07,0,0,0,.19.09C880.48,637,880.51,637,880.32,637.13Z"/><path class="cls-27" d="M871.59,634.59c-0.05-.07.17-0.16,0.17-0.16s0.32,0,.44,0a0.63,0.63,0,0,0,.36-0.18l0.65-.62c0.09-.09.15-0.11,0-0.19a6.15,6.15,0,0,0-.56-0.27,0.83,0.83,0,0,1-.22-0.15c-0.15.11-1,.53-1,0.53a0.93,0.93,0,0,0,.24.19c0.1,0.06,0,0,0,.11a1.56,1.56,0,0,1-.33.32,7.11,7.11,0,0,1-.56-1.68,0.15,0.15,0,0,0-.22-0.07c-0.08,0-.79.28-0.79,0.28s-0.38.55-.58,0.77a10.25,10.25,0,0,1-1,.81l1.11,0.48,0.88-.45-0.6-.26,0.42-.4a0.12,0.12,0,0,1,.12-0.05s0.58,1.64.63,1.74,0.11,0.07.11,0.07l0.91-.4A2.25,2.25,0,0,1,871.59,634.59Zm0.89-1.21a0.69,0.69,0,0,0,.17.11l0.18,0.07c0.11,0,0,.15-0.09.21l-0.13.13a1.17,1.17,0,0,1-.33.25,2.83,2.83,0,0,1-.34,0,3.05,3.05,0,0,0,.42-0.37c0-.06.06,0,0-0.09a1.93,1.93,0,0,1-.27-0.12A3.88,3.88,0,0,0,872.47,633.38Zm-1.41,1.72a0.46,0.46,0,0,0,0-.14c0-.08-0.75-1.8-0.75-1.8l-0.18.15-0.78.77,0.49,0.21-0.36.13-0.59-.26s0.55-.42.71-0.59l0.62-.69a1.5,1.5,0,0,0,.22-0.07,0.11,0.11,0,0,1,.17.05,4.3,4.3,0,0,0,.88,2.07Z"/><path class="cls-27" d="M878.88,635.92l-0.85.51,0.2,0.14a2.11,2.11,0,0,1-.41.36,1,1,0,0,1-.44.13c-0.14,0-.72-0.16-0.72-0.16s1.78-1.08,1.85-1.14l-0.79-.35-0.86.45L877,636s-1.1.55-1.24,0.58a1.07,1.07,0,0,1,.61-0.74c0.23-.14.71-0.44,0.87-0.5s0-.13-0.06-0.17a1.25,1.25,0,0,1-.62-0.42l-0.93.45a0.27,0.27,0,0,0,.14.28c0.18,0.13-.14.18-0.2,0.19a0.59,0.59,0,0,0-.29.15l-1.11,1s2.45,0.72,2.64.77a0.44,0.44,0,0,0,.26,0c0.11,0,.82-0.21.89-0.23a0.46,0.46,0,0,0,.18-0.11l1.3-1.12-0.61-.27h0Zm-0.64,1.16a1.5,1.5,0,0,1-.31.2l-0.74.14a0.43,0.43,0,0,1-.21,0l-2.19-.64,0.89-.82a0.79,0.79,0,0,1,.26-0.17c0.06,0,.47-0.13.38-0.2a0.79,0.79,0,0,1-.19-0.18l0.43-.2c0.15,0.08.15,0.13,0.22,0.16s0.14,0.1.05,0.13-0.5.3-.69,0.41a4.21,4.21,0,0,0-.79.75,1.53,1.53,0,0,0,.54.22c0.11,0,1.65-.81,1.65-0.81l-0.3-.13,0.35-.15L878,636c-0.06.05-1.8,1-1.8,1s1,0.28,1.07.29a2.1,2.1,0,0,0,.65-0.14,7.36,7.36,0,0,0,.66-0.53l-0.2-.1,0.4-.24,0.29,0.13Z"/><path class="cls-27" d="M883.12,626.06h0v0h0v0Z"/><path class="cls-27" d="M883.1,626v0A0,0,0,0,0,883.1,626Z"/><path class="cls-27" d="M898.29,619.53a1.35,1.35,0,0,0-.86-0.3,0.76,0.76,0,0,0-.7.48,1.88,1.88,0,0,1-.56.7,1.73,1.73,0,0,1-.39.33c-0.14,0-.31.35-0.43,0.38a0.58,0.58,0,0,0-.33.24l-0.24.15c-0.13.1-.32,0.28-0.32,0.28a2,2,0,0,1-.4.32s-0.41.26-.71,0.41a1.76,1.76,0,0,1-.53.31l-0.5.31a7,7,0,0,0-.73.18s-0.47.14-.7,0.23l-0.54.19a2.36,2.36,0,0,0-.88.07c-0.11.05-.64,0-1.14,0.06a5.61,5.61,0,0,1-.74-0.07,1.56,1.56,0,0,0-.6-0.09s-0.62-.14-0.74-0.15l-0.32-.06c0.15-.16.31-0.35,0.31-0.35a0.75,0.75,0,0,0,.21-0.16h0a5,5,0,0,0,.91.14,2.32,2.32,0,0,0,1.08.09,0.53,0.53,0,0,0,.46,0,4,4,0,0,0,.53.05,1.41,1.41,0,0,0,.61-0.14l0.39-.08a3.36,3.36,0,0,0,1-.27,5.57,5.57,0,0,0,.57-0.23,8.37,8.37,0,0,0,1.1-.59,5.42,5.42,0,0,0,.7-0.44c0.45-.34,1-0.8,1-0.8a3.82,3.82,0,0,1,.43-0.38,2,2,0,0,1,.27-0.33,3.31,3.31,0,0,1,1-.65,0.35,0.35,0,0,0,.06-0.67,1.75,1.75,0,0,0-.9-0.14,0.87,0.87,0,0,0-.78.44,1.38,1.38,0,0,1-.4.67c-0.1.14-.34,0.41-0.34,0.41a1,1,0,0,0-.37.25,2.11,2.11,0,0,1-.27.19,1.36,1.36,0,0,0-.27.24L893,621a0.85,0.85,0,0,0-.51.37,5.49,5.49,0,0,0-.87.37,6,6,0,0,1-.72.3,1.08,1.08,0,0,0-.27,0,2.52,2.52,0,0,0-1,.18,2.27,2.27,0,0,0-.71.05,1.89,1.89,0,0,0-.62-0.06s-0.8,0-.92,0l-0.12,0a7.46,7.46,0,0,0,.59-0.62,4.84,4.84,0,0,0,1.85.16,1.18,1.18,0,0,1,.43-0.12,6.46,6.46,0,0,0,.9-0.28,4.79,4.79,0,0,0,.82-0.38,3.73,3.73,0,0,0,.93-0.6,0.67,0.67,0,0,0,.44-0.48s0.38-.3.52-0.44a8.25,8.25,0,0,1,.88-0.73c0.33-.21.49-0.35,0.28-0.57a1.69,1.69,0,0,0-.92-0.43,1.21,1.21,0,0,0-1,.38,1.54,1.54,0,0,1-.19.79c-0.11.16-.48,0.58-0.48,0.58a0.32,0.32,0,0,0-.16.19l-0.13.12a2.85,2.85,0,0,1-.75.45,0.52,0.52,0,0,0-.34.21,1.38,1.38,0,0,0-.65.26,7.11,7.11,0,0,1-.71.13,1.6,1.6,0,0,1-.78-0.11l-0.2,0c0.15-.16.28-0.27,0.28-0.27a4.21,4.21,0,0,0,.32-0.27c0.15-.14.08-0.2,0.08-0.2l0.25-.12a0.32,0.32,0,0,0,.2-0.07,0.15,0.15,0,0,0,0-.16,3.08,3.08,0,0,0,.46-0.44,1.78,1.78,0,0,0,.22-0.27,1.94,1.94,0,0,0,.5-0.5,0.92,0.92,0,0,1,.38-0.4c0.17-.08.76-0.29,1-0.36s0.5-.24,0-0.7a1.64,1.64,0,0,0-1.33-.37,0.89,0.89,0,0,0-.61.4c-0.11.11,0,.54-0.07,0.64s-0.25.17-.36,0.28a0.79,0.79,0,0,0-.24.25,0.67,0.67,0,0,0-.28.06,0.56,0.56,0,0,0-.05.24,0.07,0.07,0,0,1-.1.06,0.8,0.8,0,0,0-.31.15c-0.06.08-.16,0.21-0.09,0.27a0.84,0.84,0,0,1-.17.16,0.63,0.63,0,0,0-.27.14,0.39,0.39,0,0,0-.09.29,0.26,0.26,0,0,0-.22.06,1.38,1.38,0,0,0-.29.18l-0.43.45h0a0.76,0.76,0,0,1-.47-0.64,0.4,0.4,0,0,0-.06-0.33,0.54,0.54,0,0,0,.12-0.49,0.34,0.34,0,0,0,.17-0.29,1.1,1.1,0,0,1,.25-0.54,0.65,0.65,0,0,0,.21-0.11,0.25,0.25,0,0,0,.13-0.18,8,8,0,0,1,.69-0.6,4.35,4.35,0,0,1,1.06-.41c0.33-.07.54-0.33,0.44-0.48a2.86,2.86,0,0,0-1.21-.63,0.69,0.69,0,0,0-.85.32,1.81,1.81,0,0,1-.44.82c-0.14.14-.44,0.48-0.44,0.48a0.71,0.71,0,0,0-.4.44,3.65,3.65,0,0,0-.6.9,3.5,3.5,0,0,0-.33.63,1.58,1.58,0,0,0,0,.59c0.09,0.09,0,.09,0,0.3a1.41,1.41,0,0,0,.81,1.07,0.43,0.43,0,0,0-.11.11,0.42,0.42,0,0,1-.1.22s-0.19.1-.36,0.21a1,1,0,0,1-.16-0.16l-0.35-.47a0.81,0.81,0,0,0-.33-0.34,0.6,0.6,0,0,0-.18-0.41,1.12,1.12,0,0,0,0-.37s0-.38,0-0.38a2.62,2.62,0,0,1,.08-0.61,1.9,1.9,0,0,0,.11-0.56,0.82,0.82,0,0,0,.37-0.54,0.52,0.52,0,0,1,.2-0.25,1.34,1.34,0,0,0,.25-0.25A1.21,1.21,0,0,1,886,617a0.23,0.23,0,0,0,.13-0.18s0.39-.38.56-0.49a2.76,2.76,0,0,1,.79-0.65,0.49,0.49,0,0,0,.45-0.54,1.28,1.28,0,0,0-.82-0.43,0.69,0.69,0,0,0-.85.32,1.81,1.81,0,0,1-.44.82l-0.38.38a3.17,3.17,0,0,1-.39.4s-0.36.42-.68,0.82a3.39,3.39,0,0,0-.39.58,2.36,2.36,0,0,0-.26.71,4.27,4.27,0,0,0-.11.42,1.45,1.45,0,0,0-.11.81l0.1,0.25a0.5,0.5,0,0,0,0,.44,0.84,0.84,0,0,0,.2.35,0.38,0.38,0,0,0,.21.37,0.49,0.49,0,0,0,.36.44,1.82,1.82,0,0,0,.46.44,2,2,0,0,0,.22.15,0.39,0.39,0,0,0-.08.13s-0.34.25-.52,0.41c-0.14-.09-0.35-0.25-0.35-0.25a4.91,4.91,0,0,0-.48-0.39,0.76,0.76,0,0,0-.24-0.33,1.54,1.54,0,0,1-.29-0.41c-0.08-.33-0.37-0.66-0.33-0.74a0.46,0.46,0,0,0-.18-0.43,1.38,1.38,0,0,0,0-.59,1.11,1.11,0,0,0,0-.39c0-.22.11-0.5,0.11-0.5a3.4,3.4,0,0,1,.28-0.4,0.94,0.94,0,0,1,.18-0.44l0.25-.61a2.17,2.17,0,0,1,.35-0.36,0.7,0.7,0,0,1,.11-0.29,1.65,1.65,0,0,1,.27-0.24,0.25,0.25,0,0,0,.17-0.21c0-.08.12-0.15,0.14-0.25a3.72,3.72,0,0,1,.49-0.55,2.64,2.64,0,0,1,.79-0.65,0.48,0.48,0,0,0,.44-0.54,1.22,1.22,0,0,0-.81-0.35,0.64,0.64,0,0,0-.77.43,1.31,1.31,0,0,1-.52.62l-0.35.32s-0.26.27-.54,0.51c0,0-.27.3-0.59,0.7a3.51,3.51,0,0,0-.35.46,3.56,3.56,0,0,0-.52.68,2.16,2.16,0,0,0-.11.42,1.62,1.62,0,0,0-.26.8,1.08,1.08,0,0,0-.17.73,0.51,0.51,0,0,0,0,.38,0.7,0.7,0,0,0,0,.46,0.38,0.38,0,0,0,0,.51,0.5,0.5,0,0,0,.16.51,0.55,0.55,0,0,0,.27.53s-0.31.16,0.25,0.4l0,0a0.47,0.47,0,0,0,.22.25,2.1,2.1,0,0,0,.49.44l0.48,0.28-0.5.48s0.23,0.17.1,0.3-0.18.17-.1,0.24,0,0.09-.16.19a0.68,0.68,0,0,0-.25.14,0.77,0.77,0,0,0-.56.22l-0.15-.07-0.39.37,0.28,0.12a0.23,0.23,0,0,1-.07.1,1.55,1.55,0,0,1-.32.33l-0.36.1a3,3,0,0,0-1.7.75,1.26,1.26,0,0,1-.94,0l4.54,2c-0.25-.21-0.33-0.32-0.15-0.53a1.15,1.15,0,0,0,.45-1.3c0-.07,0-0.18,0-0.25a1.71,1.71,0,0,1,.35-0.31,0.4,0.4,0,0,1,.12-0.08l0.28,0.12,0.39-.37-0.15-.07c0.26-.25.12-0.42,0.12-0.42a0.37,0.37,0,0,0,.12-0.2,0.26,0.26,0,0,1,.21-0.17,0.31,0.31,0,0,0,.31-0.15,0.67,0.67,0,0,1,.48-0.05l0.51-.49,0.77,0.14a5.25,5.25,0,0,0,.55.11,1.32,1.32,0,0,1,.41,0,0.73,0.73,0,0,0,.7.09,1.12,1.12,0,0,0,.76-0.08,2.36,2.36,0,0,0,1,0,1.22,1.22,0,0,0,.7-0.15,2.94,2.94,0,0,0,.72-0.15,1.21,1.21,0,0,0,.48-0.16,3.09,3.09,0,0,0,1.1-.48,1.88,1.88,0,0,0,.74-0.31,4,4,0,0,0,.68-0.36,6.27,6.27,0,0,0,.86-0.55,5.34,5.34,0,0,0,.54-0.39l0.79-.62a6,6,0,0,0,.45-0.52l0.33-.33a1.64,1.64,0,0,1,.7-0.55C898.29,620.07,898.5,619.74,898.29,619.53ZM892,622.46c-0.14.06-.34,0.12-0.35,0a1,1,0,0,1-.09-0.19,0.58,0.58,0,0,1,.26-0.08c0.13-.09.09,0.11,0.17,0.15S892,622.43,892,622.46Zm1.65-1.09a0.23,0.23,0,0,1-.2-0.09c-0.1-.18.26-0.21,0.43-0.3a0.72,0.72,0,0,1,.2-0.17,0.15,0.15,0,0,1,.08,0,0.09,0.09,0,0,1,.1.07A0.7,0.7,0,0,1,893.62,621.37Zm1.75-2.39a3.7,3.7,0,0,0,.42.11,0.41,0.41,0,0,0,.16,0,1.44,1.44,0,0,1,.29-0.09c0.09,0,.14.06,0.11,0.12a0.61,0.61,0,0,1-.22.21c-0.11.07-.25,0.09-0.36,0.15a1.3,1.3,0,0,0-.24.21,4.85,4.85,0,0,0-.73.76,0.37,0.37,0,0,1-.25.11,1.19,1.19,0,0,1-.46-0.1s0,0,0-.07l0,0-0.08,0a0.44,0.44,0,0,1,.22-0.06l0.17-.11a1,1,0,0,0,.38-0.47,0.26,0.26,0,0,0,.26,0,0.51,0.51,0,0,0,.37-0.51,1.46,1.46,0,0,0-.23-0.18C895.16,619,895.28,619,895.36,619Zm-2.56,2.33,0,0,0,0.08,0,0,0.06,0a0.58,0.58,0,0,1,.39.33,2.42,2.42,0,0,1-.6.34,0.21,0.21,0,0,1-.22-0.15,0.1,0.1,0,0,1,.1-0.13,0.36,0.36,0,0,0,.39-0.16,0.84,0.84,0,0,0-.24-0.17A0.11,0.11,0,0,1,892.8,621.31Zm-0.9.59a0.67,0.67,0,0,1,.47.33s0,0.06,0,.06a0.2,0.2,0,0,1-.21-0.08c-0.05-.11-0.2-0.15-0.25-0.26S891.85,621.9,891.9,621.9Zm-1.25.59a1.09,1.09,0,0,0,.21,0l-0.11,0,0.12,0H891a0.39,0.39,0,0,1,.22-0.13,0.25,0.25,0,0,1,.18.28,0.21,0.21,0,0,1-.16.17,1.48,1.48,0,0,1-.29,0c-0.06,0-.13.07-0.2,0.08a0.16,0.16,0,0,1-.11,0,0.62,0.62,0,0,0,0-.1,1.25,1.25,0,0,0-.07-0.15C890.57,622.57,890.52,622.5,890.65,622.49Zm-0.78.17a0.4,0.4,0,0,1,.17,0c0.08,0,.06-0.06.11-0.1a0.07,0.07,0,0,0,.06,0s0,0,0,0,0.07,0.16,0,.25a0.36,0.36,0,0,0-.06.07,0.16,0.16,0,0,1-.08.15H890c-0.16,0-.1-0.17-0.14-0.26a0.21,0.21,0,0,1-.06,0S889.82,622.67,889.87,622.66Zm-0.76.25a0.77,0.77,0,0,1,.2.12l0-.06c0.19,0.07.18-.09,0.31-0.17a0.34,0.34,0,0,1-.16.38,0.65,0.65,0,0,1-.36,0C888.91,623.14,889,622.95,889.11,622.91Zm1.63-1.53c-0.08,0-.17,0-0.16-0.07a0.08,0.08,0,0,1,0-.06s0-.08,0-0.08c0.16,0,.29,0,0.46,0A0.44,0.44,0,0,1,890.74,621.38Zm0.63-.45-0.15-.19s0.08-.06.11-0.07a1.41,1.41,0,0,0,.35,0,0.52,0.52,0,0,1,.24-0.11c0,0.07.19,0.1,0.13,0.16A0.77,0.77,0,0,1,891.37,620.93Zm1-.41a0.1,0.1,0,0,0-.06,0,2.13,2.13,0,0,1-.28-0.25s-0.09,0,0-.07a1.41,1.41,0,0,1,.32,0c0.1,0,.17.11,0.08,0.22s0,0,0,.06A0.21,0.21,0,0,1,892.36,620.52Zm0.63-.47a0.44,0.44,0,0,1-.29.19c-0.14-.15-0.38-0.31-0.23-0.35s0.17,0.11.31,0.16S893,619.94,893,620.05Zm0.39-1.72a0.13,0.13,0,0,1,.17-0.1c0.32,0.08.54,0.23,0.84,0.32,0.11,0,0,.08,0,0.09a1.46,1.46,0,0,0-.53.36,3.43,3.43,0,0,1-.57.71,0.46,0.46,0,0,1-.27.15,0.4,0.4,0,0,1-.47-0.26c0-.07.09-0.12,0.2-0.09a1.47,1.47,0,0,0,.19.06,0.56,0.56,0,0,0,.44-0.25c0.06-.1-0.08-0.16-0.21-0.2,0.13,0,.39,0,0.35-0.14s-0.14-.13-0.16-0.21a0.5,0.5,0,0,1,.06-0.18A2.18,2.18,0,0,0,893.37,618.33Zm-3.63,2.8a1.88,1.88,0,0,0,.19.07,2.33,2.33,0,0,0,.33-0.07,0.14,0.14,0,0,1,.14.2,0.23,0.23,0,0,1-.15.11,1.27,1.27,0,0,1-.26.07h-0.23c-0.21,0-.2-0.21-0.11-0.35A0.12,0.12,0,0,1,889.74,621.14ZM888.16,616a0.2,0.2,0,0,1,.23-0.14,1.28,1.28,0,0,1,.65.26,1,1,0,0,1,.17.11,0.14,0.14,0,0,1-.05.25c-0.19.09-.4,0.13-0.59,0.22a3.32,3.32,0,0,0-.52.49,0.84,0.84,0,0,1-.67.15c-0.07,0-.14,0-0.13-0.11,0-.22.37-0.11,0.56-0.19a0.15,0.15,0,0,0,.1-0.1,1.41,1.41,0,0,1,.07-0.39,3.71,3.71,0,0,0,.26-0.32C888.26,616.13,888.16,616.07,888.16,616Zm-1.37,1.46a0.06,0.06,0,0,1,0,0,0.9,0.9,0,0,1,.33.11l0.09,0-0.09,0a1,1,0,0,1,.38.2,0.06,0.06,0,0,1,0,0,0.8,0.8,0,0,1-.42-0.12A0.28,0.28,0,0,1,886.79,617.45Zm0.16,0.69a0.52,0.52,0,0,1-.4,0l0.07-.07C886.73,618.1,887,618,887,618.14Zm-0.69.31a0.08,0.08,0,0,1-.07,0h-0.06l0.06-.06a0,0,0,0,0,0,0,0.39,0.39,0,0,1,.11-0.13,0.31,0.31,0,0,1,.16,0,1.07,1.07,0,0,1,.47.18s0.08,0.1,0,.11A2.57,2.57,0,0,0,886.27,618.45Zm-0.14.66c-0.05,0-.12,0-0.14,0s0.07-.06.1-0.11a0.86,0.86,0,0,1,.14,0,0.38,0.38,0,0,1,.48-0.08,0.1,0.1,0,0,1,0,.16A0.83,0.83,0,0,1,886.13,619.1Zm0,0.37a0.3,0.3,0,0,1,.28-0.13c0.15,0,.29-0.05.32,0.05a0.16,0.16,0,0,1-.08.08,1,1,0,0,1-.37,0A0.13,0.13,0,0,1,886.08,619.47Zm0.62,1.33a1.43,1.43,0,0,1-.68-0.56c-0.12-.17-0.21-0.41.11-0.54,0.14-.06.07,0.11,0.05,0.2h0a1.39,1.39,0,0,0,.58.86A0.05,0.05,0,0,1,886.71,620.8Zm-0.13-5.56a0.27,0.27,0,0,1,.2-0.13,0.07,0.07,0,0,1,0,0h0a5.33,5.33,0,0,0,.54.19s0.08,0.1.1,0.11a3.15,3.15,0,0,0-.43.32,3.25,3.25,0,0,0-.56.56c-0.13.16-.33,0.28-0.48,0.43h0a0.29,0.29,0,0,1-.18.07,0.14,0.14,0,0,1-.14,0,0.11,0.11,0,0,1,0-.17,1.47,1.47,0,0,0,.54-0.39,0.3,0.3,0,0,0,.07-0.28,0.12,0.12,0,0,1,0-.09c0.05-.14.26-0.24,0.32-0.38A1.54,1.54,0,0,0,886.57,615.24Zm-1.46,1.53,0,0a0.92,0.92,0,0,1,.33.11l0.09,0-0.09,0a1,1,0,0,1,.39.21,0.08,0.08,0,0,1,0,0,0.81,0.81,0,0,1-.42-0.12A0.29,0.29,0,0,1,885.11,616.76Zm-0.18.78a0.69,0.69,0,0,0,.32-0.1c0.17,0,.11.13,0,0.21a0.3,0.3,0,0,1-.45,0A0.07,0.07,0,0,1,884.93,617.55Zm-0.59.94s-0.11,0-.09-0.08a0.1,0.1,0,0,1,.1,0C884.42,618.38,884.45,618.45,884.35,618.48Zm-0.4.26a0.11,0.11,0,0,1-.09-0.09,0.08,0.08,0,0,1,0,0,2.26,2.26,0,0,1,.35,0l0,0C884.29,618.78,884.07,618.76,884,618.75Zm-0.21.39s-0.05-.07,0-0.1a0.59,0.59,0,0,1,.2,0h0l0,0a0.28,0.28,0,0,1,.16.09A0.51,0.51,0,0,1,883.74,619.14Zm3.31,3.62c0.14,0,.25.05,0.39,0.06,0.86,0.08,1.08,0,1.25,0s0.06,0.29,0,.29c-0.41,0-.71,0-1.32-0.09a2.68,2.68,0,0,1-1.19-.36,2,2,0,0,0-.24-0.2c-0.06,0-.14-0.11-0.08-0.11A6.77,6.77,0,0,1,887,622.75Zm-1.35.65a0.45,0.45,0,0,1-.35-0.14c-0.1-.11.1-0.27,0.16-0.42a0.11,0.11,0,0,0,0-.11,0.41,0.41,0,0,1-.18-0.27l0.07,0.05a7.58,7.58,0,0,0,.94.47A1,1,0,0,1,885.7,623.4Zm3-2.11,0.36,0a0.37,0.37,0,0,1,.26,0,0.18,0.18,0,0,1-.15.25,3.41,3.41,0,0,1-1.15-.1c-0.39-.08-1.11-0.35-0.85-0.55l0.2,0.12,0.07,0h0A4.07,4.07,0,0,0,888.67,621.29Zm0.59-1.71c0.17,0,.08-0.15.16-0.17s0.07,0.28-.08.33a0.68,0.68,0,0,1-.58-0.17c-0.05,0,0-.13.06-0.12a1.87,1.87,0,0,1,.41.16Zm-0.77.49-0.07.07,0.05,0a1.14,1.14,0,0,1,.35-0.27,0.32,0.32,0,0,1,.22,0s0,0.08,0,.11a1.16,1.16,0,0,1-.53.49,0.85,0.85,0,0,1-.7-0.27c-0.06,0,0-.17.12-0.17S888.29,620.07,888.49,620.07Zm2.36-3a0.06,0.06,0,0,1,0-.1l0,0-0.08,0h0a4.4,4.4,0,0,1,.49.14,0.71,0.71,0,0,1,.23,0,0.45,0.45,0,0,1,.15-0.06,0.81,0.81,0,0,0,.17-0.19,0.35,0.35,0,0,1,0,.64,1.2,1.2,0,0,1-.37.12,1.31,1.31,0,0,0-.46.23,9.61,9.61,0,0,0-.62.75,0.81,0.81,0,0,1-.37.17,0.2,0.2,0,0,1-.2-0.07c-0.08-.1-0.33-0.11-0.26-0.28a0.91,0.91,0,0,0,.65-0.05,1.22,1.22,0,0,0,.47-0.43,2.1,2.1,0,0,0,.45-0.56A0.88,0.88,0,0,0,890.85,617.07Zm-4.3,4a0.56,0.56,0,0,1,.11,0,7.51,7.51,0,0,0,1,.42,1.65,1.65,0,0,1-.47.46,0.43,0.43,0,0,1-.56-0.06,4.07,4.07,0,0,0,.06-0.66,0.49,0.49,0,0,0-.15-0.12S886.48,621.1,886.55,621.08Zm-2.73-1.19s-0.05,0,0-.07a0.29,0.29,0,0,1,.32-0.09,0.1,0.1,0,0,0,0,0,0.8,0.8,0,0,1,.29.06A0.69,0.69,0,0,1,883.82,619.89Zm0.41,0.5-0.09,0a0.59,0.59,0,0,1-.33.09c-0.11,0-.09-0.13,0-0.18l0.12,0c0.19,0,.48-0.16.49,0A0.73,0.73,0,0,1,884.23,620.39Zm-0.27.37a0.18,0.18,0,0,1,.21-0.06l-0.06,0a1.26,1.26,0,0,1,.65-0.08,5.33,5.33,0,0,1-.73.34C883.89,621,883.92,620.84,884,620.76Zm1.37,1.42a2.76,2.76,0,0,1-1.14-1,0.11,0.11,0,0,1,0-.16,0.18,0.18,0,0,1,.19,0,2.12,2.12,0,0,0,.87,1,0.43,0.43,0,0,1,.2.15A0.15,0.15,0,0,1,885.33,622.18Zm-1.59-6.42a2,2,0,0,0,.86-0.45h0c0.07,0,.13,0,0.2-0.07a0.4,0.4,0,0,0,.27-0.36,1.75,1.75,0,0,0-.09-0.23c0-.09.15-0.1,0.22-0.08a1.44,1.44,0,0,0,.53,0c0.08,0,0,.08,0,0.13h0l0,0a1.6,1.6,0,0,0-.45.34,7.18,7.18,0,0,1-1.19,1.07C883.92,616,883.54,616,883.74,615.76Zm-0.6,1.1c0-.08-0.23-0.12-0.1-0.16a2.75,2.75,0,0,1,.45,0,4.68,4.68,0,0,0,.46-0.24s0,0,.07,0a2,2,0,0,1-.48.43,0.55,0.55,0,0,1-.41,0h0a0,0,0,0,1,0,0l-0.07-.05,0,0,0,0h0Zm-1,.94a0.29,0.29,0,0,1,.13,0,0.6,0.6,0,0,1,.32-0.1c0.1-.06.05-0.14,0-0.2s0,0,.05,0a0.15,0.15,0,0,1,.13.11s0,0.06,0,.09,0,0.1,0,.15a0.52,0.52,0,0,1-.57.26,0.14,0.14,0,0,0,0-.05C882.2,617.95,882,617.91,882.17,617.8Zm-0.51.73s0,0,.06,0c0.27,0,.52,0,0.8,0,0,0,.13,0,0.12.07a0.16,0.16,0,0,1-.12.08A0.83,0.83,0,0,1,881.67,618.53Zm-0.2.84a0.18,0.18,0,0,1-.06-0.13,0.12,0.12,0,0,1,.15-0.05c0.08,0,.13.06,0.21,0.08s0.14,0,.22,0a0.79,0.79,0,0,1,.23,0s0,0,0,.06A0.9,0.9,0,0,1,881.47,619.37Zm-0.09.31a0.3,0.3,0,0,1,.27,0c0.13,0,.28,0,0.42,0a0.51,0.51,0,0,1-.22.14,1.12,1.12,0,0,1-.34.05A0.12,0.12,0,0,1,881.38,619.68Zm0.43,0.73a3,3,0,0,1-.33.09c-0.11,0,0-.09-0.05-0.15a0.14,0.14,0,0,1,.07,0,0.1,0.1,0,0,1-.1-0.15,0.13,0.13,0,0,1,.13-0.06,0.42,0.42,0,0,0,.24,0,0.59,0.59,0,0,1,.09-0.07c0.08,0,.18,0,0.16.06a0.41,0.41,0,0,0,0,.2,0.11,0.11,0,0,1-.08.08A0.48,0.48,0,0,1,881.81,620.41Zm-0.2.76a0.2,0.2,0,0,1-.12-0.27,0.2,0.2,0,0,1,.17-0.09,0.36,0.36,0,0,0,.09-0.08,0.43,0.43,0,0,1,.1,0,0.55,0.55,0,0,1,.12-0.06c0.12,0,.17,0,0.17.09a0.39,0.39,0,0,0-.12.13,0.84,0.84,0,0,0,.57,0c0.06,0,.07.1,0,0.12A1.66,1.66,0,0,1,881.61,621.17Zm0.29,0.62s-0.12,0-.14,0a0.21,0.21,0,0,1-.05-0.32,0.16,0.16,0,0,0,.13,0,0.48,0.48,0,0,1,.4-0.13c0.17,0.07.69,0,.46,0.2A4.82,4.82,0,0,0,881.89,621.79Zm1.53,1.61a4.35,4.35,0,0,1-1.25-1A2.89,2.89,0,0,1,882,622l0,0.06a0,0,0,0,0,0,0l0,0s0,0,0,0a3.51,3.51,0,0,1,.53-0.21s0.1,0,.1,0a2.54,2.54,0,0,1-.13.37,0.34,0.34,0,0,0,0,.17,2.72,2.72,0,0,0,.8.8c0.18,0.14.47,0.19,0.65,0.34a0.32,0.32,0,0,1,.19.17,0.21,0.21,0,0,1-.07,0C883.89,623.57,883.62,623.52,883.42,623.4Zm-2.74,3.7a0.09,0.09,0,0,1-.07,0s-0.12-.08-0.17-0.11,0.14-.19.24-0.29a0.15,0.15,0,0,1,.1,0c0.11,0,.2,0,0.19.11a0.43,0.43,0,0,1-.21.24Zm0.2,0.45c-0.14-.06,0-0.19,0-0.29s-0.08,0,0-.05a1.18,1.18,0,0,1,.4-0.36c0.11,0,.26,0,0.24.08A2.1,2.1,0,0,1,880.88,627.55Zm0.3,0.33a1.13,1.13,0,0,0-.06-0.28l-0.06.06a5.57,5.57,0,0,1,.56-0.55,0.27,0.27,0,0,1,.21-0.06c0.11,0,.19.09,0.13,0.16-0.22.3-.42,0.51-0.61,0.78A0.25,0.25,0,0,1,881.18,627.88Zm1.49-.73a0.14,0.14,0,0,1,0,.16,4.8,4.8,0,0,1-.52,1.08,2.41,2.41,0,0,1-.58-0.21,0.08,0.08,0,0,1,0-.12l0.56-.84a0.6,0.6,0,0,1,.3-0.13A0.35,0.35,0,0,1,882.67,627.15Zm0.06-.26a0.68,0.68,0,0,1-.41-0.24,1.77,1.77,0,0,0,.17-0.12s0-.12-0.1-0.09-0.16.17-.26,0.2-0.32-.06-0.24-0.17a0.27,0.27,0,0,0,.33-0.06,0.17,0.17,0,0,0-.16-0.2,0.9,0.9,0,0,1-.3.25,0.27,0.27,0,0,1-.23-0.09l0.09-.09a0.14,0.14,0,0,0,.22,0c0.07-.12.09-0.27-0.1-0.25s-0.26.25-.48,0.27a0.15,0.15,0,0,1-.18-0.12l0,0a0.53,0.53,0,0,1,.22,0,0.46,0.46,0,0,0,.29-0.2s0-.12-0.11-0.11a0.15,0.15,0,0,0-.14,0,0.38,0.38,0,0,1,.31-0.27,0.79,0.79,0,0,1,.59.27,8.31,8.31,0,0,0,.92.45A1.69,1.69,0,0,0,882.72,626.89Zm0.2-2.23s0.08,0.07,0,.09-0.16,0-.14-0.06S882.87,624.66,882.92,624.66Zm0.8,1.27a0.2,0.2,0,0,1,0,.38,0.28,0.28,0,0,1-.17-0.11c-0.11,0-.27,0-0.39-0.09s0,0,0-.08l0-.06,0,0c0-.13,0-0.29-0.18-0.29a0.39,0.39,0,0,1-.28-0.08,0.05,0.05,0,0,1,0-.07,1,1,0,0,1,.28-0.06,0.59,0.59,0,0,1,.43.32A1,1,0,0,0,883.72,625.93Zm1-1a0.37,0.37,0,0,1-.27.09,1,1,0,0,0-.38.17,1.49,1.49,0,0,1-.63-0.2l0.05-.05a0.29,0.29,0,0,0,.3-0.18s-0.08-.08-0.13-0.06-0.21.21-.35,0.24a0.23,0.23,0,0,1-.19-0.07,0.06,0.06,0,0,1,0-.12,1.06,1.06,0,0,1,.15,0,0.24,0.24,0,0,0,.09-0.08h0c0.06-.08.07-0.17,0-0.19s-0.15,0-.22,0a0.13,0.13,0,0,0,0-.21,0.1,0.1,0,0,1-.15,0c0-.07.12-0.09,0.15-0.16,0.44,0.12.74,0.38,1.22,0.47a0.78,0.78,0,0,0,.11,0,0.42,0.42,0,0,1,.23,0,0.2,0.2,0,0,1,.18,0,0.11,0.11,0,0,1,.12.08A0.43,0.43,0,0,1,884.68,624.91Zm3.44-.3a1,1,0,0,1-.79,0c-0.61-.09-1.18-0.22-1.79-0.34a3.27,3.27,0,0,1-.86-0.28l0,0,0.13,0.09a0.58,0.58,0,0,1-.24-0.19l0,0a3.81,3.81,0,0,1,.79.24,9.16,9.16,0,0,0,1.18.2,6.17,6.17,0,0,0,.68,0,1.07,1.07,0,0,0,.15,0,2.33,2.33,0,0,1,.7,0C888.23,624.41,888.19,624.57,888.12,624.62Zm0.69,0.07a0.34,0.34,0,0,1-.35,0,0.63,0.63,0,0,1,0-.53s0,0,.06,0l0.06,0s-0.06.12,0,.16,0.14-.06.22-0.08,0,0.07.06,0.11A0.18,0.18,0,0,1,888.82,624.68Zm0.93-.11,0,0,0-.07c-0.1.09-.25,0.12-0.36,0.21a0.14,0.14,0,0,1-.16-0.06,2,2,0,0,1,.05-0.58,0.27,0.27,0,0,1,.12.06,0.87,0.87,0,0,0,.37.28A0.1,0.1,0,0,1,889.74,624.57Zm1.47-.25a0.38,0.38,0,0,1-.29.06,1,1,0,0,1,0-.35s0.07,0,.09,0a0.35,0.35,0,0,0,.24.09,1.31,1.31,0,0,1,.2-0.18,0.13,0.13,0,0,1,.1.06l0,0a0.23,0.23,0,0,1,0,.29A0.84,0.84,0,0,1,891.21,624.33Zm0.93-.3s-0.08,0-.08,0a0.87,0.87,0,0,1-.29.15s0-.08,0-0.12a0.14,0.14,0,0,0-.06-0.14,0.46,0.46,0,0,1,0-.2,0.63,0.63,0,0,1,.53.19C892.31,623.94,892.21,624,892.15,624Zm0.81-.44a0.35,0.35,0,0,1-.43-0.09s-0.09-.07,0-0.13a0.17,0.17,0,0,1,.08-0.06c0.15,0,.19.11,0.34,0.09a0.08,0.08,0,0,0,.05-0.05c0-.08-0.11-0.22,0-0.21S893.24,623.47,893,623.58Zm0.88-.29a0.44,0.44,0,0,1-.46-0.08c-0.07-.07-0.07-0.17,0-0.19a0.33,0.33,0,0,0,.3-0.1s0.06-.07,0-0.1-0.13,0-.11-0.08l0,0a0.4,0.4,0,0,1,.37.37A0.34,0.34,0,0,1,893.84,623.29Zm1-.69a2.31,2.31,0,0,0-.49.2,0.13,0.13,0,0,1-.15,0,1.55,1.55,0,0,1-.22-0.28s0-.08,0-0.07a1.13,1.13,0,0,0,.41.13c0.12,0,.23-0.13.37-0.15a0.2,0.2,0,0,1,.09,0,0.09,0.09,0,0,1,.06,0C895,622.54,894.88,622.58,894.83,622.6Zm0.47-.4c-0.16-.08-0.22-0.22-0.39-0.3s-0.1-.07,0-0.12l0.06,0a1.43,1.43,0,0,1,.41.17c0.12,0,.1.12,0.08,0.19A0.13,0.13,0,0,1,895.3,622.21Zm0.39-.29c-0.06,0-.07-0.05-0.07-0.06a2.37,2.37,0,0,0-.26-0.28s0-.15.07-0.13,0.31,0,.46.08l-0.06,0a0.67,0.67,0,0,0,.3-0.1c0.07,0,.1,0,0.09,0A1.34,1.34,0,0,1,895.69,621.92Zm0.65-.53c-0.13,0-.32,0-0.31-0.13s0.19,0,.28.07,0.11,0,.1,0A0.06,0.06,0,0,1,896.34,621.39Zm1.52-1.34a2.29,2.29,0,0,0-1,.63,0.74,0.74,0,0,1-.39.48,0.35,0.35,0,0,1-.44-0.12s0-.07.07-0.09a0.81,0.81,0,0,0,.51-0.24c0.08-.19.3-0.34,0.37-0.5a2.77,2.77,0,0,1,0-.53c0.2-.3.64,0,0.84,0.08A0.15,0.15,0,0,1,897.87,620Z"/><path id="path35" class="cls-27" d="M881.24,632.21h0a0.06,0.06,0,0,1,0,.06h0a1.11,1.11,0,0,1-.17.13c-0.13.08-.25,0.16-0.2,0.27h0a0.33,0.33,0,0,0,.2.12l0.09,0h0a0.67,0.67,0,0,0,.23,0h0.06a0.84,0.84,0,0,0,.33-0.07l0,0a0.93,0.93,0,0,1-.37.08h-0.07a0.74,0.74,0,0,1-.25-0.05h0l-0.08,0a0.35,0.35,0,0,1-.22-0.14h0c-0.07-.13.08-0.22,0.22-0.31a1.07,1.07,0,0,0,.16-0.12h0v0h0Zm-1.73-.58,0.2,0c0.1,0.06-.08.16,0.51,0.19v0h-0.27s0,0,0,0l0,0a0.42,0.42,0,0,0,.22-0.06h0l0.16-.06a1.23,1.23,0,0,1,.39-0.12h0a1,1,0,0,1,.1.14,0.15,0.15,0,0,0,.09.13l0,0c-0.1,0-.13,0-0.16,0s-0.05,0-.14,0h0a0.41,0.41,0,0,0-.26,0s-0.06,0-.09,0a0.5,0.5,0,0,1-.27,0h-0.11a0.72,0.72,0,0,1-.39-0.18l-0.06,0Zm1.07,0.31s-0.08,0-.11,0a0.45,0.45,0,0,1-.15,0h0l0.06,0.25s0-.25,0,0.33h0s0,0-.06,0a0.08,0.08,0,0,1-.11,0v0h0c-0.59,0-.36-0.08-0.44-0.13a1.79,1.79,0,0,1-.28-0.19l-0.11-.08,0.1,0.05h0a1.12,1.12,0,0,0,.19.17,0.85,0.85,0,0,0,.28.12h0a0.41,0.41,0,0,0,.21,0,0.32,0.32,0,0,0,.16-0.11h0a0.37,0.37,0,0,0,0-.18,1.13,1.13,0,0,0-.08-0.13h0a0.23,0.23,0,0,0,.11,0,0.83,0.83,0,0,1,.14,0l0,0.07h0Zm0.84,0.09a0.43,0.43,0,0,0,.18,0,0.27,0.27,0,0,1,.23.08h0a0.16,0.16,0,0,1-.08.21,1,1,0,0,1-.21.12l0.06,0a0.56,0.56,0,0,0,.24,0h0.09l0.15,0,0,0a0.7,0.7,0,0,1-.17,0h-0.08a0.62,0.62,0,0,1-.27,0l-0.12,0h-0.07l0.07,0a1,1,0,0,0,.26-0.13,0.13,0.13,0,0,0,.06-0.17h0a0.24,0.24,0,0,0-.19-0.07,0.47,0.47,0,0,1-.21,0Z"/><path id="path39" class="cls-27" d="M881.75,630.3a1,1,0,0,0-.3-0.12l-0.35-.06,0,0a2.6,2.6,0,0,1,.36.06,1,1,0,0,1,.31.13Zm-0.47-.36h0.06a0.27,0.27,0,0,0,.16,0h0l0,0a0,0,0,0,0,0,0l0,0a0.23,0.23,0,0,0-.12,0v0a0.29,0.29,0,0,1,.16,0,0.12,0.12,0,0,1,0,.05,0.06,0.06,0,0,1,0,.06l-0.07.05h0a0.35,0.35,0,0,1-.21,0h0l0,0h0l0,0h0Zm0.77,0.65h0l-0.06-.05a0.33,0.33,0,0,1-.19-0.31v0h0A0.47,0.47,0,0,1,882,630l0,0,0,0h0l0,0h0a0.19,0.19,0,0,1,0-.26h-0.08a0.72,0.72,0,0,0-.38,0l0,0a0.79,0.79,0,0,1,.43-0.06H882l0,0a0.16,0.16,0,0,0,0,.24h0l0,0h0l0,0a0.47,0.47,0,0,1,.2-0.06h0.12a0.19,0.19,0,0,1,.16.12h0a0.24,0.24,0,0,1,0,.06,0.3,0.3,0,0,1,0,.06,0.45,0.45,0,0,1-.3.28v0a0.39,0.39,0,0,0,.26-0.24,0.27,0.27,0,0,0,0-.06,0.21,0.21,0,0,0,0-.05h0a0.15,0.15,0,0,0-.13-0.1h-0.09a0.41,0.41,0,0,0-.24.11,0.42,0.42,0,0,0-.13.2h0v0h0a0.31,0.31,0,0,0,.18.29l0.06,0.05h0l0,0h0Zm0.14-.5a0.22,0.22,0,0,1,0,.07h0a0.19,0.19,0,0,1-.06.07l0,0,0,0h0a0.19,0.19,0,0,0,0-.06h0.06Z"/><path class="cls-27" d="M878.22,631.09a0.17,0.17,0,0,0-.06-0.09,0.28,0.28,0,0,0-.14-0.06h0a0.31,0.31,0,0,0-.22.09,0.64,0.64,0,0,1-.14.08h0a0.14,0.14,0,0,1-.15,0h0l-0.05,0,0,0h0l-0.12.05a0.37,0.37,0,0,0,.32.22h0.26a0.41,0.41,0,0,0,.24,0,0.27,0.27,0,0,0,.1-0.1A0.15,0.15,0,0,0,878.22,631.09Z"/><path class="cls-27" d="M876.68,630.28h0a0.13,0.13,0,0,0,0,0,0.08,0.08,0,0,1,0,0h0s0,0,0,0h0a0.13,0.13,0,0,1,.07.11v0h0.11l0.09,0a0.24,0.24,0,0,0-.16-0.2Z"/><path class="cls-27" d="M882.39,631.44l2-1.89L876.29,626l-2,1.89-1.46-.64-2.2,2.1,11,4.8,2.2-2.1-1.44-.63h0Zm-2.81-2.11h0l-0.06,0,0,0,0.06,0h0a0.41,0.41,0,0,1,.3-0.05h0a0.21,0.21,0,0,1,.09.09,0.28,0.28,0,0,0,.06.07l0,0a0.3,0.3,0,0,1-.07-0.08,0.19,0.19,0,0,0-.08-0.08h0A0.36,0.36,0,0,0,879.58,629.34Zm0.56-.12a0.08,0.08,0,0,1,0-.11h0a0.19,0.19,0,0,0,0-.2l-0.07,0-0.11,0a1.16,1.16,0,0,0-.22.07,1.61,1.61,0,0,1-.16.07h0a0.63,0.63,0,0,1-.41-0.2,0.52,0.52,0,0,1-.2-0.33h0V628.3h0a1.25,1.25,0,0,0-.1-0.15s0-.15-0.06-0.15h0c-0.05,0-.35.16-0.41,0.18s0.61-.09-0.39-0.09V628h0.45a0.3,0.3,0,0,1-.11,0,0.32,0.32,0,0,0-.12,0h0a0.18,0.18,0,0,0-.13,0,0.18,0.18,0,0,1-.14,0h-0.19s-0.05.23-.07,0.25a1.87,1.87,0,0,0-.07.18l0,0a0.53,0.53,0,0,1,.08-0.05,0.21,0.21,0,0,1,.12,0H878a0.53,0.53,0,0,1,.07-0.17,0.45,0.45,0,0,1,.17-0.2h0a0.71,0.71,0,0,1,.15.15,0.89,0.89,0,0,0,.09.08,1.5,1.5,0,0,0,.23,0,0.7,0.7,0,0,1,.3.07v0.07h0V628.3s0,0,0,0h0v0.11h0a0.49,0.49,0,0,0,.22.29,0.61,0.61,0,0,0,.4.13s0.1,0.11.15,0.1a2.55,2.55,0,0,1,.24.1h0a0.41,0.41,0,0,0,0-.08s0,0,0,0v0c0,0.07.14,0.08,0.09,0.16l0.07-.05h0a0.23,0.23,0,0,0,0,.13,0.51,0.51,0,0,0,.12.1l0,0A0.52,0.52,0,0,1,880.14,629.21Zm-0.84,0h-0.05a0.34,0.34,0,0,1,.18-0.12h0a0.92,0.92,0,0,1-.6-0.23,0.42,0.42,0,0,1-.08-0.12,0.4,0.4,0,0,1,0-.14h0a0.09,0.09,0,0,0,0-.07h-0.08a0.18,0.18,0,0,0,0,.24l0,0,0,0h0l-0.05,0h0l0,0,0-.05a0.21,0.21,0,0,1,.06-0.29h0l0.06,0h0.06l0,0a0.12,0.12,0,0,1,0,.09h0a0.38,0.38,0,0,0,0,.13,0.39,0.39,0,0,0,.07.11,1,1,0,0,0,.76.22v0h0l-0.2,0A0.27,0.27,0,0,0,879.3,629.25Zm-1.31-.63a0.36,0.36,0,0,1-.18,0l0,0a0.29,0.29,0,0,0,.14,0,0.34,0.34,0,0,1,.2,0h0l0.05,0,0,0h0a0.15,0.15,0,0,1,.07.2h-0.06a0.13,0.13,0,0,0-.06-0.16h0l0,0,0,0h0A0.28,0.28,0,0,0,878,628.62Zm0.31-1-1.15,1.1-0.11,0,1.2-1.14,0,0,0.06,0,2.4,1-0.1.09Zm-0.08-.44,0,0,0.06,0,2.88,1.26-0.1.09-2.83-1.23-1.54,1.47-0.11,0,1.59-1.52h0Zm-1.86-.81,0,0,0.06,0L878,627l-0.1.09-1.52-.66-1.54,1.47-0.11,0,1.59-1.52h0Zm1.22,0.81-0.1.09-1-.45-1.15,1.1-0.11,0,1.2-1.14,0,0,0.06,0Zm-6.39,2.26-0.11,0,1.74-1.66,0,0,0.06,0,2.45,1.07-0.1.09-2.39-1Zm3.35,0.27,0.15,0,0,0a0.7,0.7,0,0,1-.17,0h-0.08a0.62,0.62,0,0,1-.27,0l-0.12,0H874l0.07,0a1,1,0,0,0,.26-0.13,0.13,0.13,0,0,0,.06-0.17h0a0.24,0.24,0,0,0-.2-0.06,0.51,0.51,0,0,1-.21,0l0,0a0.47,0.47,0,0,0,.18,0,0.28,0.28,0,0,1,.24.08,0.16,0.16,0,0,1-.08.21,1,1,0,0,1-.21.12l0.06,0a0.56,0.56,0,0,0,.24,0h0.09Zm-2.95-.3-0.11,0,1.35-1.29,0,0,0.06,0,2.06,0.9-0.1.09-2-.87-1.3,1.24h0Zm1.49,0.22a0.5,0.5,0,0,1-.23,0h0a0.9,0.9,0,0,1-.3-0.13,1.2,1.2,0,0,1-.21-0.19l-0.08-.08,0.12,0.05h0a1.15,1.15,0,0,0,.2.18,0.85,0.85,0,0,0,.28.12h0a0.42,0.42,0,0,0,.2,0,0.3,0.3,0,0,0,.15-0.1v0h0a0.14,0.14,0,0,0,0-.11,0.29,0.29,0,0,1,0-.07,0.17,0.17,0,0,1,.12-0.11h0.22l0.15-.08V629h-0.28s0,0.11,0,.11,0,0.06,0,.06l-0.08,0a0.4,0.4,0,0,0-.16.1h0s0.08,0,.08.06a0.16,0.16,0,0,1,0,.13,0.17,0.17,0,0,1,0,0A0.32,0.32,0,0,1,873.08,629.59Zm0.57-.63a0.16,0.16,0,0,0-.13-0.12,0.43,0.43,0,0,0-.27.12l-0.08.05h0a0.56,0.56,0,0,1-.28.06h-0.1l-0.07,0a0.14,0.14,0,0,1-.1-0.1,0.2,0.2,0,0,1,0-.14l0.07-.09,0,0-0.06.08a0.17,0.17,0,0,0,0,.12s0,0,.07,0a0.41,0.41,0,0,0,.05,0h-0.26v0l0.17,0h0.11a0.63,0.63,0,0,0,.27,0h0a0.17,0.17,0,0,0,.07,0,0.49,0.49,0,0,1,.32-0.06h0c0.11,0,.13,0,0.16.07a0.16,0.16,0,0,0,.13.09l0,0A0.25,0.25,0,0,1,873.65,629Zm0.39,1.13H874a0.75,0.75,0,0,1-.25-0.05h0l-0.08,0a0.36,0.36,0,0,1-.22-0.14c-0.07-.13.08-0.22,0.22-0.31a1.07,1.07,0,0,0,.16-0.12h0v0h0l0.05,0h0a0.06,0.06,0,0,1,0,.06h0a1.11,1.11,0,0,1-.17.13c-0.13.08-.25,0.16-0.2,0.27h0a0.34,0.34,0,0,0,.2.13l0.08,0h0a0.69,0.69,0,0,0,.23.05h0.06a0.86,0.86,0,0,0,.34-0.07l0,0A1,1,0,0,1,874,630.09Zm2.87-2.09a0.17,0.17,0,0,0-.1-0.06H876.7l0,0h0a0.13,0.13,0,0,0,.1.14l0,0a0.15,0.15,0,0,1-.12-0.18h0a0.11,0.11,0,0,1,0-.06l0.09,0h0.09a0.21,0.21,0,0,1,.13.08Zm0.12-.35,0,0a0.55,0.55,0,0,1-.38.08h-0.12l0,0a0.81,0.81,0,0,1-.27.17h0l-0.07,0a0.9,0.9,0,0,1,.3.14,1.51,1.51,0,0,1,.22.2l0,0a1.48,1.48,0,0,0-.22-0.19,0.85,0.85,0,0,0-.29-0.13l0,0a1.17,1.17,0,0,1-.48,0,0.41,0.41,0,0,1-.12-0.08v-0.06h0v0l0.1,0a0.89,0.89,0,0,0,.49,0h0.06a0.78,0.78,0,0,0,.26,0c0.06-.06.1-0.06,0.07-0.06h0.1l-0.06-.15s0-.2,0-0.21a0.77,0.77,0,0,0-.2-0.23h0s-0.05.14-.08,0.15-0.05.08-.08,0.09a0.43,0.43,0,0,0-.26.27l-0.06,0a0.43,0.43,0,0,1,.29-0.27,0.21,0.21,0,0,1,0,0s0,0,0,0v-0.21h0.08a0.65,0.65,0,0,1,.28.15s0,0.21,0,.22l0.11,0.22h0.07V627.5h-0.06a0.17,0.17,0,0,1,0,.14h0.08a0.43,0.43,0,0,0,.34-0.09l0,0,0,0h0l0,0.05a0.26,0.26,0,0,1,.08.3h-0.05A0.24,0.24,0,0,0,877,627.66Zm-1,.07,0.08-.06,0.1,0v0l-0.08,0-0.06,0,0,0h0Zm-1.7,3-0.11,0,1.88-1.8,0,0,0.06,0,2.89,1.26-0.1.09L876.18,629l-1.84,1.75h0Zm0.41,0-0.11,0,1.5-1.43,0,0,0.06,0,2.4,1-0.1.09-2.35-1-1.45,1.38h0Zm1.21,0.13a0.11,0.11,0,0,0,0-.06h0a0.13,0.13,0,0,1,0-.1,0.11,0.11,0,0,0-.08,0h-0.15a1.28,1.28,0,0,1-.33,0l0,0a1.22,1.22,0,0,0,.31,0l0.11,0h0.05c0.06,0,.13,0,0.13.05a0.1,0.1,0,0,0,0,.08h0a0.13,0.13,0,0,1,0,.07H876Zm0.33-.2a0.16,0.16,0,0,0,0-.17,0.32,0.32,0,0,1-.06-0.14h0a0.11,0.11,0,0,0,0-.05h0l0,0,0,0a0.34,0.34,0,0,1-.08.11l0,0a0.3,0.3,0,0,0,.07-0.1l0-.07v0h0a0.13,0.13,0,0,1,.08,0h0a0.12,0.12,0,0,1,0,.06h0a0.3,0.3,0,0,0,.06.13,0.18,0.18,0,0,1,0,.21H876.3Zm1.84,0.7h0a0.47,0.47,0,0,1-.29.05h-0.26a0.41,0.41,0,0,1-.35-0.24,0.92,0.92,0,0,1-.31,0,1.54,1.54,0,0,1-.43-0.11l0,0a1.48,1.48,0,0,0,.41.11,0.75,0.75,0,0,0,.44-0.08l0.09-.07a0.26,0.26,0,0,0,.07-0.09h0v0h0v0h0a0.28,0.28,0,0,0,0-.08h0v0s0,0.17,0,.16a1.28,1.28,0,0,0-.24.12h0s-0.14-.18-0.16-0.16a1.35,1.35,0,0,1-.11-0.11h0l0.13,0.27H877v-0.27a0.07,0.07,0,0,0,0,0,0.41,0.41,0,0,1-.08.14s-0.05.18-.11,0.18h0a2.33,2.33,0,0,0-.11-0.22l0-.11V630.6a0.48,0.48,0,0,1,0-.08,1.22,1.22,0,0,0,.16-0.1,1.62,1.62,0,0,1,.2-0.07h0s-0.21,0-.21,0-0.11,0-.1-0.06a0.15,0.15,0,0,0-.09-0.07l0-.09,0-.1h0l0.16,0.07,0.3,0.08h-0.24a1,1,0,0,0-.15-0.06,1,1,0,0,0-.21-0.11,0.42,0.42,0,0,0-.24,0,0.55,0.55,0,0,0-.3.17,1.32,1.32,0,0,0-.18.27h-0.06a1.3,1.3,0,0,1,.18-0.28,0.58,0.58,0,0,1,.33-0.19,0.39,0.39,0,0,1,.25,0,0.62,0.62,0,0,1,.16.12h0l0,0.07h0v0h0a0.08,0.08,0,0,1,0,.06l0.07,0,0.08,0a0.26,0.26,0,0,1,.18.25h0l0.06,0a0.33,0.33,0,0,1,.1.11l0,0a0.28,0.28,0,0,1,.16,0,0.34,0.34,0,0,1,.28.09l0.15,0.16,0.21,0.17H878v-0.11a1.18,1.18,0,0,1-.27.11h-0.14a0.15,0.15,0,0,0-.08,0l-0.29,0s-0.22,0-.22,0h0c1,0,1,.06,1,0h0s-0.1,0-.06-0.07,0.07-.12.19-0.1a0.19,0.19,0,0,1,.12.07,0.16,0.16,0,0,1,0,.11,0.19,0.19,0,0,1,0,.13A0.37,0.37,0,0,1,878.14,631.32Zm3.26-2.79,2.58,1.13-1.61,1.54-2.58-1.13Zm0.25,5.38-3.84-1.68,1.85-1.76,3.84,1.68Z"/><path id="_46914736" data-name=" 46914736" class="cls-27" d="M880.2,630l1.2-1.14,0,0,0,0,2,0.86,0,0,0,0-1.2,1.14,0,0,0,0-2-.86,0,0,0,0h0Zm1.24-1.09L880.3,630l1.9,0.83,1.14-1.09Z"/><path id="_25245768" data-name=" 25245768" class="cls-27" d="M878.42,632.14l1.34-1.28,0,0,0,0,3.13,1.37h0l0,0-1.34,1.28,0,0,0,0-3.13-1.37,0,0Zm1.38-1.22-1.28,1.23,3.06,1.34,1.28-1.23Z"/><path class="cls-27" d="M868.17,631.23l0.1-.09,1-1a2,2,0,0,1,.79-0.43c0.1,0,.22-0.1,0-0.16a2.31,2.31,0,0,1-.86-0.44l-0.78.55s0.5,0.17-.14.25a3.53,3.53,0,0,1-.4.42,10.55,10.55,0,0,1-1.34,1.16l1.86,0.81c0.07,0.05.05,0.1-.07,0.22a0.88,0.88,0,0,1-.73.43,2.34,2.34,0,0,1-.72-0.16l-0.76.54a11.36,11.36,0,0,0,1.4.12,1.55,1.55,0,0,0,1.13-.35A7.56,7.56,0,0,1,870,632l-1.83-.8h0Zm0.46,1.68a1,1,0,0,1-.6.41,8.77,8.77,0,0,1-1.2,0l0.27-.16,0.74,0.06a2.12,2.12,0,0,0,1-.73c0.11-.1.12-0.14,0.07-0.19l-1.69-.74a8.89,8.89,0,0,0,1.1-1c0.28-.27.63-0.58,0.63-0.58,0.53-.07,0-0.23,0-0.23l0.36-.39a0.7,0.7,0,0,0,.41.25c0.15,0,.05.13,0,0.14a0.86,0.86,0,0,0-.47.28c-0.06,0-1.45,1.35-1.45,1.35l-0.08.08,1.74,0.76A3.23,3.23,0,0,0,868.63,632.9Z"/><path class="cls-27" d="M847.92,648.08l-0.6.27-0.73.28-0.78.29a2.46,2.46,0,0,0-.63.44l-3.14,2.9-0.19.18-0.27.23-0.6.13a0.92,0.92,0,0,1-.45,0c-0.08,0,0-.11.09-0.24l3.65-3.36a2.21,2.21,0,0,1,.57-0.36l0.39-.16,0.53-.21,0.67-.27a1.14,1.14,0,0,0,.32-0.16,0.22,0.22,0,0,0,0-.22c0-.15,0-0.28-0.06-0.4s-0.05-.33-0.12-0.63a0.37,0.37,0,0,1,.11-0.35,1.31,1.31,0,0,1,.56-0.25l0.69-.13a0.55,0.55,0,0,1,.27,0,0.4,0.4,0,0,1,0,.26,1.94,1.94,0,0,0,.07.5l0.13,0.56a0.48,0.48,0,0,1-.17.5A1.42,1.42,0,0,1,847.92,648.08Z"/><path class="cls-27" d="M850.79,649l-3.58,3.11a1.67,1.67,0,0,1-.37.28,2.14,2.14,0,0,1-.39.12,0.74,0.74,0,0,1-.31,0q-0.1,0,.18-0.31l3-2.74a0.64,0.64,0,0,0,.23-0.31,0.59,0.59,0,0,0-.09-0.31l-0.23-.41a1.07,1.07,0,0,1-.1-0.27,2,2,0,0,1,0-.2,0.26,0.26,0,0,1,.09-0.19,1.5,1.5,0,0,1,.3-0.17l0.35-.16,0.5-.2a0.51,0.51,0,0,1,.32-0.07,0.2,0.2,0,0,1,.09.18,1.19,1.19,0,0,0,.14.39l0.18,0.33a1.79,1.79,0,0,1,.15.29A0.8,0.8,0,0,1,850.79,649Z"/><path class="cls-27" d="M854.16,653.22a3.19,3.19,0,0,1-.32.35,1.8,1.8,0,0,1-.56.35l-0.68.25-0.43.15a2.92,2.92,0,0,1-.54.12,1.66,1.66,0,0,1-.72-0.07l-2.88-.9-0.17-.08q-0.23-.11-0.07-0.25L848,653l0.21-.12,0.46-.23a2,2,0,0,1,.57-0.2,1.36,1.36,0,0,1,.57.09L851,653q0.75,0.25,1.35.42a0.9,0.9,0,0,0,.87-0.08,2.84,2.84,0,0,0,.23-0.28l0.87-1.26a0.62,0.62,0,0,0,.15-0.55,1,1,0,0,0-.36-0.34q-0.64-.36-1.07-0.63a1.57,1.57,0,0,1-.8-0.74,0.48,0.48,0,0,1,.14-0.31,1.76,1.76,0,0,1,.39-0.23l0.53-.25a0.45,0.45,0,0,1,.34-0.07,0.27,0.27,0,0,1,.09.09l0.13,0.16a4.43,4.43,0,0,0,.67.45l1.07,0.66a1,1,0,0,1,.51.5,0.89,0.89,0,0,1-.29.58Z"/><path class="cls-27" d="M860.18,654.54l-2.6,2.33a1.65,1.65,0,0,1-.37.28,2.1,2.1,0,0,1-.38.12,0.64,0.64,0,0,1-.31,0c-0.07,0,0-.13.17-0.3l0.71-.67,1.62-1.58a4,4,0,0,0,.37-0.39l0.3-.37a0.23,0.23,0,0,0,0-.28,0.77,0.77,0,0,0-.34-0.26l-0.33-.15-1.88-.87a1,1,0,0,1-.44-0.33,0.22,0.22,0,0,1,0-.32,0.86,0.86,0,0,1,.19-0.13l0.71-.32,0.57-.25a0.53,0.53,0,0,1,.31-0.09,0.4,0.4,0,0,1,.07.23,0.36,0.36,0,0,0,.21.29l2.05,1a0.7,0.7,0,0,1,.58.67,3.44,3.44,0,0,0-.17.32,2.36,2.36,0,0,1-.41.42Z"/><path class="cls-27" d="M866.79,656.1a0.85,0.85,0,0,1-.19.28,1.09,1.09,0,0,1-.54.2l-0.51.11a1.67,1.67,0,0,0-.6.38l-2.2,2.24a1.93,1.93,0,0,1-.32.26l-0.24.06-0.36.12a0.81,0.81,0,0,1-.34,0,0.24,0.24,0,0,1-.19-0.11,0.31,0.31,0,0,1,.16-0.25l3.27-3a0.44,0.44,0,0,0,.2-0.34,0.39,0.39,0,0,0-.26-0.24l-2.28-1.06a1.38,1.38,0,0,1-.52-0.34,0.19,0.19,0,0,1,.09-0.29,5.43,5.43,0,0,1,.87-0.49,4.6,4.6,0,0,1,.75-0.31,0.44,0.44,0,0,1,.24,0,0.14,0.14,0,0,1,0,.16,0.38,0.38,0,0,0,0,.23,0.58,0.58,0,0,0,.28.2l1.85,0.86a1.87,1.87,0,0,0,.37.14,1.72,1.72,0,0,0,.42,0,0.92,0.92,0,0,1,.41,0s0,0.08,0,.19a2.66,2.66,0,0,1-.12.29Q866.89,655.9,866.79,656.1Z"/><path class="cls-28" d="M807,917.06S-481,781-553.78,781c-36.37,0-47.09,139.84,4.87,143.62C-445,932.18,807,1038,807,1038V917.06Z"/></svg>