<svg id="Layer_1" data-name="Layer 1" xmlns="http://www.w3.org/2000/svg" xmlns:xlink="http://www.w3.org/1999/xlink" viewBox="0 0 1280 800"><defs><style>.cls-1{fill:#1f585c;opacity:0.3;}.cls-2{fill:url(#linear-gradient);}.cls-14,.cls-15,.cls-3{fill:none;}.cls-4{fill:url(#linear-gradient-2);}.cls-5{fill:#2c303d;}.cls-6{fill:url(#linear-gradient-3);}.cls-7{fill:url(#linear-gradient-4);}.cls-8{fill:url(#linear-gradient-5);}.cls-9{fill:#c28283;}.cls-10{fill:url(#linear-gradient-6);}.cls-11{fill:#1e2330;}.cls-12{fill:#3e414d;}.cls-13{opacity:0.8;}.cls-14{stroke:#201d21;}.cls-14,.cls-15{stroke-miterlimit:10;stroke-width:9px;}.cls-15{stroke:#272b38;}.cls-16{fill:#201d21;}.cls-17{fill:#585960;}.cls-18{fill:#79787a;}.cls-19{fill:#4d4a4e;}</style><linearGradient id="linear-gradient" x1="640.78" y1="809" x2="640.78" y2="-5.89" gradientUnits="userSpaceOnUse"><stop offset="0.2" stop-color="#3e414d"/><stop offset="0.32" stop-color="#44444f"/><stop offset="0.46" stop-color="#534b56"/><stop offset="0.63" stop-color="#6d5860"/><stop offset="0.81" stop-color="#926a6f"/><stop offset="0.99" stop-color="#c08182"/><stop offset="1" stop-color="#c28283"/></linearGradient><linearGradient id="linear-gradient-2" x1="846" y1="638.04" x2="1053.37" y2="638.04" gradientUnits="userSpaceOnUse"><stop offset="0" stop-color="#3e414d"/><stop offset="0.15" stop-color="#5a4f58"/><stop offset="0.42" stop-color="#87656b"/><stop offset="0.66" stop-color="#a77578"/><stop offset="0.86" stop-color="#bb7e80"/><stop offset="1" stop-color="#c28283"/></linearGradient><linearGradient id="linear-gradient-3" x1="-21" y1="628.03" x2="192.03" y2="628.03" xlink:href="#linear-gradient-2"/><linearGradient id="linear-gradient-4" x1="573" y1="372.64" x2="966.33" y2="372.64" xlink:href="#linear-gradient-2"/><linearGradient id="linear-gradient-5" x1="1016" y1="569.91" x2="1314.09" y2="569.91" gradientUnits="userSpaceOnUse"><stop offset="0" stop-color="#3e414d"/><stop offset="0.05" stop-color="#4f4954"/><stop offset="0.18" stop-color="#725b62"/><stop offset="0.31" stop-color="#8f696e"/><stop offset="0.45" stop-color="#a67477"/><stop offset="0.6" stop-color="#b67c7e"/><stop offset="0.77" stop-color="#bf8182"/><stop offset="1" stop-color="#c28283"/></linearGradient><linearGradient id="linear-gradient-6" x1="205" y1="560.24" x2="652" y2="560.24" xlink:href="#linear-gradient-2"/></defs><title>page</title><path class="cls-1" d="M237.81-274.63C236.4-277.4,215-200.25,212.37-200s-5.44,13.85-6.73,17.48-46.74,33.45-49.25,33.06-16.18,14.53-17.28,16.92-13.3,10.08-15.21,13-18.67.53-27.41,12.8c-10.31,14.48-32.13-20.91-34-20.56S54.32-138,51-147.84c-2.91-8.52,1.64-29.7.23-32.47s-69,90.42-71.62,86.18-2.61.24-5-7.8a60.43,60.43,0,0,1-2.64-13.82S-70.09-29-77.28-11-170,38.61-170,38.61l28.94-590.54L480-477.85S239.21-271.86,237.81-274.63Z"/><rect class="cls-2" x="-3.38" y="-5.89" width="1288.31" height="814.89"/><path class="cls-3" d="M792,306l-2.24-8.95L789.5,297,772,275c-1.79,0-5.1-1.16-9.31-3.06C772.73,290.67,792,306,792,306Z"/><path class="cls-4" d="M877.33,563.67l-6,24s16,8,14,12.67-6,27.33-6,27.33L846,641.75,865,721h188.39c-44.25-43-170.09-164.27-182.7-165.92Z"/><path class="cls-5" d="M1294.33,606.36c-39.33-35.57-218.67-161.55-218.67-161.55l-8.67-7.46L1019.63,411l-2-1.1-33.33,17.78-18,17.78C914.33,411.37,839.5,320.58,836,316.13c-2.24-2.84-13.87-20-23.15-33.59-5.24-7.68-23.17-23.94-24.09-24.16l-0.26-.06L771,233.87c-1.79,0-5.1-1.28-9.31-3.4C744.81,222,713.41,200.08,707,193.85c-8-7.78-39-48.91-42-53.36s-8,1.11-8,1.11-7-12.23-11-12.23a17.3,17.3,0,0,0-4.9,1.07,75.9,75.9,0,0,0-8.1,3.38L549,235s-32,24.46-37,31.13-32,40-32,40-16-3.33-24-4.45a6.35,6.35,0,0,0-2.33.19c-9.14,2.21-26.93,20.3-29.67,25.38-3,5.56-84,43.35-88,46.69s-4,13.34-5,17.79-4,2.23-8,0c-3.8-2.11-17.53,17.85-18.89,19.84l-0.12.17a74,74,0,0,0-9-13.33c-5-5.56-25-4.43-29-6.65a2.38,2.38,0,0,0-1.56.38C251,398.25,160.59,470,154.92,477.38c-6,7.78-74.08,26.74-85.08,32.3-5,2.52-18,9.63-30.76,16.65-15.39,8.48-30.65,16.83-30.65,16.83L-19,556.25V732H1294.33S1333.67,641.94,1294.33,606.36ZM510,562.92l-1-.44Zm-1.19-.52-1.15-.5Zm-1.38-.6-1.14-.5Zm-4.85-2.12h0Zm-6.44-2.83-0.11,0Zm-2.47-1.1-0.1,0Zm-5.23-2.34-0.12-.06Zm-2.82-1.27-0.11-.05Zm-5.84-2.67-0.11-.05Zm-3-1.4-0.23-.11Z"/><polygon class="cls-3" points="-41 753 145.63 753 -41 614.41 -41 753"/><path class="cls-6" d="M6.94,540.94L-21,554v38.15L165.63,731H192L37.71,525.06C22.32,533.53,6.94,540.94,6.94,540.94Z"/><path class="cls-7" d="M671.67,184.59c6,8.15,16,30.38,16,30.38s-18.67-14.08-28-15.56-24-3-24-3,42.67,99.31,50.67,111.91,44,50.39,48.67,54.84S739.67,375,739.67,375s-7.33-5.19-19.33-6.67-20-4.45-24.67-8.89-20-18.53-20-18.53,10.67,35.57,9.33,41.5-2,9.63,4,26.68,4.67,25.94,5.33,35.57,8,34.09,8,34.09l-70.67-70.4s-10-4.45-14-8.89-22.67-31.87-26-37.8S573,342.44,573,342.44s8,23,7.33,27.42,8,15.56,8,15.56-6-.74-5.33,5.19,15.33,37.8,15.33,37.8S601,487.7,603,498.07s6,49.65,6,49.65l52.67,68.18s32.67-27.42,44.67-28.16,57.33-5.93,64.67-11.12,66-42.24,75.33-43.72,28.67-6.67,36-12.6,84-74.85,84-74.85C914.33,411.36,839.5,320.58,836,316.13c-2.24-2.84-13.87-20-23.15-33.59-4.85-7-23.17-23.94-24.09-24.15L787.67,272s-15.94-20.74-26-41.56C744.81,222,713.41,200.08,707,193.85c-8-7.78-39-48.91-42-53.36s-8,1.11-8,1.11-7-12.23-11-12.23a17.3,17.3,0,0,0-4.9,1.07c1.19,6.7,3,13.16,5.9,16.35C654.33,154.95,665.67,176.44,671.67,184.59Z"/><path class="cls-8" d="M1293.33,604.75c-60.33-28.38-218.67-162-218.67-162l-8.67-7.54-47.37-26.39-1.3,3.27,20.67,23,22,30.39-27.33-6.67s-8-1.48-12.67.74l-4,53.36,107.33,86-76-13.23L1121.11,731h172.22S1340,626.72,1293.33,604.75Z"/><path class="cls-9" d="M479,303.91s-16-3.33-24-4.45a6.35,6.35,0,0,0-2.33.19L464,328.36C464.67,319.47,479,303.91,479,303.91Z"/><path class="cls-10" d="M594.5,602.38c-8-6.67-73-36.13-85.5-41.69-5.29-2.35-19.67-8.47-36.45-16.36l-28.55-27s-12-1.85-18.67-6.67-17.67-24.09-17.67-24.09L375,465.09l17.5,32.24-10,2.22s16,11.67,16,17.79,0.5,20.57.5,20.57l26,45.58s6,13.9-12,0-40.5-33.35-46.5-42.8-22-26.12-27.5-27.24,33.5-12.23,33.5-12.23-17-27.24-22-31.13-19-31.68-21.5-33.35-12.5-2.22-12.5-2.22l-13.39-25.18-0.12.17a74,74,0,0,0-9-13.33c-5-5.56-25-4.43-29-6.65a2.38,2.38,0,0,0-1.56.38c3,7.86,6.88,17.34,9.6,21.26,5,7.23,13.5,25,13.5,25S249,425.07,253,430.63s25.5,56.14,25.5,56.14l-8-1.67a101.16,101.16,0,0,1,21,21.68c10,13.9,31.5,30.57,31.5,30.57s-31-12.78-42.5-21.12-27-27.79-27-27.79-4,1.11-15.5-4.45-33-12.23-33-12.23l40,30s-11.5-5-8.5-1.11,31,24.46,31,27.24a66.77,66.77,0,0,0,1,8.34s22.5,13.9,28,22.23a110.19,110.19,0,0,0,8.5,11.67s20,12.23,28,20.57,57.5,36.52,64,45.41c5.35,7.32,60.77,70.88,80.26,94.88h18L652,621.67S602.5,609,594.5,602.38Z"/><path class="cls-11" d="M-65.25,386.77S39.15,515.4,191,621c141.22,98.21,216,112,216,112L-86.25,780.14Z"/><path class="cls-12" d="M-17,701c714.07,129,1222-62,1342-74s102.89,26.8,102.89,26.8l6,153L-1,891S-51.7,694.73-17,701Z"/><g class="cls-13"><path class="cls-5" d="M908,742.2s-5.24,40.51,77.25,62.38c54.1,14.34,112.95,24.6,173.12,21.07,31.59-1.86,50.58-1,68.79-1.83,18.64-.87,88.68-13,53.25-36.1-27.84-18.13-47.74-7.77-82.73-18.18-32.54-9.68-44.57-16.24-82.69-24.52C1066,734.39,997.86,730.26,908,742.2Z"/><line class="cls-14" x1="907.84" y1="742.8" x2="1013.08" y2="569.11"/><line class="cls-5" x1="1027.85" y1="718.79" x2="958.84" y2="550.78"/><line class="cls-14" x1="979.84" y1="547.78" x2="946.84" y2="718.79"/><polyline class="cls-14" points="971 552 987.58 743.1 987 554 962.08 759.6 979 590 926.08 761.1 985 615 1006 719 1015 745"/><line class="cls-15" x1="976.33" y1="567.33" x2="943.67" y2="770.33"/><line class="cls-15" x1="990.33" y1="575.33" x2="973.33" y2="776"/><line class="cls-15" x1="941.33" y1="575.67" x2="1004.33" y2="752"/><line class="cls-15" x1="984.33" y1="566.33" x2="928.33" y2="751.33"/><line class="cls-15" x1="933.33" y1="594.67" x2="991.33" y2="763"/><line class="cls-15" x1="1000.67" y1="592.33" x2="905" y2="750"/><line class="cls-15" x1="931.67" y1="618.67" x2="972.33" y2="772.33"/><path class="cls-14" d="M985.85,574.78s300-69,405-171"/><path class="cls-16" d="M1040.25,562.75s0.47,7-9.24,18.93c-4.31,5.3-.08,14.33-0.08,14.33s20.39-4.6,22.65-9.58c6.84-15.09,6.84-27.72,6.84-27.72Z"/><path class="cls-17" d="M1235.87,498l-3.81,16.68s-25.11-2.13-24.23,22.28c0,0-2.48-16.8,2.21-31.6Z"/><path class="cls-18" d="M1267.59,482.3l-4.5,28.91s-7.16-4-12.55-.15c0,0-3.81-9-1.17-18.34Z"/><path class="cls-19" d="M1198.53,510s-12.05,18.91-12.22,37.21c-0.09,9.54-6.29-7.41-14.85-1.12-3.7,2.72-1.64-21.18-1.64-21.18Z"/><path class="cls-17" d="M1114.25,540.75s-16.78,26.34-16,35.27-11.47-2.23-15.94-5.61-15,0-15,0l13.1-19.48S1097.35,546.62,1114.25,540.75Z"/><path class="cls-16" d="M1158.5,526.25s-10.43,9.15-12.81,15.42,0.27,21.9-7.78,24.9c0,0-8.32-8.41-16.64-7l2.44-19.71S1141.24,529,1158.5,526.25Z"/><line class="cls-14" x1="983.67" y1="552.33" x2="903" y2="726.33"/><line class="cls-14" x1="963.79" y1="592.87" x2="920.88" y2="779.8"/><line class="cls-14" x1="949" y1="563" x2="1007" y2="769"/><line class="cls-15" x1="959.08" y1="561.61" x2="981.58" y2="758.1"/></g></svg>