<svg id="Layer_1" data-name="Layer 1" xmlns="http://www.w3.org/2000/svg" xmlns:xlink="http://www.w3.org/1999/xlink" viewBox="0 0 1280 800"><defs><style>.cls-1{fill:#9fe5ff;}.cls-2{fill:#4c797d;}.cls-3{fill:#92a77a;}.cls-4{fill:#1f585c;}.cls-5{fill:url(#linear-gradient);}.cls-6{fill:url(#linear-gradient-2);}.cls-7{fill:#2d4b2c;}.cls-8{fill:url(#linear-gradient-3);}.cls-9{fill:url(#linear-gradient-4);}.cls-10{fill:url(#linear-gradient-5);}.cls-11{fill:url(#linear-gradient-6);}.cls-12{fill:url(#linear-gradient-7);}.cls-13{fill:url(#linear-gradient-8);}.cls-14{fill:url(#linear-gradient-9);}.cls-15{fill:url(#linear-gradient-10);}.cls-16{fill:url(#linear-gradient-11);}</style><linearGradient id="linear-gradient" x1="310.85" y1="355.54" x2="302.77" y2="240.03" gradientUnits="userSpaceOnUse"><stop offset="0.34" stop-color="#fff"/><stop offset="0.42" stop-color="#f8fafa"/><stop offset="0.52" stop-color="#e5ecec"/><stop offset="0.65" stop-color="#c6d4d6"/><stop offset="0.79" stop-color="#9bb4b6"/><stop offset="0.94" stop-color="#648b8e"/><stop offset="1" stop-color="#4c797d"/></linearGradient><linearGradient id="linear-gradient-2" x1="407" y1="289.61" x2="1300" y2="289.61" gradientUnits="userSpaceOnUse"><stop offset="0.05" stop-color="#415e1d"/><stop offset="0.54" stop-color="#5b8529"/><stop offset="1" stop-color="#76ad35"/></linearGradient><linearGradient id="linear-gradient-3" x1="1070.39" y1="654.22" x2="790.76" y2="239.65" gradientUnits="userSpaceOnUse"><stop offset="0.84" stop-color="#2d4b2c"/><stop offset="0.89" stop-color="#33522a"/><stop offset="0.97" stop-color="#446523"/><stop offset="1" stop-color="#4a6c21"/></linearGradient><linearGradient id="linear-gradient-4" x1="662.39" y1="698.22" x2="382.76" y2="283.65" xlink:href="#linear-gradient-3"/><linearGradient id="linear-gradient-5" x1="1124.91" y1="660.15" x2="858.86" y2="265.72" xlink:href="#linear-gradient-3"/><linearGradient id="linear-gradient-6" x1="1073.4" y1="736.66" x2="825.49" y2="369.12" xlink:href="#linear-gradient-3"/><linearGradient id="linear-gradient-7" x1="1194.4" y1="738.66" x2="946.49" y2="371.12" xlink:href="#linear-gradient-3"/><linearGradient id="linear-gradient-8" x1="1191.77" y1="818.66" x2="943.86" y2="451.12" xlink:href="#linear-gradient-3"/><linearGradient id="linear-gradient-9" x1="1347.57" y1="844.66" x2="1099.67" y2="477.12" xlink:href="#linear-gradient-3"/><linearGradient id="linear-gradient-10" x1="663.36" y1="665.78" x2="807.15" y2="444.37" gradientUnits="userSpaceOnUse"><stop offset="0.49" stop-color="#fff"/><stop offset="0.54" stop-color="#f9faf8"/><stop offset="0.61" stop-color="#eaeee5"/><stop offset="0.7" stop-color="#d0d9c6"/><stop offset="0.79" stop-color="#adbc9a"/><stop offset="0.89" stop-color="#809863"/><stop offset="1" stop-color="#4a6c21"/></linearGradient><linearGradient id="linear-gradient-11" x1="559.91" y1="935.33" x2="678.77" y2="323.87" gradientUnits="userSpaceOnUse"><stop offset="0.05" stop-color="#415e1d"/><stop offset="0.25" stop-color="#44621e"/><stop offset="0.47" stop-color="#4c6f22"/><stop offset="0.7" stop-color="#5b8429"/><stop offset="0.93" stop-color="#6ea232"/><stop offset="1" stop-color="#76ad35"/></linearGradient></defs><title>page</title><rect class="cls-1" x="-11.25" y="-19.47" width="1305.13" height="477.05"/><path class="cls-2" d="M-35,210.59S65,139,143,145c52.43,4,105.2,58.59,154,40,84-32,68,42.19,150,38,106.34-5.43,144-9.46,296-66,59-22,68,16.87,128,42s456,36.72,456,36.72l28,592.62L-25,843Z"/><path class="cls-3" d="M-35,333.11s119-28.9,256-30.39c52.58-.57,111.78,39,164,38.83,101.16-.36,146-25.33,228-28.7,106.34-4.38,142,18.57,294-27,59-17.7,142-25.33,202-5.07s218,72.6,218,72.6l28,477.81L-25,843Z"/><path class="cls-4" d="M546,1346.16L445,1345l-56-76-12-68s-45.24-172.26-88-201c-76.57-51.46-119.79-39.55-122.31-37.57-3.94,3.08-2.37-1.11-7.39,5.62a60.43,60.43,0,0,0-7.19,12.09s-9.92-95.87-10.52-115.28-70.33-78.2-70.33-78.2l-174,565.07,609.22,142Z"/><path class="cls-5" d="M-45,281s54.07-15.56,80-20c70-12,136,8,164,6s67.94-24.87,90-26c54.51-2.8,74.7,4.48,94,10,21,6,258.56-12.8,270-14,7.4-.78-195,24.8-195,30,0,8,77,18,77,18L433,347-25,371Z"/><path class="cls-6" d="M938.3,258.76c-65.8,0-138-26.54-248.36-26.54S407,347,407,347l893-7.86S1004.1,258.76,938.3,258.76Z"/><path class="cls-7" d="M829.58,571.22c46.5,0,97.5-27,175.49-27S1205,661,1205,661l-631-8S783.08,571.22,829.58,571.22Z"/><path class="cls-7" d="M1080.87,520c52.83-29.93,106.92-74.44,208.77-74.44s244.36,297,244.36,297L710,720S817.08,669.44,1080.87,520Z"/><path class="cls-8" d="M890.46,286.5c56.66,0,118.81-54.28,213.86-54.28S1348,467,1348,467L513,427S833.79,286.5,890.46,286.5Z"/><path class="cls-9" d="M482.46,330.5c56.66,0,118.81-54.28,213.86-54.28S940,511,940,511L105,471S425.79,330.5,482.46,330.5Z"/><path class="cls-10" d="M927.08,304.5c56.66,0,118.81-54.28,213.86-54.28S1384.58,485,1384.58,485L599,441S870.42,304.5,927.08,304.5Z"/><path class="cls-11" d="M876.33,380.5c56.66,0,118.81-54.28,213.86-54.28S1333.83,561,1333.83,561l-769-16.08S819.67,380.5,876.33,380.5Z"/><path class="cls-12" d="M997.33,382.5c56.66,0,118.81-54.28,213.86-54.28S1454.82,563,1454.82,563l-769-16.08S940.66,382.5,997.33,382.5Z"/><path class="cls-13" d="M994.69,462.5c56.66,0,118.81-54.28,213.86-54.28S1452.19,643,1452.19,643l-769-16.08S938,462.5,994.69,462.5Z"/><path class="cls-14" d="M1150.5,488.5c56.66,0,118.81-54.28,213.86-54.28S1608,669,1608,669L839,652.92S1093.84,488.5,1150.5,488.5Z"/><path class="cls-15" d="M706.33,387c-9.94,16.05-80.09,28-36.33,34s66.25,19.52,41,34.67c-27.79,16.67,30.67,46,24,58.67C712.84,556.43,815,511,912.33,541,941.9,550.12,1120.7,653,1123,661s-222.68-16.08-222.68-16.08L446.58,525,389,385s48-50,131.85-21.2C590.92,387.87,723.67,359,706.33,387Z"/><path class="cls-7" d="M430.26,294.61s-45.47,79,71.54,169,225,96,303,114,507.05,108,534.05,171-72,63-72,63l-1281.13-6Z"/><path class="cls-16" d="M-66.22,396.61c94-89.05,253-125.06,421-128.06,273.79-4.89-324,168,324,375C834.11,693.2,1314,816,1314,816H-54S-69.43,399.66-66.22,396.61Z"/></svg>