<svg id="object-middle" xmlns="http://www.w3.org/2000/svg" xmlns:xlink="http://www.w3.org/1999/xlink" viewBox="0 0 16000 800">
  <defs>
    <style>
      .cls-1 {
        fill: url(#linear-gradient);
      }

      .cls-2 {
        fill: url(#linear-gradient-2);
      }

      .cls-3 {
        fill: url(#linear-gradient-3);
      }
    </style>
    <linearGradient id="linear-gradient" x1="3628.09" y1="1977.22" x2="3642.58" y2="1811.6" gradientTransform="translate(176.31 -1712.8) rotate(7.41)" gradientUnits="userSpaceOnUse">
      <stop offset="0" stop-color="#fff"/>
      <stop offset="0.49" stop-color="#fff5e8" stop-opacity="0"/>
    </linearGradient>
    <linearGradient id="linear-gradient-2" x1="4761.4" y1="598.7" x2="6349.6" y2="598.7" gradientUnits="userSpaceOnUse">
      <stop offset="0" stop-color="#2d4b2c"/>
      <stop offset="0.34" stop-color="#2e472b"/>
      <stop offset="0.68" stop-color="#303b29"/>
      <stop offset="0.99" stop-color="#342925"/>
    </linearGradient>
    <linearGradient id="linear-gradient-3" x1="5142.59" y1="1005.74" x2="5278.21" y2="308.02" gradientUnits="userSpaceOnUse">
      <stop offset="0.05" stop-color="#415e1d"/>
      <stop offset="0.25" stop-color="#44621e"/>
      <stop offset="0.47" stop-color="#4c6f22"/>
      <stop offset="0.7" stop-color="#5b8429"/>
      <stop offset="0.93" stop-color="#6ea232"/>
      <stop offset="1" stop-color="#76ad35"/>
    </linearGradient>
  </defs>
  <title>layer8</title>
  <path class="cls-1" d="M4207.91,776.8s-381-8.6-561.1-38.1c-246.3-40.4-533.2-119.6-536.7-150-1.4-12.3,16.7-21.3,16.7-21.3s-257.5-16.7-267.5-33.1,53.6-34.7,175.5-18.9c0,0-101.9,11.3,148.3,34.4,121.1,11.2,1035.8,149.5,1035.8,149.5Z"/>
  <g>
    <path class="cls-2" d="M5205.9,312.59s-45.5,79,71.5,169,225,126,303,144c51.8,12,362.2,84.1,572.8,149.7,106.4,33.1,193,76.71,196.4,85.8-10,67.8-307.1-31.4-307.1-31.4l-1281.1-6Z"/>
    <path class="cls-3" d="M4616.23,474.32c163.14-136.39,346.17-184.83,514.17-187.83,273.8-4.9-330.2,188.4,324,375C5610.1,706,6106.25,812,6106.25,812L4250.3,832.29S4477.14,590.61,4616.23,474.32Z"/>
  </g>
</svg>
