<svg id="object-near" xmlns="http://www.w3.org/2000/svg" viewBox="0 0 16000 800">
  <defs>
    <style>
      .cls-1 {
        fill: #bfaf9b;
      }

      .cls-2 {
        fill: #ffe7c9;
      }

      .cls-3 {
        fill: #806664;
      }

      .cls-4 {
        opacity: 0.5;
      }

      .cls-5 {
        fill: #1f585c;
      }

      .cls-6 {
        fill: #ff608f;
      }

      .cls-7 {
        fill: #ffa0bc;
      }

      .cls-8 {
        fill: none;
        stroke: #ff608f;
        stroke-miterlimit: 10;
        stroke-width: 2px;
      }
    </style>
  </defs>
  <title>layer9</title>
  <g>
    <g>
      <path class="cls-1" d="M3461.15,341.1s20.6,25.8,19.9,37,6.3-.8,6.3-0.8l0.6-8.8C3487.85,368.6,3489.15,357.4,3461.15,341.1Z"/>
      <polygon class="cls-2" points="3482.95 382.6 3480.15 385.3 3479.55 386.2 3477.45 386.8 3477.15 386.3 3478.85 385.4 3482.25 382.5 3482.95 382.6"/>
      <polygon class="cls-2" points="3479.15 383.5 3477.65 385.2 3476.45 385.6 3475.85 386.3 3475.05 386.1 3475.75 385 3477.25 385 3478.35 383.1 3479.15 382.9 3479.15 383.5"/>
      <path class="cls-3" d="M3494.55,350.4s-5.3,24.6-9.8,26.1-8,4.1-9.8,3.4-3.9-1.8-3.9-1.8-2,6.5,1.1,5.8,4,0.1,4,.1a47.3,47.3,0,0,1,6.8-1.1c2,0,12.3-2.9,14.8-3.1a39.59,39.59,0,0,1,6.4.3s-1.4-2-2.5-2-0.6-1-1.5-1.6-3.6.4-4.6-1.6,0.5-6.1,3.1-8.3a8.29,8.29,0,0,0,2.9-8.9c-0.9-3.9-5.6-7.4-6.1-8.9S3494.55,350.4,3494.55,350.4Z"/>
    </g>
    <g class="cls-4">
      <path class="cls-2" d="M3460.15,626.6s20.6-20,19.9-28.7,6.3,0.6,6.3.6l0.6,6.8C3486.85,605.3,3488.15,614,3460.15,626.6Z"/>
      <polygon class="cls-2" points="3481.95 594.4 3479.15 592.4 3478.55 591.7 3476.45 591.3 3476.15 591.6 3477.85 592.3 3481.25 594.5 3481.95 594.4"/>
      <polygon class="cls-2" points="3478.15 593.7 3476.65 592.5 3475.45 592.1 3474.85 591.6 3474.05 591.9 3474.75 593 3476.25 593 3477.35 594.3 3478.15 594.4 3478.15 593.7"/>
      <path class="cls-3" d="M3493.55,619.5s-5.3-19.1-9.8-20.3-8-3.2-9.8-2.6-3.9,1.4-3.9,1.4-2-5,1.1-4.5,4-.1,4-0.1a57,57,0,0,0,6.8.9c2,0,12.3,2.2,14.8,2.4s2.3,1.1,3.1.7a25,25,0,0,1,3.3-.9s-1.4,1.6-2.5,1.6-0.6.8-1.5,1.3-3.6-.3-4.6,1.3,0.5,4.7,3.1,6.4,3.8,3.9,2.9,6.9-5.6,5.7-6.1,6.9S3493.55,619.5,3493.55,619.5Z"/>
    </g>
  </g>
  <g>
    <path class="cls-5" d="M10277.45,536.6s19.7,21.7,33.2,30.7c23.5,15.7,49.7,29.9,44.2,39.3-8.6,14.7-25.8-2.5-63.9-7.4-22-2.8-68.8-22.1-87.2-29.5s-86-41.8-86-41.8"/>
    <path class="cls-6" d="M10343,432.6l4.8,9.7-80.1,125.8-11.4,1.2s-10.8-8.2-16.9-9.9-93.4-17.3-111.3-25.2-15.6-23.2-15.6-23.2,16.9,1.2,33.1,1.2c8.7,0,17.8-.3,26.7-1.2,0,0,84.8-7.5,119.3-17.2l35.6-61.2h15.8Z"/>
    <polygon class="cls-7" points="10348.08 442.5 10266.95 568.6 10256.35 569.6 10342.92 432.83 10348.08 442.5"/>
    <line class="cls-8" x1="10146.25" y1="469.6" x2="10146.25" y2="514.6"/>
    <path class="cls-7" d="M10140.05,467.5l-14.3,7.1h0.6l20.9-4s24.3-11.5,24.2-11.5C10156.05,460.2,10140.05,467.5,10140.05,467.5Z"/>
    <path class="cls-6" d="M10171.15,459.4l-24,11.5s11.6-5.5,16-5.5c16,0,24.6,8.6,24.6,8.6l38.7-9.8S10211.05,456.4,10171.15,459.4Z"/>
    <line class="cls-8" x1="10226.25" y1="464.6" x2="10226.25" y2="507.6"/>
    <line class="cls-8" x1="10187.25" y1="473.6" x2="10187.25" y2="516.6"/>
    <line class="cls-8" x1="10126.25" y1="474.6" x2="10126.25" y2="519.6"/>
  </g>
</svg>
