<svg id="bg-near" xmlns="http://www.w3.org/2000/svg" xmlns:xlink="http://www.w3.org/1999/xlink" viewBox="0 0 16000 800">
  <defs>
    <style>
      .cls-1 {
        fill: url(#linear-gradient);
      }

      .cls-2 {
        opacity: 0.7;
        fill: url(#linear-gradient-2);
      }

      .cls-3 {
        fill: url(#linear-gradient-3);
      }

      .cls-4 {
        fill: url(#linear-gradient-4);
      }

      .cls-5 {
        fill: url(#linear-gradient-5);
      }

      .cls-6 {
        fill: url(#linear-gradient-6);
      }

      .cls-7 {
        fill: url(#linear-gradient-7);
      }

      .cls-8 {
        fill: url(#linear-gradient-8);
      }

      .cls-9 {
        fill: url(#linear-gradient-9);
      }

      .cls-10 {
        fill: url(#linear-gradient-10);
      }

      .cls-11 {
        fill: url(#linear-gradient-11);
      }

      .cls-12 {
        fill: url(#linear-gradient-12);
      }

      .cls-13 {
        fill: url(#linear-gradient-13);
      }

      .cls-14 {
        fill: url(#linear-gradient-14);
      }

      .cls-15 {
        fill: url(#linear-gradient-15);
      }

      .cls-16 {
        fill: url(#linear-gradient-16);
      }

      .cls-17 {
        fill: url(#linear-gradient-17);
      }

      .cls-18 {
        fill: url(#linear-gradient-18);
      }

      .cls-19 {
        fill: url(#linear-gradient-19);
      }

      .cls-20 {
        fill: url(#linear-gradient-20);
      }

      .cls-21 {
        fill: url(#linear-gradient-21);
      }

      .cls-22 {
        fill: url(#linear-gradient-22);
      }

      .cls-23 {
        fill: url(#linear-gradient-23);
      }

      .cls-24 {
        fill: url(#linear-gradient-24);
      }

      .cls-25 {
        fill: url(#linear-gradient-25);
      }

      .cls-26 {
        fill: url(#linear-gradient-26);
      }

      .cls-27 {
        fill: url(#linear-gradient-27);
      }

      .cls-28 {
        fill: url(#linear-gradient-28);
      }

      .cls-29 {
        fill: url(#linear-gradient-29);
      }

      .cls-30 {
        fill: url(#linear-gradient-30);
      }

      .cls-31 {
        fill: url(#linear-gradient-31);
      }

      .cls-32 {
        fill: url(#linear-gradient-32);
      }

      .cls-33 {
        fill: url(#linear-gradient-33);
      }

      .cls-34 {
        fill: url(#linear-gradient-34);
      }

      .cls-35 {
        fill: url(#linear-gradient-35);
      }

      .cls-36 {
        fill: url(#linear-gradient-36);
      }

      .cls-37 {
        fill: url(#linear-gradient-37);
      }

      .cls-38 {
        fill: url(#linear-gradient-38);
      }

      .cls-39 {
        fill: url(#linear-gradient-39);
      }

      .cls-40 {
        fill: url(#linear-gradient-40);
      }

      .cls-41 {
        fill: url(#linear-gradient-41);
      }

      .cls-42 {
        fill: url(#linear-gradient-42);
      }

      .cls-43 {
        fill: url(#linear-gradient-43);
      }

      .cls-44 {
        fill: url(#linear-gradient-44);
      }

      .cls-45 {
        fill: url(#linear-gradient-45);
      }

      .cls-46 {
        fill: url(#linear-gradient-46);
      }

      .cls-47 {
        fill: url(#linear-gradient-47);
      }

      .cls-48 {
        fill: url(#linear-gradient-48);
      }

      .cls-49 {
        fill: url(#linear-gradient-49);
      }

      .cls-50 {
        fill: url(#linear-gradient-50);
      }

      .cls-51 {
        fill: url(#linear-gradient-51);
      }

      .cls-52 {
        fill: url(#linear-gradient-52);
      }

      .cls-53 {
        fill: url(#linear-gradient-53);
      }

      .cls-54 {
        fill: #1f585c;
      }

      .cls-55, .cls-57 {
        fill: #fff;
      }

      .cls-55 {
        opacity: 0.04;
        isolation: isolate;
      }

      .cls-56 {
        opacity: 0.1;
      }
    </style>
    <linearGradient id="linear-gradient" x1="7944.89" y1="689.76" x2="8074.89" y2="168.36" gradientUnits="userSpaceOnUse">
      <stop offset="0.47" stop-color="#3e3633"/>
      <stop offset="0.58" stop-color="#403734"/>
      <stop offset="0.66" stop-color="#3e3633"/>
      <stop offset="0.76" stop-color="#57433c"/>
      <stop offset="0.83" stop-color="#674c42"/>
      <stop offset="0.89" stop-color="#705145"/>
      <stop offset="0.98" stop-color="#735346"/>
    </linearGradient>
    <linearGradient id="linear-gradient-2" x1="8253.05" y1="409.48" x2="8270.74" y2="338.51" gradientUnits="userSpaceOnUse">
      <stop offset="0" stop-color="#3e3633"/>
      <stop offset="0.18" stop-color="#4f3f39"/>
      <stop offset="0.45" stop-color="#634a40"/>
      <stop offset="0.72" stop-color="#6f5145"/>
      <stop offset="1" stop-color="#735346"/>
    </linearGradient>
    <linearGradient id="linear-gradient-3" x1="8854.97" y1="880.91" x2="8977.46" y2="389.65" xlink:href="#linear-gradient"/>
    <linearGradient id="linear-gradient-4" x1="8865.73" y1="883.56" x2="8988.19" y2="392.37" gradientUnits="userSpaceOnUse">
      <stop offset="0.47" stop-color="#3d3734"/>
      <stop offset="0.58" stop-color="#3f3835"/>
      <stop offset="0.66" stop-color="#3d3734"/>
      <stop offset="0.76" stop-color="#56433d"/>
      <stop offset="0.83" stop-color="#664c43"/>
      <stop offset="0.89" stop-color="#6e5145"/>
      <stop offset="0.98" stop-color="#715346"/>
    </linearGradient>
    <linearGradient id="linear-gradient-5" x1="8875.98" y1="886.51" x2="8998.54" y2="394.95" gradientUnits="userSpaceOnUse">
      <stop offset="0.47" stop-color="#3d3735"/>
      <stop offset="0.58" stop-color="#3f3836"/>
      <stop offset="0.66" stop-color="#3d3735"/>
      <stop offset="0.76" stop-color="#55443d"/>
      <stop offset="0.83" stop-color="#644c43"/>
      <stop offset="0.89" stop-color="#6d5146"/>
      <stop offset="0.98" stop-color="#705347"/>
    </linearGradient>
    <linearGradient id="linear-gradient-6" x1="8886.13" y1="889.76" x2="9008.89" y2="397.4" gradientUnits="userSpaceOnUse">
      <stop offset="0.47" stop-color="#3c3835"/>
      <stop offset="0.58" stop-color="#3e3936"/>
      <stop offset="0.66" stop-color="#3c3835"/>
      <stop offset="0.76" stop-color="#54443e"/>
      <stop offset="0.83" stop-color="#634d44"/>
      <stop offset="0.89" stop-color="#6b5146"/>
      <stop offset="0.98" stop-color="#6e5347"/>
    </linearGradient>
    <linearGradient id="linear-gradient-7" x1="8896.23" y1="893.23" x2="9019.26" y2="399.75" gradientUnits="userSpaceOnUse">
      <stop offset="0.47" stop-color="#3c3936"/>
      <stop offset="0.58" stop-color="#3d3a37"/>
      <stop offset="0.66" stop-color="#3c3936"/>
      <stop offset="0.76" stop-color="#53453f"/>
      <stop offset="0.83" stop-color="#614d44"/>
      <stop offset="0.89" stop-color="#6a5247"/>
      <stop offset="0.98" stop-color="#6c5348"/>
    </linearGradient>
    <linearGradient id="linear-gradient-8" x1="8906.28" y1="896.83" x2="9029.65" y2="402.04" gradientUnits="userSpaceOnUse">
      <stop offset="0.47" stop-color="#3b3937"/>
      <stop offset="0.58" stop-color="#3d3a38"/>
      <stop offset="0.66" stop-color="#3b3937"/>
      <stop offset="0.76" stop-color="#52453f"/>
      <stop offset="0.83" stop-color="#604d45"/>
      <stop offset="0.89" stop-color="#685247"/>
      <stop offset="0.98" stop-color="#6b5348"/>
    </linearGradient>
    <linearGradient id="linear-gradient-9" x1="8916.32" y1="900.54" x2="9040.05" y2="404.29" gradientUnits="userSpaceOnUse">
      <stop offset="0.47" stop-color="#3a3a38"/>
      <stop offset="0.58" stop-color="#3c3b39"/>
      <stop offset="0.66" stop-color="#3a3a38"/>
      <stop offset="0.76" stop-color="#504540"/>
      <stop offset="0.83" stop-color="#5f4d45"/>
      <stop offset="0.89" stop-color="#665248"/>
      <stop offset="0.98" stop-color="#695449"/>
    </linearGradient>
    <linearGradient id="linear-gradient-10" x1="8926.34" y1="904.3" x2="9050.45" y2="406.52" gradientUnits="userSpaceOnUse">
      <stop offset="0.47" stop-color="#3a3b39"/>
      <stop offset="0.58" stop-color="#3b3c39"/>
      <stop offset="0.66" stop-color="#3a3b39"/>
      <stop offset="0.76" stop-color="#4f4640"/>
      <stop offset="0.83" stop-color="#5d4e46"/>
      <stop offset="0.89" stop-color="#655248"/>
      <stop offset="0.98" stop-color="#675449"/>
    </linearGradient>
    <linearGradient id="linear-gradient-11" x1="8936.35" y1="908.11" x2="9060.86" y2="408.72" gradientUnits="userSpaceOnUse">
      <stop offset="0.47" stop-color="#393b39"/>
      <stop offset="0.58" stop-color="#3b3c3a"/>
      <stop offset="0.66" stop-color="#393b39"/>
      <stop offset="0.76" stop-color="#4e4641"/>
      <stop offset="0.83" stop-color="#5c4e46"/>
      <stop offset="0.89" stop-color="#635249"/>
      <stop offset="0.98" stop-color="#665449"/>
    </linearGradient>
    <linearGradient id="linear-gradient-12" x1="8946.35" y1="911.95" x2="9071.27" y2="410.9" gradientUnits="userSpaceOnUse">
      <stop offset="0.47" stop-color="#393c3a"/>
      <stop offset="0.58" stop-color="#3a3d3b"/>
      <stop offset="0.66" stop-color="#393c3a"/>
      <stop offset="0.76" stop-color="#4d4742"/>
      <stop offset="0.83" stop-color="#5a4e47"/>
      <stop offset="0.89" stop-color="#625249"/>
      <stop offset="0.98" stop-color="#64544a"/>
    </linearGradient>
    <linearGradient id="linear-gradient-13" x1="8956.34" y1="915.82" x2="9081.69" y2="413.08" gradientUnits="userSpaceOnUse">
      <stop offset="0.47" stop-color="#383d3b"/>
      <stop offset="0.58" stop-color="#3a3d3c"/>
      <stop offset="0.66" stop-color="#383d3b"/>
      <stop offset="0.76" stop-color="#4c4742"/>
      <stop offset="0.83" stop-color="#594e47"/>
      <stop offset="0.89" stop-color="#60524a"/>
      <stop offset="0.98" stop-color="#63544a"/>
    </linearGradient>
    <linearGradient id="linear-gradient-14" x1="8966.33" y1="919.71" x2="9092.11" y2="415.24" gradientUnits="userSpaceOnUse">
      <stop offset="0.47" stop-color="#373d3c"/>
      <stop offset="0.58" stop-color="#393e3d"/>
      <stop offset="0.66" stop-color="#373d3c"/>
      <stop offset="0.76" stop-color="#4b4843"/>
      <stop offset="0.83" stop-color="#574f48"/>
      <stop offset="0.89" stop-color="#5f534a"/>
      <stop offset="0.98" stop-color="#61544b"/>
    </linearGradient>
    <linearGradient id="linear-gradient-15" x1="8976.31" y1="923.62" x2="9102.53" y2="417.4" gradientUnits="userSpaceOnUse">
      <stop offset="0.47" stop-color="#373e3d"/>
      <stop offset="0.58" stop-color="#383f3d"/>
      <stop offset="0.66" stop-color="#373e3d"/>
      <stop offset="0.76" stop-color="#4a4844"/>
      <stop offset="0.83" stop-color="#564f48"/>
      <stop offset="0.89" stop-color="#5d534a"/>
      <stop offset="0.98" stop-color="#5f544b"/>
    </linearGradient>
    <linearGradient id="linear-gradient-16" x1="8986.3" y1="927.53" x2="9112.95" y2="419.56" gradientUnits="userSpaceOnUse">
      <stop offset="0.47" stop-color="#363f3d"/>
      <stop offset="0.58" stop-color="#383f3e"/>
      <stop offset="0.66" stop-color="#363f3d"/>
      <stop offset="0.76" stop-color="#494844"/>
      <stop offset="0.83" stop-color="#554f49"/>
      <stop offset="0.89" stop-color="#5b534b"/>
      <stop offset="0.98" stop-color="#5e544c"/>
    </linearGradient>
    <linearGradient id="linear-gradient-17" x1="8996.27" y1="931.46" x2="9123.37" y2="421.71" gradientUnits="userSpaceOnUse">
      <stop offset="0.47" stop-color="#353f3e"/>
      <stop offset="0.58" stop-color="#37403f"/>
      <stop offset="0.66" stop-color="#353f3e"/>
      <stop offset="0.76" stop-color="#484945"/>
      <stop offset="0.83" stop-color="#534f49"/>
      <stop offset="0.89" stop-color="#5a534b"/>
      <stop offset="0.98" stop-color="#5c544c"/>
    </linearGradient>
    <linearGradient id="linear-gradient-18" x1="9006.25" y1="935.39" x2="9133.79" y2="423.85" gradientUnits="userSpaceOnUse">
      <stop offset="0.47" stop-color="#35403f"/>
      <stop offset="0.58" stop-color="#364140"/>
      <stop offset="0.66" stop-color="#35403f"/>
      <stop offset="0.76" stop-color="#474945"/>
      <stop offset="0.83" stop-color="#52504a"/>
      <stop offset="0.89" stop-color="#58534c"/>
      <stop offset="0.98" stop-color="#5a544c"/>
    </linearGradient>
    <linearGradient id="linear-gradient-19" x1="9016.23" y1="939.33" x2="9144.22" y2="426" gradientUnits="userSpaceOnUse">
      <stop offset="0.47" stop-color="#344140"/>
      <stop offset="0.58" stop-color="#364141"/>
      <stop offset="0.66" stop-color="#344140"/>
      <stop offset="0.76" stop-color="#454a46"/>
      <stop offset="0.83" stop-color="#50504a"/>
      <stop offset="0.89" stop-color="#57534c"/>
      <stop offset="0.98" stop-color="#59554d"/>
    </linearGradient>
    <linearGradient id="linear-gradient-20" x1="9026.2" y1="943.28" x2="9154.64" y2="428.14" gradientUnits="userSpaceOnUse">
      <stop offset="0.47" stop-color="#344141"/>
      <stop offset="0.58" stop-color="#354241"/>
      <stop offset="0.66" stop-color="#344141"/>
      <stop offset="0.76" stop-color="#444a47"/>
      <stop offset="0.83" stop-color="#4f504b"/>
      <stop offset="0.89" stop-color="#55534d"/>
      <stop offset="0.98" stop-color="#57554d"/>
    </linearGradient>
    <linearGradient id="linear-gradient-21" x1="9036.17" y1="947.23" x2="9165.07" y2="430.27" gradientUnits="userSpaceOnUse">
      <stop offset="0.47" stop-color="#334241"/>
      <stop offset="0.58" stop-color="#344342"/>
      <stop offset="0.66" stop-color="#334241"/>
      <stop offset="0.76" stop-color="#434a47"/>
      <stop offset="0.83" stop-color="#4e504b"/>
      <stop offset="0.89" stop-color="#53534d"/>
      <stop offset="0.98" stop-color="#55554e"/>
    </linearGradient>
    <linearGradient id="linear-gradient-22" x1="9046.15" y1="951.19" x2="9175.49" y2="432.41" gradientUnits="userSpaceOnUse">
      <stop offset="0.47" stop-color="#324342"/>
      <stop offset="0.58" stop-color="#344343"/>
      <stop offset="0.66" stop-color="#324342"/>
      <stop offset="0.76" stop-color="#424b48"/>
      <stop offset="0.83" stop-color="#4c504c"/>
      <stop offset="0.89" stop-color="#52544e"/>
      <stop offset="0.98" stop-color="#54554e"/>
    </linearGradient>
    <linearGradient id="linear-gradient-23" x1="9056.12" y1="955.15" x2="9185.92" y2="434.54" gradientUnits="userSpaceOnUse">
      <stop offset="0.47" stop-color="#324343"/>
      <stop offset="0.58" stop-color="#344"/>
      <stop offset="0.66" stop-color="#324343"/>
      <stop offset="0.76" stop-color="#414b49"/>
      <stop offset="0.83" stop-color="#4b514c"/>
      <stop offset="0.89" stop-color="#50544e"/>
      <stop offset="0.98" stop-color="#52554f"/>
    </linearGradient>
    <linearGradient id="linear-gradient-24" x1="9066.09" y1="959.11" x2="9196.34" y2="436.68" gradientUnits="userSpaceOnUse">
      <stop offset="0.47" stop-color="#314444"/>
      <stop offset="0.58" stop-color="#324544"/>
      <stop offset="0.66" stop-color="#314444"/>
      <stop offset="0.76" stop-color="#404c49"/>
      <stop offset="0.83" stop-color="#49514d"/>
      <stop offset="0.89" stop-color="#4f544e"/>
      <stop offset="0.98" stop-color="#50554f"/>
    </linearGradient>
    <linearGradient id="linear-gradient-25" x1="9076.06" y1="963.08" x2="9206.77" y2="438.81" gradientUnits="userSpaceOnUse">
      <stop offset="0.47" stop-color="#314545"/>
      <stop offset="0.58" stop-color="#324545"/>
      <stop offset="0.66" stop-color="#314545"/>
      <stop offset="0.76" stop-color="#3f4c4a"/>
      <stop offset="0.83" stop-color="#48514d"/>
      <stop offset="0.89" stop-color="#4d544f"/>
      <stop offset="0.98" stop-color="#4f554f"/>
    </linearGradient>
    <linearGradient id="linear-gradient-26" x1="9086.02" y1="967.05" x2="9217.2" y2="440.94" gradientUnits="userSpaceOnUse">
      <stop offset="0.47" stop-color="#304545"/>
      <stop offset="0.58" stop-color="#314646"/>
      <stop offset="0.66" stop-color="#304545"/>
      <stop offset="0.76" stop-color="#3e4c4a"/>
      <stop offset="0.83" stop-color="#47514e"/>
      <stop offset="0.89" stop-color="#4b544f"/>
      <stop offset="0.98" stop-color="#4d5550"/>
    </linearGradient>
    <linearGradient id="linear-gradient-27" x1="9095.99" y1="971.02" x2="9227.62" y2="443.07" gradientUnits="userSpaceOnUse">
      <stop offset="0.47" stop-color="#2f4646"/>
      <stop offset="0.58" stop-color="#304747"/>
      <stop offset="0.66" stop-color="#2f4646"/>
      <stop offset="0.76" stop-color="#3d4d4b"/>
      <stop offset="0.83" stop-color="#45524e"/>
      <stop offset="0.89" stop-color="#4a5450"/>
      <stop offset="0.98" stop-color="#4b5550"/>
    </linearGradient>
    <linearGradient id="linear-gradient-28" x1="9105.96" y1="974.99" x2="9238.05" y2="445.2" gradientUnits="userSpaceOnUse">
      <stop offset="0.47" stop-color="#2f4747"/>
      <stop offset="0.58" stop-color="#304748"/>
      <stop offset="0.66" stop-color="#2f4747"/>
      <stop offset="0.76" stop-color="#3c4d4c"/>
      <stop offset="0.83" stop-color="#44524f"/>
      <stop offset="0.89" stop-color="#485450"/>
      <stop offset="0.98" stop-color="#4a5551"/>
    </linearGradient>
    <linearGradient id="linear-gradient-29" x1="9115.93" y1="978.96" x2="9248.48" y2="447.33" gradientUnits="userSpaceOnUse">
      <stop offset="0.47" stop-color="#2e4748"/>
      <stop offset="0.58" stop-color="#2f4848"/>
      <stop offset="0.66" stop-color="#2e4748"/>
      <stop offset="0.76" stop-color="#3a4e4c"/>
      <stop offset="0.83" stop-color="#42524f"/>
      <stop offset="0.89" stop-color="#475551"/>
      <stop offset="0.98" stop-color="#485651"/>
    </linearGradient>
    <linearGradient id="linear-gradient-30" x1="9125.89" y1="982.94" x2="9258.91" y2="449.46" gradientUnits="userSpaceOnUse">
      <stop offset="0.47" stop-color="#2e4849"/>
      <stop offset="0.58" stop-color="#2f4849"/>
      <stop offset="0.66" stop-color="#2e4849"/>
      <stop offset="0.76" stop-color="#394e4d"/>
      <stop offset="0.83" stop-color="#415250"/>
      <stop offset="0.89" stop-color="#455551"/>
      <stop offset="0.98" stop-color="#475652"/>
    </linearGradient>
    <linearGradient id="linear-gradient-31" x1="9135.86" y1="986.92" x2="9269.33" y2="451.58" gradientUnits="userSpaceOnUse">
      <stop offset="0.47" stop-color="#2d494a"/>
      <stop offset="0.58" stop-color="#2e494a"/>
      <stop offset="0.66" stop-color="#2d494a"/>
      <stop offset="0.76" stop-color="#384f4e"/>
      <stop offset="0.83" stop-color="#3f5350"/>
      <stop offset="0.89" stop-color="#445552"/>
      <stop offset="0.98" stop-color="#455652"/>
    </linearGradient>
    <linearGradient id="linear-gradient-32" x1="9145.83" y1="990.89" x2="9279.76" y2="453.71" gradientUnits="userSpaceOnUse">
      <stop offset="0.47" stop-color="#2c494a"/>
      <stop offset="0.58" stop-color="#2d4a4b"/>
      <stop offset="0.66" stop-color="#2c494a"/>
      <stop offset="0.76" stop-color="#374f4e"/>
      <stop offset="0.83" stop-color="#3e5351"/>
      <stop offset="0.89" stop-color="#425552"/>
      <stop offset="0.98" stop-color="#435653"/>
    </linearGradient>
    <linearGradient id="linear-gradient-33" x1="9155.79" y1="994.87" x2="9290.19" y2="455.84" gradientUnits="userSpaceOnUse">
      <stop offset="0.47" stop-color="#2c4a4b"/>
      <stop offset="0.58" stop-color="#2d4a4c"/>
      <stop offset="0.66" stop-color="#2c4a4b"/>
      <stop offset="0.76" stop-color="#364f4f"/>
      <stop offset="0.83" stop-color="#3d5351"/>
      <stop offset="0.89" stop-color="#405553"/>
      <stop offset="0.98" stop-color="#425653"/>
    </linearGradient>
    <linearGradient id="linear-gradient-34" x1="9165.76" y1="998.85" x2="9300.62" y2="457.96" gradientUnits="userSpaceOnUse">
      <stop offset="0.47" stop-color="#2b4b4c"/>
      <stop offset="0.58" stop-color="#2c4b4c"/>
      <stop offset="0.66" stop-color="#2b4b4c"/>
      <stop offset="0.76" stop-color="#35504f"/>
      <stop offset="0.83" stop-color="#3b5352"/>
      <stop offset="0.89" stop-color="#3f5553"/>
      <stop offset="0.98" stop-color="#405653"/>
    </linearGradient>
    <linearGradient id="linear-gradient-35" x1="9175.72" y1="1002.83" x2="9311.05" y2="460.09" gradientUnits="userSpaceOnUse">
      <stop offset="0.47" stop-color="#2b4b4d"/>
      <stop offset="0.58" stop-color="#2b4c4d"/>
      <stop offset="0.66" stop-color="#2b4b4d"/>
      <stop offset="0.76" stop-color="#345050"/>
      <stop offset="0.83" stop-color="#3a5452"/>
      <stop offset="0.89" stop-color="#3d5553"/>
      <stop offset="0.98" stop-color="#3e5654"/>
    </linearGradient>
    <linearGradient id="linear-gradient-36" x1="9185.69" y1="1006.82" x2="9321.47" y2="462.21" gradientUnits="userSpaceOnUse">
      <stop offset="0.47" stop-color="#2a4c4e"/>
      <stop offset="0.58" stop-color="#2b4c4e"/>
      <stop offset="0.66" stop-color="#2a4c4e"/>
      <stop offset="0.76" stop-color="#335151"/>
      <stop offset="0.83" stop-color="#385453"/>
      <stop offset="0.89" stop-color="#3c5654"/>
      <stop offset="0.98" stop-color="#3d5654"/>
    </linearGradient>
    <linearGradient id="linear-gradient-37" x1="9195.65" y1="1010.8" x2="9331.9" y2="464.34" gradientUnits="userSpaceOnUse">
      <stop offset="0.47" stop-color="#294d4e"/>
      <stop offset="0.58" stop-color="#2a4d4f"/>
      <stop offset="0.66" stop-color="#294d4e"/>
      <stop offset="0.76" stop-color="#325151"/>
      <stop offset="0.83" stop-color="#375453"/>
      <stop offset="0.89" stop-color="#3a5654"/>
      <stop offset="0.98" stop-color="#3b5655"/>
    </linearGradient>
    <linearGradient id="linear-gradient-38" x1="9205.62" y1="1014.78" x2="9342.33" y2="466.46" gradientUnits="userSpaceOnUse">
      <stop offset="0.47" stop-color="#294d4f"/>
      <stop offset="0.58" stop-color="#294e4f"/>
      <stop offset="0.66" stop-color="#294d4f"/>
      <stop offset="0.76" stop-color="#315152"/>
      <stop offset="0.83" stop-color="#365454"/>
      <stop offset="0.89" stop-color="#385655"/>
      <stop offset="0.98" stop-color="#395655"/>
    </linearGradient>
    <linearGradient id="linear-gradient-39" x1="9215.58" y1="1018.77" x2="9352.76" y2="468.59" gradientUnits="userSpaceOnUse">
      <stop offset="0.47" stop-color="#284e50"/>
      <stop offset="0.58" stop-color="#294e50"/>
      <stop offset="0.66" stop-color="#284e50"/>
      <stop offset="0.76" stop-color="#2f5253"/>
      <stop offset="0.83" stop-color="#345454"/>
      <stop offset="0.89" stop-color="#375655"/>
      <stop offset="0.98" stop-color="#385756"/>
    </linearGradient>
    <linearGradient id="linear-gradient-40" x1="9225.44" y1="1023.19" x2="9363.19" y2="470.71" gradientUnits="userSpaceOnUse">
      <stop offset="0.47" stop-color="#284f51"/>
      <stop offset="0.58" stop-color="#284f51"/>
      <stop offset="0.66" stop-color="#284f51"/>
      <stop offset="0.76" stop-color="#2e5253"/>
      <stop offset="0.83" stop-color="#355"/>
      <stop offset="0.89" stop-color="#355656"/>
      <stop offset="0.98" stop-color="#365756"/>
    </linearGradient>
    <linearGradient id="linear-gradient-41" x1="9235.05" y1="1028.6" x2="9373.62" y2="472.83" gradientUnits="userSpaceOnUse">
      <stop offset="0.47" stop-color="#274f52"/>
      <stop offset="0.58" stop-color="#275052"/>
      <stop offset="0.66" stop-color="#274f52"/>
      <stop offset="0.76" stop-color="#2d5354"/>
      <stop offset="0.83" stop-color="#315555"/>
      <stop offset="0.89" stop-color="#345656"/>
      <stop offset="0.98" stop-color="#345756"/>
    </linearGradient>
    <linearGradient id="linear-gradient-42" x1="9244.66" y1="1034" x2="9384.05" y2="474.96" gradientUnits="userSpaceOnUse">
      <stop offset="0.47" stop-color="#265052"/>
      <stop offset="0.58" stop-color="#275053"/>
      <stop offset="0.66" stop-color="#265052"/>
      <stop offset="0.76" stop-color="#2c5354"/>
      <stop offset="0.83" stop-color="#305556"/>
      <stop offset="0.89" stop-color="#325657"/>
      <stop offset="0.98" stop-color="#335757"/>
    </linearGradient>
    <linearGradient id="linear-gradient-43" x1="9254.27" y1="1039.41" x2="9394.47" y2="477.08" gradientUnits="userSpaceOnUse">
      <stop offset="0.47" stop-color="#265153"/>
      <stop offset="0.58" stop-color="#265153"/>
      <stop offset="0.66" stop-color="#265153"/>
      <stop offset="0.76" stop-color="#2b5355"/>
      <stop offset="0.83" stop-color="#2f5556"/>
      <stop offset="0.89" stop-color="#305657"/>
      <stop offset="0.98" stop-color="#315757"/>
    </linearGradient>
    <linearGradient id="linear-gradient-44" x1="9263.88" y1="1044.81" x2="9404.9" y2="479.2" gradientUnits="userSpaceOnUse">
      <stop offset="0.47" stop-color="#255154"/>
      <stop offset="0.58" stop-color="#255254"/>
      <stop offset="0.66" stop-color="#255154"/>
      <stop offset="0.76" stop-color="#2a5456"/>
      <stop offset="0.83" stop-color="#2d5657"/>
      <stop offset="0.89" stop-color="#2f5757"/>
      <stop offset="0.98" stop-color="#2f5758"/>
    </linearGradient>
    <linearGradient id="linear-gradient-45" x1="9273.49" y1="1050.22" x2="9415.33" y2="481.32" gradientUnits="userSpaceOnUse">
      <stop offset="0.47" stop-color="#245255"/>
      <stop offset="0.58" stop-color="#255255"/>
      <stop offset="0.66" stop-color="#245255"/>
      <stop offset="0.76" stop-color="#295456"/>
      <stop offset="0.83" stop-color="#2c5657"/>
      <stop offset="0.89" stop-color="#2d5758"/>
      <stop offset="0.98" stop-color="#2e5758"/>
    </linearGradient>
    <linearGradient id="linear-gradient-46" x1="9283.1" y1="1055.63" x2="9425.76" y2="483.45" gradientUnits="userSpaceOnUse">
      <stop offset="0.47" stop-color="#245356"/>
      <stop offset="0.58" stop-color="#245356"/>
      <stop offset="0.66" stop-color="#245356"/>
      <stop offset="0.76" stop-color="#285557"/>
      <stop offset="0.83" stop-color="#2a5658"/>
      <stop offset="0.89" stop-color="#2c5758"/>
      <stop offset="0.98" stop-color="#2c5759"/>
    </linearGradient>
    <linearGradient id="linear-gradient-47" x1="9292.71" y1="1061.03" x2="9436.19" y2="485.57" gradientUnits="userSpaceOnUse">
      <stop offset="0.47" stop-color="#235356"/>
      <stop offset="0.58" stop-color="#245357"/>
      <stop offset="0.66" stop-color="#235356"/>
      <stop offset="0.76" stop-color="#275558"/>
      <stop offset="0.83" stop-color="#295658"/>
      <stop offset="0.89" stop-color="#2a5759"/>
      <stop offset="0.98" stop-color="#2b5759"/>
    </linearGradient>
    <linearGradient id="linear-gradient-48" x1="9302.32" y1="1066.44" x2="9446.62" y2="487.69" gradientUnits="userSpaceOnUse">
      <stop offset="0.47" stop-color="#235457"/>
      <stop offset="0.58" stop-color="#235457"/>
      <stop offset="0.66" stop-color="#235457"/>
      <stop offset="0.76" stop-color="#265658"/>
      <stop offset="0.83" stop-color="#275759"/>
      <stop offset="0.89" stop-color="#295759"/>
      <stop offset="0.98" stop-color="#295759"/>
    </linearGradient>
    <linearGradient id="linear-gradient-49" x1="9311.88" y1="1071.85" x2="9457" y2="489.81" gradientUnits="userSpaceOnUse">
      <stop offset="0.47" stop-color="#225558"/>
      <stop offset="0.58" stop-color="#225558"/>
      <stop offset="0.66" stop-color="#225558"/>
      <stop offset="0.76" stop-color="#245659"/>
      <stop offset="0.83" stop-color="#265759"/>
      <stop offset="0.89" stop-color="#27575a"/>
      <stop offset="0.98" stop-color="#27585a"/>
    </linearGradient>
    <linearGradient id="linear-gradient-50" x1="9321.5" y1="1077.26" x2="9467.44" y2="491.93" gradientUnits="userSpaceOnUse">
      <stop offset="0.47" stop-color="#215559"/>
      <stop offset="0.58" stop-color="#225559"/>
      <stop offset="0.66" stop-color="#215559"/>
      <stop offset="0.76" stop-color="#235659"/>
      <stop offset="0.83" stop-color="#25575a"/>
      <stop offset="0.89" stop-color="#25575a"/>
      <stop offset="0.98" stop-color="#26585a"/>
    </linearGradient>
    <linearGradient id="linear-gradient-51" x1="9331.12" y1="1082.67" x2="9477.88" y2="494.06" gradientUnits="userSpaceOnUse">
      <stop offset="0.47" stop-color="#21565a"/>
      <stop offset="0.58" stop-color="#21565a"/>
      <stop offset="0.66" stop-color="#21565a"/>
      <stop offset="0.76" stop-color="#22575a"/>
      <stop offset="0.83" stop-color="#23575a"/>
      <stop offset="0.89" stop-color="#24585b"/>
      <stop offset="0.98" stop-color="#24585b"/>
    </linearGradient>
    <linearGradient id="linear-gradient-52" x1="9340.74" y1="1088.07" x2="9488.32" y2="496.18" gradientUnits="userSpaceOnUse">
      <stop offset="0.47" stop-color="#20575a"/>
      <stop offset="0.58" stop-color="#20575a"/>
      <stop offset="0.66" stop-color="#20575a"/>
      <stop offset="0.76" stop-color="#21575b"/>
      <stop offset="0.83" stop-color="#22585b"/>
      <stop offset="0.89" stop-color="#22585b"/>
      <stop offset="0.98" stop-color="#22585b"/>
    </linearGradient>
    <linearGradient id="linear-gradient-53" x1="9350.36" y1="1093.48" x2="9498.75" y2="498.3" gradientUnits="userSpaceOnUse">
      <stop offset="0.47" stop-color="#20575b"/>
      <stop offset="0.58" stop-color="#20575b"/>
      <stop offset="0.66" stop-color="#20575b"/>
      <stop offset="0.76" stop-color="#20585b"/>
      <stop offset="0.83" stop-color="#20585b"/>
      <stop offset="0.89" stop-color="#21585c"/>
      <stop offset="0.98" stop-color="#21585c"/>
    </linearGradient>
  </defs>
  <title>layer3</title>
  <path class="cls-1" d="M7065.25,226c274-64,534.62-83.4,823.4,16.6,40.2,14.7,170.1,69,290.1,90,73.75,12.91,373.75,24,594.06,30.69,66.57,2,88.13,7.67,131.95,12.21,47.13,4.88,113.06,167.58,113.06,167.58L6981.65,449.6S6995.05,220.5,7065.25,226Z"/>
  <path class="cls-2" d="M8290.55,344.5s-4.55,13.75-22.2,27.3c-8.7,7.8-40.9,31.3-40.9,31.3l15,1.5s30.1-24.9,38.2-33.1c10.6-9.5,15.7-26.6,15.7-26.6Z"/>
  <g>
    <path class="cls-3" d="M9018.79,405.09s-16-6.47-38.49-13.59c-11.25-3.56-24.13-7.28-37.45-10.44a311.3,311.3,0,0,0-40.11-7.05l15.75,82.62,15.75,82.62,41.78,1.92,41.78,1.92,0.49-69Z"/>
    <path class="cls-4" d="M8912.68,375.88l15.5,82.87,15.5,82.87,42.86,2.42,42.86,2.42s0.29-68.68-.3-69.79c-0.14-.27.18-68.18,0-68.44s-15.89-6.64-38.07-13.76c-11.14-3.62-23.92-7.28-37.08-10.62C8940.33,380.38,8926.23,377.33,8912.68,375.88Z"/>
    <path class="cls-5" d="M8922.18,377.76l15.25,83.11L8952.68,544l43.95,2.92,43.95,2.92s0.09-68.36-1.09-70.59c-0.28-.53-0.13-67.37-0.51-67.89-0.21-.3-15.83-6.73-37.66-13.94-11.05-3.65-23.72-7.29-36.71-10.8C8950.7,382.86,8936.27,379.35,8922.18,377.76Z"/>
    <path class="cls-6" d="M8931.65,379.64l15,83.35,15,83.35,45,3.42,45,3.42s-0.12-68-1.88-71.39c-0.42-.8-0.44-66.55-1-67.34-0.32-.45-15.75-6.86-37.25-14.11-11-3.69-23.51-7.31-36.35-11C8961,385.33,8946.27,381.37,8931.65,379.64Z"/>
    <path class="cls-7" d="M8941.12,381.52l14.75,83.6,14.75,83.6,46.11,3.92,46.11,3.92s-0.32-67.72-2.67-72.18c-0.56-1.07-.76-65.74-1.51-66.79-0.43-.6-15.67-7-36.84-14.28-10.85-3.73-23.3-7.33-36-11.15C8971.36,387.8,8956.28,383.4,8941.12,381.52Z"/>
    <path class="cls-8" d="M8950.6,383.4l14.5,83.84,14.5,83.84,47.19,4.43,47.19,4.43s-0.52-67.4-3.46-73c-0.7-1.33-1.07-64.92-2-66.24-0.53-.75-15.59-7.13-36.43-14.45-10.75-3.78-23.09-7.37-35.61-11.33C8981.69,390.27,8966.28,385.42,8950.6,383.4Z"/>
    <path class="cls-9" d="M8960.07,385.28l14.25,84.09,14.25,84.09,48.28,4.93,48.28,4.93s-0.73-67.07-4.25-73.78c-0.84-1.6-1.38-64.1-2.5-65.68-0.64-.9-15.51-7.26-36-14.62-10.66-3.82-22.89-7.42-35.25-11.51C8992,392.73,8976.28,387.44,8960.07,385.28Z"/>
    <path class="cls-10" d="M8969.54,387.16l14,84.33,14,84.33,49.36,5.43,49.36,5.43s-0.93-66.75-5-74.57c-1-1.86-1.69-63.29-3-65.13-0.74-1-15.43-7.4-35.61-14.79-10.56-3.87-22.68-7.47-34.88-11.68C9002.33,395.18,8986.28,389.47,8969.54,387.16Z"/>
    <path class="cls-11" d="M8979,389l13.75,84.57,13.75,84.57,50.44,5.93,50.44,5.93s-1.13-66.43-5.83-75.37c-1.12-2.13-2-62.47-3.5-64.58-0.85-1.19-15.35-7.54-35.2-15-10.46-3.91-22.46-7.53-34.51-11.86C9012.65,397.64,8996.28,391.49,8979,389Z"/>
    <path class="cls-12" d="M8988.48,390.92l13.5,84.82,13.5,84.82L9067,567l51.53,6.43s-1.34-66.11-6.62-76.17c-1.26-2.4-2.32-61.66-4-64-1-1.34-15.27-7.68-34.79-15.13-10.36-4-22.25-7.6-34.14-12C9023,400.08,9006.29,393.51,8988.48,390.92Z"/>
    <path class="cls-13" d="M8997.95,392.8l13.25,85.06,13.25,85.06,52.61,6.93,52.61,6.93s-1.54-65.79-7.41-77c-1.4-2.66-2.63-60.84-4.5-63.48-1.06-1.49-15.19-7.82-34.37-15.3-10.26-4-22-7.68-33.78-12.22C9033.29,402.53,9016.29,395.54,8997.95,392.8Z"/>
    <path class="cls-14" d="M9007.42,394.68l13,85.31,13,85.31,53.69,7.44,53.69,7.44s-1.74-65.47-8.2-77.76c-1.54-2.93-2.94-60-5-62.92-1.17-1.64-15.11-8-34-15.47-10.17-4.05-21.82-7.76-33.41-12.39C9043.61,405,9026.29,397.56,9007.42,394.68Z"/>
    <path class="cls-15" d="M9016.89,396.56l12.75,85.55,12.75,85.55,54.77,7.94,54.77,7.94s-1.95-65.15-9-78.56c-1.68-3.2-3.25-59.21-5.5-62.37-1.28-1.79-15-8.1-33.55-15.65-10.07-4.1-21.61-7.85-33-12.57C9053.93,407.4,9036.29,399.58,9016.89,396.56Z"/>
    <path class="cls-16" d="M9026.36,398.44l12.5,85.79,12.5,85.79,55.86,8.44,55.86,8.44s-2.15-64.83-9.78-79.36c-1.82-3.46-3.56-58.4-6-61.82-1.38-1.94-14.95-8.25-33.14-15.82-10-4.15-21.39-7.94-32.68-12.75C9064.25,409.83,9046.3,401.61,9026.36,398.44Z"/>
    <path class="cls-17" d="M9035.83,400.32l12.25,86,12.25,86,56.94,8.94,56.94,8.94s-2.35-64.51-10.57-80.15c-2-3.73-3.88-57.58-6.5-61.27-1.49-2.09-14.87-8.4-32.73-16-9.87-4.2-21.17-8-32.31-12.93C9074.57,412.25,9056.3,403.63,9035.83,400.32Z"/>
    <path class="cls-18" d="M9045.3,402.2l12,86.28,12,86.28,58,9.44,58,9.44s-2.56-64.19-11.36-80.95c-2.1-4-4.19-56.77-7-60.72-1.59-2.24-14.79-8.55-32.32-16.16-9.78-4.24-21-8.14-31.94-13.1C9084.89,414.67,9066.3,405.65,9045.3,402.2Z"/>
    <path class="cls-19" d="M9054.77,404.08l11.75,86.52,11.75,86.52,59.1,9.94,59.1,9.94s-2.76-63.87-12.15-81.75c-2.24-4.26-4.5-56-7.5-60.16-1.7-2.39-14.71-8.7-31.91-16.33-9.68-4.29-20.73-8.25-31.57-13.28C9095.21,417.08,9076.3,407.68,9054.77,404.08Z"/>
    <path class="cls-20" d="M9064.24,406l11.5,86.77,11.5,86.77,60.19,10.45,60.19,10.45s-3-63.55-12.94-82.54c-2.38-4.53-4.81-55.14-8-59.61-1.81-2.54-14.62-8.85-31.5-16.5-9.58-4.35-20.51-8.36-31.21-13.46C9105.53,419.49,9086.3,409.7,9064.24,406Z"/>
    <path class="cls-21" d="M9073.72,407.84l11.25,87,11.25,87,61.27,10.95,61.27,10.95s-3.17-63.23-13.73-83.34c-2.52-4.8-5.12-54.32-8.5-59.06-1.91-2.69-14.54-9-31.09-16.67-9.48-4.4-20.28-8.48-30.84-13.64C9115.86,421.9,9096.31,411.72,9073.72,407.84Z"/>
    <path class="cls-22" d="M9083.19,409.72l11,87.26,11,87.26,62.35,11.45,62.35,11.45s-3.37-62.91-14.52-84.14c-2.66-5.06-5.44-53.51-9-58.51-2-2.84-14.46-9.16-30.68-16.84-9.39-4.45-20.05-8.6-30.47-13.81C9126.18,424.3,9106.31,413.75,9083.19,409.72Z"/>
    <path class="cls-23" d="M9092.66,411.6l10.75,87.5,10.75,87.5,63.44,12,63.44,12s-3.57-62.59-15.31-84.93c-2.8-5.33-5.75-52.69-9.5-58-2.13-3-14.38-9.31-30.26-17-9.29-4.5-19.83-8.72-30.11-14C9136.51,426.69,9116.31,415.77,9092.66,411.6Z"/>
    <path class="cls-24" d="M9102.13,413.48l10.5,87.74,10.5,87.74,64.52,12.45,64.52,12.45s-3.77-62.27-16.1-85.73c-2.94-5.59-6.06-51.88-10-57.4-2.23-3.13-14.3-9.47-29.85-17.18-9.19-4.56-19.6-8.84-29.74-14.17C9146.84,429.08,9126.31,417.79,9102.13,413.48Z"/>
    <path class="cls-25" d="M9111.6,415.36l10.25,88,10.25,88,65.6,13,65.6,13s-4-62-16.89-86.53c-3.08-5.86-6.37-51.06-10.5-56.85-2.34-3.28-14.21-9.63-29.44-17.36-9.09-4.61-19.37-9-29.37-14.34C9157.18,431.46,9136.32,419.82,9111.6,415.36Z"/>
    <path class="cls-26" d="M9121.07,417.24l10,88.23,10,88.23,66.68,13.46,66.68,13.46s-4.18-61.63-17.68-87.32c-3.22-6.13-6.68-50.25-11-56.3-2.44-3.43-14.13-9.8-29-17.53-9-4.67-19.13-9.1-29-14.52C9167.51,433.84,9146.32,421.84,9121.07,417.24Z"/>
    <path class="cls-27" d="M9130.54,419.12l9.75,88.48,9.75,88.48,67.77,14,67.77,14s-4.38-61.31-18.47-88.12c-3.36-6.39-7-49.43-11.49-55.75-2.55-3.58-14-10-28.62-17.7-8.9-4.72-18.9-9.24-28.64-14.7C9177.85,436.22,9156.32,423.86,9130.54,419.12Z"/>
    <path class="cls-28" d="M9140,421l9.5,88.72,9.5,88.72,68.85,14.46,68.85,14.46s-4.59-61-19.26-88.92c-3.5-6.66-7.31-48.62-12-55.19-2.66-3.73-14-10.13-28.21-17.87-8.8-4.78-18.67-9.37-28.27-14.88C9188.19,438.58,9166.32,425.89,9140,421Z"/>
    <path class="cls-29" d="M9149.48,422.88l9.25,89,9.25,89,69.93,15,69.93,15s-4.79-60.67-20.05-89.72c-3.64-6.93-7.62-47.8-12.49-54.64-2.76-3.88-13.87-10.3-27.8-18-8.7-4.84-18.43-9.51-27.9-15.05C9198.54,440.95,9176.32,427.91,9149.48,422.88Z"/>
    <path class="cls-30" d="M9159,424.76l9,89.21,9,89.21,71,15.46,71,15.46s-5-60.35-20.84-90.51c-3.78-7.19-7.93-47-13-54.09-2.87-4-13.79-10.47-27.39-18.21-8.6-4.9-18.19-9.65-27.54-15.23C9208.89,443.3,9186.33,429.93,9159,424.76Z"/>
    <path class="cls-31" d="M9168.42,426.64l8.75,89.45,8.75,89.45,72.1,16,72.1,16s-5.2-60-21.63-91.31c-3.92-7.46-8.24-46.17-13.49-53.54-3-4.18-13.7-10.64-27-18.38-8.5-5-18-9.79-27.17-15.41C9219.25,445.65,9196.33,432,9168.42,426.64Z"/>
    <path class="cls-32" d="M9177.89,428.52l8.5,89.69,8.5,89.69,73.18,16.46,73.18,16.46s-5.4-59.71-22.42-92.11c-4.06-7.73-8.56-45.35-14-53-3.08-4.33-13.61-10.81-26.57-18.55-8.4-5-17.71-9.93-26.8-15.59C9229.6,448,9206.33,434,9177.89,428.52Z"/>
    <path class="cls-33" d="M9187.36,430.4l8.25,89.94,8.25,89.94,74.26,17,74.26,17s-5.6-59.39-23.21-92.9c-4.2-8-8.87-44.54-14.49-52.43-3.19-4.48-13.52-11-26.15-18.72-8.3-5.08-17.47-10.08-26.43-15.76C9240,450.34,9216.33,436,9187.36,430.4Z"/>
    <path class="cls-34" d="M9196.83,432.28l8,90.18,8,90.18,75.35,17.47,75.35,17.47s-5.81-59.07-24-93.7c-4.34-8.26-9.18-43.72-15-51.88-3.3-4.63-13.43-11.17-25.74-18.89-8.2-5.15-17.23-10.22-26.07-15.94C9250.33,452.67,9226.34,438,9196.83,432.28Z"/>
    <path class="cls-35" d="M9206.31,434.16l7.75,90.43,7.75,90.43,76.43,18,76.43,18s-6-58.75-24.79-94.5c-4.48-8.53-9.49-42.91-15.49-51.33-3.4-4.78-13.34-11.35-25.33-19.07-8.1-5.21-17-10.37-25.7-16.12C9260.7,455,9236.34,440.05,9206.31,434.16Z"/>
    <path class="cls-36" d="M9215.78,436l7.5,90.67,7.5,90.67,77.51,18.47,77.51,18.47s-6.21-58.43-25.58-95.29c-4.62-8.79-9.8-42.09-16-50.78-3.51-4.92-13.25-11.53-24.92-19.24-8-5.28-16.74-10.52-25.33-16.3C9271.08,457.33,9246.34,442.07,9215.78,436Z"/>
    <path class="cls-37" d="M9225.25,437.92l7.25,90.91,7.25,90.91,78.59,19,78.59,19s-6.42-58.11-26.37-96.09c-4.76-9.06-10.12-41.28-16.49-50.23-3.61-5.07-13.15-11.71-24.51-19.41-7.89-5.35-16.49-10.67-25-16.47C9281.46,459.64,9256.34,444.1,9225.25,437.92Z"/>
    <path class="cls-38" d="M9234.72,439.8l7,91.16,7,91.16,79.68,19.47,79.68,19.47s-6.62-57.79-27.16-96.89c-4.9-9.32-10.43-40.46-17-49.67-3.72-5.22-13.06-11.9-24.1-19.58-7.79-5.42-16.24-10.82-24.6-16.65C9291.85,462,9266.34,446.12,9234.72,439.8Z"/>
    <path class="cls-39" d="M9244.19,441.68l6.75,91.4,6.75,91.4,80.76,20,80.76,20s-6.82-57.47-28-97.68c-5-9.59-10.74-39.65-17.49-49.12-3.83-5.37-13-12.09-23.69-19.75-7.68-5.49-16-11-24.23-16.83C9302.24,464.26,9276.35,448.14,9244.19,441.68Z"/>
    <path class="cls-40" d="M9253.66,443.56l6.5,91.65,6.5,91.65,81.84,20.48,81.84,20.48s-7-57.15-28.74-98.48c-5.18-9.86-11.05-38.83-18-48.57-3.93-5.52-12.86-12.28-23.28-19.92-7.58-5.56-15.74-11.12-23.86-17C9312.64,466.56,9286.35,450.17,9253.66,443.56Z"/>
    <path class="cls-41" d="M9263.13,445.44l6.25,91.89,6.25,91.89,82.92,21,82.92,21s-7.23-56.83-29.53-99.28c-5.32-10.12-11.36-38-18.49-48-4-5.67-12.76-12.47-22.87-20.09-7.47-5.63-15.49-11.27-23.5-17.18C9323,468.85,9296.35,452.19,9263.13,445.44Z"/>
    <path class="cls-42" d="M9272.6,447.32l6,92.13,6,92.13,84,21.48,84,21.48s-7.43-56.51-30.32-100.08c-5.46-10.39-11.68-37.2-19-47.47-4.15-5.82-12.66-12.66-22.45-20.26-7.36-5.71-15.23-11.42-23.13-17.36C9333.46,471.14,9306.35,454.21,9272.6,447.32Z"/>
    <path class="cls-43" d="M9282.07,449.2l5.75,92.38,5.75,92.38,85.09,22,85.09,22s-7.63-56.19-31.11-100.87c-5.6-10.66-12-36.39-19.49-46.91-4.25-6-12.56-12.86-22-20.43-7.25-5.79-15-11.58-22.76-17.54C9343.87,473.42,9316.36,456.24,9282.07,449.2Z"/>
    <path class="cls-44" d="M9291.54,451.08l5.5,92.62,5.5,92.62,86.17,22.48,86.17,22.48s-7.84-55.87-31.9-101.67c-5.74-10.92-12.3-35.57-20-46.36-4.36-6.12-12.45-13.06-21.63-20.61-7.13-5.86-14.72-11.73-22.4-17.71C9354.3,475.7,9326.36,458.26,9291.54,451.08Z"/>
    <path class="cls-45" d="M9301,453l5.25,92.86,5.25,92.86,87.26,23,87.26,23s-8-55.55-32.69-102.47c-5.88-11.19-12.61-34.76-20.48-45.81-4.46-6.27-12.34-13.25-21.22-20.78-7-5.95-14.47-11.89-22-17.89C9364.73,478,9336.36,460.28,9301,453Z"/>
    <path class="cls-46" d="M9310.48,454.84l5,93.11,5,93.11,88.34,23.49L9497.16,688s-8.24-55.23-33.48-103.26c-6-11.46-12.92-33.94-21-45.26-4.57-6.42-12.23-13.45-20.81-20.95-6.9-6-14.21-12-21.66-18.07C9375.17,480.23,9346.36,462.31,9310.48,454.84Z"/>
    <path class="cls-47" d="M9320,456.72l4.75,93.35,4.75,93.35,89.42,24,89.42,24s-8.45-54.91-34.27-104.06c-6.16-11.72-13.24-33.13-21.48-44.71-4.68-6.57-12.12-13.66-20.4-21.12-6.78-6.11-13.95-12.19-21.29-18.25C9385.61,482.49,9356.36,464.33,9320,456.72Z"/>
    <path class="cls-48" d="M9329.43,458.6l4.5,93.6,4.5,93.6,90.5,24.49,90.5,24.49s-8.65-54.59-35.06-104.86c-6.3-12-13.55-32.31-22-44.15-4.78-6.72-12-13.86-20-21.29-6.66-6.2-13.68-12.35-20.93-18.42C9396.06,484.74,9366.37,466.35,9329.43,458.6Z"/>
    <path class="cls-49" d="M9338.85,460.48l4.25,93.84,4.25,93.84,91.59,25,91.59,25s-8.85-54.27-35.85-105.65c-6.44-12.26-13.86-31.5-22.48-43.6-4.89-6.86-11.89-14.06-19.58-21.46-6.53-6.28-13.42-12.5-20.56-18.6C9406.48,487,9376.32,468.38,9338.85,460.48Z"/>
    <path class="cls-50" d="M9348.33,462.36l4,94.08,4,94.08L9449,676l92.67,25.49s-9.06-53.95-36.64-106.45c-6.58-12.52-14.17-30.68-23-43-5-7-11.77-14.27-19.17-21.63-6.4-6.37-13.16-12.66-20.19-18.78C9417,489.22,9386.33,470.4,9348.33,462.36Z"/>
    <path class="cls-51" d="M9357.81,464.24l3.75,94.33,3.75,94.33,93.75,26,93.75,26s-9.26-53.63-37.43-107.25c-6.72-12.79-14.48-29.87-23.48-42.5a195,195,0,0,0-18.76-21.8c-6.27-6.46-12.89-12.81-19.82-19C9427.44,491.46,9396.34,472.43,9357.81,464.24Z"/>
    <path class="cls-52" d="M9367.29,466.12l3.5,94.57,3.5,94.57,94.83,26.5,94.83,26.5s-9.46-53.31-38.22-108c-6.86-13.05-14.8-29.05-24-41.95a218,218,0,0,0-18.34-22c-6.14-6.56-12.63-13-19.46-19.13C9437.93,493.68,9406.36,474.45,9367.29,466.12Z"/>
    <path class="cls-53" d="M9376.77,468l3.25,94.82,3.25,94.82,95.92,27,95.92,27s-9.67-53-39-108.84c-7-13.32-15.11-28.24-24.48-41.39a250,250,0,0,0-17.93-22.14c-6-6.65-12.36-13.12-19.09-19.31C9448.43,495.91,9416.37,476.47,9376.77,468Z"/>
    <path class="cls-54" d="M9586.25,715s-9.87-52.67-39.8-109.64c-15-28.49-35-58-61.23-82.64s-58.84-44.22-99-52.84l3,95.06,3,95.06,97,27.5Z"/>
  </g>
  <path class="cls-55" d="M9346.52,765.21s1160.34,0,1160.34-6.68S9439.35,760,9439.35,750.35s936.89-5.2,936.89-11.88-933.48-4.8-933.48-11.88,778.83-4.06,778.83-11.14-761.65-1.83-761.65-11.14,637.86-1.09,637.86-10.4-637.86-3.32-637.86-10.4,479.8-4.06,479.8-11.88-473-5.94-473-11.14,290.79-8.52,290.79-12.63-410-1.5-410-8.19Z"/>
  <g class="cls-56">
    <g>
      <g>
        <path class="cls-57" d="M13456,102.41a1.5,1.5,0,0,0,0-3,1.5,1.5,0,0,0,0,3h0Z"/>
        <path class="cls-57" d="M13595.46,86a1.5,1.5,0,0,0,0-3,1.5,1.5,0,0,0,0,3h0Z"/>
        <path class="cls-57" d="M13516,303.51a1.5,1.5,0,0,0,0-3,1.5,1.5,0,0,0,0,3h0Z"/>
        <path class="cls-57" d="M13786,67.71a1.5,1.5,0,0,0,0-3,1.5,1.5,0,0,0,0,3h0Z"/>
        <path class="cls-57" d="M13865.46,334.61a1.5,1.5,0,0,0,0-3,1.5,1.5,0,0,0,0,3h0Z"/>
        <path class="cls-57" d="M14185,69.51a1.5,1.5,0,0,0,0-3,1.5,1.5,0,0,0,0,3h0Z"/>
        <path class="cls-57" d="M14408.46,382.11a1.5,1.5,0,0,0,0-3,1.5,1.5,0,0,0,0,3h0Z"/>
        <path class="cls-57" d="M14500,206.61a1.5,1.5,0,0,0,0-3,1.5,1.5,0,0,0,0,3h0Z"/>
        <path class="cls-57" d="M14467,113.41a1.5,1.5,0,0,0,0-3,1.5,1.5,0,0,0,0,3h0Z"/>
        <path class="cls-57" d="M14339.46,188.31a1.5,1.5,0,0,0,0-3,1.5,1.5,0,0,0,0,3h0Z"/>
        <path class="cls-57" d="M14201.46,299.81a1.5,1.5,0,0,0,0-3,1.5,1.5,0,0,0,0,3h0Z"/>
        <path class="cls-57" d="M14180.46,259.61a1.5,1.5,0,0,0,0-3,1.5,1.5,0,0,0,0,3h0Z"/>
        <path class="cls-57" d="M14095,330.91a1.5,1.5,0,0,0,0-3,1.5,1.5,0,0,0,0,3h0Z"/>
        <path class="cls-57" d="M13649.46,343.71a1.5,1.5,0,0,0,0-3,1.5,1.5,0,0,0,0,3h0Z"/>
        <path class="cls-57" d="M13649.46,250.51a1.5,1.5,0,0,0,0-3,1.5,1.5,0,0,0,0,3h0Z"/>
        <path class="cls-57" d="M13513,212.11a1.5,1.5,0,0,0,0-3,1.5,1.5,0,0,0,0,3h0Z"/>
        <path class="cls-57" d="M13408,254.11a1.5,1.5,0,0,0,0-3,1.5,1.5,0,0,0,0,3h0Z"/>
        <path class="cls-57" d="M13349.46,373a1.5,1.5,0,0,0,0-3,1.5,1.5,0,0,0,0,3h0Z"/>
        <path class="cls-57" d="M13427.46,67.71a1.5,1.5,0,0,0,0-3,1.5,1.5,0,0,0,0,3h0Z"/>
        <path class="cls-57" d="M14089,382.11a1.5,1.5,0,0,0,0-3,1.5,1.5,0,0,0,0,3h0Z"/>
        <path class="cls-57" d="M13913.46,160.91a1.5,1.5,0,0,0,0-3,1.5,1.5,0,0,0,0,3h0Z"/>
        <path class="cls-57" d="M13975,84.11a1.5,1.5,0,0,0,0-3,1.5,1.5,0,0,0,0,3h0Z"/>
      </g>
      <g>
        <path class="cls-57" d="M13583,182.91a1.5,1.5,0,0,0,0-3,1.5,1.5,0,0,0,0,3h0Z"/>
        <path class="cls-57" d="M13722.46,166.41a1.5,1.5,0,0,0,0-3,1.5,1.5,0,0,0,0,3h0Z"/>
        <path class="cls-57" d="M13643,383.91a1.5,1.5,0,0,0,0-3,1.5,1.5,0,0,0,0,3h0Z"/>
        <path class="cls-57" d="M13913,148.11a1.5,1.5,0,0,0,0-3,1.5,1.5,0,0,0,0,3h0Z"/>
        <path class="cls-57" d="M13992.46,415a1.5,1.5,0,0,0,0-3,1.5,1.5,0,0,0,0,3h0Z"/>
        <path class="cls-57" d="M14312,149.91a1.5,1.5,0,0,0,0-3,1.5,1.5,0,0,0,0,3h0Z"/>
        <path class="cls-57" d="M14535.46,462.61a1.5,1.5,0,0,0,0-3,1.5,1.5,0,0,0,0,3h0Z"/>
        <path class="cls-57" d="M14594,193.81a1.5,1.5,0,0,0,0-3,1.5,1.5,0,0,0,0,3h0Z"/>
        <path class="cls-57" d="M14466.46,268.81a1.5,1.5,0,0,0,0-3,1.5,1.5,0,0,0,0,3h0Z"/>
        <path class="cls-57" d="M14328.46,380.31a1.5,1.5,0,0,0,0-3,1.5,1.5,0,0,0,0,3h0Z"/>
        <path class="cls-57" d="M14307.46,340.11a1.5,1.5,0,0,0,0-3,1.5,1.5,0,0,0,0,3h0Z"/>
        <path class="cls-57" d="M14222,411.41a1.5,1.5,0,0,0,0-3,1.5,1.5,0,0,0,0,3h0Z"/>
        <path class="cls-57" d="M13776.46,424.21a1.5,1.5,0,0,0,0-3,1.5,1.5,0,0,0,0,3h0Z"/>
        <path class="cls-57" d="M13776.46,330.91a1.5,1.5,0,0,0,0-3,1.5,1.5,0,0,0,0,3h0Z"/>
        <path class="cls-57" d="M13640,292.51a1.5,1.5,0,0,0,0-3,1.5,1.5,0,0,0,0,3h0Z"/>
        <path class="cls-57" d="M13535,334.61a1.5,1.5,0,0,0,0-3,1.5,1.5,0,0,0,0,3h0Z"/>
        <path class="cls-57" d="M13476.46,453.41a1.5,1.5,0,0,0,0-3,1.5,1.5,0,0,0,0,3h0Z"/>
        <path class="cls-57" d="M13554.46,148.11a1.5,1.5,0,0,0,0-3,1.5,1.5,0,0,0,0,3h0Z"/>
        <path class="cls-57" d="M14216,462.61a1.5,1.5,0,0,0,0-3,1.5,1.5,0,0,0,0,3h0Z"/>
        <path class="cls-57" d="M14040.46,241.41a1.5,1.5,0,0,0,0-3,1.5,1.5,0,0,0,0,3h0Z"/>
        <path class="cls-57" d="M14102,164.61a1.5,1.5,0,0,0,0-3,1.5,1.5,0,0,0,0,3h0Z"/>
      </g>
      <g>
        <path class="cls-57" d="M13558,110.91a1.5,1.5,0,0,0,0-3,1.5,1.5,0,0,0,0,3h0Z"/>
        <path class="cls-57" d="M13697.46,94.51a1.5,1.5,0,0,0,0-3,1.5,1.5,0,0,0,0,3h0Z"/>
        <path class="cls-57" d="M13618,312a1.5,1.5,0,0,0,0-3,1.5,1.5,0,0,0,0,3h0Z"/>
        <path class="cls-57" d="M13888,76.21a1.5,1.5,0,0,0,0-3,1.5,1.5,0,0,0,0,3h0Z"/>
        <path class="cls-57" d="M13967.46,343.11a1.5,1.5,0,0,0,0-3,1.5,1.5,0,0,0,0,3h0Z"/>
        <path class="cls-57" d="M14287,78a1.5,1.5,0,0,0,0-3,1.5,1.5,0,0,0,0,3h0Z"/>
        <path class="cls-57" d="M14510.46,390.61a1.5,1.5,0,0,0,0-3,1.5,1.5,0,0,0,0,3h0Z"/>
        <path class="cls-57" d="M14602,215.11a1.5,1.5,0,0,0,0-3,1.5,1.5,0,0,0,0,3h0Z"/>
        <path class="cls-57" d="M14569,121.91a1.5,1.5,0,0,0,0-3,1.5,1.5,0,0,0,0,3h0Z"/>
        <path class="cls-57" d="M14441.46,196.91a1.5,1.5,0,0,0,0-3,1.5,1.5,0,0,0,0,3h0Z"/>
        <path class="cls-57" d="M14303.46,308.41a1.5,1.5,0,0,0,0-3,1.5,1.5,0,0,0,0,3h0Z"/>
        <path class="cls-57" d="M14282.46,268.21a1.5,1.5,0,0,0,0-3,1.5,1.5,0,0,0,0,3h0Z"/>
        <path class="cls-57" d="M14197,339.51a1.5,1.5,0,0,0,0-3,1.5,1.5,0,0,0,0,3h0Z"/>
        <path class="cls-57" d="M13751.46,352.31a1.5,1.5,0,0,0,0-3,1.5,1.5,0,0,0,0,3h0Z"/>
        <path class="cls-57" d="M13751.46,259a1.5,1.5,0,0,0,0-3,1.5,1.5,0,0,0,0,3h0Z"/>
        <path class="cls-57" d="M13615,220.61a1.5,1.5,0,0,0,0-3,1.5,1.5,0,0,0,0,3h0Z"/>
        <path class="cls-57" d="M13510,262.71a1.5,1.5,0,0,0,0-3,1.5,1.5,0,0,0,0,3h0Z"/>
        <path class="cls-57" d="M13451.46,381.51a1.5,1.5,0,0,0,0-3,1.5,1.5,0,0,0,0,3h0Z"/>
        <path class="cls-57" d="M13529.46,76.21a1.5,1.5,0,0,0,0-3,1.5,1.5,0,0,0,0,3h0Z"/>
        <path class="cls-57" d="M14191,390.61a1.5,1.5,0,0,0,0-3,1.5,1.5,0,0,0,0,3h0Z"/>
        <path class="cls-57" d="M14015.46,169.41a1.5,1.5,0,0,0,0-3,1.5,1.5,0,0,0,0,3h0Z"/>
        <path class="cls-57" d="M14077,92.71a1.5,1.5,0,0,0,0-3,1.5,1.5,0,0,0,0,3h0Z"/>
      </g>
      <g>
        <path class="cls-57" d="M13685,191.41a1.5,1.5,0,0,0,0-3,1.5,1.5,0,0,0,0,3h0Z"/>
        <path class="cls-57" d="M13824.46,174.91a1.5,1.5,0,0,0,0-3,1.5,1.5,0,0,0,0,3h0Z"/>
        <path class="cls-57" d="M13745,392.51a1.5,1.5,0,0,0,0-3,1.5,1.5,0,0,0,0,3h0Z"/>
        <path class="cls-57" d="M14015,156.61a1.5,1.5,0,0,0,0-3,1.5,1.5,0,0,0,0,3h0Z"/>
        <path class="cls-57" d="M14094.46,423.61a1.5,1.5,0,0,0,0-3,1.5,1.5,0,0,0,0,3h0Z"/>
        <path class="cls-57" d="M14414,158.51a1.5,1.5,0,0,0,0-3,1.5,1.5,0,0,0,0,3h0Z"/>
        <path class="cls-57" d="M14568.46,277.31a1.5,1.5,0,0,0,0-3,1.5,1.5,0,0,0,0,3h0Z"/>
        <path class="cls-57" d="M14430.46,388.81a1.5,1.5,0,0,0,0-3,1.5,1.5,0,0,0,0,3h0Z"/>
        <path class="cls-57" d="M14409.46,348.61a1.5,1.5,0,0,0,0-3,1.5,1.5,0,0,0,0,3h0Z"/>
        <path class="cls-57" d="M14324,419.91a1.5,1.5,0,0,0,0-3,1.5,1.5,0,0,0,0,3h0Z"/>
        <path class="cls-57" d="M13878.46,432.71a1.5,1.5,0,0,0,0-3,1.5,1.5,0,0,0,0,3h0Z"/>
        <path class="cls-57" d="M13878.46,339.51a1.5,1.5,0,0,0,0-3,1.5,1.5,0,0,0,0,3h0Z"/>
        <path class="cls-57" d="M13742,301.11a1.5,1.5,0,0,0,0-3,1.5,1.5,0,0,0,0,3h0Z"/>
        <path class="cls-57" d="M13637,343.11a1.5,1.5,0,0,0,0-3,1.5,1.5,0,0,0,0,3h0Z"/>
        <path class="cls-57" d="M13578.46,461.91a1.5,1.5,0,0,0,0-3,1.5,1.5,0,0,0,0,3h0Z"/>
        <path class="cls-57" d="M13656.46,156.61a1.5,1.5,0,0,0,0-3,1.5,1.5,0,0,0,0,3h0Z"/>
        <path class="cls-57" d="M14318,471.11a1.5,1.5,0,0,0,0-3,1.5,1.5,0,0,0,0,3h0Z"/>
        <path class="cls-57" d="M14142.46,249.91a1.5,1.5,0,0,0,0-3,1.5,1.5,0,0,0,0,3h0Z"/>
        <path class="cls-57" d="M14204,173.11a1.5,1.5,0,0,0,0-3,1.5,1.5,0,0,0,0,3h0Z"/>
      </g>
    </g>
    <g>
      <g>
        <path class="cls-57" d="M13507,51.21a1.5,1.5,0,0,0,0-3,1.5,1.5,0,0,0,0,3h0Z"/>
        <path class="cls-57" d="M13646.46,34.81a1.5,1.5,0,0,0,0-3,1.5,1.5,0,0,0,0,3h0Z"/>
        <path class="cls-57" d="M13567,252.31a1.5,1.5,0,0,0,0-3,1.5,1.5,0,0,0,0,3h0Z"/>
        <path class="cls-57" d="M13916.46,283.41a1.5,1.5,0,0,0,0-3,1.5,1.5,0,0,0,0,3h0Z"/>
        <path class="cls-57" d="M14459.46,330.91a1.5,1.5,0,0,0,0-3,1.5,1.5,0,0,0,0,3h0Z"/>
        <path class="cls-57" d="M14551,155.41a1.5,1.5,0,0,0,0-3,1.5,1.5,0,0,0,0,3h0Z"/>
        <path class="cls-57" d="M14518,62.21a1.5,1.5,0,0,0,0-3,1.5,1.5,0,0,0,0,3h0Z"/>
        <path class="cls-57" d="M14390.46,137.11a1.5,1.5,0,0,0,0-3,1.5,1.5,0,0,0,0,3h0Z"/>
        <path class="cls-57" d="M14252.46,248.71a1.5,1.5,0,0,0,0-3,1.5,1.5,0,0,0,0,3h0Z"/>
        <path class="cls-57" d="M14231.46,208.41a1.5,1.5,0,0,0,0-3,1.5,1.5,0,0,0,0,3h0Z"/>
        <path class="cls-57" d="M14146,279.71a1.5,1.5,0,0,0,0-3,1.5,1.5,0,0,0,0,3h0Z"/>
        <path class="cls-57" d="M13700.46,292.51a1.5,1.5,0,0,0,0-3,1.5,1.5,0,0,0,0,3h0Z"/>
        <path class="cls-57" d="M13700.46,199.31a1.5,1.5,0,0,0,0-3,1.5,1.5,0,0,0,0,3h0Z"/>
        <path class="cls-57" d="M13564,160.91a1.5,1.5,0,0,0,0-3,1.5,1.5,0,0,0,0,3h0Z"/>
        <path class="cls-57" d="M13459,203a1.5,1.5,0,0,0,0-3,1.5,1.5,0,0,0,0,3h0Z"/>
        <path class="cls-57" d="M13400.46,321.81a1.5,1.5,0,0,0,0-3,1.5,1.5,0,0,0,0,3h0Z"/>
        <path class="cls-57" d="M14140,330.91a1.5,1.5,0,0,0,0-3,1.5,1.5,0,0,0,0,3h0Z"/>
        <path class="cls-57" d="M13964.46,109.71a1.5,1.5,0,0,0,0-3,1.5,1.5,0,0,0,0,3h0Z"/>
        <path class="cls-57" d="M14026,32.91a1.5,1.5,0,0,0,0-3,1.5,1.5,0,0,0,0,3h0Z"/>
      </g>
      <g>
        <path class="cls-57" d="M13634,131.71a1.5,1.5,0,0,0,0-3,1.5,1.5,0,0,0,0,3h0Z"/>
        <path class="cls-57" d="M13773.46,115.21a1.5,1.5,0,0,0,0-3,1.5,1.5,0,0,0,0,3h0Z"/>
        <path class="cls-57" d="M13694,332.81a1.5,1.5,0,0,0,0-3,1.5,1.5,0,0,0,0,3h0Z"/>
        <path class="cls-57" d="M13964,96.91a1.5,1.5,0,0,0,0-3,1.5,1.5,0,0,0,0,3h0Z"/>
        <path class="cls-57" d="M14043.46,363.81a1.5,1.5,0,0,0,0-3,1.5,1.5,0,0,0,0,3h0Z"/>
        <path class="cls-57" d="M14363,98.81a1.5,1.5,0,0,0,0-3,1.5,1.5,0,0,0,0,3h0Z"/>
        <path class="cls-57" d="M14586.46,411.41a1.5,1.5,0,0,0,0-3,1.5,1.5,0,0,0,0,3h0Z"/>
        <path class="cls-57" d="M14517.46,217.61a1.5,1.5,0,0,0,0-3,1.5,1.5,0,0,0,0,3h0Z"/>
        <path class="cls-57" d="M14379.46,329.11a1.5,1.5,0,0,0,0-3,1.5,1.5,0,0,0,0,3h0Z"/>
        <path class="cls-57" d="M14358.46,288.91a1.5,1.5,0,0,0,0-3,1.5,1.5,0,0,0,0,3h0Z"/>
        <path class="cls-57" d="M14273,360.21a1.5,1.5,0,0,0,0-3,1.5,1.5,0,0,0,0,3h0Z"/>
        <path class="cls-57" d="M13827.46,373a1.5,1.5,0,0,0,0-3,1.5,1.5,0,0,0,0,3h0Z"/>
        <path class="cls-57" d="M13827.46,279.71a1.5,1.5,0,0,0,0-3,1.5,1.5,0,0,0,0,3h0Z"/>
        <path class="cls-57" d="M13691,241.31a1.5,1.5,0,0,0,0-3,1.5,1.5,0,0,0,0,3h0Z"/>
        <path class="cls-57" d="M13586,283.41a1.5,1.5,0,0,0,0-3,1.5,1.5,0,0,0,0,3h0Z"/>
        <path class="cls-57" d="M13527.46,402.21a1.5,1.5,0,0,0,0-3,1.5,1.5,0,0,0,0,3h0Z"/>
        <path class="cls-57" d="M13605.46,96.91a1.5,1.5,0,0,0,0-3,1.5,1.5,0,0,0,0,3h0Z"/>
        <path class="cls-57" d="M14267,411.41a1.5,1.5,0,0,0,0-3,1.5,1.5,0,0,0,0,3h0Z"/>
        <path class="cls-57" d="M14091.46,190.21a1.5,1.5,0,0,0,0-3,1.5,1.5,0,0,0,0,3h0Z"/>
        <path class="cls-57" d="M14153,113.41a1.5,1.5,0,0,0,0-3,1.5,1.5,0,0,0,0,3h0Z"/>
      </g>
      <g>
        <path class="cls-57" d="M13609,59.81a1.5,1.5,0,0,0,0-3,1.5,1.5,0,0,0,0,3h0Z"/>
        <path class="cls-57" d="M13748.46,43.31a1.5,1.5,0,0,0,0-3,1.5,1.5,0,0,0,0,3h0Z"/>
        <path class="cls-57" d="M13669,260.81a1.5,1.5,0,0,0,0-3,1.5,1.5,0,0,0,0,3h0Z"/>
        <path class="cls-57" d="M14018.46,291.91a1.5,1.5,0,0,0,0-3,1.5,1.5,0,0,0,0,3h0Z"/>
        <path class="cls-57" d="M14561.46,339.51a1.5,1.5,0,0,0,0-3,1.5,1.5,0,0,0,0,3h0Z"/>
        <path class="cls-57" d="M14492.46,145.71a1.5,1.5,0,0,0,0-3,1.5,1.5,0,0,0,0,3h0Z"/>
        <path class="cls-57" d="M14354.46,257.21a1.5,1.5,0,0,0,0-3,1.5,1.5,0,0,0,0,3h0Z"/>
        <path class="cls-57" d="M14333.46,217a1.5,1.5,0,0,0,0-3,1.5,1.5,0,0,0,0,3h0Z"/>
        <path class="cls-57" d="M14248,288.31a1.5,1.5,0,0,0,0-3,1.5,1.5,0,0,0,0,3h0Z"/>
        <path class="cls-57" d="M13802.46,301.11a1.5,1.5,0,0,0,0-3,1.5,1.5,0,0,0,0,3h0Z"/>
        <path class="cls-57" d="M13802.46,207.81a1.5,1.5,0,0,0,0-3,1.5,1.5,0,0,0,0,3h0Z"/>
        <path class="cls-57" d="M13666,169.41a1.5,1.5,0,0,0,0-3,1.5,1.5,0,0,0,0,3h0Z"/>
        <path class="cls-57" d="M13561,211.51a1.5,1.5,0,0,0,0-3,1.5,1.5,0,0,0,0,3h0Z"/>
        <path class="cls-57" d="M13502.46,330.31a1.5,1.5,0,0,0,0-3,1.5,1.5,0,0,0,0,3h0Z"/>
        <path class="cls-57" d="M14242,339.51a1.5,1.5,0,0,0,0-3,1.5,1.5,0,0,0,0,3h0Z"/>
        <path class="cls-57" d="M14066.46,118.31a1.5,1.5,0,0,0,0-3,1.5,1.5,0,0,0,0,3h0Z"/>
        <path class="cls-57" d="M14128,41.51a1.5,1.5,0,0,0,0-3,1.5,1.5,0,0,0,0,3h0Z"/>
      </g>
      <g>
        <path class="cls-57" d="M13736,140.21a1.5,1.5,0,0,0,0-3,1.5,1.5,0,0,0,0,3h0Z"/>
        <path class="cls-57" d="M13875.46,123.71a1.5,1.5,0,0,0,0-3,1.5,1.5,0,0,0,0,3h0Z"/>
        <path class="cls-57" d="M13796,341.31a1.5,1.5,0,0,0,0-3,1.5,1.5,0,0,0,0,3h0Z"/>
        <path class="cls-57" d="M14066,105.51a1.5,1.5,0,0,0,0-3,1.5,1.5,0,0,0,0,3h0Z"/>
        <path class="cls-57" d="M14145.46,372.41a1.5,1.5,0,0,0,0-3,1.5,1.5,0,0,0,0,3h0Z"/>
        <path class="cls-57" d="M14465,107.31a1.5,1.5,0,0,0,0-3,1.5,1.5,0,0,0,0,3h0Z"/>
        <path class="cls-57" d="M14481.46,337.61a1.5,1.5,0,0,0,0-3,1.5,1.5,0,0,0,0,3h0Z"/>
        <path class="cls-57" d="M14460.46,297.41a1.5,1.5,0,0,0,0-3,1.5,1.5,0,0,0,0,3h0Z"/>
        <path class="cls-57" d="M14375,368.71a1.5,1.5,0,0,0,0-3,1.5,1.5,0,0,0,0,3h0Z"/>
        <path class="cls-57" d="M13929.46,381.51a1.5,1.5,0,0,0,0-3,1.5,1.5,0,0,0,0,3h0Z"/>
        <path class="cls-57" d="M13929.46,288.31a1.5,1.5,0,0,0,0-3,1.5,1.5,0,0,0,0,3h0Z"/>
        <path class="cls-57" d="M13793,249.91a1.5,1.5,0,0,0,0-3,1.5,1.5,0,0,0,0,3h0Z"/>
        <path class="cls-57" d="M13688,291.91a1.5,1.5,0,0,0,0-3,1.5,1.5,0,0,0,0,3h0Z"/>
        <path class="cls-57" d="M13629.46,410.81a1.5,1.5,0,0,0,0-3,1.5,1.5,0,0,0,0,3h0Z"/>
        <path class="cls-57" d="M13707.46,105.51a1.5,1.5,0,0,0,0-3,1.5,1.5,0,0,0,0,3h0Z"/>
        <path class="cls-57" d="M14193.46,198.71a1.5,1.5,0,0,0,0-3,1.5,1.5,0,0,0,0,3h0Z"/>
        <path class="cls-57" d="M14255,121.91a1.5,1.5,0,0,0,0-3,1.5,1.5,0,0,0,0,3h0Z"/>
      </g>
    </g>
    <g>
      <g>
        <path class="cls-57" d="M13401,282.81a1.5,1.5,0,0,0,0-3,1.5,1.5,0,0,0,0,3h0Z"/>
        <path class="cls-57" d="M13540.46,266.31a1.5,1.5,0,0,0,0-3,1.5,1.5,0,0,0,0,3h0Z"/>
        <path class="cls-57" d="M13461,483.91a1.5,1.5,0,0,0,0-3,1.5,1.5,0,0,0,0,3h0Z"/>
        <path class="cls-57" d="M13731,248.11a1.5,1.5,0,0,0,0-3,1.5,1.5,0,0,0,0,3h0Z"/>
        <path class="cls-57" d="M13810.46,515a1.5,1.5,0,0,0,0-3,1.5,1.5,0,0,0,0,3h0Z"/>
        <path class="cls-57" d="M14130,249.91a1.5,1.5,0,0,0,0-3,1.5,1.5,0,0,0,0,3h0Z"/>
        <path class="cls-57" d="M14353.46,562.51a1.5,1.5,0,0,0,0-3,1.5,1.5,0,0,0,0,3h0Z"/>
        <path class="cls-57" d="M14445,387a1.5,1.5,0,0,0,0-3,1.5,1.5,0,0,0,0,3h0Z"/>
        <path class="cls-57" d="M14412,293.81a1.5,1.5,0,0,0,0-3,1.5,1.5,0,0,0,0,3h0Z"/>
        <path class="cls-57" d="M14284.46,368.71a1.5,1.5,0,0,0,0-3,1.5,1.5,0,0,0,0,3h0Z"/>
        <path class="cls-57" d="M14146.46,480.21a1.5,1.5,0,0,0,0-3,1.5,1.5,0,0,0,0,3h0Z"/>
        <path class="cls-57" d="M14125.46,440a1.5,1.5,0,0,0,0-3,1.5,1.5,0,0,0,0,3h0Z"/>
        <path class="cls-57" d="M14040,511.31a1.5,1.5,0,0,0,0-3,1.5,1.5,0,0,0,0,3h0Z"/>
        <path class="cls-57" d="M13594.46,524.11a1.5,1.5,0,0,0,0-3,1.5,1.5,0,0,0,0,3h0Z"/>
        <path class="cls-57" d="M13594.46,430.91a1.5,1.5,0,0,0,0-3,1.5,1.5,0,0,0,0,3h0Z"/>
        <path class="cls-57" d="M13458,392.51a1.5,1.5,0,0,0,0-3,1.5,1.5,0,0,0,0,3h0Z"/>
        <path class="cls-57" d="M13353,434.51a1.5,1.5,0,0,0,0-3,1.5,1.5,0,0,0,0,3h0Z"/>
        <path class="cls-57" d="M13372.46,248.11a1.5,1.5,0,0,0,0-3,1.5,1.5,0,0,0,0,3h0Z"/>
        <path class="cls-57" d="M14034,562.51a1.5,1.5,0,0,0,0-3,1.5,1.5,0,0,0,0,3h0Z"/>
        <path class="cls-57" d="M13858.46,341.31a1.5,1.5,0,0,0,0-3,1.5,1.5,0,0,0,0,3h0Z"/>
        <path class="cls-57" d="M13920,264.51a1.5,1.5,0,0,0,0-3,1.5,1.5,0,0,0,0,3h0Z"/>
      </g>
      <g>
        <path class="cls-57" d="M13528,363.21a1.5,1.5,0,0,0,0-3,1.5,1.5,0,0,0,0,3h0Z"/>
        <path class="cls-57" d="M13667.46,346.81a1.5,1.5,0,0,0,0-3,1.5,1.5,0,0,0,0,3h0Z"/>
        <path class="cls-57" d="M13588,564.31a1.5,1.5,0,0,0,0-3,1.5,1.5,0,0,0,0,3h0Z"/>
        <path class="cls-57" d="M13858,328.51a1.5,1.5,0,0,0,0-3,1.5,1.5,0,0,0,0,3h0Z"/>
        <path class="cls-57" d="M13937.46,595.41a1.5,1.5,0,0,0,0-3,1.5,1.5,0,0,0,0,3h0Z"/>
        <path class="cls-57" d="M14257,330.31a1.5,1.5,0,0,0,0-3,1.5,1.5,0,0,0,0,3h0Z"/>
        <path class="cls-57" d="M14480.46,642.91a1.5,1.5,0,0,0,0-3,1.5,1.5,0,0,0,0,3h0Z"/>
        <path class="cls-57" d="M14572,467.41a1.5,1.5,0,0,0,0-3,1.5,1.5,0,0,0,0,3h0Z"/>
        <path class="cls-57" d="M14539,374.21a1.5,1.5,0,0,0,0-3,1.5,1.5,0,0,0,0,3h0Z"/>
        <path class="cls-57" d="M14411.46,449.21a1.5,1.5,0,0,0,0-3,1.5,1.5,0,0,0,0,3h0Z"/>
        <path class="cls-57" d="M14273.46,560.71a1.5,1.5,0,0,0,0-3,1.5,1.5,0,0,0,0,3h0Z"/>
        <path class="cls-57" d="M14252.46,520.51a1.5,1.5,0,0,0,0-3,1.5,1.5,0,0,0,0,3h0Z"/>
        <path class="cls-57" d="M14167,591.81a1.5,1.5,0,0,0,0-3,1.5,1.5,0,0,0,0,3h0Z"/>
        <path class="cls-57" d="M13721.46,604.51a1.5,1.5,0,0,0,0-3,1.5,1.5,0,0,0,0,3h0Z"/>
        <path class="cls-57" d="M13721.46,511.31a1.5,1.5,0,0,0,0-3,1.5,1.5,0,0,0,0,3h0Z"/>
        <path class="cls-57" d="M13585,472.91a1.5,1.5,0,0,0,0-3,1.5,1.5,0,0,0,0,3h0Z"/>
        <path class="cls-57" d="M13480,515a1.5,1.5,0,0,0,0-3,1.5,1.5,0,0,0,0,3h0Z"/>
        <path class="cls-57" d="M13421.46,633.81a1.5,1.5,0,0,0,0-3,1.5,1.5,0,0,0,0,3h0Z"/>
        <path class="cls-57" d="M13499.46,328.51a1.5,1.5,0,0,0,0-3,1.5,1.5,0,0,0,0,3h0Z"/>
        <path class="cls-57" d="M14161,642.91a1.5,1.5,0,0,0,0-3,1.5,1.5,0,0,0,0,3h0Z"/>
        <path class="cls-57" d="M13985.46,421.71a1.5,1.5,0,0,0,0-3,1.5,1.5,0,0,0,0,3h0Z"/>
        <path class="cls-57" d="M14047,345a1.5,1.5,0,0,0,0-3,1.5,1.5,0,0,0,0,3h0Z"/>
      </g>
      <g>
        <path class="cls-57" d="M13503,291.31a1.5,1.5,0,0,0,0-3,1.5,1.5,0,0,0,0,3h0Z"/>
        <path class="cls-57" d="M13642.46,274.91a1.5,1.5,0,0,0,0-3,1.5,1.5,0,0,0,0,3h0Z"/>
        <path class="cls-57" d="M13563,492.41a1.5,1.5,0,0,0,0-3,1.5,1.5,0,0,0,0,3h0Z"/>
        <path class="cls-57" d="M13833,256.61a1.5,1.5,0,0,0,0-3,1.5,1.5,0,0,0,0,3h0Z"/>
        <path class="cls-57" d="M13912.46,523.51a1.5,1.5,0,0,0,0-3,1.5,1.5,0,0,0,0,3h0Z"/>
        <path class="cls-57" d="M14232,258.41a1.5,1.5,0,0,0,0-3,1.5,1.5,0,1,0,0,3h0Z"/>
        <path class="cls-57" d="M14455.46,571a1.5,1.5,0,0,0,0-3,1.5,1.5,0,0,0,0,3h0Z"/>
        <path class="cls-57" d="M14547,395.51a1.5,1.5,0,0,0,0-3,1.5,1.5,0,0,0,0,3h0Z"/>
        <path class="cls-57" d="M14514,302.31a1.5,1.5,0,0,0,0-3,1.5,1.5,0,0,0,0,3h0Z"/>
        <path class="cls-57" d="M14386.46,377.21a1.5,1.5,0,0,0,0-3,1.5,1.5,0,0,0,0,3h0Z"/>
        <path class="cls-57" d="M14248.46,488.81a1.5,1.5,0,0,0,0-3,1.5,1.5,0,0,0,0,3h0Z"/>
        <path class="cls-57" d="M14227.46,448.51a1.5,1.5,0,0,0,0-3,1.5,1.5,0,0,0,0,3h0Z"/>
        <path class="cls-57" d="M14142,519.81a1.5,1.5,0,0,0,0-3,1.5,1.5,0,0,0,0,3h0Z"/>
        <path class="cls-57" d="M13696.46,532.61a1.5,1.5,0,0,0,0-3,1.5,1.5,0,0,0,0,3h0Z"/>
        <path class="cls-57" d="M13696.46,439.41a1.5,1.5,0,0,0,0-3,1.5,1.5,0,0,0,0,3h0Z"/>
        <path class="cls-57" d="M13560,401a1.5,1.5,0,0,0,0-3,1.5,1.5,0,0,0,0,3h0Z"/>
        <path class="cls-57" d="M13455,443.11a1.5,1.5,0,0,0,0-3,1.5,1.5,0,0,0,0,3h0Z"/>
        <path class="cls-57" d="M13396.46,561.91a1.5,1.5,0,0,0,0-3,1.5,1.5,0,0,0,0,3h0Z"/>
        <path class="cls-57" d="M13474.46,256.61a1.5,1.5,0,0,0,0-3,1.5,1.5,0,0,0,0,3h0Z"/>
        <path class="cls-57" d="M14136,571a1.5,1.5,0,0,0,0-3,1.5,1.5,0,0,0,0,3h0Z"/>
        <path class="cls-57" d="M13960.46,349.81a1.5,1.5,0,0,0,0-3,1.5,1.5,0,0,0,0,3h0Z"/>
        <path class="cls-57" d="M14022,273a1.5,1.5,0,0,0,0-3,1.5,1.5,0,0,0,0,3h0Z"/>
      </g>
      <g>
        <path class="cls-57" d="M13630,371.81a1.5,1.5,0,0,0,0-3,1.5,1.5,0,0,0,0,3h0Z"/>
        <path class="cls-57" d="M13769.46,355.31a1.5,1.5,0,0,0,0-3,1.5,1.5,0,0,0,0,3h0Z"/>
        <path class="cls-57" d="M13690,572.91a1.5,1.5,0,0,0,0-3,1.5,1.5,0,0,0,0,3h0Z"/>
        <path class="cls-57" d="M13960,337a1.5,1.5,0,0,0,0-3,1.5,1.5,0,0,0,0,3h0Z"/>
        <path class="cls-57" d="M14039.46,603.91a1.5,1.5,0,0,0,0-3,1.5,1.5,0,0,0,0,3h0Z"/>
        <path class="cls-57" d="M14359,338.91a1.5,1.5,0,0,0,0-3,1.5,1.5,0,0,0,0,3h0Z"/>
        <path class="cls-57" d="M14582.46,651.51a1.5,1.5,0,0,0,0-3,1.5,1.5,0,1,0,0,3h0Z"/>
        <path class="cls-57" d="M14513.46,457.71a1.5,1.5,0,0,0,0-3,1.5,1.5,0,0,0,0,3h0Z"/>
        <path class="cls-57" d="M14375.46,569.21a1.5,1.5,0,0,0,0-3,1.5,1.5,0,0,0,0,3h0Z"/>
        <path class="cls-57" d="M14354.46,529a1.5,1.5,0,0,0,0-3,1.5,1.5,0,0,0,0,3h0Z"/>
        <path class="cls-57" d="M14269,600.31a1.5,1.5,0,0,0,0-3,1.5,1.5,0,0,0,0,3h0Z"/>
        <path class="cls-57" d="M13823.46,613.11a1.5,1.5,0,0,0,0-3,1.5,1.5,0,0,0,0,3h0Z"/>
        <path class="cls-57" d="M13823.46,519.81a1.5,1.5,0,0,0,0-3,1.5,1.5,0,0,0,0,3h0Z"/>
        <path class="cls-57" d="M13687,481.51a1.5,1.5,0,0,0,0-3,1.5,1.5,0,0,0,0,3h0Z"/>
        <path class="cls-57" d="M13582,523.51a1.5,1.5,0,0,0,0-3,1.5,1.5,0,0,0,0,3h0Z"/>
        <path class="cls-57" d="M13523.46,642.31a1.5,1.5,0,0,0,0-3,1.5,1.5,0,0,0,0,3h0Z"/>
        <path class="cls-57" d="M13601.46,337a1.5,1.5,0,0,0,0-3,1.5,1.5,0,0,0,0,3h0Z"/>
        <path class="cls-57" d="M14263,651.51a1.5,1.5,0,0,0,0-3,1.5,1.5,0,0,0,0,3h0Z"/>
        <path class="cls-57" d="M14087.46,430.31a1.5,1.5,0,0,0,0-3,1.5,1.5,0,0,0,0,3h0Z"/>
        <path class="cls-57" d="M14149,353.51a1.5,1.5,0,0,0,0-3,1.5,1.5,0,0,0,0,3h0Z"/>
      </g>
    </g>
  </g>
  <g class="cls-56">
    <g>
      <g>
        <path class="cls-57" d="M1278.44,102.4a1.5,1.5,0,0,0,0-3,1.5,1.5,0,0,0,0,3h0Z"/>
        <path class="cls-57" d="M1417.94,86a1.5,1.5,0,0,0,0-3,1.5,1.5,0,0,0,0,3h0Z"/>
        <path class="cls-57" d="M1338.44,303.5a1.5,1.5,0,0,0,0-3,1.5,1.5,0,0,0,0,3h0Z"/>
        <path class="cls-57" d="M1608.44,67.7a1.5,1.5,0,0,0,0-3,1.5,1.5,0,0,0,0,3h0Z"/>
        <path class="cls-57" d="M1687.94,334.6a1.5,1.5,0,0,0,0-3,1.5,1.5,0,0,0,0,3h0Z"/>
        <path class="cls-57" d="M2007.44,69.5a1.5,1.5,0,0,0,0-3,1.5,1.5,0,1,0,0,3h0Z"/>
        <path class="cls-57" d="M2230.94,382.1a1.5,1.5,0,0,0,0-3,1.5,1.5,0,0,0,0,3h0Z"/>
        <path class="cls-57" d="M2322.44,206.6a1.5,1.5,0,0,0,0-3,1.5,1.5,0,0,0,0,3h0Z"/>
        <path class="cls-57" d="M2289.44,113.4a1.5,1.5,0,0,0,0-3,1.5,1.5,0,0,0,0,3h0Z"/>
        <path class="cls-57" d="M2161.94,188.3a1.5,1.5,0,0,0,0-3,1.5,1.5,0,0,0,0,3h0Z"/>
        <path class="cls-57" d="M2023.94,299.8a1.5,1.5,0,0,0,0-3,1.5,1.5,0,1,0,0,3h0Z"/>
        <path class="cls-57" d="M2002.94,259.6a1.5,1.5,0,0,0,0-3,1.5,1.5,0,1,0,0,3h0Z"/>
        <path class="cls-57" d="M1917.44,330.9a1.5,1.5,0,0,0,0-3,1.5,1.5,0,0,0,0,3h0Z"/>
        <path class="cls-57" d="M1471.94,343.7a1.5,1.5,0,0,0,0-3,1.5,1.5,0,0,0,0,3h0Z"/>
        <path class="cls-57" d="M1471.94,250.5a1.5,1.5,0,0,0,0-3,1.5,1.5,0,0,0,0,3h0Z"/>
        <path class="cls-57" d="M1335.44,212.1a1.5,1.5,0,0,0,0-3,1.5,1.5,0,0,0,0,3h0Z"/>
        <path class="cls-57" d="M1230.44,254.1a1.5,1.5,0,0,0,0-3,1.5,1.5,0,0,0,0,3h0Z"/>
        <path class="cls-57" d="M1171.94,373a1.5,1.5,0,0,0,0-3,1.5,1.5,0,0,0,0,3h0Z"/>
        <path class="cls-57" d="M1249.94,67.7a1.5,1.5,0,0,0,0-3,1.5,1.5,0,0,0,0,3h0Z"/>
        <path class="cls-57" d="M1911.44,382.1a1.5,1.5,0,0,0,0-3,1.5,1.5,0,0,0,0,3h0Z"/>
        <path class="cls-57" d="M1735.94,160.9a1.5,1.5,0,0,0,0-3,1.5,1.5,0,0,0,0,3h0Z"/>
        <path class="cls-57" d="M1797.44,84.1a1.5,1.5,0,0,0,0-3,1.5,1.5,0,0,0,0,3h0Z"/>
      </g>
      <g>
        <path class="cls-57" d="M1405.44,182.9a1.5,1.5,0,0,0,0-3,1.5,1.5,0,0,0,0,3h0Z"/>
        <path class="cls-57" d="M1544.94,166.4a1.5,1.5,0,0,0,0-3,1.5,1.5,0,0,0,0,3h0Z"/>
        <path class="cls-57" d="M1465.44,383.9a1.5,1.5,0,0,0,0-3,1.5,1.5,0,0,0,0,3h0Z"/>
        <path class="cls-57" d="M1735.44,148.1a1.5,1.5,0,0,0,0-3,1.5,1.5,0,0,0,0,3h0Z"/>
        <path class="cls-57" d="M1814.94,415a1.5,1.5,0,0,0,0-3,1.5,1.5,0,0,0,0,3h0Z"/>
        <path class="cls-57" d="M2134.44,149.9a1.5,1.5,0,0,0,0-3,1.5,1.5,0,0,0,0,3h0Z"/>
        <path class="cls-57" d="M2357.94,462.6a1.5,1.5,0,0,0,0-3,1.5,1.5,0,0,0,0,3h0Z"/>
        <path class="cls-57" d="M2416.44,193.8a1.5,1.5,0,0,0,0-3,1.5,1.5,0,0,0,0,3h0Z"/>
        <path class="cls-57" d="M2288.94,268.8a1.5,1.5,0,0,0,0-3,1.5,1.5,0,0,0,0,3h0Z"/>
        <path class="cls-57" d="M2150.94,380.3a1.5,1.5,0,0,0,0-3,1.5,1.5,0,0,0,0,3h0Z"/>
        <path class="cls-57" d="M2129.94,340.1a1.5,1.5,0,0,0,0-3,1.5,1.5,0,0,0,0,3h0Z"/>
        <path class="cls-57" d="M2044.44,411.4a1.5,1.5,0,0,0,0-3,1.5,1.5,0,0,0,0,3h0Z"/>
        <path class="cls-57" d="M1598.94,424.2a1.5,1.5,0,0,0,0-3,1.5,1.5,0,0,0,0,3h0Z"/>
        <path class="cls-57" d="M1598.94,330.9a1.5,1.5,0,0,0,0-3,1.5,1.5,0,0,0,0,3h0Z"/>
        <path class="cls-57" d="M1462.44,292.5a1.5,1.5,0,0,0,0-3,1.5,1.5,0,0,0,0,3h0Z"/>
        <path class="cls-57" d="M1357.44,334.6a1.5,1.5,0,0,0,0-3,1.5,1.5,0,0,0,0,3h0Z"/>
        <path class="cls-57" d="M1298.94,453.4a1.5,1.5,0,0,0,0-3,1.5,1.5,0,0,0,0,3h0Z"/>
        <path class="cls-57" d="M1376.94,148.1a1.5,1.5,0,0,0,0-3,1.5,1.5,0,0,0,0,3h0Z"/>
        <path class="cls-57" d="M2038.44,462.6a1.5,1.5,0,0,0,0-3,1.5,1.5,0,0,0,0,3h0Z"/>
        <path class="cls-57" d="M1862.94,241.4a1.5,1.5,0,0,0,0-3,1.5,1.5,0,0,0,0,3h0Z"/>
        <path class="cls-57" d="M1924.44,164.6a1.5,1.5,0,0,0,0-3,1.5,1.5,0,0,0,0,3h0Z"/>
      </g>
      <g>
        <path class="cls-57" d="M1380.44,110.9a1.5,1.5,0,0,0,0-3,1.5,1.5,0,0,0,0,3h0Z"/>
        <path class="cls-57" d="M1519.94,94.5a1.5,1.5,0,0,0,0-3,1.5,1.5,0,0,0,0,3h0Z"/>
        <path class="cls-57" d="M1440.44,312a1.5,1.5,0,0,0,0-3,1.5,1.5,0,0,0,0,3h0Z"/>
        <path class="cls-57" d="M1710.44,76.2a1.5,1.5,0,0,0,0-3,1.5,1.5,0,0,0,0,3h0Z"/>
        <path class="cls-57" d="M1789.94,343.1a1.5,1.5,0,0,0,0-3,1.5,1.5,0,0,0,0,3h0Z"/>
        <path class="cls-57" d="M2109.44,78a1.5,1.5,0,0,0,0-3,1.5,1.5,0,0,0,0,3h0Z"/>
        <path class="cls-57" d="M2332.94,390.6a1.5,1.5,0,0,0,0-3,1.5,1.5,0,0,0,0,3h0Z"/>
        <path class="cls-57" d="M2424.44,215.1a1.5,1.5,0,0,0,0-3,1.5,1.5,0,0,0,0,3h0Z"/>
        <path class="cls-57" d="M2391.44,121.9a1.5,1.5,0,0,0,0-3,1.5,1.5,0,0,0,0,3h0Z"/>
        <path class="cls-57" d="M2263.94,196.9a1.5,1.5,0,0,0,0-3,1.5,1.5,0,0,0,0,3h0Z"/>
        <path class="cls-57" d="M2125.94,308.4a1.5,1.5,0,0,0,0-3,1.5,1.5,0,0,0,0,3h0Z"/>
        <path class="cls-57" d="M2104.94,268.2a1.5,1.5,0,0,0,0-3,1.5,1.5,0,0,0,0,3h0Z"/>
        <path class="cls-57" d="M2019.44,339.5a1.5,1.5,0,0,0,0-3,1.5,1.5,0,0,0,0,3h0Z"/>
        <path class="cls-57" d="M1573.94,352.3a1.5,1.5,0,0,0,0-3,1.5,1.5,0,0,0,0,3h0Z"/>
        <path class="cls-57" d="M1573.94,259a1.5,1.5,0,0,0,0-3,1.5,1.5,0,0,0,0,3h0Z"/>
        <path class="cls-57" d="M1437.44,220.6a1.5,1.5,0,0,0,0-3,1.5,1.5,0,0,0,0,3h0Z"/>
        <path class="cls-57" d="M1332.44,262.7a1.5,1.5,0,0,0,0-3,1.5,1.5,0,0,0,0,3h0Z"/>
        <path class="cls-57" d="M1273.94,381.5a1.5,1.5,0,0,0,0-3,1.5,1.5,0,0,0,0,3h0Z"/>
        <path class="cls-57" d="M1351.94,76.2a1.5,1.5,0,0,0,0-3,1.5,1.5,0,0,0,0,3h0Z"/>
        <path class="cls-57" d="M2013.44,390.6l-826.28-3,826.28,3h0Z"/>
        <path class="cls-57" d="M1837.94,169.4a1.5,1.5,0,0,0,0-3,1.5,1.5,0,0,0,0,3h0Z"/>
        <path class="cls-57" d="M1899.44,92.7a1.5,1.5,0,0,0,0-3,1.5,1.5,0,0,0,0,3h0Z"/>
      </g>
      <g>
        <path class="cls-57" d="M1507.44,191.4a1.5,1.5,0,0,0,0-3,1.5,1.5,0,0,0,0,3h0Z"/>
        <path class="cls-57" d="M1646.94,174.9a1.5,1.5,0,0,0,0-3,1.5,1.5,0,0,0,0,3h0Z"/>
        <path class="cls-57" d="M1567.44,392.5a1.5,1.5,0,0,0,0-3,1.5,1.5,0,0,0,0,3h0Z"/>
        <path class="cls-57" d="M1837.44,156.6a1.5,1.5,0,0,0,0-3,1.5,1.5,0,0,0,0,3h0Z"/>
        <path class="cls-57" d="M1916.94,423.6a1.5,1.5,0,0,0,0-3,1.5,1.5,0,0,0,0,3h0Z"/>
        <path class="cls-57" d="M2236.44,158.5a1.5,1.5,0,0,0,0-3,1.5,1.5,0,0,0,0,3h0Z"/>
        <path class="cls-57" d="M2390.94,277.3a1.5,1.5,0,0,0,0-3,1.5,1.5,0,0,0,0,3h0Z"/>
        <path class="cls-57" d="M2252.94,388.8a1.5,1.5,0,0,0,0-3,1.5,1.5,0,0,0,0,3h0Z"/>
        <path class="cls-57" d="M2231.94,348.6a1.5,1.5,0,0,0,0-3,1.5,1.5,0,0,0,0,3h0Z"/>
        <path class="cls-57" d="M2146.44,419.9a1.5,1.5,0,0,0,0-3,1.5,1.5,0,0,0,0,3h0Z"/>
        <path class="cls-57" d="M1700.94,432.7a1.5,1.5,0,0,0,0-3,1.5,1.5,0,0,0,0,3h0Z"/>
        <path class="cls-57" d="M1700.94,339.5a1.5,1.5,0,0,0,0-3,1.5,1.5,0,0,0,0,3h0Z"/>
        <path class="cls-57" d="M1564.44,301.1a1.5,1.5,0,0,0,0-3,1.5,1.5,0,0,0,0,3h0Z"/>
        <path class="cls-57" d="M1459.44,343.1a1.5,1.5,0,0,0,0-3,1.5,1.5,0,0,0,0,3h0Z"/>
        <path class="cls-57" d="M1400.94,461.9a1.5,1.5,0,0,0,0-3,1.5,1.5,0,0,0,0,3h0Z"/>
        <path class="cls-57" d="M1478.94,156.6a1.5,1.5,0,0,0,0-3,1.5,1.5,0,0,0,0,3h0Z"/>
        <path class="cls-57" d="M2140.44,471.1a1.5,1.5,0,0,0,0-3,1.5,1.5,0,0,0,0,3h0Z"/>
        <path class="cls-57" d="M1964.94,249.9a1.5,1.5,0,0,0,0-3,1.5,1.5,0,0,0,0,3h0Z"/>
        <path class="cls-57" d="M2026.44,173.1a1.5,1.5,0,0,0,0-3,1.5,1.5,0,0,0,0,3h0Z"/>
      </g>
    </g>
    <g>
      <g>
        <path class="cls-57" d="M1329.44,51.2a1.5,1.5,0,0,0,0-3,1.5,1.5,0,0,0,0,3h0Z"/>
        <path class="cls-57" d="M1468.94,34.8a1.5,1.5,0,0,0,0-3,1.5,1.5,0,0,0,0,3h0Z"/>
        <path class="cls-57" d="M1389.44,252.3a1.5,1.5,0,0,0,0-3,1.5,1.5,0,0,0,0,3h0Z"/>
        <path class="cls-57" d="M1738.94,283.4a1.5,1.5,0,0,0,0-3,1.5,1.5,0,0,0,0,3h0Z"/>
        <path class="cls-57" d="M2281.94,330.9a1.5,1.5,0,0,0,0-3,1.5,1.5,0,0,0,0,3h0Z"/>
        <path class="cls-57" d="M2373.44,155.4a1.5,1.5,0,0,0,0-3,1.5,1.5,0,0,0,0,3h0Z"/>
        <path class="cls-57" d="M2340.44,62.2a1.5,1.5,0,0,0,0-3,1.5,1.5,0,0,0,0,3h0Z"/>
        <path class="cls-57" d="M2212.94,137.1a1.5,1.5,0,0,0,0-3,1.5,1.5,0,1,0,0,3h0Z"/>
        <path class="cls-57" d="M2074.94,248.7a1.5,1.5,0,0,0,0-3,1.5,1.5,0,0,0,0,3h0Z"/>
        <path class="cls-57" d="M2053.94,208.4a1.5,1.5,0,0,0,0-3,1.5,1.5,0,0,0,0,3h0Z"/>
        <path class="cls-57" d="M1968.44,279.7a1.5,1.5,0,0,0,0-3,1.5,1.5,0,0,0,0,3h0Z"/>
        <path class="cls-57" d="M1522.94,292.5a1.5,1.5,0,0,0,0-3,1.5,1.5,0,0,0,0,3h0Z"/>
        <path class="cls-57" d="M1522.94,199.3a1.5,1.5,0,0,0,0-3,1.5,1.5,0,0,0,0,3h0Z"/>
        <path class="cls-57" d="M1386.44,160.9a1.5,1.5,0,0,0,0-3,1.5,1.5,0,0,0,0,3h0Z"/>
        <path class="cls-57" d="M1281.44,203a1.5,1.5,0,0,0,0-3,1.5,1.5,0,0,0,0,3h0Z"/>
        <path class="cls-57" d="M1222.94,321.8a1.5,1.5,0,0,0,0-3,1.5,1.5,0,0,0,0,3h0Z"/>
        <path class="cls-57" d="M1962.44,330.9a1.5,1.5,0,0,0,0-3,1.5,1.5,0,0,0,0,3h0Z"/>
        <path class="cls-57" d="M1786.94,109.7a1.5,1.5,0,0,0,0-3,1.5,1.5,0,0,0,0,3h0Z"/>
        <path class="cls-57" d="M1848.44,32.9a1.5,1.5,0,0,0,0-3,1.5,1.5,0,0,0,0,3h0Z"/>
      </g>
      <g>
        <path class="cls-57" d="M1456.44,131.7a1.5,1.5,0,0,0,0-3,1.5,1.5,0,0,0,0,3h0Z"/>
        <path class="cls-57" d="M1595.94,115.2a1.5,1.5,0,0,0,0-3,1.5,1.5,0,0,0,0,3h0Z"/>
        <path class="cls-57" d="M1516.44,332.8a1.5,1.5,0,0,0,0-3,1.5,1.5,0,0,0,0,3h0Z"/>
        <path class="cls-57" d="M1786.44,96.9a1.5,1.5,0,0,0,0-3,1.5,1.5,0,0,0,0,3h0Z"/>
        <path class="cls-57" d="M1865.94,363.8a1.5,1.5,0,0,0,0-3,1.5,1.5,0,0,0,0,3h0Z"/>
        <path class="cls-57" d="M2185.44,98.8a1.5,1.5,0,0,0,0-3,1.5,1.5,0,0,0,0,3h0Z"/>
        <path class="cls-57" d="M2408.94,411.4a1.5,1.5,0,0,0,0-3,1.5,1.5,0,0,0,0,3h0Z"/>
        <path class="cls-57" d="M2339.94,217.6a1.5,1.5,0,0,0,0-3,1.5,1.5,0,0,0,0,3h0Z"/>
        <path class="cls-57" d="M2201.94,329.1a1.5,1.5,0,0,0,0-3,1.5,1.5,0,0,0,0,3h0Z"/>
        <path class="cls-57" d="M2180.94,288.9a1.5,1.5,0,0,0,0-3,1.5,1.5,0,0,0,0,3h0Z"/>
        <path class="cls-57" d="M2095.44,360.2a1.5,1.5,0,0,0,0-3,1.5,1.5,0,0,0,0,3h0Z"/>
        <path class="cls-57" d="M1649.94,373a1.5,1.5,0,0,0,0-3,1.5,1.5,0,0,0,0,3h0Z"/>
        <path class="cls-57" d="M1649.94,279.7a1.5,1.5,0,0,0,0-3,1.5,1.5,0,0,0,0,3h0Z"/>
        <path class="cls-57" d="M1513.44,241.3a1.5,1.5,0,0,0,0-3,1.5,1.5,0,0,0,0,3h0Z"/>
        <path class="cls-57" d="M1408.44,283.4a1.5,1.5,0,0,0,0-3,1.5,1.5,0,0,0,0,3h0Z"/>
        <path class="cls-57" d="M1349.94,402.2a1.5,1.5,0,0,0,0-3,1.5,1.5,0,0,0,0,3h0Z"/>
        <path class="cls-57" d="M1427.94,96.9a1.5,1.5,0,0,0,0-3,1.5,1.5,0,0,0,0,3h0Z"/>
        <path class="cls-57" d="M2089.44,411.4a1.5,1.5,0,0,0,0-3,1.5,1.5,0,0,0,0,3h0Z"/>
        <path class="cls-57" d="M1913.94,190.2a1.5,1.5,0,0,0,0-3,1.5,1.5,0,0,0,0,3h0Z"/>
        <path class="cls-57" d="M1975.44,113.4a1.5,1.5,0,0,0,0-3,1.5,1.5,0,0,0,0,3h0Z"/>
      </g>
      <g>
        <path class="cls-57" d="M1431.44,59.8a1.5,1.5,0,0,0,0-3,1.5,1.5,0,0,0,0,3h0Z"/>
        <path class="cls-57" d="M1570.94,43.3a1.5,1.5,0,0,0,0-3,1.5,1.5,0,0,0,0,3h0Z"/>
        <path class="cls-57" d="M1491.44,260.8a1.5,1.5,0,0,0,0-3,1.5,1.5,0,0,0,0,3h0Z"/>
        <path class="cls-57" d="M1840.94,291.9a1.5,1.5,0,0,0,0-3,1.5,1.5,0,0,0,0,3h0Z"/>
        <path class="cls-57" d="M2383.94,339.5a1.5,1.5,0,0,0,0-3,1.5,1.5,0,0,0,0,3h0Z"/>
        <path class="cls-57" d="M2314.94,145.7a1.5,1.5,0,0,0,0-3,1.5,1.5,0,0,0,0,3h0Z"/>
        <path class="cls-57" d="M2176.94,257.2a1.5,1.5,0,0,0,0-3,1.5,1.5,0,0,0,0,3h0Z"/>
        <path class="cls-57" d="M2155.94,217a1.5,1.5,0,0,0,0-3,1.5,1.5,0,0,0,0,3h0Z"/>
        <path class="cls-57" d="M2070.44,288.3a1.5,1.5,0,0,0,0-3,1.5,1.5,0,0,0,0,3h0Z"/>
        <path class="cls-57" d="M1624.94,301.1a1.5,1.5,0,0,0,0-3,1.5,1.5,0,0,0,0,3h0Z"/>
        <path class="cls-57" d="M1624.94,207.8a1.5,1.5,0,0,0,0-3,1.5,1.5,0,0,0,0,3h0Z"/>
        <path class="cls-57" d="M1488.44,169.4a1.5,1.5,0,0,0,0-3,1.5,1.5,0,0,0,0,3h0Z"/>
        <path class="cls-57" d="M1383.44,211.5a1.5,1.5,0,0,0,0-3,1.5,1.5,0,0,0,0,3h0Z"/>
        <path class="cls-57" d="M1324.94,330.3a1.5,1.5,0,0,0,0-3,1.5,1.5,0,0,0,0,3h0Z"/>
        <path class="cls-57" d="M2064.44,339.5a1.5,1.5,0,0,0,0-3,1.5,1.5,0,0,0,0,3h0Z"/>
        <path class="cls-57" d="M1888.94,118.3a1.5,1.5,0,0,0,0-3,1.5,1.5,0,0,0,0,3h0Z"/>
        <path class="cls-57" d="M1950.44,41.5a1.5,1.5,0,0,0,0-3,1.5,1.5,0,0,0,0,3h0Z"/>
      </g>
      <g>
        <path class="cls-57" d="M1558.44,140.2a1.5,1.5,0,0,0,0-3,1.5,1.5,0,0,0,0,3h0Z"/>
        <path class="cls-57" d="M1697.94,123.7a1.5,1.5,0,0,0,0-3,1.5,1.5,0,0,0,0,3h0Z"/>
        <path class="cls-57" d="M1618.44,341.3a1.5,1.5,0,0,0,0-3,1.5,1.5,0,0,0,0,3h0Z"/>
        <path class="cls-57" d="M1888.44,105.5a1.5,1.5,0,0,0,0-3,1.5,1.5,0,0,0,0,3h0Z"/>
        <path class="cls-57" d="M1967.94,372.4a1.5,1.5,0,0,0,0-3,1.5,1.5,0,0,0,0,3h0Z"/>
        <path class="cls-57" d="M2287.44,107.3a1.5,1.5,0,0,0,0-3,1.5,1.5,0,0,0,0,3h0Z"/>
        <path class="cls-57" d="M2303.94,337.6a1.5,1.5,0,0,0,0-3,1.5,1.5,0,0,0,0,3h0Z"/>
        <path class="cls-57" d="M2282.94,297.4a1.5,1.5,0,0,0,0-3,1.5,1.5,0,0,0,0,3h0Z"/>
        <path class="cls-57" d="M2197.44,368.7a1.5,1.5,0,0,0,0-3,1.5,1.5,0,0,0,0,3h0Z"/>
        <path class="cls-57" d="M1751.94,381.5a1.5,1.5,0,0,0,0-3,1.5,1.5,0,0,0,0,3h0Z"/>
        <path class="cls-57" d="M1751.94,288.3a1.5,1.5,0,0,0,0-3,1.5,1.5,0,0,0,0,3h0Z"/>
        <path class="cls-57" d="M1615.44,249.9a1.5,1.5,0,0,0,0-3,1.5,1.5,0,0,0,0,3h0Z"/>
        <path class="cls-57" d="M1510.44,291.9a1.5,1.5,0,0,0,0-3,1.5,1.5,0,0,0,0,3h0Z"/>
        <path class="cls-57" d="M1451.94,410.8a1.5,1.5,0,0,0,0-3,1.5,1.5,0,0,0,0,3h0Z"/>
        <path class="cls-57" d="M1529.94,105.5a1.5,1.5,0,0,0,0-3,1.5,1.5,0,0,0,0,3h0Z"/>
        <path class="cls-57" d="M2015.94,198.7a1.5,1.5,0,0,0,0-3,1.5,1.5,0,0,0,0,3h0Z"/>
        <path class="cls-57" d="M2077.44,121.9a1.5,1.5,0,0,0,0-3,1.5,1.5,0,0,0,0,3h0Z"/>
      </g>
    </g>
    <g>
      <g>
        <path class="cls-57" d="M1223.44,282.8a1.5,1.5,0,0,0,0-3,1.5,1.5,0,0,0,0,3h0Z"/>
        <path class="cls-57" d="M1362.94,266.3a1.5,1.5,0,0,0,0-3,1.5,1.5,0,0,0,0,3h0Z"/>
        <path class="cls-57" d="M1283.44,483.9a1.5,1.5,0,0,0,0-3,1.5,1.5,0,0,0,0,3h0Z"/>
        <path class="cls-57" d="M1553.44,248.1a1.5,1.5,0,0,0,0-3,1.5,1.5,0,0,0,0,3h0Z"/>
        <path class="cls-57" d="M1632.94,515a1.5,1.5,0,0,0,0-3,1.5,1.5,0,0,0,0,3h0Z"/>
        <path class="cls-57" d="M1952.44,249.9a1.5,1.5,0,0,0,0-3,1.5,1.5,0,1,0,0,3h0Z"/>
        <path class="cls-57" d="M2175.94,562.5a1.5,1.5,0,0,0,0-3,1.5,1.5,0,0,0,0,3h0Z"/>
        <path class="cls-57" d="M2267.44,387a1.5,1.5,0,0,0,0-3,1.5,1.5,0,0,0,0,3h0Z"/>
        <path class="cls-57" d="M2234.44,293.8a1.5,1.5,0,0,0,0-3,1.5,1.5,0,0,0,0,3h0Z"/>
        <path class="cls-57" d="M2106.94,368.7a1.5,1.5,0,0,0,0-3,1.5,1.5,0,0,0,0,3h0Z"/>
        <path class="cls-57" d="M1968.94,480.2a1.5,1.5,0,0,0,0-3,1.5,1.5,0,1,0,0,3h0Z"/>
        <path class="cls-57" d="M1947.94,440a1.5,1.5,0,0,0,0-3,1.5,1.5,0,1,0,0,3h0Z"/>
        <path class="cls-57" d="M1862.44,511.3a1.5,1.5,0,0,0,0-3,1.5,1.5,0,0,0,0,3h0Z"/>
        <path class="cls-57" d="M1416.94,524.1a1.5,1.5,0,0,0,0-3,1.5,1.5,0,0,0,0,3h0Z"/>
        <path class="cls-57" d="M1416.94,430.9a1.5,1.5,0,0,0,0-3,1.5,1.5,0,0,0,0,3h0Z"/>
        <path class="cls-57" d="M1280.44,392.5a1.5,1.5,0,0,0,0-3,1.5,1.5,0,0,0,0,3h0Z"/>
        <path class="cls-57" d="M1175.44,434.5a1.5,1.5,0,0,0,0-3,1.5,1.5,0,0,0,0,3h0Z"/>
        <path class="cls-57" d="M1194.94,248.1a1.5,1.5,0,0,0,0-3,1.5,1.5,0,0,0,0,3h0Z"/>
        <path class="cls-57" d="M1856.44,562.5a1.5,1.5,0,0,0,0-3,1.5,1.5,0,0,0,0,3h0Z"/>
        <path class="cls-57" d="M1680.94,341.3a1.5,1.5,0,0,0,0-3,1.5,1.5,0,0,0,0,3h0Z"/>
        <path class="cls-57" d="M1742.44,264.5a1.5,1.5,0,0,0,0-3,1.5,1.5,0,0,0,0,3h0Z"/>
      </g>
      <g>
        <path class="cls-57" d="M1350.44,363.2a1.5,1.5,0,0,0,0-3,1.5,1.5,0,0,0,0,3h0Z"/>
        <path class="cls-57" d="M1489.94,346.8a1.5,1.5,0,0,0,0-3,1.5,1.5,0,0,0,0,3h0Z"/>
        <path class="cls-57" d="M1410.44,564.3a1.5,1.5,0,0,0,0-3,1.5,1.5,0,0,0,0,3h0Z"/>
        <path class="cls-57" d="M1680.44,328.5a1.5,1.5,0,0,0,0-3,1.5,1.5,0,0,0,0,3h0Z"/>
        <path class="cls-57" d="M1759.94,595.4a1.5,1.5,0,0,0,0-3,1.5,1.5,0,0,0,0,3h0Z"/>
        <path class="cls-57" d="M2079.44,330.3a1.5,1.5,0,0,0,0-3,1.5,1.5,0,0,0,0,3h0Z"/>
        <path class="cls-57" d="M2302.94,642.9a1.5,1.5,0,0,0,0-3,1.5,1.5,0,0,0,0,3h0Z"/>
        <path class="cls-57" d="M2394.44,467.4a1.5,1.5,0,0,0,0-3,1.5,1.5,0,0,0,0,3h0Z"/>
        <path class="cls-57" d="M2361.44,374.2a1.5,1.5,0,0,0,0-3,1.5,1.5,0,0,0,0,3h0Z"/>
        <path class="cls-57" d="M2233.94,449.2a1.5,1.5,0,0,0,0-3,1.5,1.5,0,0,0,0,3h0Z"/>
        <path class="cls-57" d="M2095.94,560.7a1.5,1.5,0,0,0,0-3,1.5,1.5,0,0,0,0,3h0Z"/>
        <path class="cls-57" d="M2074.94,520.5a1.5,1.5,0,0,0,0-3,1.5,1.5,0,0,0,0,3h0Z"/>
        <path class="cls-57" d="M1989.44,591.8a1.5,1.5,0,0,0,0-3,1.5,1.5,0,0,0,0,3h0Z"/>
        <path class="cls-57" d="M1543.94,604.5a1.5,1.5,0,0,0,0-3,1.5,1.5,0,0,0,0,3h0Z"/>
        <path class="cls-57" d="M1543.94,511.3a1.5,1.5,0,0,0,0-3,1.5,1.5,0,0,0,0,3h0Z"/>
        <path class="cls-57" d="M1407.44,472.9a1.5,1.5,0,0,0,0-3,1.5,1.5,0,0,0,0,3h0Z"/>
        <path class="cls-57" d="M1302.44,515a1.5,1.5,0,0,0,0-3,1.5,1.5,0,0,0,0,3h0Z"/>
        <path class="cls-57" d="M1243.94,633.8a1.5,1.5,0,0,0,0-3,1.5,1.5,0,0,0,0,3h0Z"/>
        <path class="cls-57" d="M1321.94,328.5a1.5,1.5,0,0,0,0-3,1.5,1.5,0,0,0,0,3h0Z"/>
        <path class="cls-57" d="M1983.44,642.9a1.5,1.5,0,0,0,0-3,1.5,1.5,0,0,0,0,3h0Z"/>
        <path class="cls-57" d="M1807.94,421.7a1.5,1.5,0,0,0,0-3,1.5,1.5,0,0,0,0,3h0Z"/>
        <path class="cls-57" d="M1869.44,345a1.5,1.5,0,0,0,0-3,1.5,1.5,0,0,0,0,3h0Z"/>
      </g>
      <g>
        <path class="cls-57" d="M1325.44,291.3a1.5,1.5,0,0,0,0-3,1.5,1.5,0,0,0,0,3h0Z"/>
        <path class="cls-57" d="M1464.94,274.9a1.5,1.5,0,0,0,0-3,1.5,1.5,0,0,0,0,3h0Z"/>
        <path class="cls-57" d="M1385.44,492.4a1.5,1.5,0,0,0,0-3,1.5,1.5,0,0,0,0,3h0Z"/>
        <path class="cls-57" d="M1655.44,256.6a1.5,1.5,0,0,0,0-3,1.5,1.5,0,0,0,0,3h0Z"/>
        <path class="cls-57" d="M1734.94,523.5a1.5,1.5,0,0,0,0-3,1.5,1.5,0,0,0,0,3h0Z"/>
        <path class="cls-57" d="M2054.44,258.4a1.5,1.5,0,0,0,0-3,1.5,1.5,0,1,0,0,3h0Z"/>
        <path class="cls-57" d="M2277.94,571a1.5,1.5,0,0,0,0-3,1.5,1.5,0,0,0,0,3h0Z"/>
        <path class="cls-57" d="M2369.44,395.5a1.5,1.5,0,0,0,0-3,1.5,1.5,0,0,0,0,3h0Z"/>
        <path class="cls-57" d="M2336.44,302.3a1.5,1.5,0,0,0,0-3,1.5,1.5,0,0,0,0,3h0Z"/>
        <path class="cls-57" d="M2208.94,377.2a1.5,1.5,0,0,0,0-3,1.5,1.5,0,0,0,0,3h0Z"/>
        <path class="cls-57" d="M2070.94,488.8a1.5,1.5,0,0,0,0-3,1.5,1.5,0,0,0,0,3h0Z"/>
        <path class="cls-57" d="M2049.94,448.5a1.5,1.5,0,0,0,0-3,1.5,1.5,0,0,0,0,3h0Z"/>
        <path class="cls-57" d="M1964.44,519.8a1.5,1.5,0,0,0,0-3,1.5,1.5,0,0,0,0,3h0Z"/>
        <path class="cls-57" d="M1518.94,532.6a1.5,1.5,0,0,0,0-3,1.5,1.5,0,0,0,0,3h0Z"/>
        <path class="cls-57" d="M1518.94,439.4a1.5,1.5,0,0,0,0-3,1.5,1.5,0,0,0,0,3h0Z"/>
        <path class="cls-57" d="M1382.44,401a1.5,1.5,0,0,0,0-3,1.5,1.5,0,0,0,0,3h0Z"/>
        <path class="cls-57" d="M1277.44,443.1a1.5,1.5,0,0,0,0-3,1.5,1.5,0,0,0,0,3h0Z"/>
        <path class="cls-57" d="M1218.94,561.9a1.5,1.5,0,0,0,0-3,1.5,1.5,0,0,0,0,3h0Z"/>
        <path class="cls-57" d="M1296.94,256.6a1.5,1.5,0,0,0,0-3,1.5,1.5,0,0,0,0,3h0Z"/>
        <path class="cls-57" d="M1958.44,571a1.5,1.5,0,0,0,0-3,1.5,1.5,0,0,0,0,3h0Z"/>
        <path class="cls-57" d="M1782.94,349.8a1.5,1.5,0,0,0,0-3,1.5,1.5,0,0,0,0,3h0Z"/>
        <path class="cls-57" d="M1844.44,273a1.5,1.5,0,0,0,0-3,1.5,1.5,0,0,0,0,3h0Z"/>
      </g>
      <g>
        <path class="cls-57" d="M1452.44,371.8a1.5,1.5,0,0,0,0-3,1.5,1.5,0,0,0,0,3h0Z"/>
        <path class="cls-57" d="M1591.94,355.3a1.5,1.5,0,0,0,0-3,1.5,1.5,0,0,0,0,3h0Z"/>
        <path class="cls-57" d="M1512.44,572.9a1.5,1.5,0,0,0,0-3,1.5,1.5,0,0,0,0,3h0Z"/>
        <path class="cls-57" d="M1782.44,337a1.5,1.5,0,0,0,0-3,1.5,1.5,0,0,0,0,3h0Z"/>
        <path class="cls-57" d="M1861.94,603.9a1.5,1.5,0,0,0,0-3,1.5,1.5,0,0,0,0,3h0Z"/>
        <path class="cls-57" d="M2181.44,338.9a1.5,1.5,0,0,0,0-3,1.5,1.5,0,0,0,0,3h0Z"/>
        <path class="cls-57" d="M2404.94,651.5a1.5,1.5,0,0,0,0-3,1.5,1.5,0,0,0,0,3h0Z"/>
        <path class="cls-57" d="M2335.94,457.7a1.5,1.5,0,0,0,0-3,1.5,1.5,0,0,0,0,3h0Z"/>
        <path class="cls-57" d="M2197.94,569.2a1.5,1.5,0,0,0,0-3,1.5,1.5,0,0,0,0,3h0Z"/>
        <path class="cls-57" d="M2176.94,529a1.5,1.5,0,0,0,0-3,1.5,1.5,0,0,0,0,3h0Z"/>
        <path class="cls-57" d="M2091.44,600.3a1.5,1.5,0,0,0,0-3,1.5,1.5,0,0,0,0,3h0Z"/>
        <path class="cls-57" d="M1645.94,613.1a1.5,1.5,0,0,0,0-3,1.5,1.5,0,0,0,0,3h0Z"/>
        <path class="cls-57" d="M1645.94,519.8a1.5,1.5,0,0,0,0-3,1.5,1.5,0,0,0,0,3h0Z"/>
        <path class="cls-57" d="M1509.44,481.5a1.5,1.5,0,0,0,0-3,1.5,1.5,0,0,0,0,3h0Z"/>
        <path class="cls-57" d="M1404.44,523.5a1.5,1.5,0,0,0,0-3,1.5,1.5,0,0,0,0,3h0Z"/>
        <path class="cls-57" d="M1345.94,642.3a1.5,1.5,0,0,0,0-3,1.5,1.5,0,0,0,0,3h0Z"/>
        <path class="cls-57" d="M1423.94,337a1.5,1.5,0,0,0,0-3,1.5,1.5,0,0,0,0,3h0Z"/>
        <path class="cls-57" d="M2085.44,651.5a1.5,1.5,0,0,0,0-3,1.5,1.5,0,0,0,0,3h0Z"/>
        <path class="cls-57" d="M1909.94,430.3a1.5,1.5,0,0,0,0-3,1.5,1.5,0,0,0,0,3h0Z"/>
        <path class="cls-57" d="M1971.44,353.5a1.5,1.5,0,0,0,0-3,1.5,1.5,0,0,0,0,3h0Z"/>
      </g>
    </g>
  </g>
</svg>
