<svg id="Layer_1" data-name="Layer 1" xmlns="http://www.w3.org/2000/svg" xmlns:xlink="http://www.w3.org/1999/xlink" viewBox="0 0 1280 800"><defs><style>.cls-1{fill:#80b5d3;}.cls-2{fill:#fff5e8;}.cls-3{fill:url(#linear-gradient);}.cls-4{fill:url(#radial-gradient);}.cls-5{fill:#fffdfb;}.cls-6{fill:#ffe9ce;}.cls-7{fill:url(#linear-gradient-2);}.cls-8{fill:url(#linear-gradient-3);}.cls-9{fill:#bfaf9b;}.cls-10{fill:#ffe7c9;}.cls-11{fill:#806664;}.cls-12{opacity:0.5;}</style><linearGradient id="linear-gradient" x1="564.24" y1="812.24" x2="728.25" y2="154.45" gradientUnits="userSpaceOnUse"><stop offset="0" stop-color="#fff5e8" stop-opacity="0"/><stop offset="0.07" stop-color="#fff5e8" stop-opacity="0.01"/><stop offset="0.13" stop-color="#fff5e8" stop-opacity="0.05"/><stop offset="0.18" stop-color="#fff5e8" stop-opacity="0.12"/><stop offset="0.23" stop-color="#fff5e8" stop-opacity="0.22"/><stop offset="0.28" stop-color="#fff5e8" stop-opacity="0.35"/><stop offset="0.33" stop-color="#fff5e8" stop-opacity="0.5"/><stop offset="0.38" stop-color="#fff5e8" stop-opacity="0.69"/><stop offset="0.43" stop-color="#fff5e8" stop-opacity="0.9"/><stop offset="0.45" stop-color="#fff5e8"/><stop offset="0.68" stop-color="#fff4e5"/><stop offset="0.87" stop-color="#ffefdb"/><stop offset="1" stop-color="#ffeacf"/></linearGradient><radialGradient id="radial-gradient" cx="111.25" cy="26.3" r="497.33" gradientTransform="matrix(1, 0.07, -0.01, 0.13, 0.33, -101.68)" gradientUnits="userSpaceOnUse"><stop offset="0" stop-color="#80b5d3"/><stop offset="0.57" stop-color="#bbba9f" stop-opacity="0.42"/><stop offset="1" stop-color="#e6be7a" stop-opacity="0"/></radialGradient><linearGradient id="linear-gradient-2" x1="675.43" y1="711.93" x2="689.92" y2="546.29" gradientTransform="translate(71.2 -80.38) rotate(7.41)" gradientUnits="userSpaceOnUse"><stop offset="0" stop-color="#fff"/><stop offset="0.1" stop-color="#fffdfb" stop-opacity="0.82"/><stop offset="0.33" stop-color="#fff9f0" stop-opacity="0.35"/><stop offset="0.49" stop-color="#fff5e8" stop-opacity="0"/></linearGradient><linearGradient id="linear-gradient-3" x1="776.85" y1="557.96" x2="786.09" y2="425.76" gradientTransform="matrix(0.99, 0.16, -0.16, 0.99, 84.74, -103.56)" xlink:href="#linear-gradient-2"/></defs><title>page</title><path class="cls-1" d="M-69,857.91l42-499s432-19.52,538,8.36,790,61.34,814,55.76,16,460,16,460Z"/><path class="cls-2" d="M1316.5,226.27s-149.61-26.11-241.43-23.5c-41.61,1.19-165,39-292.49,23.5-197.47-24-795.71,0-795.71,0V-14.5H1316.5V226.27Z"/><path class="cls-3" d="M-64.38,318S101.4,329.39,155.5,328.5c166.61-2.73,252.1-32.73,399.09-31.23C760.07,299.37,1304,298,1304,298l21.56,476.25L-142,636.16Z"/><path class="cls-4" d="M807-82.94S-481-219-553.78-219c-36.37,0-47.09,139.84,4.87,143.62C-445-67.82,807,38,807,38V-82.94Z"/><path class="cls-5" d="M785,354c-145.42,14.77-198.38-31.56-197.67-28.67,13.25,53.93,127.13,49,155.67,46.67C782.07,368.77,786.44,353.85,785,354Z"/><path class="cls-5" d="M1235,456c-161,51-198.57-31.51-197.67-28.67C1064,511,1164.46,476.36,1193,474,1232.07,470.77,1236.38,455.56,1235,456Z"/><path class="cls-6" d="M1158.33,297.79s-13.73-25-15.63-26.54-10.21,2.87-10.21,2.87l-11.84-2.9-6.92-16.75-21.6,8.5-5.28-6L1074,268.87l-9.52-7.71-14.94-11.61-17.43,5.94-12-.08-27.32-1.08-17.38,5.24-11.3,4.22-11.55-2.18-24,14-14.22-7.31-23.19-2.94-15,10.35-5-5.29L850.58,284,831,297.57S1083.53,312.73,1158.33,297.79Z"/><path class="cls-6" d="M718.83,279.33l-3.42-5.17-9.08-.17H693l-11.67-1.67-5.33-4L664,267l-8.67-1.67L649,262l-6-2.17L626,260h-5l-4.33-2.67-7-3.33-9-2.67-5.33-3L581.67,252,568,255.33l-14.33.67-20.33.67-11,.33-10-.33-12,2.67-9.33-.67-15.33-1.33-11,2-13.67,5-1.36.35c-13.54-1.63-27-2.59-36.64-3.55-20-2-20-19.87-34-19.87S297,256,273,256H241c-6,0-24,7.63-40,15.63s-49.33,1-49.33,1L140.33,278C164,285,334,283.71,427.9,279.59,488.61,280.5,696.52,283.31,718.83,279.33Z"/><path class="cls-5" d="M376,337.33s-26.5,4.67-67.33,2c-23.62-1.54-58.67-14-67.33-7.33S200,335.33,196,340.67s-16.67,8-16.67,8,37.33-2.67,43.33-1.33S339.33,357.33,376,337.33Z"/><path class="cls-7" d="M1337.7,773.78s-381-8.59-561.11-38.1c-246.29-40.35-533.21-119.59-536.75-150-1.43-12.29,16.7-21.29,16.7-21.29S-0.91,547.68-10.88,531.26,42.7,496.55,164.67,512.4c0,0-101.88,11.26,148.3,34.4C434,558,1348.66,696.28,1348.66,696.28Z"/><path class="cls-8" d="M1425.33,674.2s-446.29-63-533.41-78.69S336.52,482.05,334,451.57c-1-12.32-209.75-34-219.19-50.75s3.24-48.1,124.65-28.4c0,0-80.47,11.56,168.85,42.59,120.65,15,1040.65,181.71,1040.65,181.71Z"/><path class="cls-6" d="M577.58,225.75l-8-1.21L566.33,219H548l-11.67-1.33-11,1.33-9.67,1.33-14-1.33-12-1.67L478,218.67l-5,4.67-12.33,6.33L458,232.33s95.67,1,123.83-3.17Z"/><path class="cls-6" d="M435.67,231l-2.33-4.67L423.67,229s-8,2.67-10.67-.67-6-13-12-14-38.1-8.6-67,10.67c-7,4.67-14-7-26,9.33,0,0,91.33,4.5,151.33-1.83L441,232.33Z"/><path class="cls-6" d="M256.33,235.33s-4-16-10-16-15,1-22.67-1.67-15.67-5-25.33-3.67-22.33,8-32.67,8.67-16.33,2.67-21.33,5.33S138,233.33,129,233.33,104.67,233,102.67,233s-16.33,2.67-20.33,4.67-17.33,7-17.33,7S237.67,240,256.33,235.33Z"/><path class="cls-5" d="M658.09,441.26c-1.4-.16,208.49,36.23,261-1.5,32-23,103.73-13.39,101.26-14.43C965,402,744.09,451.26,658.09,441.26Z"/><path class="cls-5" d="M1258.94,358c-53.73-18.56-157.15-4.67-186.17,3-87.1,23-114.08-10-115.11-9.67C883.58,373,802.51,348,802.51,348c37.75,35.42,80.4,46.75,124,47,79.53,0.41,161.88-28.45,224.31-31,99.09-4,172.66,32,177.17,32A240.54,240.54,0,0,0,1258.94,358Z"/><path class="cls-9" d="M471.88,301.13s20.63,25.75,19.88,37,6.25-.75,6.25-0.75l0.63-8.75S499.88,317.38,471.88,301.13Z"/><polygon class="cls-10" points="493.69 342.63 490.88 345.25 490.31 346.19 488.19 346.75 487.94 346.25 489.63 345.38 493 342.5 493.69 342.63"/><polygon class="cls-10" points="489.88 343.53 488.41 345.2 487.2 345.6 486.57 346.33 485.75 346.1 486.5 345 488 345 489.06 343.06 489.94 342.88 489.88 343.53"/><path class="cls-11" d="M505.25,310.38S500,335,495.5,336.5s-8,4.13-9.75,3.38-3.87-1.75-3.87-1.75-2,6.5,1.13,5.75,4,0.13,4,.13a45.32,45.32,0,0,1,6.75-1.12c2,0,12.25-2.87,14.75-3.12a35.75,35.75,0,0,1,6.38.25s-1.37-2-2.5-2-0.62-1-1.5-1.62-3.62.38-4.62-1.62,0.5-6.12,3.13-8.25,3.75-5,2.88-8.87-5.62-7.37-6.12-8.87S505.25,310.38,505.25,310.38Z"/><g class="cls-12"><path class="cls-10" d="M470.88,586.62s20.63-20,19.88-28.68,6.25,0.58,6.25.58l0.63,6.78S498.88,574,470.88,586.62Z"/><polygon class="cls-10" points="492.69 554.45 489.88 552.41 489.31 551.69 487.19 551.25 486.94 551.64 488.63 552.32 492 554.55 492.69 554.45"/><polygon class="cls-10" points="488.88 553.75 487.41 552.45 486.2 552.14 485.57 551.58 484.75 551.95 485.5 553 487 553 488.06 554.31 488.94 554.35 488.88 553.75"/><path class="cls-11" d="M504.25,579.45S499,560.36,494.5,559.2s-8-3.2-9.75-2.62-3.87,1.36-3.87,1.36-2-5,1.13-4.46,4-.1,4-0.1a57.42,57.42,0,0,0,6.75.87c2,0,12.25,2.23,14.75,2.42s2.25,1.07,3.13.68a24.47,24.47,0,0,1,3.25-.87s-1.37,1.55-2.5,1.55-0.62.78-1.5,1.26-3.62-.29-4.62,1.26,0.5,4.75,3.13,6.4,3.75,3.88,2.88,6.88-5.62,5.72-6.12,6.88S504.25,579.45,504.25,579.45Z"/></g><path class="cls-2" d="M1284.74,295.33c-6.09,0-24-2-24-2s-14.88,0-21,1.66c-3.91,1.07-115.3,1-143.7-7s-64.92-15.93-77.09-11.95S996.65,290,996.65,290l-4.3,5.27c-13.18.94-33.51,1.42-41,.7-10.48-1-8.45.66-15.89,2s-75.06,1-86.22,1-23.33-2.32-27-3.65-11.16,5-11.16,5c-4.73,6.31.68,8.63,9.47,11.95s53.42,1,68.64.66,58.16-8,68.3-9.63,20.29,4.32,30.77,4a34.85,34.85,0,0,0,5.1-.59c4.9,4.75,14.2,9.71,30.74,6.23,6.47-1.36,14.68-2.68,23.71-3.91,2,1.51,5.2,2.78,9.08,4.24,8.79,3.32,53.42,1,68.64.66s58.16-8,68.3-9.63,20.29,4.32,30.77,4,24-7,31.11-9.29,19.95-.66,25,0.66,22.65-5.31,22.65-5.31S1290.82,295.33,1284.74,295.33Z"/></svg>