<svg id="bg-middle" xmlns="http://www.w3.org/2000/svg" xmlns:xlink="http://www.w3.org/1999/xlink" viewBox="0 0 16356.98 800">
  <defs>
    <style>
      .cls-1 {
        fill: #2c303d;
      }

      .cls-2 {
        fill: none;
      }

      .cls-3 {
        fill: url(#linear-gradient);
      }

      .cls-4 {
        fill: url(#linear-gradient-2);
      }

      .cls-5 {
        fill: url(#linear-gradient-3);
      }

      .cls-6 {
        fill: #c28283;
      }

      .cls-7 {
        fill: url(#linear-gradient-4);
      }

      .cls-8 {
        fill: url(#linear-gradient-5);
      }

      .cls-9 {
        fill: url(#linear-gradient-6);
      }

      .cls-10 {
        fill: #1f585c;
        opacity: 0.3;
        isolation: isolate;
      }

      .cls-11 {
        fill: url(#linear-gradient-7);
      }

      .cls-12 {
        fill: url(#linear-gradient-8);
      }

      .cls-13 {
        fill: url(#linear-gradient-9);
      }

      .cls-14 {
        fill: url(#linear-gradient-10);
      }
    </style>
    <linearGradient id="linear-gradient" x1="12387.36" y1="600.35" x2="12612.16" y2="600.35" gradientUnits="userSpaceOnUse">
      <stop offset="0" stop-color="#3e414d"/>
      <stop offset="0.15" stop-color="#5a4f58"/>
      <stop offset="0.42" stop-color="#87656b"/>
      <stop offset="0.66" stop-color="#a77578"/>
      <stop offset="0.86" stop-color="#bb7e80"/>
      <stop offset="1" stop-color="#c28283"/>
    </linearGradient>
    <linearGradient id="linear-gradient-2" x1="12980.16" y1="354.5" x2="13373.56" y2="354.5" xlink:href="#linear-gradient"/>
    <linearGradient id="linear-gradient-3" x1="13423.06" y1="562.89" x2="13848.59" y2="562.89" gradientUnits="userSpaceOnUse">
      <stop offset="0" stop-color="#3e414d"/>
      <stop offset="0.05" stop-color="#4f4954"/>
      <stop offset="0.18" stop-color="#725b62"/>
      <stop offset="0.31" stop-color="#8f696e"/>
      <stop offset="0.45" stop-color="#a67477"/>
      <stop offset="0.6" stop-color="#b67c7e"/>
      <stop offset="0.77" stop-color="#bf8182"/>
      <stop offset="1" stop-color="#c28283"/>
    </linearGradient>
    <linearGradient id="linear-gradient-4" x1="12612.16" y1="532.23" x2="13059.16" y2="532.23" xlink:href="#linear-gradient"/>
    <linearGradient id="linear-gradient-5" x1="8546.04" y1="273.11" x2="10762.26" y2="273.11" gradientUnits="userSpaceOnUse">
      <stop offset="0.4" stop-color="#6d645d"/>
      <stop offset="0.51" stop-color="#55605d"/>
      <stop offset="0.69" stop-color="#22585c"/>
    </linearGradient>
    <linearGradient id="linear-gradient-6" x1="11119.22" y1="328.4" x2="11119.22" y2="-57.31" gradientTransform="matrix(1, 0, 0, -1, 0, 800)" gradientUnits="userSpaceOnUse">
      <stop offset="0" stop-color="#1f585c"/>
      <stop offset="0.55" stop-color="#31917e"/>
      <stop offset="0.98" stop-color="#51f4b7"/>
    </linearGradient>
    <linearGradient id="linear-gradient-7" x1="14428.36" y1="-7.49" x2="14428.36" y2="868.31" gradientUnits="userSpaceOnUse">
      <stop offset="0" stop-color="#081648"/>
      <stop offset="0.1" stop-color="#20356c"/>
      <stop offset="0.21" stop-color="#35508c"/>
      <stop offset="0.3" stop-color="#4160a0"/>
      <stop offset="0.37" stop-color="#4666a7"/>
      <stop offset="0.41" stop-color="#5571aa"/>
      <stop offset="0.49" stop-color="#7b8db3"/>
      <stop offset="0.6" stop-color="#b8bbc1"/>
      <stop offset="0.67" stop-color="#e2daca"/>
      <stop offset="0.7" stop-color="#e1d8c7"/>
      <stop offset="0.73" stop-color="#ded2bc"/>
      <stop offset="0.75" stop-color="#dac8aa"/>
      <stop offset="0.77" stop-color="#d4ba91"/>
      <stop offset="0.79" stop-color="#cead7a"/>
      <stop offset="0.79" stop-color="#a08968"/>
      <stop offset="0.8" stop-color="#766957"/>
      <stop offset="0.81" stop-color="#534e49"/>
      <stop offset="0.81" stop-color="#383a3f"/>
      <stop offset="0.82" stop-color="#242b37"/>
      <stop offset="0.83" stop-color="#192232"/>
      <stop offset="0.84" stop-color="#151f31"/>
      <stop offset="0.84" stop-color="#162133"/>
      <stop offset="0.85" stop-color="#24314a"/>
      <stop offset="0.86" stop-color="#2e3d5a"/>
      <stop offset="0.87" stop-color="#344463"/>
      <stop offset="0.89" stop-color="#364666"/>
      <stop offset="0.91" stop-color="#2b3a56"/>
      <stop offset="0.98" stop-color="#111c2f"/>
    </linearGradient>
    <linearGradient id="linear-gradient-8" x1="14594.38" y1="-7.59" x2="14594.38" y2="868.21" xlink:href="#linear-gradient-7"/>
    <linearGradient id="linear-gradient-9" x1="14026.85" y1="763.86" x2="15411.86" y2="763.86" gradientUnits="userSpaceOnUse">
      <stop offset="0.82" stop-color="#fff" stop-opacity="0.1"/>
      <stop offset="1" stop-color="#fff" stop-opacity="0"/>
    </linearGradient>
    <linearGradient id="linear-gradient-10" x1="2134.43" y1="164.5" x2="2356.65" y2="164.5" gradientUnits="userSpaceOnUse">
      <stop offset="0" stop-color="#fff" stop-opacity="0"/>
      <stop offset="1" stop-color="#fff"/>
    </linearGradient>
  </defs>
  <title>layer2</title>
  <g>
    <path class="cls-1" d="M13701.46,588.2c-39.3-35.6-218.7-161.6-218.7-161.6l-8.7-7.5-47.4-26.4-2-1.1-33.3,17.8-18,17.8c-52-34.1-126.8-124.9-130.3-129.3-2.2-2.8-13.9-20-23.2-33.6-5.2-7.7-23.2-23.9-24.1-24.2a0.44,0.44,0,0,1-.3-0.1l-13.71-18.17c-1.8,0-4.47.93-8.67-1.17-16.9-8.5-52.52-38.77-58.92-45-8-7.8-39-48.9-42-53.4s-8,1.1-8,1.1-7-12.2-11-12.2a17.6,17.6,0,0,0-4.9,1.1,72.73,72.73,0,0,0-8.1,3.4l-84,101.1s-32,24.5-37,31.1-32,40-32,40-16-3.3-24-4.4a6.16,6.16,0,0,0-2.3.2c-9.1,2.2-26.9,20.3-29.7,25.4-3,5.6-84,43.4-88,46.7s-4,13.3-5,17.8-4,2.2-8,0c-3.8-2.1-17.5,17.9-18.9,19.8a0.31,0.31,0,0,0-.1.2,71.87,71.87,0,0,0-9-13.3c-5-5.5-25-4.4-29-6.7a2.48,2.48,0,0,0-1.6.4c-13.4,6.1-103.8,77.9-109.5,85.2-6,7.8-74.1,26.7-85.1,32.3-5,2.5-18,9.6-30.8,16.6-15.4,8.5-30.6,16.8-30.6,16.8l-27.4,13.1-49.2,27.6-9.29,17.48-201,100.49,445.09,30.22h699.4L13466,731.23h67.7l167.77-17.43S13740.86,623.7,13701.46,588.2Zm-784.3-43.5a10.38,10.38,0,0,0-1-.4A10.36,10.36,0,0,1,12917.16,544.7Zm-1.2-.5c-0.4-.2-0.7-0.3-1.1-0.5A11.78,11.78,0,0,1,12916,544.2Zm-1.4-.6c-0.4-.2-0.7-0.3-1.1-0.5A11.68,11.68,0,0,1,12914.56,543.6Zm-4.8-2.1h0Zm-6.5-2.9h0Zm-2.4-1.1h0Zm-5.3-2.3a0.1,0.1,0,0,1-.1-0.1Zm-2.8-1.3a0.1,0.1,0,0,1-.1-0.1Zm-5.8-2.6a0.1,0.1,0,0,1-.1-0.1A0.1,0.1,0,0,1,12887,531.3Zm-3-1.4a0.35,0.35,0,0,1-.2-0.1A0.31,0.31,0,0,1,12884,529.9Z"/>
    <polygon class="cls-2" points="12366.16 734.8 12552.76 734.8 12366.16 596.2 12366.16 734.8"/>
    <path class="cls-3" d="M12417.06,523.7l-29.71,14.91,1.81,36.39,223,118.8-164.3-186.9Z"/>
    <path class="cls-4" d="M13078.86,166.4c6,8.2,16,30.4,16,30.4s-18.7-14.1-28-15.6-24-3-24-3,42.7,99.3,50.7,111.9,44,50.4,48.7,54.8,4.7,11.9,4.7,11.9-7.3-5.2-19.3-6.7-20-4.4-24.7-8.9-20-18.5-20-18.5,10.7,35.6,9.3,41.5-2,9.6,4,26.7,4.7,25.9,5.3,35.6,8,34.1,8,34.1l-70.7-70.4s-10-4.4-14-8.9-22.7-31.9-26-37.8-18.7-19.3-18.7-19.3,8,23,7.3,27.4,8,15.6,8,15.6-6-.7-5.3,5.2,15.3,37.8,15.3,37.8,2.7,59.3,4.7,69.7,6,49.7,6,49.7l52.7,68.2s32.7-27.4,44.7-28.2,57.3-5.9,64.7-11.1,66-42.2,75.3-43.7,28.7-6.7,36-12.6,84-74.9,84-74.9c-52-34.1-126.8-124.9-130.3-129.3-2.2-2.8-13.9-20-23.2-33.6-4.8-7-23.2-23.9-24.1-24.2l-1.1,13.7s-15.9-20.7-26-41.6c-16.9-8.5-48.3-30.4-54.7-36.6-8-7.8-39-48.9-42-53.4s-8,1.1-8,1.1-7-12.2-11-12.2a17.6,17.6,0,0,0-4.9,1.1c1.2,6.7,3,13.2,5.9,16.3C13061.46,136.7,13072.86,158.2,13078.86,166.4Z"/>
    <path class="cls-5" d="M13700.46,573.6c-60.3-28.4-218.7-149-218.7-149l-8.7-7.5-47.4-26.4-1.3,3.3,20.7,23,22,30.4-27.3-6.7s-8-1.5-12.7.7l-4,53.4,107.3,86-76-13.2,82.24,167.47,219-1.5,93-28.5c-0.31.84-133.65-123.12-133.65-123.12S13704.85,575.66,13700.46,573.6Z"/>
    <path class="cls-6" d="M12888.58,287.33s-25.87-3.87-26.67-3.67l9.24,26.53C12871.86,301.3,12888.58,287.33,12888.58,287.33Z"/>
    <path class="cls-7" d="M13001.66,584.2c-8-6.7-73-36.1-85.5-41.7-5.3-2.4-19.7-8.5-36.4-16.4l-28.6-27s-12-1.9-18.7-6.7-17.7-24.1-17.7-24.1l-32.6-21.4,17.5,32.2-10,2.2s16,11.7,16,17.8,0.5,20.6.5,20.6l26,45.6s6,13.9-12,0-40.5-33.3-46.5-42.8-22-26.1-27.5-27.2,33.5-12.2,33.5-12.2-17-27.2-22-31.1-19-31.7-21.5-33.3-12.5-2.2-12.5-2.2l-13.4-25.2a0.31,0.31,0,0,0-.1.2,71.87,71.87,0,0,0-9-13.3c-5-5.5-25-4.4-29-6.7a2.48,2.48,0,0,0-1.6.4c3,7.9,6.9,17.3,9.6,21.3,5,7.2,13.5,25,13.5,25s-37.5-11.1-33.5-5.6,25.5,56.1,25.5,56.1l-8-1.7a101.51,101.51,0,0,1,21,21.7c10,13.9,31.5,30.6,31.5,30.6s-31-12.8-42.5-21.1-27-27.8-27-27.8-4,1.1-15.5-4.4-33-12.2-33-12.2l40,30s-11.5-5-8.5-1.1,31,24.5,31,27.2a65.3,65.3,0,0,0,1,8.3s22.5,13.9,28,22.2a119.47,119.47,0,0,0,8.5,11.7s20,12.2,28,20.6,57.5,36.5,64,45.4c5.3,7.3,98.3,74.9,98.3,74.9l156.7-89.5S13009.66,590.8,13001.66,584.2Z"/>
  </g>
  <path class="cls-8" d="M10762.26,533.83s-134.08-225.17-163-277.83c-171-311.23-331.68-270-415.22-263.39-114,9-309.6,158.67-438.78,217.39-66,30-155.35,47.25-217.08,60-167.76,33.43-375.18,71.55-439.62,69.57-90-2.76-153.06-41.69-225-57-75.2-16-317.51,44.21-317.51,44.21L9914.25,559Z"/>
  <path class="cls-9" d="M9887.16,471.6h2290.91s52.61,49.4,89.88,69.4c37.79,20.28,83.35,31.06,83.35,31.06s-110,99.49-145.82,130.44c-46.57,40.17-183,154.81-183,154.81l-2135.33-7.7v-378Z"/>
  <path class="cls-10" d="M10653.48,749c-11.58,15.4-53.48,68.7-57.25,68.9s-7.55,13.8-9.31,17.4-67.45,32.4-71.1,31.9-23.28,14.2-24.79,16.5-19.13,9.8-21.9,12.6-27.31.1-39.77,12.2c-14.6,14.3-47.69-21.8-50.46-21.5s-12.33-10.9-17.49-20.9c-4.53-8.6,1.51-29.8-.76-32.6s-98.16,89-102.18,84.7-3.78.2-7.68-8a45.9,45.9,0,0,1-4.28-13.9s-58.77,86-68.71,104-304.65,47.4-304.65,47.4V455.6l1122.09,4.4S10664.75,734,10653.48,749Z"/>
  <path class="cls-10" d="M11975.18,929.06s-16.93,60.54-22.13,60.54-52.8-9.3-72.1-13.3-82.6-9.3-107.3-11.9-131.2-48.3-131.2-48.3l-64.5-16.8s-67.46-123.29-78-135.7c-10.7-12.6-34.35-20-42.7-30-11-13.17-24.37-46.1-36.9-57.8-19.17-17.89-115.1-50.2-115.1-50.2l-143.78-151L12166.65,489l112.93,54,70.33,33.33-327.61,286Z"/>
  <polygon class="cls-11" points="14127.36 -7.49 14683.36 608.51 14729.36 608.51 14269.36 -2.99 14127.36 -7.49"/>
  <polygon class="cls-12" points="14840.26 626.61 14470.69 -7.59 14348.51 -7.59 14794.56 621.21 14840.26 626.61"/>
  <path class="cls-13" d="M15411.86,782.61s-1385,0-1385-2,1296.82,0.42,1296.82-2.42-1109.37-1.48-1109.37-3.47,1104.45-1.44,1104.45-3.52-882.58-1.19-882.58-3.31,857.9-.55,857.9-3.31-680.46-.34-680.46-3.05,680.46-1,680.46-3.05-453.67-1.19-453.67-3.52,443.75-1.74,443.75-3.31-182.45-2.5-182.45-3.73,285.39-.89,285.39-2.84"/>
  <rect class="cls-14" x="2134.43" y="162.88" width="222.22" height="3.25"/>
</svg>
