<svg id="bg-middle" xmlns="http://www.w3.org/2000/svg" xmlns:xlink="http://www.w3.org/1999/xlink" viewBox="0 0 16356.98 800"><defs><style>.cls-1{fill:url(#linear-gradient);}.cls-2,.cls-6{fill:#1f585c;}.cls-2{opacity:0.3;}.cls-2,.cls-4{isolation:isolate;}.cls-3{fill:url(#linear-gradient-2);}.cls-4{fill:#fff;opacity:0.04;}.cls-5{fill:url(#linear-gradient-3);}.cls-7{fill:#c28283;}.cls-8{fill:#3e414d;}.cls-9{fill:#70727b;}.cls-10{fill:#d5a9a9;}.cls-11{fill:#c78c8d;}.cls-12{fill:#2c303d;}.cls-13,.cls-14,.cls-15,.cls-16,.cls-17{fill:none;}.cls-13{stroke:#4a4c58;}.cls-13,.cls-14,.cls-15,.cls-16{stroke-miterlimit:10;}.cls-13,.cls-15{stroke-width:9px;}.cls-14{stroke:#4d505b;stroke-width:7px;}.cls-15{stroke:#3e414d;}.cls-16{stroke:#d5a9a9;stroke-width:5px;}.cls-18{fill:url(#linear-gradient-4);}.cls-19{fill:url(#linear-gradient-5);}.cls-20{fill:url(#linear-gradient-6);}</style><linearGradient id="linear-gradient" x1="11119.22" y1="328.4" x2="11119.22" y2="-57.31" gradientTransform="matrix(1, 0, 0, -1, 0, 800)" gradientUnits="userSpaceOnUse"><stop offset="0" stop-color="#1f585c"/><stop offset="0.55" stop-color="#31917e"/><stop offset="0.98" stop-color="#51f4b7"/></linearGradient><linearGradient id="linear-gradient-2" x1="8546.04" y1="248.61" x2="10642.25" y2="248.61" gradientUnits="userSpaceOnUse"><stop offset="0.4" stop-color="#6d645d"/><stop offset="0.51" stop-color="#55605d"/><stop offset="0.69" stop-color="#22585c"/></linearGradient><linearGradient id="linear-gradient-3" x1="2134.43" y1="164.5" x2="2356.65" y2="164.5" gradientUnits="userSpaceOnUse"><stop offset="0" stop-color="#fff" stop-opacity="0"/><stop offset="1" stop-color="#fff"/></linearGradient><linearGradient id="linear-gradient-4" x1="1256.34" y1="769.36" x2="2348.86" y2="769.36" gradientUnits="userSpaceOnUse"><stop offset="0.82" stop-color="#fff" stop-opacity="0.1"/><stop offset="1" stop-color="#fff" stop-opacity="0"/></linearGradient><linearGradient id="linear-gradient-5" x1="10192.78" y1="351.9" x2="10192.78" y2="839.37" gradientTransform="translate(21004.86 800) rotate(180) scale(1.02 1)" gradientUnits="userSpaceOnUse"><stop offset="0.05" stop-color="#1f585c"/><stop offset="0.17" stop-color="#215d5f"/><stop offset="0.32" stop-color="#266d68"/><stop offset="0.49" stop-color="#2e8778"/><stop offset="0.67" stop-color="#3aab8d"/><stop offset="0.86" stop-color="#49daa8"/><stop offset="1" stop-color="#55ffbe"/></linearGradient><linearGradient id="linear-gradient-6" x1="11553" y1="354.5" x2="11553" y2="831" gradientTransform="matrix(1, 0, 0, -1, 0, 800)" xlink:href="#linear-gradient-5"/></defs><title>layer2</title><path class="cls-1" d="M9887.16,471.6h2290.91s53.61,46.4,90.88,66.4c37.79,20.28,82.35,34.06,82.35,34.06s-110,99.49-145.82,130.44c-46.57,40.17-183,154.81-183,154.81l-2135.33-7.7v-378Z"/><path class="cls-2" d="M11975.18,929.06s-16.93,60.54-22.13,60.54-52.8-9.3-72.1-13.3-82.6-9.3-107.3-11.9-81.2-48.3-81.2-48.3l-64.5-16.8s-67.46-123.29-78-135.7c-10.7-12.6-34.35-20-42.7-30-11-13.17-24.37-46.1-36.9-57.8-19.17-17.89-115.1-50.2-115.1-50.2l-143.78-151,486.18,7.69,39,0.56,430,6.17,112.93,54,70.33,33.33-327.61,286Z"/><path class="cls-3" d="M10642.25,506l-50-506S10254.51-13,10184-7.39c-114,9-309.6,158.67-438.78,217.39-66,30-155.35,47.25-217.08,60-167.76,33.43-375.18,71.55-439.62,69.57-90-2.76-153.06-41.69-225-57-75.2-16-317.51,44.21-317.51,44.21L9910.25,501Z"/><path class="cls-4" d="M12297.92,551c-93.33-8.33-343.56-1.25-343.56,2.86s297.86,7.43,297.86,12.63-484.46,3.32-484.46,11.14,491.46,4.85,491.46,11.88-653.36,1.14-653.36,10.4,653.36,1.09,653.36,10.4-780.16,4.11-780.16,11.14,797.76,4.11,797.76,11.14-956.16,5.2-956.16,11.88c0,6.09,797.63,2.93,938.52,9.64l89.76-80.79C12333.81,558.44,12307.61,551.87,12297.92,551Z"/><rect class="cls-5" x="2134.43" y="162.88" width="222.22" height="3.25"/><path class="cls-6" d="M11977.44-84.64c-20,4-45,45-139.25,73.25-15.9,1.7-121.94,41.69-141.54,136-11.8,56.8-56.9,64-56.9,64L11488.27,320l-61.93,175.87a30.18,30.18,0,0,0,28.13,40.2l822.77,9s-46.25-41.15-70.5-64.6c-45.5-44-94.93-94-158.5-266.5C11999.25,81,11986.46-86.4,11977.44-84.64Z"/><path class="cls-7" d="M12109.84,351.73s-5.62,15.83-16.87,26.19l11.41,17.88s13.28-14.82,14.44-26.07Z"/><path class="cls-8" d="M12146.79,413.7l-3.26,26.89s-2-15.27-15.91-6.11l8.55-36Z"/><path class="cls-9" d="M12195.77,476.84l-5.46,16.12s20.38,9.39,7.42,30.1c0,0,10.36-13.41,14.19-28.3Z"/><path class="cls-10" d="M12162.53,440l-5.14,33s8.3-2.3,12.29,3.52c0,0,6.68-8.76,7.19-19.77Z"/><path class="cls-11" d="M12228.57,505.13s6.51,20.74,2.82,38.66c-1.92,9.34,7-6.08,13.15,1.68,2.64,3.35,5.87-20.4,5.87-20.4Z"/><path class="cls-9" d="M12081.31,295.82s-7.44,29.35-14.15,35.29,8.91,5.45,14.12,5.76,9.64,9.24,9.64,9.24L12096,324S12088.1,310.46,12081.31,295.82Z"/><path class="cls-8" d="M12264.93,534.76s6.95,11,7.57,17.61-5.23,21.26,1,25.82c0,0,9.13-6.5,16-3.48L12292,555S12279.26,540.9,12264.93,534.76Z"/><path class="cls-12" d="M12490.63,711.36s5.06,29.61-54.85,48.22c-39.33,12.16-82.24,21.52-126.6,20.78-23.29-.43-37.23.81-50.63,0.77-13.7-.1-65.6-6.86-40.28-24.91,19.88-14.15,34.83-7.19,60.24-15.9,23.59-8.12,32.29-13.27,60-20.53C12374.25,710.44,12424.18,705.35,12490.63,711.36Z"/><line class="cls-13" x1="12434.79" y1="580.43" x2="12449.36" y2="730.99"/><line class="cls-13" x1="12456.17" y1="604.34" x2="12443.66" y2="623.47"/><line class="cls-13" x1="12460.33" y1="615.38" x2="12447.83" y2="634.51"/><line class="cls-13" x1="12464.5" y1="626.41" x2="12452" y2="645.54"/><line class="cls-13" x1="12468.67" y1="637.45" x2="12456.17" y2="656.58"/><line class="cls-13" x1="12472.84" y1="648.48" x2="12460.33" y2="667.61"/><line class="cls-13" x1="12477.01" y1="659.52" x2="12464.5" y2="678.65"/><line class="cls-13" x1="12481.18" y1="670.56" x2="12468.67" y2="689.68"/><line class="cls-13" x1="12485.35" y1="681.59" x2="12472.84" y2="700.72"/><line class="cls-13" x1="12489.52" y1="692.63" x2="12477.01" y2="711.76"/><path class="cls-8" d="M12389.61,578.82s-0.94,7,8,19.44c4,5.56-.8,14.28-0.8,14.28s-20.07-5.87-22-11c-5.84-15.5-5-28.07-5-28.07Z"/><path class="cls-9" d="M12311.81,560.22s15.12,27.3,13.75,36.23,11.62-1.47,16.22-4.59,15,0.94,15,.94l-11.85-20.28C12345,572.43,12328.31,567.07,12311.81,560.22Z"/><path class="cls-14" d="M12436.58,579.5S12119,639.18,11992.42,0"/><line class="cls-15" x1="12434.58" y1="576.87" x2="12487.19" y2="717.89"/><polygon class="cls-8" points="12431.64 578.35 12393.88 723.16 12419.26 733.21 12465.48 732.36 12484.86 714.82 12441.33 593.06 12431.64 578.35"/><line class="cls-15" x1="12442.79" y1="599.8" x2="12464.5" y2="734.07"/><line class="cls-15" x1="12454.06" y1="583.68" x2="12414.11" y2="669.45"/><line class="cls-16" x1="12442.8" y1="611.09" x2="12480.32" y2="714.82"/><line class="cls-16" x1="12439.12" y1="627.27" x2="12472.72" y2="721.2"/><line class="cls-16" x1="12435.81" y1="644.93" x2="12465.97" y2="727.94"/><line class="cls-16" x1="12432.5" y1="662.59" x2="12456.78" y2="727.94"/><line class="cls-16" x1="12430.66" y1="681.35" x2="12447.58" y2="729.17"/><line class="cls-16" x1="12426.98" y1="696.06" x2="12438.63" y2="729.17"/><line class="cls-13" x1="12447.69" y1="577.04" x2="12419.13" y2="734.2"/><path class="cls-17" d="M12280.31,656.35c0-.85-7.49-1.6-21.14-2.25l-5,4.48C12271,658,12280.31,657.24,12280.31,656.35Z"/><path class="cls-4" d="M11186.85,664.52c0,6.41,748.13,6.67,1053.32,6.68l14-12.61C12088.18,664.62,11186.85,658.45,11186.85,664.52Z"/><path class="cls-18" d="M2348.86,788.12s-1092.52,0-1092.52-2,1023,0.42,1023-2.42-875.09-1.48-875.09-3.47,871.21-1.44,871.21-3.52-696.19-1.19-696.19-3.31,676.73-.55,676.73-3.31-536.76-.34-536.76-3.05S2256,766.08,2256,764s-357.86-1.19-357.86-3.52,350-1.74,350-3.31-143.92-2.5-143.92-3.73,225.12-.89,225.12-2.84"/><path class="cls-19" d="M10870.6,322.59l-124.23-139L10638,132.85l-74.92-94.15-67.63-16.8s-111.8-45.6-137.59-48.2c-10.26-1-26.94-2.5-44.6-4.13v475.1l683.1-9.07Z"/><path class="cls-20" d="M11761.65,21.9s-52.18,7.48-66.6,16.8c-35.35,22.84-124.72,132-127.2,129.8s-73.3,15.1-73.3,15.1l-48.64,80.4-73.71,58.59-123.86,113,456.06,7.36,153.24-469.31C11857.49-26.33,11761.65,21.9,11761.65,21.9Z"/></svg>