<svg id="foreground-middle" xmlns="http://www.w3.org/2000/svg" xmlns:xlink="http://www.w3.org/1999/xlink" viewBox="0 0 16356.98 800"><defs><style>.cls-1{fill:#ffe9ce;}.cls-2{fill:url(#linear-gradient);}.cls-3{fill:url(#linear-gradient-2);}.cls-4{fill:none;stroke:#29221f;stroke-miterlimit:10;stroke-width:0.2px;}.cls-5{fill:url(#linear-gradient-3);}.cls-6{fill:url(#linear-gradient-4);}</style><linearGradient id="linear-gradient" x1="6076.25" y1="296.28" x2="6889.94" y2="296.28" gradientUnits="userSpaceOnUse"><stop offset="0.05" stop-color="#415e1d"/><stop offset="1" stop-color="#5b8529"/></linearGradient><linearGradient id="linear-gradient-2" x1="8098.76" y1="1169" x2="8658.18" y2="200.05" gradientUnits="userSpaceOnUse"><stop offset="0" stop-color="#82603d"/><stop offset="0.07" stop-color="#76583c"/><stop offset="0.24" stop-color="#5f4a3a"/><stop offset="0.4" stop-color="#524138"/><stop offset="0.54" stop-color="#4d3e38"/><stop offset="0.66" stop-color="#524138"/><stop offset="0.8" stop-color="#604a3a"/><stop offset="0.94" stop-color="#77593c"/><stop offset="1" stop-color="#82603d"/></linearGradient><linearGradient id="linear-gradient-3" x1="7035.21" y1="1138.54" x2="6367.94" y2="149.27" gradientUnits="userSpaceOnUse"><stop offset="0.84" stop-color="#2d4b2c"/><stop offset="0.89" stop-color="#33522a"/><stop offset="0.97" stop-color="#446523"/><stop offset="1" stop-color="#4a6c21"/></linearGradient><linearGradient id="linear-gradient-4" x1="8466.47" y1="935.26" x2="8609.11" y2="642.82" gradientUnits="userSpaceOnUse"><stop offset="0" stop-color="#82603d"/><stop offset="0.09" stop-color="#76583c"/><stop offset="0.32" stop-color="#5f4a3a"/><stop offset="0.53" stop-color="#524138"/><stop offset="0.71" stop-color="#4d3e38"/><stop offset="0.87" stop-color="#483a35"/><stop offset="1" stop-color="#3a2f2b"/></linearGradient></defs><title>layer5</title><path class="cls-1" d="M4504,325.28l-3.4-5.2-9.1-.2h-13.3l-11.7-1.7-5.3-4-12-1.3-8.7-1.7-6.3-3.2-6-2.2-17,.2h-5l-4.3-2.7-7-3.3-9-2.7-5.3-3-13.7,3.7-13.7,3.3-14.3.7-20.3.7-11,.3-10-.3-12,2.7-9.3-.7-15.3-1.3-11,2-13.7,5-1.4.3c-13.5-1.6-27-2.6-36.6-3.6-20-2-20-19.9-34-19.9S4082.2,302,4058.2,302h-32c-6,0-24,7.6-40,15.6s-49.3,1-49.3,1l-11.3,5.3c23.7,7,193.7,5.7,287.6,1.6C4273.8,326.48,4481.7,329.28,4504,325.28Z"/><path class="cls-1" d="M4362.8,271.78l-8-1.2-3.3-5.5h-18.3l-11.7-1.3-11,1.3-9.7,1.3-14-1.3-12-1.7-11.7,1.3-5,4.7-12.3,6.3-2.7,2.7s95.7,1,123.8-3.2Z"/><path class="cls-1" d="M4220.9,277l-2.3-4.7-9.7,2.7s-8,2.7-10.7-.7-6-13-12-14-38.1-8.6-67,10.7c-7,4.7-14-7-26,9.3,0,0,91.3,4.5,151.3-1.8l-18.3-.2Z"/><path class="cls-1" d="M4041.5,281.28s-4-16-10-16-15,1-22.7-1.7-15.7-5-25.3-3.7-22.3,8-32.7,8.7-16.3,2.7-21.3,5.3-6.3,5.3-15.3,5.3-24.3-.3-26.3-0.3-16.3,2.7-20.3,4.7-17.3,7-17.3,7S4022.9,286,4041.5,281.28Z"/><path class="cls-2" d="M6889.94,238.6S6765.82,199,6694.2,237.1c-94.5,50.25-160.78-16.5-236.53,3C6239.94,296.15,6076.25,372,6076.25,372s426.58-12.87,634.45-39.66C6841.43,315.5,6889.94,238.6,6889.94,238.6Z"/><path class="cls-3" d="M7089.65,278.35s325.95,99.57,601.94,151.85C8419.24,568,9742.25,819.47,9742.25,826c0,9,8.54,120.06,8.54,120.06L7465.38,803.32s-96-205.49-238.49-390.73C7151.89,315.09,7089.65,278.35,7089.65,278.35Z"/><path class="cls-4" d="M7085,279.5s121.81,212.37,202,371.14c88.88,176.08,144.62,363.71,153.12,372,16.16,15.68,124.4-39,148.93-34.58s139.73,59.49,158.1,75.08,155.89,75.17,165,80.24"/><path class="cls-4" d="M7094.16,282.07c5.14,2,126,213.35,201.92,363.4,86.64,170.78,148.57,349.54,163,359,20.28,13.31,118-29.29,155.56-23.54,32.44,5,144.32,59.68,162.51,74.76s151.2,72.64,159.62,77.35"/><path class="cls-4" d="M7103.32,284.64c10.29,3.93,130.21,214.32,201.88,355.67,84.41,165.47,152,335.58,172.83,346,23.43,11.79,111.56-19.53,162.19-12.5,40.34,5.6,148.91,59.87,166.93,74.44s146.51,70.12,154.28,74.46"/><path class="cls-4" d="M7112.48,287.21c15.43,5.89,134.41,215.3,201.84,347.93C7396.5,795.32,7469.63,957.07,7497,968.22c26.31,10.71,105.13-9.74,168.83-1.46,48.24,6.27,153.51,60.07,171.34,74.12s141.82,67.59,148.94,71.57"/><path class="cls-4" d="M7121.64,289.79c20.57,7.86,138.3,216.43,201.8,340.19C7403,785,7481.92,938.54,7516,950.09c29.1,9.87,98.69.08,175.46,9.58,56.14,6.94,158.1,60.26,175.75,73.8s137.13,65.06,143.61,68.68"/><path class="cls-4" d="M7130.8,292.36c25.71,9.82,142.45,217.43,201.76,332.46C7409.81,774.62,7494.17,920.23,7535,932c31.88,9.17,92.26,9.91,182.09,20.62,64,7.63,162.69,60.45,180.16,73.48s132.44,62.53,138.27,65.79"/><path class="cls-4" d="M7140,294.93c30.86,11.79,146.62,218.42,201.72,324.72,74.94,144.54,164.72,282.46,212.25,294.2,34.68,8.56,85.82,19.75,188.73,31.66,71.93,8.32,167.28,60.64,184.57,73.16s127.74,60,132.93,62.9"/><path class="cls-4" d="M7149.13,297.5c36,13.75,150.79,219.41,201.69,317,72.64,139.28,167.83,269.64,222.11,281.24,37.49,8,79.36,29.81,195.36,42.7,79.8,9.16,171.87,60.84,189,72.84s123.05,57.48,127.59,60"/><path class="cls-4" d="M7158.29,300.07c41.14,15.71,155,220.39,201.65,309.25,70.36,134,170.95,256.94,232,268.28,40.33,7.49,72.92,39.64,202,53.75,87.7,9.84,176.46,61,193.39,72.52s118.36,55,122.25,57.12"/><path class="cls-4" d="M7167.45,302.64c46.29,17.68,159.2,221.36,201.61,301.51,68.11,128.71,174.07,244.33,241.82,255.32,43.19,7,66.49,49.47,208.63,64.79,95.6,10.52,181.05,61.22,197.8,72.2s113.67,52.42,116.91,54.23"/><path class="cls-4" d="M7176.61,305.21C7228,324.86,7340,527.53,7378.18,599c65.87,123.41,177.21,231.79,251.68,242.36,46.07,6.54,60.05,59.3,215.26,75.83,103.49,11.2,185.64,61.41,202.21,71.88s109,49.9,111.57,51.35"/><path class="cls-4" d="M7185.77,307.79c56.57,21.61,167.68,223.27,201.53,286,63.68,118.09,180.35,219.3,261.53,229.4,49,6.09,53.62,69.13,221.9,86.87C7982.12,922,8061,971.7,8077.35,981.65s104.29,47.37,106.23,48.46"/><path class="cls-4" d="M7194.93,310.36c61.71,23.57,172,224.2,201.49,278.3C7458,701.4,7579.93,795.53,7667.81,805.1c51.87,5.65,47.18,79,228.53,97.91,119.29,12.56,194.83,61.8,211,71.24s99.59,44.84,100.89,45.57"/><path class="cls-4" d="M7204.09,312.93c66.86,25.54,176.26,225.12,201.45,270.57C7465,690.83,7592.21,778,7686.79,787c54.79,5.22,40.75,88.78,235.17,109,127.18,13.24,199.42,62,215.45,70.92s94.9,42.31,95.55,42.68"/><path class="cls-4" d="M7213.25,315.5c72,27.5,180.6,226,201.41,262.83,57.58,101.85,189.85,182.12,291.1,190.52,57.73,4.79,34.32,98.61,241.8,120,135.08,13.92,204,62.18,219.86,70.6s90.21,39.79,90.21,39.79"/><path class="cls-4" d="M7227.64,319.32c66.86,25.54,174.67,220.84,200.91,262a332.05,332.05,0,0,0,81.61,88.55,676.62,676.62,0,0,0,65.87,43.5c35.21,20.76,76.07,37,111.1,45.3a366.55,366.55,0,0,0,40,7.41c28,3.4,38.85,26.17,63.19,50.67C7816.16,842.51,7866,870,7960.67,882c4.11,0.54,8.4,1.09,12.86,1.59,129.5,14.61,204.72,61.9,222.63,70.92,2.55,1.29,6.05,3,10.11,4.89,24.59,11.78,80.8,35.93,80.8,35.93"/><path class="cls-4" d="M7242,323.14c61.71,23.57,168.51,215.57,200.41,261.19,20.5,29.31,43.73,56.75,85.46,85,20.69,14,44.65,27.61,67.72,41,34.63,20.12,78.5,36.72,112.72,44.73,13,3,26.68,6.09,40.25,8.25,28.12,4.47,40.84,27.18,64.61,50.54,25.63,25.19,82.54,50.55,173.31,62.78,4.08,0.55,8.4,1.19,13,1.75,123.93,15.18,205.44,61.63,225.4,71.25,2.84,1.37,6.39,3.05,10.22,4.93,23.62,11.59,81.39,36.94,81.39,36.94"/><path class="cls-4" d="M7256.43,327c56.57,21.61,162.15,210.31,199.91,260.37,20.67,27.4,42.16,52.74,89.3,81.41,20.81,12.66,46.17,25.11,69.57,38.54,34,19.53,80.93,36.46,114.34,44.17,12.65,2.92,26.53,6.37,40.47,9.09,28.27,5.52,42.88,28.14,66,50.4,25.54,24.57,89.42,48,176.33,60.3,4,0.57,8.41,1.29,13.09,1.91,118.37,15.63,206.15,61.35,228.17,71.58,3.12,1.45,6.72,3.14,10.34,5,22.64,11.44,82,37.94,82,37.94"/><path class="cls-4" d="M7270.82,330.79c51.43,19.64,155.6,205.11,199.41,259.55,20.63,25.63,40.41,48.86,93.15,77.84,20.83,11.45,47.69,22.61,71.42,36.06,33.42,18.94,83.35,36.19,116,43.61,12.33,2.81,26.39,6.64,40.68,9.93,28.43,6.54,44.93,29.09,67.44,50.27,25.45,23.94,96.29,45.56,179.35,57.82,4,0.59,8.41,1.38,13.2,2.06,112.81,16,206.87,61.07,230.94,71.91,3.41,1.54,7.05,3.23,10.46,5,21.66,11.3,82.55,38.94,82.55,38.94"/><path class="cls-4" d="M7285.21,334.61c46.29,17.68,148.84,200,198.91,258.72,20.44,24,38.51,45.15,97,74.28,20.77,10.34,49.21,20.12,73.26,33.58,32.8,18.36,85.78,35.93,117.58,43,12,2.69,26.24,6.9,40.9,10.77,28.59,7.55,47,30,68.86,50.14,25.37,23.31,103.16,43.11,182.37,55.34,4,0.61,8.41,1.48,13.31,2.22,107.26,16.22,207.58,60.79,233.71,72.23,3.69,1.62,7.38,3.32,10.57,5,20.67,11.17,83.14,39.94,83.14,39.94"/><path class="cls-4" d="M7299.61,338.43c41.14,15.71,141.89,195.08,198.41,257.9,20.13,22.38,36.5,41.66,100.84,70.71,20.66,9.33,50.72,17.63,75.11,31.1,32.18,17.79,88.21,35.67,119.21,42.48,11.68,2.57,26.09,7.15,41.11,11.61,28.75,8.53,49,31,70.28,50,25.3,22.67,110,40.68,185.38,52.86,3.93,0.64,8.42,1.57,13.43,2.37,101.73,16.37,208.3,60.52,236.48,72.56a116.33,116.33,0,0,1,10.69,5.09c19.68,11,83.72,40.95,83.72,40.95"/><path class="cls-4" d="M7314,342.25c36,13.75,134.71,190.34,197.91,257.08,19.75,20.86,34.38,38.41,104.68,67.14,20.52,8.38,52.24,15.14,77,28.62,31.56,17.22,90.64,35.41,120.83,41.92,11.35,2.45,25.95,7.39,41.33,12.45,28.92,9.5,51.11,31.91,71.69,49.87,25.23,22,116.9,38.27,188.4,50.37,3.9,0.66,8.42,1.65,13.54,2.53,96.2,16.44,209,60.24,239.25,72.89a97.11,97.11,0,0,1,10.81,5.12c18.69,10.92,84.31,41.95,84.31,41.95"/><path class="cls-4" d="M7328.39,346.07c30.86,11.79,127.31,185.83,197.41,256.26,19.32,19.41,32.17,35.43,108.52,63.57,20.36,7.5,53.75,12.66,78.8,26.14,30.93,16.65,93.07,35.15,122.45,41.36,11,2.34,25.81,7.63,41.54,13.29,29.1,10.46,53.19,32.83,73.11,49.73,25.18,21.37,123.76,35.89,191.42,47.89,3.86,0.69,8.43,1.74,13.65,2.68,90.69,16.43,209.73,60,242,73.21a84,84,0,0,1,10.92,5.16c17.7,10.81,84.89,43,84.89,43"/><path class="cls-4" d="M7342.79,349.89c25.71,9.82,119.65,181.62,196.91,255.44,18.84,18,29.89,32.73,112.37,60,20.19,6.68,55.26,10.18,80.65,23.66,30.31,16.1,95.5,34.89,124.07,40.79,10.7,2.22,25.67,7.86,41.76,14.13,29.28,11.41,55.28,33.74,74.53,49.6,25.13,20.7,130.62,33.54,194.44,45.41,3.83,0.71,8.43,1.81,13.77,2.84,85.19,16.35,210.44,59.68,244.79,73.54a74.43,74.43,0,0,1,11,5.2c16.7,10.7,85.47,44,85.47,44"/><path class="cls-4" d="M7357.18,353.71c20.57,7.86,111.71,177.76,196.41,254.62,18.34,16.64,27.56,30.35,116.21,56.44,20,5.89,56.76,7.7,82.5,21.18,29.67,15.54,97.93,34.62,125.69,40.23,10.38,2.1,25.54,8.08,42,15,29.46,12.34,57.37,34.65,75.95,49.47,25.09,20,137.47,31.21,197.45,42.93,3.79,0.74,8.44,1.89,13.88,3,79.7,16.19,211.16,59.41,247.56,73.87a67.17,67.17,0,0,1,11.16,5.24c15.69,10.61,86.06,45,86.06,45"/><path class="cls-4" d="M7371.57,357.54C7387,363.43,7475,531.85,7567.48,611.33c17.83,15.33,25.2,28.29,120.06,52.87,19.87,5.15,58.27,5.24,84.34,18.7,29,15,100.36,34.36,127.31,39.67,10.05,2,25.41,8.3,42.19,15.81,29.66,13.27,59.47,35.54,77.36,49.33,25.07,19.33,144.32,28.91,200.47,40.44,3.75,0.77,8.45,2,14,3.15,74.23,16,211.87,59.13,250.33,74.2,5.4,2.12,9.36,3.9,11.27,5.28,14.68,10.53,86.64,46,86.64,46"/><path class="cls-4" d="M7386,361.36c10.29,3.93,94.9,171.36,195.41,253,17.31,14.06,22.82,26.57,123.9,49.3,19.73,4.44,59.77,2.78,86.19,16.22,28.4,14.46,102.78,34.1,128.93,39.11,9.73,1.86,25.28,8.51,42.4,16.65,29.86,14.19,61.58,36.42,78.78,49.2,25.06,18.62,151.16,26.64,203.49,38,3.71,0.8,8.46,2,14.11,3.3,68.79,15.7,212.59,58.85,253.1,74.52,5.69,2.2,9.68,4,11.39,5.31,13.64,10.47,87.23,47,87.23,47"/><path class="cls-4" d="M7400.36,365.18c5.14,2,86,169,194.91,252.15,16.8,12.83,20.45,25.2,127.75,45.74,19.6,3.75,61.25.36,88,13.74,27.75,14,105.21,33.84,130.55,38.54,9.4,1.75,25.16,8.72,42.62,17.49,30.06,15.1,63.7,37.29,80.2,49.06,25.06,17.88,158,24.4,206.5,35.48,3.68,0.84,8.47,2.06,14.22,3.46,63.36,15.37,213.3,58.57,255.87,74.85,6,2.28,10,4.11,11.51,5.35,12.59,10.44,87.81,48,87.81,48"/><path class="cls-4" d="M7414.75,369s76.66,167.33,194.41,251.33c16.31,11.63,18.09,24.17,131.59,42.17,19.5,3.09,62.76-2.12,89.89,11.26s107.64,33.58,132.17,38,99.37,50.14,124.45,67.26,164.81,22.19,209.52,33,273.09,73.76,284.6,84.18,88.39,49,88.39,49"/><path class="cls-4" d="M7422.52,371s82.48,168.54,200.7,246.44c16.54,10.9,27.05,23.54,133.88,40.45,19.54,3.07,63.39-.63,90.52,12.76s107.62,34.86,132.14,39.26,100.91,47,126,64.1,163.3,24.06,208,34.87,273.09,73.76,284.6,84.18,88.39,49,88.39,49"/><path class="cls-4" d="M7430.3,373s88.36,169.71,207,241.54c16.78,10.16,36,22.91,136.16,38.73,19.58,3,64,.86,91.15,14.25s107.59,36.14,132.12,40.54S8099.16,751.9,8124.24,769s161.79,25.93,206.5,36.74,273.09,73.76,284.6,84.18,88.39,49,88.39,49"/><path class="cls-4" d="M7438.07,375s94.3,170.84,213.3,236.65c17,9.42,45,22.28,138.44,37,19.62,3,64.66,2.35,91.78,15.74s107.57,37.42,132.1,41.82,104,40.68,129,57.8,160.28,27.8,205,38.62,273.09,73.76,284.6,84.18,88.39,49,88.39,49"/><path class="cls-4" d="M7445.85,377s100.29,171.92,219.59,231.76c17.28,8.67,53.9,21.84,140.72,35.3,19.65,3,65.29,3.84,92.41,17.23s107.54,38.7,132.07,43.1,105.51,37.53,130.58,54.64,158.77,29.68,203.49,40.49,273.09,73.76,284.6,84.18,88.39,49,88.39,49"/><path class="cls-4" d="M7453.62,379s106.33,172.94,225.89,226.87c17.54,7.91,62.85,21.23,143,33.58,19.68,3,65.92,5.33,93,18.72s107.52,40,132,44.38,107,34.37,132.11,51.49,157.26,31.55,202,42.36,273.09,73.76,284.6,84.18,88.39,49,88.39,49"/><path class="cls-4" d="M7461.39,381s112.41,173.91,232.19,222c17.81,7.15,71.81,20.61,145.29,31.86,19.72,3,66.55,6.82,93.68,20.21s107.5,41.26,132,45.67,108.57,31.22,133.65,48.34,155.75,33.42,200.47,44.23,273.09,73.76,284.6,84.18,88.39,49,88.39,49"/><path class="cls-4" d="M7469.17,383s118.53,174.8,238.48,217.08c18.08,6.37,80.77,20,147.57,30.14,19.76,3,67.18,8.31,94.31,21.7s107.47,42.54,132,46.95,110.11,28.06,135.18,45.18,154.24,35.29,199,46.11,273.09,73.76,284.6,84.18,88.39,49,88.39,49"/><path class="cls-4" d="M7476.94,385s124.67,175.63,244.78,212.19c18.36,5.59,89.73,19.35,149.85,28.42,19.79,3,67.81,9.8,94.94,23.19s107.45,43.82,132,48.23,111.64,24.91,136.71,42,152.73,37.17,197.45,48,273.09,73.76,284.6,84.18,88.39,49,88.39,49"/><path class="cls-4" d="M7484.71,387s130.83,176.38,251.08,207.3c18.64,4.79,98.69,18.71,152.14,26.71,19.83,3,68.45,11.3,95.57,24.69s107.42,45.11,131.95,49.51S8228.62,717,8253.7,734.07s151.23,39,195.94,49.85,273.09,73.76,284.6,84.18,88.39,49,88.39,49"/><path class="cls-4" d="M7492.49,389s137,177.06,257.37,202.4c18.92,4,107.65,18.05,154.42,25,19.87,2.95,69.08,12.79,96.2,26.18s107.4,46.39,131.92,50.79,114.71,18.6,139.78,35.72S8421.91,770,8466.62,780.8s273.09,73.76,284.6,84.18,88.39,49,88.39,49"/><path class="cls-4" d="M7500.26,391s143.17,177.66,263.67,197.51c19.2,3.16,116.62,17.39,156.7,23.27,19.91,2.92,69.71,14.28,96.84,27.67s107.37,47.67,131.9,52.07,116.24,15.45,141.32,32.57,148.21,42.78,192.92,53.6,273.09,73.76,284.6,84.18,88.39,49,88.39,49"/><path class="cls-4" d="M7508,393s149.32,178.19,270,192.62c19.48,2.33,125.58,16.71,159,21.55,19.95,2.89,70.34,15.77,97.47,29.16s107.35,48.95,131.88,53.35,117.77,12.3,142.85,29.41,146.7,44.66,191.41,55.47,273.09,73.76,284.6,84.18,88.39,49,88.39,49"/><path class="cls-4" d="M7515.81,395s155.45,178.66,276.26,187.72c19.75,1.48,134.55,16,161.27,19.83,20,2.84,71,17.26,98.1,30.65s107.33,50.23,131.85,54.63S8302.6,697,8327.67,714.1s145.19,46.53,189.9,57.34,273.09,73.76,284.6,84.18,88.39,49,88.39,49"/><path class="cls-4" d="M7523.58,397s161.55,179.06,282.56,182.83c20,0.62,143.52,15.34,163.55,18.11s71.6,18.75,98.73,32.14,107.3,51.51,131.83,55.91,120.84,6,145.92,23.11,143.68,48.4,188.39,59.21,273.09,73.76,284.6,84.18,88.39,49,88.39,49"/><path class="cls-4" d="M7548.93,402s48.2,48.67,105.81,93.32c53.5,41.14,122.27,80.47,181.42,84.45,18.82,1.27,87.92,9.92,129.15,14.88,15.28,1.84,28.37,3.64,35,4.68,20.64,3.24,71.47,18.8,99.37,31.82,13.62,6.36,37.68,17.49,61.55,28.1,27.74,12.33,57,24.56,71.07,27.65,8.79,1.92,25,3.5,43.47,5.26,36.47,3.45,84.71,9,102.63,20.14,6,3.73,15.44,7.79,26.31,11.92,41.69,15.83,130,39.82,163,47.79,41.52,10,275.08,75.64,285.77,85.32s89.4,47.9,89.4,47.9"/><path class="cls-4" d="M7574.27,406.94s52.24,48.77,108.32,90.68c52.55,39.27,123.12,76.4,183.56,82,23,2.14,91.55,11.42,129.6,16,14.1,1.7,27.3,3.67,35.07,5,21.26,3.63,71.35,18.81,100,31.5,14.7,6.51,38.88,17.3,62.11,27.52,27,11.89,56.24,24.26,71.3,28.08,9.36,2.36,25.51,4.37,43.39,6.34,35.33,3.87,83.75,10.4,102.89,21.34,6.85,3.92,16.52,7.9,26.55,11.71,38.48,14.61,133.21,41.14,163.61,48.49,38.33,9.27,277.07,77.52,286.94,86.45s90.4,46.83,90.4,46.83"/><path class="cls-4" d="M7599.61,411.91s56.38,48.76,110.84,88c51.69,37.29,124,72.6,185.71,79.59,27.26,3.08,95.17,12.93,130.05,17.13,12.93,1.56,26.23,3.69,35.19,5.32,21.89,4,71.25,18.79,100.65,31.18,15.78,6.65,40.09,17.1,62.68,26.93,26.35,11.46,55.53,24,71.53,28.5,9.92,2.8,26,5.24,43.32,7.42,34.19,4.28,82.82,11.75,103.16,22.55,7.7,4.09,17.59,8,26.79,11.5,35.27,13.4,136.39,42.46,164.26,49.2,35.13,8.49,279.06,79.39,288.1,87.58s91.41,45.77,91.41,45.77"/><path class="cls-4" d="M7625,416.88s60.53,48.73,113.36,85.42c50.84,35.3,124.78,69,187.85,77.16,31.48,4.08,98.79,14.43,130.51,18.25,11.75,1.42,25.17,3.7,35.3,5.64,22.52,4.31,71.16,18.76,101.28,30.86,16.87,6.78,41.29,16.9,63.25,26.34,25.65,11,54.81,23.66,71.75,28.93,10.48,3.24,26.46,6.11,43.24,8.51,33.05,4.69,81.92,13.07,103.42,23.76,8.56,4.25,18.67,8.12,27,11.3,32.07,12.18,139.57,43.78,164.9,49.91,31.94,7.72,281,81.27,289.27,88.71s92.41,44.71,92.41,44.71"/><path class="cls-4" d="M7650.3,421.85s64.69,48.69,115.87,82.78c50,33.3,125.59,65.45,190,74.72,35.69,5.14,102.42,15.94,131,19.38,10.58,1.27,24.11,3.71,35.41,6,23.15,4.63,71.08,18.7,101.92,30.54,18,6.9,42.5,16.7,63.81,25.76,25,10.58,54.09,23.36,72,29.36,11,3.69,26.94,7,43.16,9.59,31.92,5.1,81,14.37,103.68,25,9.42,4.41,19.74,8.23,27.27,11.09,28.86,11,142.75,45.1,165.55,50.61,28.74,7,283,83.15,290.44,89.85s93.42,43.64,93.42,43.64"/><path class="cls-4" d="M7675.64,426.82S7744.51,475.46,7794,507c49.17,31.29,126.39,62,192.14,72.29,39.89,6.24,106,17.45,131.41,20.5,9.4,1.13,23,3.7,35.52,6.29,23.78,4.93,71,18.62,102.56,30.22,19.07,7,43.7,16.51,64.38,25.17,24.26,10.15,53.38,23.06,72.21,29.78,11.61,4.13,27.42,7.84,43.09,10.67,30.78,5.51,80.14,15.64,103.94,26.17,10.28,4.55,20.82,8.34,27.5,10.88,25.65,9.74,145.93,46.42,166.19,51.32,25.55,6.18,285,85,291.61,91S9119,923.81,9119,923.81"/><path class="cls-4" d="M7701,431.79s73.06,48.56,120.91,77.51c48.36,29.26,127.17,58.61,194.28,69.86,44.08,7.39,109.67,19,131.87,21.62,8.23,1,22,3.69,35.63,6.61,24.42,5.22,70.94,18.53,103.2,29.9,20.17,7.11,44.91,16.31,64.95,24.59,23.56,9.71,52.66,22.76,72.43,30.21,12.17,4.57,27.9,8.71,43,11.75,29.64,5.92,79.26,16.9,104.2,27.37,11.15,4.68,21.89,8.45,27.74,10.67,22.45,8.53,149.1,47.73,166.84,52,22.36,5.41,287,86.9,292.77,92.11s95.43,41.51,95.43,41.51"/><path class="cls-4" d="M7726.33,436.76s77.27,48.47,123.42,74.88c47.56,27.22,127.95,55.25,196.43,67.43,48.26,8.59,113.29,20.46,132.32,22.75,7.05,0.85,20.92,3.68,35.74,6.93,25.06,5.5,70.87,18.42,103.84,29.58,21.27,7.2,46.11,16.11,65.52,24,22.86,9.28,51.94,22.46,72.66,30.64a305.23,305.23,0,0,0,42.94,12.84c28.5,6.33,78.38,18.14,104.47,28.58,12,4.81,23,8.56,28,10.46,19.24,7.31,152.28,49.05,167.48,52.73,19.16,4.63,289,88.78,293.94,93.24s96.43,40.45,96.43,40.45"/><path class="cls-4" d="M7751.67,441.73s81.49,48.35,125.94,72.25c46.78,25.15,128.71,51.92,198.57,65,52.44,9.82,116.92,22,132.77,23.87,5.88,0.71,19.86,3.66,35.85,7.26,25.7,5.78,70.81,18.3,104.48,29.26,22.38,7.28,47.32,15.91,66.08,23.41,22.16,8.84,51.23,22.16,72.88,31.06a323.76,323.76,0,0,0,42.86,13.92c27.37,6.75,77.51,19.37,104.73,29.79,12.89,4.93,24,8.66,28.22,10.25,16,6.09,155.46,50.37,168.13,53.43,16,3.86,291,90.65,295.11,94.38S9224.74,935,9224.74,935"/><path class="cls-4" d="M7777,446.7s85.73,48.21,128.46,69.61c46,23,129.47,48.6,200.72,62.57,56.6,11.09,120.54,23.47,133.23,25,4.7,0.57,18.81,3.63,36,7.58,26.34,6.06,70.75,18.17,105.12,28.94,23.49,7.35,48.52,15.72,66.65,22.83,21.47,8.4,50.51,21.86,73.11,31.49a353.92,353.92,0,0,0,42.78,15c26.23,7.16,76.64,20.6,105,31,13.77,5,25.11,8.77,28.46,10,12.83,4.87,158.64,51.69,168.78,54.14,12.78,3.09,293,92.53,296.28,95.51S9260,938.71,9260,938.71"/><path class="cls-4" d="M7802.36,451.68s90,48,131,67c45.25,20.92,130.21,45.31,202.86,60.14,60.75,12.4,124.17,25,133.68,26.12,3.53,0.42,17.75,3.6,36.08,7.9,27,6.33,70.7,18,105.75,28.61,24.6,7.42,49.73,15.52,67.22,22.24,20.77,8,49.8,21.56,73.34,31.91A401.42,401.42,0,0,0,8595,711.67c25.09,7.57,75.77,21.81,105.25,32.2,14.64,5.16,26.19,8.88,28.7,9.83,9.62,3.65,161.82,53,169.42,54.84,9.58,2.32,295,94.41,297.44,96.64s99.45,37.25,99.45,37.25"/><path class="cls-4" d="M7827.7,456.65s94.24,47.82,133.49,64.35c44.51,18.74,131,42,205,57.7,64.9,13.74,127.79,26.48,134.13,27.24,2.35,0.28,16.7,3.57,36.19,8.22,27.63,6.6,70.64,17.89,106.39,28.29,25.71,7.48,50.93,15.32,67.79,21.65,20.07,7.53,49.08,21.26,73.56,32.34,15,6.78,30.3,13,42.63,17.17,24,8,74.9,23,105.51,33.4,15.52,5.26,27.26,9,28.93,9.63,6.41,2.44,165,54.32,170.07,55.55,6.39,1.54,297,96.28,298.61,97.77s100.45,36.19,100.45,36.19"/><path class="cls-4" d="M7853,461.62s98.51,47.57,136,61.71c43.79,16.51,131.69,38.75,207.15,55.27,69,15.11,131.41,28,134.59,28.37,1.18,0.14,15.65,3.5,36.3,8.54,28.28,6.82,70.58,17.74,107,28,26.82,7.53,52.14,15.12,68.35,21.07,19.38,7.1,48.36,21,73.79,32.77,15.55,7.22,30.77,13.91,42.56,18.25,22.81,8.39,74,24.22,105.78,34.61,16.39,5.36,28.34,9.1,29.17,9.42,3.21,1.22,168.18,55.64,170.71,56.26,3.19,0.77,299,98.16,299.78,98.9s101.46,35.12,101.46,35.12"/><path class="cls-4" d="M7878.39,466.59s102.77,47.28,138.53,59.08c84,27.75,344.33,82.33,344.33,82.33s161.08,38.49,213,57c30.09,10.73,86.89,40.51,116.49,52.53,33.06,13.43,135.45,45,135.45,45L9401,953.61"/><path class="cls-4" d="M7932.63,476.9s99.58,44.8,136.7,56.81c25.56,8.29,65.45,18.83,108.07,29.46,101.4,25.4,227.18,52.24,230.18,53.06,1,0.28,13,3.16,30.5,7.45C8484,635,8582,660.45,8616.92,672.91c27.94,10,87.36,39.85,114.85,51,30.7,12.47,133.23,44.3,133.23,44.3l565.34,188"/><path class="cls-4" d="M7986.87,487.22s96.38,42.32,134.86,54.53c26.19,8.34,65.51,18.82,106.19,29.27,97.17,25.12,220,51.82,226,53.45,2.09,0.57,13.87,3.41,30,7.36,42.38,10.41,143.45,37.49,175.69,49,25.79,9.2,87.83,39.19,113.2,49.49,28.34,11.51,131,43.58,131,43.58l555.91,184.93"/><path class="cls-4" d="M8041.11,497.53s93.18,39.84,133,52.26c26.81,8.4,65.57,18.82,104.3,29.07,92.94,24.84,212.8,51.39,221.8,53.83,3.14,0.85,14.7,3.65,29.47,7.28,38.85,9.54,143,38.21,172.55,48.75,23.64,8.43,88.3,38.53,111.55,48,26,10.55,128.79,42.86,128.79,42.86l546.49,181.87"/><path class="cls-4" d="M8095.35,507.85s90,37.36,131.2,50c27.44,8.45,65.63,18.81,102.41,28.87,88.71,24.56,205.61,51,217.61,54.22,4.18,1.14,15.53,3.89,29,7.19,35.31,8.68,142.53,38.94,169.4,48.52,21.49,7.66,88.76,37.87,109.91,46.45,23.62,9.59,126.57,42.14,126.57,42.14L9518.47,964"/><path class="cls-4" d="M8149.59,518.16S8236.37,553,8279,565.87c28.06,8.5,65.69,18.81,100.52,28.67,84.48,24.28,198.41,50.53,213.42,54.61,5.23,1.42,16.35,4.13,28.44,7.1,31.78,7.81,142.08,39.66,166.26,48.28,19.34,6.9,89.23,37.21,108.26,44.93,21.25,8.63,124.35,41.42,124.35,41.42l527.64,175.74"/><path class="cls-4" d="M8203.83,528.48s83.58,32.41,127.54,45.44c28.69,8.56,65.77,18.72,98.63,28.47,80.31,23.82,191.22,50.11,209.23,55,6.28,1.71,17.18,4.38,27.92,7,28.25,6.94,141.62,40.38,163.11,48,17.19,6.13,89.7,36.55,106.61,43.42,18.89,7.67,122.13,40.7,122.13,40.7l518.21,172.68"/><path class="cls-4" d="M8258.07,538.79s80.38,29.93,125.71,43.16c29.31,8.61,65.84,18.71,96.74,28.27,76.08,23.53,184,49.68,205,55.39,7.32,2,18,4.62,27.41,6.93,24.72,6.07,141.16,41.1,160,47.81,15,5.37,90.17,35.89,105,41.9,16.53,6.71,119.92,40,119.92,40l508.79,169.61"/><path class="cls-4" d="M8312.31,549.11s77.18,27.45,123.88,40.89c29.94,8.67,65.9,18.71,94.86,28.07,71.86,23.24,176.84,49.25,200.85,55.78,8.37,2.27,18.83,4.86,26.89,6.84,21.19,5.21,140.7,41.83,156.82,47.58,12.9,4.6,90.63,35.23,103.32,40.38,14.17,5.75,117.7,39.25,117.7,39.25L9636,974.45"/><path class="cls-4" d="M8366.55,559.42s74,25,122,38.61c30.56,8.72,66,18.7,93,27.87,67.63,23,169.65,48.82,196.66,56.16,9.42,2.56,19.66,5.11,26.37,6.76,17.66,4.34,140.24,42.55,153.68,47.34C8969,740,9049.39,770.74,9060,775c11.81,4.79,115.48,38.53,115.48,38.53l489.94,163.49"/><path class="cls-4" d="M8420.79,569.74s70.78,22.5,120.22,36.34c31.19,8.77,66,18.7,91.08,27.68,63.4,22.7,162.46,48.4,192.47,56.55,10.46,2.84,20.49,5.35,25.86,6.67,14.13,3.47,139.79,43.27,150.54,47.1,8.6,3.07,91.57,33.91,100,37.34,9.45,3.84,113.26,37.81,113.26,37.81l480.51,160.42"/><path class="cls-4" d="M8475,580.05s67.58,20,118.39,34.07c31.81,8.83,66.08,18.71,89.19,27.48,59.16,22.44,155.27,48,188.28,56.94,11.51,3.13,21.31,5.59,25.34,6.58,10.59,2.6,139.33,44,147.39,46.87,6.45,2.3,92,33.25,98.38,35.82,7.08,2.88,111,37.09,111,37.09l471.09,157.36"/><path class="cls-4" d="M8529.27,590.37s64.38,17.54,116.56,31.79c32.44,8.88,66.13,18.72,87.3,27.28,54.92,22.2,148.07,47.54,184.09,57.33,12.55,3.41,22.14,5.84,24.83,6.5,7.06,1.74,138.87,44.72,144.25,46.63,4.3,1.53,92.5,32.59,96.73,34.3,4.72,1.92,108.82,36.37,108.82,36.37l461.66,154.3"/><path class="cls-4" d="M8583.51,600.68s61.18,15.06,114.73,29.52c33.06,8.94,66.17,18.77,85.41,27.08,50.63,22.06,140.88,47.11,179.9,57.72,13.6,3.7,23,6.08,24.31,6.41,3.53,0.87,138.41,45.44,141.1,46.4,2.15,0.77,93,31.93,95.09,32.78,2.36,1,106.6,35.65,106.6,35.65l452.24,151.23"/><path class="cls-4" d="M8637.75,611s150.93,32.77,196.42,54.12c62.58,29.38,199.51,64.43,199.51,64.43l778.59,260.53"/><path class="cls-4" d="M8673.29,617.55s147.51,31.87,189.76,51.7c58.11,27.28,192.84,61.32,192.84,61.32l752.62,247.74"/><path class="cls-4" d="M8708.82,624.09s144.1,31,183.09,49.29c53.64,25.18,186.17,58.2,186.17,58.2l726.66,235"/><path class="cls-4" d="M8744.36,630.64S8885,660.72,8920.79,677.5c49.17,23.08,179.5,55.09,179.5,55.09L9801,954.77"/><path class="cls-4" d="M8779.89,637.18s137.27,29.19,169.77,44.45c44.7,21,172.84,52,172.84,52L9797.21,943"/><path class="cls-4" d="M8815.43,643.73s133.86,28.3,163.1,42c40.23,18.88,166.17,48.87,166.17,48.87l648.75,196.6"/><path class="cls-4" d="M8851,650.27s130.44,27.41,156.44,39.61c35.76,16.79,159.5,45.75,159.5,45.75l622.79,183.82"/><path class="cls-4" d="M8886.5,656.82s127,26.51,149.78,37.19c31.29,14.69,152.83,42.64,152.83,42.64l596.82,171"/><path class="cls-4" d="M8922,663.37s123.61,25.62,143.11,34.77c26.82,12.59,146.16,39.53,146.16,39.53l570.85,158.25"/><path class="cls-4" d="M8957.57,669.91s120.2,24.73,136.45,32.35c22.35,10.49,139.49,36.42,139.49,36.42l544.88,145.46"/><path class="cls-4" d="M8993.1,676.46s116.79,23.83,129.78,29.94c17.88,8.39,132.83,33.3,132.83,33.3l518.92,132.68"/><path class="cls-4" d="M9028.64,683s113.37,22.94,123.12,27.52c13.41,6.29,126.16,30.19,126.16,30.19L9770.86,860.6"/><path class="cls-4" d="M9064.17,689.55s110,22,116.46,25.1c8.94,4.2,119.49,27.08,119.49,27.08l467,107.11"/><path class="cls-4" d="M9099.71,696.09s106.54,21.15,109.79,22.68c4.47,2.1,112.82,24,112.82,24l441,94.32"/><line class="cls-4" x1="9135.24" y1="702.64" x2="9759.57" y2="825.29"/><path class="cls-5" d="M7484.38,835.57s-187-515.48-492.13-600.57c-83.18-23.2-232.34,28.35-296.84,41.85-69.56,14.56-105.43-16.06-162.74-18-95-3.22-188.24,32.25-342.42,76.65-54.49,15.69-306.7,140.5-306.7,140.5s305.45-40.95,408-44C6500.45,425.78,7484.38,835.57,7484.38,835.57Z"/><path class="cls-6" d="M8314.75,548.4s-4.9,162.3,139.1,351.2,419.6,46.2,345,3c-285-165-317.3-322-317.3-322Z"/></svg>