<svg id="object-near" xmlns="http://www.w3.org/2000/svg" viewBox="0 0 16356.98 800">
  <defs>
    <style>
      .cls-1 {
        fill: #bfaf9b;
      }

      .cls-2 {
        fill: #ffe7c9;
      }

      .cls-3 {
        fill: #806664;
      }

      .cls-4 {
        opacity: 0.5;
      }
    </style>
  </defs>
  <title>layer9</title>
  <g>
    <g>
      <path class="cls-1" d="M4160.15,341.1s20.6,25.8,19.9,37,6.3-.8,6.3-0.8l0.6-8.8C4186.85,368.6,4188.15,357.4,4160.15,341.1Z"/>
      <polygon class="cls-2" points="4181.95 382.6 4179.15 385.3 4178.55 386.2 4176.45 386.8 4176.15 386.3 4177.85 385.4 4181.25 382.5 4181.95 382.6"/>
      <polygon class="cls-2" points="4178.15 383.5 4176.65 385.2 4175.45 385.6 4174.85 386.3 4174.05 386.1 4174.75 385 4176.25 385 4177.35 383.1 4178.15 382.9 4178.15 383.5"/>
      <path class="cls-3" d="M4193.55,350.4s-5.3,24.6-9.8,26.1-8,4.1-9.8,3.4-3.9-1.8-3.9-1.8-2,6.5,1.1,5.8,4,0.1,4,.1a47.3,47.3,0,0,1,6.8-1.1c2,0,12.3-2.9,14.8-3.1a39.59,39.59,0,0,1,6.4.3s-1.4-2-2.5-2-0.6-1-1.5-1.6-3.6.4-4.6-1.6,0.5-6.1,3.1-8.3a8.29,8.29,0,0,0,2.9-8.9c-0.9-3.9-5.6-7.4-6.1-8.9S4193.55,350.4,4193.55,350.4Z"/>
    </g>
    <g class="cls-4">
      <path class="cls-2" d="M4159.15,626.6s20.6-20,19.9-28.7,6.3,0.6,6.3.6l0.6,6.8C4185.85,605.3,4187.15,614,4159.15,626.6Z"/>
      <polygon class="cls-2" points="4180.95 594.4 4178.15 592.4 4177.55 591.7 4175.45 591.3 4175.15 591.6 4176.85 592.3 4180.25 594.5 4180.95 594.4"/>
      <polygon class="cls-2" points="4177.15 593.7 4175.65 592.5 4174.45 592.1 4173.85 591.6 4173.05 591.9 4173.75 593 4175.25 593 4176.35 594.3 4177.15 594.4 4177.15 593.7"/>
      <path class="cls-3" d="M4192.55,619.5s-5.3-19.1-9.8-20.3-8-3.2-9.8-2.6-3.9,1.4-3.9,1.4-2-5,1.1-4.5,4-.1,4-0.1a57,57,0,0,0,6.8.9c2,0,12.3,2.2,14.8,2.4s2.3,1.1,3.1.7a25,25,0,0,1,3.3-.9s-1.4,1.6-2.5,1.6-0.6.8-1.5,1.3-3.6-.3-4.6,1.3,0.5,4.7,3.1,6.4,3.8,3.9,2.9,6.9-5.6,5.7-6.1,6.9S4192.55,619.5,4192.55,619.5Z"/>
    </g>
  </g>
</svg>
