<svg id="objects-far" xmlns="http://www.w3.org/2000/svg" xmlns:xlink="http://www.w3.org/1999/xlink" viewBox="0 0 16356.98 800">
  <defs>
    <style>
      .cls-1 {
        fill: url(#linear-gradient);
      }

      .cls-2 {
        fill: #fffdfb;
      }

      .cls-3 {
        fill: #ffe9ce;
      }

      .cls-4 {
        fill: url(#linear-gradient-2);
      }

      .cls-5 {
        fill: #fff5e8;
      }

      .cls-6 {
        fill: #1f585c;
      }

      .cls-7 {
        fill: #fff;
        opacity: 0.04;
        isolation: isolate;
      }

      .cls-8 {
        fill: #c28283;
      }

      .cls-9 {
        fill: #3e414d;
      }

      .cls-10 {
        fill: #70727b;
      }

      .cls-11 {
        fill: #d5a9a9;
      }

      .cls-12 {
        fill: #c78c8d;
      }

      .cls-13 {
        fill: #2c303d;
      }

      .cls-14, .cls-15, .cls-16, .cls-17 {
        fill: none;
        stroke-miterlimit: 10;
      }

      .cls-14 {
        stroke: #4a4c58;
      }

      .cls-14, .cls-16 {
        stroke-width: 9px;
      }

      .cls-15 {
        stroke: #4d505b;
        stroke-width: 7px;
      }

      .cls-16 {
        stroke: #3e414d;
      }

      .cls-17 {
        stroke: #d5a9a9;
        stroke-width: 5px;
      }
    </style>
    <linearGradient id="linear-gradient" x1="4371.21" y1="1005.9" x2="4537.83" y2="337.65" gradientUnits="userSpaceOnUse">
      <stop offset="0" stop-color="#fff5e8" stop-opacity="0"/>
      <stop offset="0.42" stop-color="#fff5e8" stop-opacity="0.93"/>
      <stop offset="0.45" stop-color="#fff5e8"/>
      <stop offset="0.68" stop-color="#fff4e5"/>
      <stop offset="0.87" stop-color="#ffefdb"/>
      <stop offset="1" stop-color="#ffeacf"/>
    </linearGradient>
    <linearGradient id="linear-gradient-2" x1="4587" y1="2020.67" x2="4596.25" y2="1888.49" gradientTransform="translate(248.11 -2131.1) rotate(9.21)" gradientUnits="userSpaceOnUse">
      <stop offset="0" stop-color="#fff"/>
      <stop offset="0.49" stop-color="#fff5e8" stop-opacity="0"/>
    </linearGradient>
  </defs>
  <title>layer7</title>
  <g>
    <path class="cls-1" d="M3685.81,354.81c226.5-2.7,342.8-32.7,542.7-31.2,197.8,1.5,630.2-26.2,860.7,10.7,179,7.5,479,465.69,479,465.69l-366-4.69s-1313.63,58.58-1658-171c-114-76-208.14-170-164-217C3441.21,342.31,3612.21,355.71,3685.81,354.81Z"/>
    <path class="cls-2" d="M4475.21,380.31c-145.4,14.8-198.4-31.6-197.7-28.7,13.2,53.9,127.1,49,155.7,46.7C4472.31,395.11,4476.61,380.21,4475.21,380.31Z"/>
    <path class="cls-2" d="M4925.21,482.31c-161,51-198.6-31.5-197.7-28.7,26.7,83.7,127.1,49,155.7,46.7C4922.31,497.11,4926.61,481.91,4925.21,482.31Z"/>
    <path class="cls-3" d="M4848.51,324.11s-13.7-25-15.6-26.5-10.2,2.9-10.2,2.9l-11.8-2.9-6.9-16.8-21.6,8.5-5.3-6-12.8,11.9-9.5-7.7-14.9-11.6-17.4,5.9-12-.1-27.3-1.1-17.4,5.2-11.3,4.2-11.5-2.2-24,14-14.2-7.3-23.2-2.9-15,10.4-5-5.3-20.8,13.6-19.6,13.6S4773.71,339,4848.51,324.11Z"/>
    <path class="cls-2" d="M4066.21,363.61s-26.5,4.7-67.3,2c-23.6-1.5-58.7-14-67.3-7.3s-41.3,3.3-45.3,8.7-16.7,8-16.7,8,37.3-2.7,43.3-1.3S4029.51,383.61,4066.21,363.61Z"/>
    <path class="cls-4" d="M5115.51,700.51s-446.3-63-533.4-78.7-555.4-113.5-558-143.9c-1-12.3-209.7-34-219.2-50.8s3.2-48.1,124.7-28.4c0,0-80.5,11.6,168.9,42.6,120.6,15,1040.7,181.7,1040.7,181.7Z"/>
    <path class="cls-2" d="M4348.31,467.61c-1.4-.2,208.5,36.2,261-1.5,32-23,103.7-13.4,101.3-14.4C4655.21,428.31,4434.31,477.61,4348.31,467.61Z"/>
    <path class="cls-2" d="M4949.11,384.31c-53.7-18.6-157.1-4.7-186.2,3-87.1,23-114.1-10-115.1-9.7-74,21.7-155.1-3.3-155.1-3.3,37.8,35.4,80.4,46.7,124,47,79.5,0.4,161.9-28.5,224.3-31,99.1-4,172.7,32,177.2,32A240,240,0,0,0,4949.11,384.31Z"/>
    <path class="cls-5" d="M4974.91,321.61c-6.1,0-24-2-24-2s-14.9,0-21,1.7c-3.9,1.1-115.3,1-143.7-7s-64.9-15.9-77.1-11.9-22.3,13.9-22.3,13.9l-4.3,5.3c-13.2.9-33.5,1.4-41,.7-10.5-1-8.5.7-15.9,2s-75.1,1-86.2,1-23.3-2.3-27-3.7-11.2,5-11.2,5c-4.7,6.3.7,8.6,9.5,11.9s53.4,1,68.6.7,58.2-8,68.3-9.6,20.3,4.3,30.8,4a47,47,0,0,0,5.1-.6c4.9,4.8,14.2,9.7,30.7,6.2,6.5-1.4,14.7-2.7,23.7-3.9,2,1.5,5.2,2.8,9.1,4.2,8.8,3.3,53.4,1,68.6.7s58.2-8,68.3-9.6,20.3,4.3,30.8,4,24-7,31.1-9.3,19.9-.7,25,0.7,22.7-5.3,22.7-5.3S4981,321.61,4974.91,321.61Z"/>
  </g>
  <path class="cls-6" d="M11977.44-84.64c-20,4-45,45-139.25,73.25-15.9,1.7-121.94,41.69-141.54,136-11.8,56.8-56.9,64-56.9,64s-93.95,14.2-91,16c-19.14,73.06-60.43,115.4-60.43,115.4L11415,363l-142.6,170.6,1002.9,12.5s-44.25-42.15-68.5-65.6c-45.5-44-94.93-94-158.5-266.5C11999.25,81,11986.46-86.4,11977.44-84.64Z"/>
  <path class="cls-7" d="M12179.25,545.25c0,6.68-363.9-3.5-363.9.61s297.86,7.43,297.86,12.63-484.46,3.32-484.46,11.14,491.46,4.85,491.46,11.88-653.36,1.14-653.36,10.4,653.36,1.09,653.36,10.4-780.16,4.11-780.16,11.14,797.76,4.11,797.76,11.14-956.16,5.2-956.16,11.88,959.66,2.23,959.66,11.88-1093.46,1.49-1093.46,8.17,822.4,6.68,1099.4,6.68c16.79,0,66.27-19.24,78.29-38,23.38-36.41,72.13-79.16,72.13-79.16Z"/>
  <g>
    <path class="cls-8" d="M12109.84,351.73s-5.62,15.83-16.87,26.19l11.41,17.88s13.28-14.82,14.44-26.07Z"/>
    <path class="cls-9" d="M12146.79,413.7l-3.26,26.89s-2-15.27-15.91-6.11l8.55-36Z"/>
    <path class="cls-10" d="M12195.77,476.84l-5.46,16.12s20.38,9.39,7.42,30.1c0,0,10.36-13.41,14.19-28.3Z"/>
    <path class="cls-11" d="M12162.53,440l-5.14,33s8.3-2.3,12.29,3.52c0,0,6.68-8.76,7.19-19.77Z"/>
    <path class="cls-12" d="M12228.57,505.13s6.51,20.74,2.82,38.66c-1.92,9.34,7-6.08,13.15,1.68,2.64,3.35,5.87-20.4,5.87-20.4Z"/>
    <path class="cls-10" d="M12081.31,295.82s-7.44,29.35-14.15,35.29,8.91,5.45,14.12,5.76,9.64,9.24,9.64,9.24L12096,324S12088.1,310.46,12081.31,295.82Z"/>
    <path class="cls-9" d="M12264.93,534.76s6.95,11,7.57,17.61-5.23,21.26,1,25.82c0,0,9.13-6.5,16-3.48L12292,555S12279.26,540.9,12264.93,534.76Z"/>
    <path class="cls-13" d="M12517.76,751.3s6.87,40.25-74.55,65.54c-53.46,16.53-111.78,29.25-172.08,28.25-31.65-.59-50.6,1.1-68.82,1-18.62-.13-89.16-9.32-54.75-33.86,27-19.24,47.34-9.77,81.88-21.61,32.07-11,43.89-18,81.62-27.9C12359.57,750,12427.45,743.13,12517.76,751.3Z"/>
    <line class="cls-14" x1="12441.87" y1="573.33" x2="12461.66" y2="777.98"/>
    <line class="cls-14" x1="12470.92" y1="605.83" x2="12453.92" y2="631.83"/>
    <line class="cls-14" x1="12476.58" y1="620.83" x2="12459.58" y2="646.83"/>
    <line class="cls-14" x1="12482.25" y1="635.83" x2="12465.25" y2="661.83"/>
    <line class="cls-14" x1="12487.92" y1="650.83" x2="12470.92" y2="676.83"/>
    <line class="cls-14" x1="12493.58" y1="665.83" x2="12476.58" y2="691.83"/>
    <line class="cls-14" x1="12499.25" y1="680.83" x2="12482.25" y2="706.83"/>
    <line class="cls-14" x1="12504.92" y1="695.83" x2="12487.92" y2="721.83"/>
    <line class="cls-14" x1="12510.58" y1="710.83" x2="12493.58" y2="736.83"/>
    <line class="cls-14" x1="12516.25" y1="725.83" x2="12499.25" y2="751.83"/>
    <path class="cls-9" d="M12389.61,578.82s-0.94,7,8,19.44c4,5.56-.8,14.28-0.8,14.28s-20.07-5.87-22-11c-5.84-15.5-5-28.07-5-28.07Z"/>
    <path class="cls-10" d="M12311.81,560.22s15.12,27.3,13.75,36.23,11.62-1.47,16.22-4.59,15,0.94,15,.94l-11.85-20.28C12345,572.43,12328.31,567.07,12311.81,560.22Z"/>
    <path class="cls-15" d="M12436.58,579.5S12119,639.18,11992.42,0"/>
    <line class="cls-16" x1="12441.58" y1="568.5" x2="12513.08" y2="760.17"/>
    <polygon class="cls-9" points="12437.58 570.5 12386.25 767.33 12420.75 781 12483.58 779.83 12509.92 756 12450.75 590.5 12437.58 570.5"/>
    <line class="cls-16" x1="12452.74" y1="599.67" x2="12482.25" y2="782.17"/>
    <line class="cls-16" x1="12468.05" y1="577.75" x2="12413.75" y2="694.33"/>
    <line class="cls-17" x1="12452.75" y1="615" x2="12503.75" y2="756"/>
    <line class="cls-17" x1="12447.75" y1="637" x2="12493.42" y2="764.67"/>
    <line class="cls-17" x1="12443.25" y1="661" x2="12484.25" y2="773.83"/>
    <line class="cls-17" x1="12438.75" y1="685" x2="12471.75" y2="773.83"/>
    <line class="cls-17" x1="12436.25" y1="710.5" x2="12459.25" y2="775.5"/>
    <line class="cls-17" x1="12431.25" y1="730.5" x2="12447.08" y2="775.5"/>
    <line class="cls-14" x1="12459.39" y1="568.72" x2="12420.58" y2="782.33"/>
  </g>
  <path class="cls-6" d="M10599.25,256c-82.6-150.34-209.3-254.37-320.48-265.5V381.59s-6.75,70.75,40.5,110.5c92.51,77.82,443,41.74,443,41.74S10628.18,308.66,10599.25,256Z"/>
</svg>
